<?xml version="1.0" encoding="UTF-8" standalone="no"?>
<!DOCTYPE svg PUBLIC "-//W3C//DTD SVG 1.1//EN"
 "http://www.w3.org/Graphics/SVG/1.1/DTD/svg11.dtd">
<!-- Generated by graphviz version 2.43.0 (0)
 -->
<!-- Title: classes Pages: 1 -->
<svg width="1299pt" height="79pt"
 viewBox="0.00 0.00 1299.00 79.00" xmlns="http://www.w3.org/2000/svg" xmlns:xlink="http://www.w3.org/1999/xlink">
<g id="graph0" class="graph" transform="scale(1 1) rotate(0) translate(4 75)">
<title>classes</title>
<polygon fill="white" stroke="transparent" points="-4,4 -4,-75 1295,-75 1295,4 -4,4"/>
<!-- pytest_cache_assert._check_assert.key_rules.Comparator -->
<g id="node1" class="node">
<title>pytest_cache_assert._check_assert.key_rules.Comparator</title>
<polygon fill="none" stroke="black" points="0,-1 0,-70 102,-70 102,-1 0,-1"/>
<text text-anchor="middle" x="51" y="-54.8" font-family="Times,serif" font-size="14.00">Comparator</text>
<polyline fill="none" stroke="black" points="0,-47 102,-47 "/>
<text text-anchor="start" x="8" y="-31.8" font-family="Times,serif" font-size="14.00">name</text>
<polyline fill="none" stroke="black" points="0,-24 102,-24 "/>
<text text-anchor="middle" x="51" y="-8.8" font-family="Times,serif" font-size="14.00"> </text>
</g>
<!-- pytest_cache_assert._check_assert.differ.DictDiff -->
<g id="node2" class="node">
<title>pytest_cache_assert._check_assert.differ.DictDiff</title>
<polygon fill="none" stroke="black" points="120.5,-1 120.5,-70 329.5,-70 329.5,-1 120.5,-1"/>
<text text-anchor="middle" x="225" y="-54.8" font-family="Times,serif" font-size="14.00">DictDiff</text>
<polyline fill="none" stroke="black" points="120.5,-47 329.5,-47 "/>
<text text-anchor="start" x="128.5" y="-31.8" font-family="Times,serif" font-size="14.00">raw_data : _SpecialForm</text>
<polyline fill="none" stroke="black" points="120.5,-24 329.5,-24 "/>
<text text-anchor="start" x="128.5" y="-8.8" font-family="Times,serif" font-size="14.00">get_diff_result(): DiffResult</text>
</g>
<!-- pytest_cache_assert._check_assert.differ.DiffResult -->
<g id="node3" class="node">
<title>pytest_cache_assert._check_assert.differ.DiffResult</title>
<polygon fill="none" stroke="black" points="348,-0.5 348,-70.5 802,-70.5 802,-0.5 348,-0.5"/>
<text text-anchor="middle" x="575" y="-55.3" font-family="Times,serif" font-size="14.00">DiffResult</text>
<polyline fill="none" stroke="black" points="348,-47.5 802,-47.5 "/>
<polyline fill="none" stroke="black" points="348,-23.5 802,-23.5 "/>
<text text-anchor="start" x="356" y="-8.3" font-family="Times,serif" font-size="14.00">match_key_pattern(pattern: List[Union[str, Wildcards]]): bool</text>
</g>
<!-- pytest_cache_assert._check_assert.key_rules.KeyRule -->
<g id="node4" class="node">
<title>pytest_cache_assert._check_assert.key_rules.KeyRule</title>
<polygon fill="none" stroke="black" points="820.5,-0.5 820.5,-70.5 895.5,-70.5 895.5,-0.5 820.5,-0.5"/>
<text text-anchor="middle" x="858" y="-55.3" font-family="Times,serif" font-size="14.00">KeyRule</text>
<polyline fill="none" stroke="black" points="820.5,-47.5 895.5,-47.5 "/>
<polyline fill="none" stroke="black" points="820.5,-23.5 895.5,-23.5 "/>
<text text-anchor="middle" x="858" y="-8.3" font-family="Times,serif" font-size="14.00"> </text>
</g>
<!-- pytest_cache_assert._check_assert.error_message.RichAssertionError -->
<g id="node5" class="node">
<title>pytest_cache_assert._check_assert.error_message.RichAssertionError</title>
<polygon fill="none" stroke="black" points="913.5,-1 913.5,-70 1086.5,-70 1086.5,-1 913.5,-1"/>
<text text-anchor="middle" x="1000" y="-54.8" font-family="Times,serif" font-size="14.00" fill="red">RichAssertionError</text>
<polyline fill="none" stroke="black" points="913.5,-47 1086.5,-47 "/>
<text text-anchor="start" x="921.5" y="-31.8" font-family="Times,serif" font-size="14.00" fill="red">error_info : NoneType</text>
<polyline fill="none" stroke="black" points="913.5,-24 1086.5,-24 "/>
<text text-anchor="middle" x="1000" y="-8.8" font-family="Times,serif" font-size="14.00" fill="red"> </text>
</g>
<!-- pytest_cache_assert._check_assert.constants.TrueNull -->
<g id="node6" class="node">
<title>pytest_cache_assert._check_assert.constants.TrueNull</title>
<polygon fill="none" stroke="black" points="1105,-0.5 1105,-70.5 1185,-70.5 1185,-0.5 1105,-0.5"/>
<text text-anchor="middle" x="1145" y="-55.3" font-family="Times,serif" font-size="14.00">TrueNull</text>
<polyline fill="none" stroke="black" points="1105,-47.5 1185,-47.5 "/>
<polyline fill="none" stroke="black" points="1105,-23.5 1185,-23.5 "/>
<text text-anchor="middle" x="1145" y="-8.3" font-family="Times,serif" font-size="14.00"> </text>
</g>
<!-- pytest_cache_assert._check_assert.constants.Wildcards -->
<g id="node7" class="node">
<title>pytest_cache_assert._check_assert.constants.Wildcards</title>
<polygon fill="none" stroke="black" points="1203,-1 1203,-70 1291,-70 1291,-1 1203,-1"/>
<text text-anchor="middle" x="1247" y="-54.8" font-family="Times,serif" font-size="14.00">Wildcards</text>
<polyline fill="none" stroke="black" points="1203,-47 1291,-47 "/>
<text text-anchor="start" x="1211" y="-31.8" font-family="Times,serif" font-size="14.00">name</text>
<polyline fill="none" stroke="black" points="1203,-24 1291,-24 "/>
<text text-anchor="middle" x="1247" y="-8.8" font-family="Times,serif" font-size="14.00"> </text>
</g>
</g>
</svg>
