<?xml version="1.0" encoding="UTF-8" standalone="no"?>
<!DOCTYPE svg PUBLIC "-//W3C//DTD SVG 1.1//EN"
 "http://www.w3.org/Graphics/SVG/1.1/DTD/svg11.dtd">
<!-- Generated by graphviz version 2.43.0 (0)
 -->
<!-- Title: classes Pages: 1 -->
<svg width="5779pt" height="472pt"
 viewBox="0.00 0.00 5778.50 472.00" xmlns="http://www.w3.org/2000/svg" xmlns:xlink="http://www.w3.org/1999/xlink">
<g id="graph0" class="graph" transform="scale(1 1) rotate(0) translate(4 468)">
<title>classes</title>
<polygon fill="white" stroke="transparent" points="-4,4 -4,-468 5774.5,-468 5774.5,4 -4,4"/>
<!-- pytest_cache_assert._check_assert.assert_config.AssertConfig -->
<g id="node1" class="node">
<title>pytest_cache_assert._check_assert.assert_config.AssertConfig</title>
<polygon fill="none" stroke="black" points="342.5,-334.5 342.5,-463.5 558.5,-463.5 558.5,-334.5 342.5,-334.5"/>
<text text-anchor="middle" x="450.5" y="-448.3" font-family="Times,serif" font-size="14.00">AssertConfig</text>
<polyline fill="none" stroke="black" points="342.5,-440.5 558.5,-440.5 "/>
<text text-anchor="start" x="350.5" y="-425.3" font-family="Times,serif" font-size="14.00">always_write : bool</text>
<text text-anchor="start" x="350.5" y="-410.3" font-family="Times,serif" font-size="14.00">cache_dir_rel_path : str</text>
<text text-anchor="start" x="350.5" y="-395.3" font-family="Times,serif" font-size="14.00">cache_store</text>
<text text-anchor="start" x="350.5" y="-380.3" font-family="Times,serif" font-size="14.00">converters : List[Converter]</text>
<text text-anchor="start" x="350.5" y="-365.3" font-family="Times,serif" font-size="14.00">validator</text>
<polyline fill="none" stroke="black" points="342.5,-357.5 558.5,-357.5 "/>
<text text-anchor="middle" x="450.5" y="-342.3" font-family="Times,serif" font-size="14.00"> </text>
</g>
<!-- pytest_cache_assert._check_assert.config.CacheAssertContainerKeys -->
<g id="node2" class="node">
<title>pytest_cache_assert._check_assert.config.CacheAssertContainerKeys</title>
<polygon fill="none" stroke="black" points="805.5,-53 805.5,-122 1015.5,-122 1015.5,-53 805.5,-53"/>
<text text-anchor="middle" x="910.5" y="-106.8" font-family="Times,serif" font-size="14.00">CacheAssertContainerKeys</text>
<polyline fill="none" stroke="black" points="805.5,-99 1015.5,-99 "/>
<text text-anchor="start" x="813.5" y="-83.8" font-family="Times,serif" font-size="14.00">name</text>
<polyline fill="none" stroke="black" points="805.5,-76 1015.5,-76 "/>
<text text-anchor="middle" x="910.5" y="-60.8" font-family="Times,serif" font-size="14.00"> </text>
</g>
<!-- pytest_cache_assert._check_assert.cache_store.CacheStore -->
<g id="node3" class="node">
<title>pytest_cache_assert._check_assert.cache_store.CacheStore</title>
<polygon fill="none" stroke="black" points="1034,-30 1034,-145 1663,-145 1663,-30 1034,-30"/>
<text text-anchor="middle" x="1348.5" y="-129.8" font-family="Times,serif" font-size="14.00">CacheStore</text>
<polyline fill="none" stroke="black" points="1034,-122 1663,-122 "/>
<polyline fill="none" stroke="black" points="1034,-98 1663,-98 "/>
<text text-anchor="start" x="1042" y="-82.8" font-family="Times,serif" font-size="14.00">initialize(path_cache_dir: Optional[Path], converters: Optional[List[Converter]]): None</text>
<text text-anchor="start" x="1042" y="-67.8" font-family="Times,serif" font-size="14.00">read_cached_data(path_cache_file: Path): Any</text>
<text text-anchor="start" x="1042" y="-52.8" font-family="Times,serif" font-size="14.00">serialize(data: Any): Any</text>
<text text-anchor="start" x="1042" y="-37.8" font-family="Times,serif" font-size="14.00">write(path_cache_file: Path): None</text>
</g>
<!-- pytest_cache_assert._check_assert.cache_store.CacheStoreType -->
<g id="node4" class="node">
<title>pytest_cache_assert._check_assert.cache_store.CacheStoreType</title>
<polygon fill="none" stroke="black" points="312.5,-212.5 312.5,-282.5 446.5,-282.5 446.5,-212.5 312.5,-212.5"/>
<text text-anchor="middle" x="379.5" y="-267.3" font-family="Times,serif" font-size="14.00">CacheStoreType</text>
<polyline fill="none" stroke="black" points="312.5,-259.5 446.5,-259.5 "/>
<polyline fill="none" stroke="black" points="312.5,-235.5 446.5,-235.5 "/>
<text text-anchor="middle" x="379.5" y="-220.3" font-family="Times,serif" font-size="14.00"> </text>
</g>
<!-- pytest_cache_assert._check_assert.cache_store.CacheStoreType&#45;&gt;pytest_cache_assert._check_assert.assert_config.AssertConfig -->
<g id="edge3" class="edge">
<title>pytest_cache_assert._check_assert.cache_store.CacheStoreType&#45;&gt;pytest_cache_assert._check_assert.assert_config.AssertConfig</title>
<path fill="none" stroke="black" d="M395.79,-282.8C401.6,-295.03 408.38,-309.32 415.17,-323.6"/>
<polygon fill="black" stroke="black" points="415.18,-323.64 421.37,-327.34 420.33,-334.48 414.15,-330.77 415.18,-323.64"/>
<text text-anchor="middle" x="454" y="-304.8" font-family="Times,serif" font-size="14.00" fill="green">cache_store</text>
</g>
<!-- pytest_cache_assert._check_assert.key_rules.Comparator -->
<g id="node5" class="node">
<title>pytest_cache_assert._check_assert.key_rules.Comparator</title>
<polygon fill="none" stroke="black" points="1681.5,-53 1681.5,-122 1783.5,-122 1783.5,-53 1681.5,-53"/>
<text text-anchor="middle" x="1732.5" y="-106.8" font-family="Times,serif" font-size="14.00">Comparator</text>
<polyline fill="none" stroke="black" points="1681.5,-99 1783.5,-99 "/>
<text text-anchor="start" x="1689.5" y="-83.8" font-family="Times,serif" font-size="14.00">name</text>
<polyline fill="none" stroke="black" points="1681.5,-76 1783.5,-76 "/>
<text text-anchor="middle" x="1732.5" y="-60.8" font-family="Times,serif" font-size="14.00"> </text>
</g>
<!-- pytest_cache_assert._check_assert.converter.Converter -->
<g id="node6" class="node">
<title>pytest_cache_assert._check_assert.converter.Converter</title>
<polygon fill="none" stroke="black" points="1802,-45.5 1802,-129.5 2005,-129.5 2005,-45.5 1802,-45.5"/>
<text text-anchor="middle" x="1903.5" y="-114.3" font-family="Times,serif" font-size="14.00">Converter</text>
<polyline fill="none" stroke="black" points="1802,-106.5 2005,-106.5 "/>
<text text-anchor="start" x="1810" y="-91.3" font-family="Times,serif" font-size="14.00">func : Callable[[Any], Any]</text>
<text text-anchor="start" x="1810" y="-76.3" font-family="Times,serif" font-size="14.00">types : List[Any]</text>
<polyline fill="none" stroke="black" points="1802,-68.5 2005,-68.5 "/>
<text text-anchor="middle" x="1903.5" y="-53.3" font-family="Times,serif" font-size="14.00"> </text>
</g>
<!-- pytest_cache_assert._check_assert.differ.DictDiff -->
<g id="node7" class="node">
<title>pytest_cache_assert._check_assert.differ.DictDiff</title>
<polygon fill="none" stroke="black" points="2023,-0.5 2023,-174.5 2338,-174.5 2338,-0.5 2023,-0.5"/>
<text text-anchor="middle" x="2180.5" y="-159.3" font-family="Times,serif" font-size="14.00">DictDiff</text>
<polyline fill="none" stroke="black" points="2023,-151.5 2338,-151.5 "/>
<text text-anchor="start" x="2031" y="-136.3" font-family="Times,serif" font-size="14.00">data : _SpecialForm</text>
<text text-anchor="start" x="2031" y="-121.3" font-family="Times,serif" font-size="14.00">diff_type : str</text>
<text text-anchor="start" x="2031" y="-106.3" font-family="Times,serif" font-size="14.00">index : Optional[int]</text>
<text text-anchor="start" x="2031" y="-91.3" font-family="Times,serif" font-size="14.00">keys : List[Any]</text>
<text text-anchor="start" x="2031" y="-76.3" font-family="Times,serif" font-size="14.00">new : _SpecialForm</text>
<text text-anchor="start" x="2031" y="-61.3" font-family="Times,serif" font-size="14.00">old : _SpecialForm</text>
<text text-anchor="start" x="2031" y="-46.3" font-family="Times,serif" font-size="14.00">raw_data : _SpecialForm</text>
<text text-anchor="start" x="2031" y="-31.3" font-family="Times,serif" font-size="14.00">raw_keys : Union[str, List[Union[str, int]]]</text>
<polyline fill="none" stroke="black" points="2023,-23.5 2338,-23.5 "/>
<text text-anchor="middle" x="2180.5" y="-8.3" font-family="Times,serif" font-size="14.00"> </text>
</g>
<!-- pytest_cache_assert._check_assert.validator.DictDiffValidator -->
<g id="node8" class="node">
<title>pytest_cache_assert._check_assert.validator.DictDiffValidator</title>
<polygon fill="none" stroke="black" points="647.5,-52.5 647.5,-122.5 787.5,-122.5 787.5,-52.5 647.5,-52.5"/>
<text text-anchor="middle" x="717.5" y="-107.3" font-family="Times,serif" font-size="14.00">DictDiffValidator</text>
<polyline fill="none" stroke="black" points="647.5,-99.5 787.5,-99.5 "/>
<polyline fill="none" stroke="black" points="647.5,-75.5 787.5,-75.5 "/>
<text text-anchor="start" x="655.5" y="-60.3" font-family="Times,serif" font-size="14.00">assertion(): None</text>
</g>
<!-- pytest_cache_assert._check_assert.validator.ValidatorType -->
<g id="node18" class="node">
<title>pytest_cache_assert._check_assert.validator.ValidatorType</title>
<polygon fill="none" stroke="black" points="594.5,-212.5 594.5,-282.5 710.5,-282.5 710.5,-212.5 594.5,-212.5"/>
<text text-anchor="middle" x="652.5" y="-267.3" font-family="Times,serif" font-size="14.00">ValidatorType</text>
<polyline fill="none" stroke="black" points="594.5,-259.5 710.5,-259.5 "/>
<polyline fill="none" stroke="black" points="594.5,-235.5 710.5,-235.5 "/>
<text text-anchor="middle" x="652.5" y="-220.3" font-family="Times,serif" font-size="14.00"> </text>
</g>
<!-- pytest_cache_assert._check_assert.validator.DictDiffValidator&#45;&gt;pytest_cache_assert._check_assert.validator.ValidatorType -->
<g id="edge2" class="edge">
<title>pytest_cache_assert._check_assert.validator.DictDiffValidator&#45;&gt;pytest_cache_assert._check_assert.validator.ValidatorType</title>
<path fill="none" stroke="black" d="M703.4,-122.78C693.73,-146.28 680.82,-177.65 670.43,-202.93"/>
<polygon fill="none" stroke="black" points="667.14,-201.7 666.58,-212.28 673.62,-204.37 667.14,-201.7"/>
</g>
<!-- pytest_cache_assert._check_assert.differ.DiffResult -->
<g id="node9" class="node">
<title>pytest_cache_assert._check_assert.differ.DiffResult</title>
<polygon fill="none" stroke="black" points="2356.5,-30.5 2356.5,-144.5 2810.5,-144.5 2810.5,-30.5 2356.5,-30.5"/>
<text text-anchor="middle" x="2583.5" y="-129.3" font-family="Times,serif" font-size="14.00">DiffResult</text>
<polyline fill="none" stroke="black" points="2356.5,-121.5 2810.5,-121.5 "/>
<text text-anchor="start" x="2364.5" y="-106.3" font-family="Times,serif" font-size="14.00">key_list : List[Union[str, int]]</text>
<text text-anchor="start" x="2364.5" y="-91.3" font-family="Times,serif" font-size="14.00">list_index : Optional[int]</text>
<text text-anchor="start" x="2364.5" y="-76.3" font-family="Times,serif" font-size="14.00">new : _SpecialForm</text>
<text text-anchor="start" x="2364.5" y="-61.3" font-family="Times,serif" font-size="14.00">old : _SpecialForm</text>
<polyline fill="none" stroke="black" points="2356.5,-53.5 2810.5,-53.5 "/>
<text text-anchor="start" x="2364.5" y="-38.3" font-family="Times,serif" font-size="14.00">match_key_pattern(pattern: List[Union[str, Wildcards]]): bool</text>
</g>
<!-- pytest_cache_assert._check_assert.key_rules.KeyRule -->
<g id="node10" class="node">
<title>pytest_cache_assert._check_assert.key_rules.KeyRule</title>
<polygon fill="none" stroke="black" points="2828.5,-45.5 2828.5,-129.5 3196.5,-129.5 3196.5,-45.5 2828.5,-45.5"/>
<text text-anchor="middle" x="3012.5" y="-114.3" font-family="Times,serif" font-size="14.00">KeyRule</text>
<polyline fill="none" stroke="black" points="2828.5,-106.5 3196.5,-106.5 "/>
<text text-anchor="start" x="2836.5" y="-91.3" font-family="Times,serif" font-size="14.00">func : Callable[[DIFF_TYPES, DIFF_TYPES], bool]</text>
<text text-anchor="start" x="2836.5" y="-76.3" font-family="Times,serif" font-size="14.00">pattern : List[Union[str, Wildcards]]</text>
<polyline fill="none" stroke="black" points="2828.5,-68.5 3196.5,-68.5 "/>
<text text-anchor="middle" x="3012.5" y="-53.3" font-family="Times,serif" font-size="14.00"> </text>
</g>
<!-- pytest_cache_assert._check_assert.cache_store.LocalJSONCacheStore -->
<g id="node11" class="node">
<title>pytest_cache_assert._check_assert.cache_store.LocalJSONCacheStore</title>
<polygon fill="none" stroke="black" points="0,-30 0,-145 629,-145 629,-30 0,-30"/>
<text text-anchor="middle" x="314.5" y="-129.8" font-family="Times,serif" font-size="14.00">LocalJSONCacheStore</text>
<polyline fill="none" stroke="black" points="0,-122 629,-122 "/>
<polyline fill="none" stroke="black" points="0,-98 629,-98 "/>
<text text-anchor="start" x="8" y="-82.8" font-family="Times,serif" font-size="14.00">initialize(path_cache_dir: Optional[Path], converters: Optional[List[Converter]]): None</text>
<text text-anchor="start" x="8" y="-67.8" font-family="Times,serif" font-size="14.00">read_cached_data(path_cache_file: Path): Any</text>
<text text-anchor="start" x="8" y="-52.8" font-family="Times,serif" font-size="14.00">serialize(data: Any): Any</text>
<text text-anchor="start" x="8" y="-37.8" font-family="Times,serif" font-size="14.00">write(path_cache_file: Path): None</text>
</g>
<!-- pytest_cache_assert._check_assert.cache_store.LocalJSONCacheStore&#45;&gt;pytest_cache_assert._check_assert.cache_store.CacheStoreType -->
<g id="edge1" class="edge">
<title>pytest_cache_assert._check_assert.cache_store.LocalJSONCacheStore&#45;&gt;pytest_cache_assert._check_assert.cache_store.CacheStoreType</title>
<path fill="none" stroke="black" d="M337.78,-145.1C345.59,-164.07 354.17,-184.93 361.51,-202.77"/>
<polygon fill="none" stroke="black" points="358.4,-204.42 365.45,-212.34 364.88,-201.76 358.4,-204.42"/>
</g>
<!-- pytest_cache_assert._check_assert.error_message.NoCacheError -->
<g id="node12" class="node">
<title>pytest_cache_assert._check_assert.error_message.NoCacheError</title>
<polygon fill="none" stroke="black" points="3215,-52.5 3215,-122.5 3334,-122.5 3334,-52.5 3215,-52.5"/>
<text text-anchor="middle" x="3274.5" y="-107.3" font-family="Times,serif" font-size="14.00" fill="red">NoCacheError</text>
<polyline fill="none" stroke="black" points="3215,-99.5 3334,-99.5 "/>
<polyline fill="none" stroke="black" points="3215,-75.5 3334,-75.5 "/>
<text text-anchor="middle" x="3274.5" y="-60.3" font-family="Times,serif" font-size="14.00" fill="red"> </text>
</g>
<!-- pytest_cache_assert._check_assert.error_message.RichAssertionError -->
<g id="node13" class="node">
<title>pytest_cache_assert._check_assert.error_message.RichAssertionError</title>
<polygon fill="none" stroke="black" points="3352,-53 3352,-122 4117,-122 4117,-53 3352,-53"/>
<text text-anchor="middle" x="3734.5" y="-106.8" font-family="Times,serif" font-size="14.00" fill="red">RichAssertionError</text>
<polyline fill="none" stroke="black" points="3352,-99 4117,-99 "/>
<text text-anchor="start" x="3360" y="-83.8" font-family="Times,serif" font-size="14.00" fill="red">error_info : NoneType</text>
<polyline fill="none" stroke="black" points="3352,-76 4117,-76 "/>
<text text-anchor="start" x="3360" y="-60.8" font-family="Times,serif" font-size="14.00" fill="red">create_message(test_data: Any, cached_data: Any, path_cache_file: Path, diff_results: List[DiffResult]): str</text>
</g>
<!-- pytest_cache_assert.plugin.TestMetadata -->
<g id="node14" class="node">
<title>pytest_cache_assert.plugin.TestMetadata</title>
<polygon fill="none" stroke="black" points="4135,-38 4135,-137 4662,-137 4662,-38 4135,-38"/>
<text text-anchor="middle" x="4398.5" y="-121.8" font-family="Times,serif" font-size="14.00">TestMetadata</text>
<polyline fill="none" stroke="black" points="4135,-114 4662,-114 "/>
<text text-anchor="start" x="4143" y="-98.8" font-family="Times,serif" font-size="14.00">func_args : Union[Dict, Iterable]</text>
<text text-anchor="start" x="4143" y="-83.8" font-family="Times,serif" font-size="14.00">test_file : str</text>
<text text-anchor="start" x="4143" y="-68.8" font-family="Times,serif" font-size="14.00">test_name : str</text>
<polyline fill="none" stroke="black" points="4135,-61 4662,-61 "/>
<text text-anchor="start" x="4143" y="-45.8" font-family="Times,serif" font-size="14.00">from_pytest(request: FixtureRequest, rel_test_file: Path): TestMetadata</text>
</g>
<!-- pytest_cache_assert._check_assert.constants.TrueNull -->
<g id="node15" class="node">
<title>pytest_cache_assert._check_assert.constants.TrueNull</title>
<polygon fill="none" stroke="black" points="4680.5,-52.5 4680.5,-122.5 4760.5,-122.5 4760.5,-52.5 4680.5,-52.5"/>
<text text-anchor="middle" x="4720.5" y="-107.3" font-family="Times,serif" font-size="14.00">TrueNull</text>
<polyline fill="none" stroke="black" points="4680.5,-99.5 4760.5,-99.5 "/>
<polyline fill="none" stroke="black" points="4680.5,-75.5 4760.5,-75.5 "/>
<text text-anchor="middle" x="4720.5" y="-60.3" font-family="Times,serif" font-size="14.00"> </text>
</g>
<!-- pytest_cache_assert._check_assert.serializer.Unconvertable -->
<g id="node16" class="node">
<title>pytest_cache_assert._check_assert.serializer.Unconvertable</title>
<polygon fill="none" stroke="black" points="4778.5,-52.5 4778.5,-122.5 4900.5,-122.5 4900.5,-52.5 4778.5,-52.5"/>
<text text-anchor="middle" x="4839.5" y="-107.3" font-family="Times,serif" font-size="14.00" fill="red">Unconvertable</text>
<polyline fill="none" stroke="black" points="4778.5,-99.5 4900.5,-99.5 "/>
<polyline fill="none" stroke="black" points="4778.5,-75.5 4900.5,-75.5 "/>
<text text-anchor="middle" x="4839.5" y="-60.3" font-family="Times,serif" font-size="14.00" fill="red"> </text>
</g>
<!-- pytest_cache_assert._check_assert.validator.Validator -->
<g id="node17" class="node">
<title>pytest_cache_assert._check_assert.validator.Validator</title>
<polygon fill="none" stroke="black" points="4918.5,-52.5 4918.5,-122.5 5058.5,-122.5 5058.5,-52.5 4918.5,-52.5"/>
<text text-anchor="middle" x="4988.5" y="-107.3" font-family="Times,serif" font-size="14.00">Validator</text>
<polyline fill="none" stroke="black" points="4918.5,-99.5 5058.5,-99.5 "/>
<polyline fill="none" stroke="black" points="4918.5,-75.5 5058.5,-75.5 "/>
<text text-anchor="start" x="4926.5" y="-60.3" font-family="Times,serif" font-size="14.00">assertion(): None</text>
</g>
<!-- pytest_cache_assert._check_assert.validator.ValidatorType&#45;&gt;pytest_cache_assert._check_assert.assert_config.AssertConfig -->
<g id="edge4" class="edge">
<title>pytest_cache_assert._check_assert.validator.ValidatorType&#45;&gt;pytest_cache_assert._check_assert.assert_config.AssertConfig</title>
<path fill="none" stroke="black" d="M606.41,-282.61C588.52,-295.85 567.32,-311.54 546.42,-327.01"/>
<polygon fill="black" stroke="black" points="546.17,-327.2 543.72,-333.98 536.52,-334.34 538.96,-327.55 546.17,-327.2"/>
<text text-anchor="middle" x="613.5" y="-304.8" font-family="Times,serif" font-size="14.00" fill="green">validator</text>
</g>
<!-- pytest_cache_assert._check_assert.constants.Wildcards -->
<g id="node19" class="node">
<title>pytest_cache_assert._check_assert.constants.Wildcards</title>
<polygon fill="none" stroke="black" points="5076.5,-53 5076.5,-122 5164.5,-122 5164.5,-53 5076.5,-53"/>
<text text-anchor="middle" x="5120.5" y="-106.8" font-family="Times,serif" font-size="14.00">Wildcards</text>
<polyline fill="none" stroke="black" points="5076.5,-99 5164.5,-99 "/>
<text text-anchor="start" x="5084.5" y="-83.8" font-family="Times,serif" font-size="14.00">name</text>
<polyline fill="none" stroke="black" points="5076.5,-76 5164.5,-76 "/>
<text text-anchor="middle" x="5120.5" y="-60.8" font-family="Times,serif" font-size="14.00"> </text>
</g>
<!-- pytest_cache_assert._check_assert.serializer._CacheAssertSerializer -->
<g id="node20" class="node">
<title>pytest_cache_assert._check_assert.serializer._CacheAssertSerializer</title>
<polygon fill="none" stroke="black" points="5182.5,-52.5 5182.5,-122.5 5364.5,-122.5 5364.5,-52.5 5182.5,-52.5"/>
<text text-anchor="middle" x="5273.5" y="-107.3" font-family="Times,serif" font-size="14.00">_CacheAssertSerializer</text>
<polyline fill="none" stroke="black" points="5182.5,-99.5 5364.5,-99.5 "/>
<polyline fill="none" stroke="black" points="5182.5,-75.5 5364.5,-75.5 "/>
<text text-anchor="start" x="5190.5" y="-60.3" font-family="Times,serif" font-size="14.00">default(obj: Any): Any</text>
</g>
<!-- pytest_cache_assert._check_assert.serializer._Converters -->
<g id="node21" class="node">
<title>pytest_cache_assert._check_assert.serializer._Converters</title>
<polygon fill="none" stroke="black" points="5382.5,-30.5 5382.5,-144.5 5770.5,-144.5 5770.5,-30.5 5382.5,-30.5"/>
<text text-anchor="middle" x="5576.5" y="-129.3" font-family="Times,serif" font-size="14.00">_Converters</text>
<polyline fill="none" stroke="black" points="5382.5,-121.5 5770.5,-121.5 "/>
<text text-anchor="start" x="5390.5" y="-106.3" font-family="Times,serif" font-size="14.00">converter_lookup : Dict[Any, List[Callable]]</text>
<text text-anchor="start" x="5390.5" y="-91.3" font-family="Times,serif" font-size="14.00">converter_lookup : defaultdict, dict</text>
<text text-anchor="start" x="5390.5" y="-76.3" font-family="Times,serif" font-size="14.00">converters : List[Tuple[Any, Callable]]</text>
<polyline fill="none" stroke="black" points="5382.5,-68.5 5770.5,-68.5 "/>
<text text-anchor="start" x="5390.5" y="-53.3" font-family="Times,serif" font-size="14.00">get_lookup(): Dict[Any, List[Callable]]</text>
<text text-anchor="start" x="5390.5" y="-38.3" font-family="Times,serif" font-size="14.00">register(types: List[Any], converter: Callable): None</text>
</g>
</g>
</svg>
