<?xml version="1.0" encoding="UTF-8" standalone="no"?>
<!DOCTYPE svg PUBLIC "-//W3C//DTD SVG 1.1//EN"
 "http://www.w3.org/Graphics/SVG/1.1/DTD/svg11.dtd">
<!-- Generated by graphviz version 2.43.0 (0)
 -->
<!-- Title: classes Pages: 1 -->
<svg width="1892pt" height="273pt"
 viewBox="0.00 0.00 1891.50 273.00" xmlns="http://www.w3.org/2000/svg" xmlns:xlink="http://www.w3.org/1999/xlink">
<g id="graph0" class="graph" transform="scale(1 1) rotate(0) translate(4 269)">
<title>classes</title>
<polygon fill="white" stroke="transparent" points="-4,4 -4,-269 1887.5,-269 1887.5,4 -4,4"/>
<!-- pytest_cache_assert._check_assert.serializer.CacheAssertSerializer -->
<g id="node1" class="node">
<title>pytest_cache_assert._check_assert.serializer.CacheAssertSerializer</title>
<polygon fill="none" stroke="black" points="0,-97.5 0,-167.5 175,-167.5 175,-97.5 0,-97.5"/>
<text text-anchor="middle" x="87.5" y="-152.3" font-family="Times,serif" font-size="14.00">CacheAssertSerializer</text>
<polyline fill="none" stroke="black" points="0,-144.5 175,-144.5 "/>
<polyline fill="none" stroke="black" points="0,-120.5 175,-120.5 "/>
<text text-anchor="start" x="8" y="-105.3" font-family="Times,serif" font-size="14.00">default(obj: Any): Any</text>
</g>
<!-- pytest_cache_assert._check_assert.key_rules.Comparator -->
<g id="node2" class="node">
<title>pytest_cache_assert._check_assert.key_rules.Comparator</title>
<polygon fill="none" stroke="black" points="193.5,-98 193.5,-167 295.5,-167 295.5,-98 193.5,-98"/>
<text text-anchor="middle" x="244.5" y="-151.8" font-family="Times,serif" font-size="14.00">Comparator</text>
<polyline fill="none" stroke="black" points="193.5,-144 295.5,-144 "/>
<text text-anchor="start" x="201.5" y="-128.8" font-family="Times,serif" font-size="14.00">name</text>
<polyline fill="none" stroke="black" points="193.5,-121 295.5,-121 "/>
<text text-anchor="middle" x="244.5" y="-105.8" font-family="Times,serif" font-size="14.00"> </text>
</g>
<!-- pytest_cache_assert._check_assert.differ.DictDiff -->
<g id="node3" class="node">
<title>pytest_cache_assert._check_assert.differ.DictDiff</title>
<polygon fill="none" stroke="black" points="314,-0.5 314,-264.5 629,-264.5 629,-0.5 314,-0.5"/>
<text text-anchor="middle" x="471.5" y="-249.3" font-family="Times,serif" font-size="14.00">DictDiff</text>
<polyline fill="none" stroke="black" points="314,-241.5 629,-241.5 "/>
<text text-anchor="start" x="322" y="-226.3" font-family="Times,serif" font-size="14.00">data</text>
<text text-anchor="start" x="322" y="-211.3" font-family="Times,serif" font-size="14.00">data : _SpecialForm</text>
<text text-anchor="start" x="322" y="-196.3" font-family="Times,serif" font-size="14.00">diff_type : str</text>
<text text-anchor="start" x="322" y="-181.3" font-family="Times,serif" font-size="14.00">index</text>
<text text-anchor="start" x="322" y="-166.3" font-family="Times,serif" font-size="14.00">index : Optional[int]</text>
<text text-anchor="start" x="322" y="-151.3" font-family="Times,serif" font-size="14.00">keys : List[Any]</text>
<text text-anchor="start" x="322" y="-136.3" font-family="Times,serif" font-size="14.00">keys : list</text>
<text text-anchor="start" x="322" y="-121.3" font-family="Times,serif" font-size="14.00">new</text>
<text text-anchor="start" x="322" y="-106.3" font-family="Times,serif" font-size="14.00">new : _SpecialForm</text>
<text text-anchor="start" x="322" y="-91.3" font-family="Times,serif" font-size="14.00">old</text>
<text text-anchor="start" x="322" y="-76.3" font-family="Times,serif" font-size="14.00">old : _SpecialForm</text>
<text text-anchor="start" x="322" y="-61.3" font-family="Times,serif" font-size="14.00">raw_data : _SpecialForm</text>
<text text-anchor="start" x="322" y="-46.3" font-family="Times,serif" font-size="14.00">raw_keys</text>
<text text-anchor="start" x="322" y="-31.3" font-family="Times,serif" font-size="14.00">raw_keys : Union[str, List[Union[str, int]]]</text>
<polyline fill="none" stroke="black" points="314,-23.5 629,-23.5 "/>
<text text-anchor="start" x="322" y="-8.3" font-family="Times,serif" font-size="14.00">get_diff_result(): DiffResult</text>
</g>
<!-- pytest_cache_assert._check_assert.differ.DiffResult -->
<g id="node4" class="node">
<title>pytest_cache_assert._check_assert.differ.DiffResult</title>
<polygon fill="none" stroke="black" points="647.5,-75.5 647.5,-189.5 1101.5,-189.5 1101.5,-75.5 647.5,-75.5"/>
<text text-anchor="middle" x="874.5" y="-174.3" font-family="Times,serif" font-size="14.00">DiffResult</text>
<polyline fill="none" stroke="black" points="647.5,-166.5 1101.5,-166.5 "/>
<text text-anchor="start" x="655.5" y="-151.3" font-family="Times,serif" font-size="14.00">key_list : List[Union[str, int]]</text>
<text text-anchor="start" x="655.5" y="-136.3" font-family="Times,serif" font-size="14.00">list_index : Optional[int]</text>
<text text-anchor="start" x="655.5" y="-121.3" font-family="Times,serif" font-size="14.00">new : _SpecialForm</text>
<text text-anchor="start" x="655.5" y="-106.3" font-family="Times,serif" font-size="14.00">old : _SpecialForm</text>
<polyline fill="none" stroke="black" points="647.5,-98.5 1101.5,-98.5 "/>
<text text-anchor="start" x="655.5" y="-83.3" font-family="Times,serif" font-size="14.00">match_key_pattern(pattern: List[Union[str, Wildcards]]): bool</text>
</g>
<!-- pytest_cache_assert._check_assert.key_rules.KeyRule -->
<g id="node5" class="node">
<title>pytest_cache_assert._check_assert.key_rules.KeyRule</title>
<polygon fill="none" stroke="black" points="1119.5,-90.5 1119.5,-174.5 1487.5,-174.5 1487.5,-90.5 1119.5,-90.5"/>
<text text-anchor="middle" x="1303.5" y="-159.3" font-family="Times,serif" font-size="14.00">KeyRule</text>
<polyline fill="none" stroke="black" points="1119.5,-151.5 1487.5,-151.5 "/>
<text text-anchor="start" x="1127.5" y="-136.3" font-family="Times,serif" font-size="14.00">func : Callable[[DIFF_TYPES, DIFF_TYPES], bool]</text>
<text text-anchor="start" x="1127.5" y="-121.3" font-family="Times,serif" font-size="14.00">pattern : List[Union[str, Wildcards]]</text>
<polyline fill="none" stroke="black" points="1119.5,-113.5 1487.5,-113.5 "/>
<text text-anchor="middle" x="1303.5" y="-98.3" font-family="Times,serif" font-size="14.00"> </text>
</g>
<!-- pytest_cache_assert._check_assert.error_message.RichAssertionError -->
<g id="node6" class="node">
<title>pytest_cache_assert._check_assert.error_message.RichAssertionError</title>
<polygon fill="none" stroke="black" points="1506,-98 1506,-167 1679,-167 1679,-98 1506,-98"/>
<text text-anchor="middle" x="1592.5" y="-151.8" font-family="Times,serif" font-size="14.00" fill="red">RichAssertionError</text>
<polyline fill="none" stroke="black" points="1506,-144 1679,-144 "/>
<text text-anchor="start" x="1514" y="-128.8" font-family="Times,serif" font-size="14.00" fill="red">error_info : NoneType</text>
<polyline fill="none" stroke="black" points="1506,-121 1679,-121 "/>
<text text-anchor="middle" x="1592.5" y="-105.8" font-family="Times,serif" font-size="14.00" fill="red"> </text>
</g>
<!-- pytest_cache_assert._check_assert.constants.TrueNull -->
<g id="node7" class="node">
<title>pytest_cache_assert._check_assert.constants.TrueNull</title>
<polygon fill="none" stroke="black" points="1697.5,-97.5 1697.5,-167.5 1777.5,-167.5 1777.5,-97.5 1697.5,-97.5"/>
<text text-anchor="middle" x="1737.5" y="-152.3" font-family="Times,serif" font-size="14.00">TrueNull</text>
<polyline fill="none" stroke="black" points="1697.5,-144.5 1777.5,-144.5 "/>
<polyline fill="none" stroke="black" points="1697.5,-120.5 1777.5,-120.5 "/>
<text text-anchor="middle" x="1737.5" y="-105.3" font-family="Times,serif" font-size="14.00"> </text>
</g>
<!-- pytest_cache_assert._check_assert.constants.Wildcards -->
<g id="node8" class="node">
<title>pytest_cache_assert._check_assert.constants.Wildcards</title>
<polygon fill="none" stroke="black" points="1795.5,-98 1795.5,-167 1883.5,-167 1883.5,-98 1795.5,-98"/>
<text text-anchor="middle" x="1839.5" y="-151.8" font-family="Times,serif" font-size="14.00">Wildcards</text>
<polyline fill="none" stroke="black" points="1795.5,-144 1883.5,-144 "/>
<text text-anchor="start" x="1803.5" y="-128.8" font-family="Times,serif" font-size="14.00">name</text>
<polyline fill="none" stroke="black" points="1795.5,-121 1883.5,-121 "/>
<text text-anchor="middle" x="1839.5" y="-105.8" font-family="Times,serif" font-size="14.00"> </text>
</g>
</g>
</svg>
