<?xml version="1.0" encoding="UTF-8" standalone="no"?>
<!DOCTYPE svg PUBLIC "-//W3C//DTD SVG 1.1//EN"
 "http://www.w3.org/Graphics/SVG/1.1/DTD/svg11.dtd">
<!-- Generated by graphviz version 2.43.0 (0)
 -->
<!-- Title: classes Pages: 1 -->
<svg width="4611pt" height="472pt"
 viewBox="0.00 0.00 4610.50 472.00" xmlns="http://www.w3.org/2000/svg" xmlns:xlink="http://www.w3.org/1999/xlink">
<g id="graph0" class="graph" transform="scale(1 1) rotate(0) translate(4 468)">
<title>classes</title>
<polygon fill="white" stroke="transparent" points="-4,4 -4,-468 4606.5,-468 4606.5,4 -4,4"/>
<!-- pytest_cache_assert._check_assert.assert_config.AssertConfig -->
<g id="node1" class="node">
<title>pytest_cache_assert._check_assert.assert_config.AssertConfig</title>
<polygon fill="none" stroke="black" points="248.5,-334.5 248.5,-463.5 464.5,-463.5 464.5,-334.5 248.5,-334.5"/>
<text text-anchor="middle" x="356.5" y="-448.3" font-family="Times,serif" font-size="14.00">AssertConfig</text>
<polyline fill="none" stroke="black" points="248.5,-440.5 464.5,-440.5 "/>
<text text-anchor="start" x="256.5" y="-425.3" font-family="Times,serif" font-size="14.00">always_write : bool</text>
<text text-anchor="start" x="256.5" y="-410.3" font-family="Times,serif" font-size="14.00">cache_dir_rel_path : str</text>
<text text-anchor="start" x="256.5" y="-395.3" font-family="Times,serif" font-size="14.00">cache_store</text>
<text text-anchor="start" x="256.5" y="-380.3" font-family="Times,serif" font-size="14.00">converters : List[Converter]</text>
<text text-anchor="start" x="256.5" y="-365.3" font-family="Times,serif" font-size="14.00">validator</text>
<polyline fill="none" stroke="black" points="248.5,-357.5 464.5,-357.5 "/>
<text text-anchor="middle" x="356.5" y="-342.3" font-family="Times,serif" font-size="14.00"> </text>
</g>
<!-- pytest_cache_assert._check_assert.config.CacheAssertContainerKeys -->
<g id="node2" class="node">
<title>pytest_cache_assert._check_assert.config.CacheAssertContainerKeys</title>
<polygon fill="none" stroke="black" points="651.5,-53 651.5,-122 861.5,-122 861.5,-53 651.5,-53"/>
<text text-anchor="middle" x="756.5" y="-106.8" font-family="Times,serif" font-size="14.00">CacheAssertContainerKeys</text>
<polyline fill="none" stroke="black" points="651.5,-99 861.5,-99 "/>
<text text-anchor="start" x="659.5" y="-83.8" font-family="Times,serif" font-size="14.00">name</text>
<polyline fill="none" stroke="black" points="651.5,-76 861.5,-76 "/>
<text text-anchor="middle" x="756.5" y="-60.8" font-family="Times,serif" font-size="14.00"> </text>
</g>
<!-- pytest_cache_assert._check_assert.cache_store.CacheStore -->
<g id="node3" class="node">
<title>pytest_cache_assert._check_assert.cache_store.CacheStore</title>
<polygon fill="none" stroke="black" points="880,-30 880,-145 1359,-145 1359,-30 880,-30"/>
<text text-anchor="middle" x="1119.5" y="-129.8" font-family="Times,serif" font-size="14.00">CacheStore</text>
<polyline fill="none" stroke="black" points="880,-122 1359,-122 "/>
<polyline fill="none" stroke="black" points="880,-98 1359,-98 "/>
<text text-anchor="start" x="888" y="-82.8" font-family="Times,serif" font-size="14.00">initialize(path_cache_dir: Optional[List[Converter]], converters): </text>
<text text-anchor="start" x="888" y="-67.8" font-family="Times,serif" font-size="14.00">read_cached_data(path_cache_file): Any</text>
<text text-anchor="start" x="888" y="-52.8" font-family="Times,serif" font-size="14.00">serialize(data): Any</text>
<text text-anchor="start" x="888" y="-37.8" font-family="Times,serif" font-size="14.00">write(path_cache_file): </text>
</g>
<!-- pytest_cache_assert._check_assert.cache_store.CacheStoreType -->
<g id="node4" class="node">
<title>pytest_cache_assert._check_assert.cache_store.CacheStoreType</title>
<polygon fill="none" stroke="black" points="218.5,-212.5 218.5,-282.5 352.5,-282.5 352.5,-212.5 218.5,-212.5"/>
<text text-anchor="middle" x="285.5" y="-267.3" font-family="Times,serif" font-size="14.00">CacheStoreType</text>
<polyline fill="none" stroke="black" points="218.5,-259.5 352.5,-259.5 "/>
<polyline fill="none" stroke="black" points="218.5,-235.5 352.5,-235.5 "/>
<text text-anchor="middle" x="285.5" y="-220.3" font-family="Times,serif" font-size="14.00"> </text>
</g>
<!-- pytest_cache_assert._check_assert.cache_store.CacheStoreType&#45;&gt;pytest_cache_assert._check_assert.assert_config.AssertConfig -->
<g id="edge3" class="edge">
<title>pytest_cache_assert._check_assert.cache_store.CacheStoreType&#45;&gt;pytest_cache_assert._check_assert.assert_config.AssertConfig</title>
<path fill="none" stroke="black" d="M301.79,-282.8C307.6,-295.03 314.38,-309.32 321.17,-323.6"/>
<polygon fill="black" stroke="black" points="321.18,-323.64 327.37,-327.34 326.33,-334.48 320.15,-330.77 321.18,-323.64"/>
<text text-anchor="middle" x="360" y="-304.8" font-family="Times,serif" font-size="14.00" fill="green">cache_store</text>
</g>
<!-- pytest_cache_assert._check_assert.key_rules.Comparator -->
<g id="node5" class="node">
<title>pytest_cache_assert._check_assert.key_rules.Comparator</title>
<polygon fill="none" stroke="black" points="1377.5,-53 1377.5,-122 1479.5,-122 1479.5,-53 1377.5,-53"/>
<text text-anchor="middle" x="1428.5" y="-106.8" font-family="Times,serif" font-size="14.00">Comparator</text>
<polyline fill="none" stroke="black" points="1377.5,-99 1479.5,-99 "/>
<text text-anchor="start" x="1385.5" y="-83.8" font-family="Times,serif" font-size="14.00">name</text>
<polyline fill="none" stroke="black" points="1377.5,-76 1479.5,-76 "/>
<text text-anchor="middle" x="1428.5" y="-60.8" font-family="Times,serif" font-size="14.00"> </text>
</g>
<!-- pytest_cache_assert._check_assert.converter.Converter -->
<g id="node6" class="node">
<title>pytest_cache_assert._check_assert.converter.Converter</title>
<polygon fill="none" stroke="black" points="1498,-45.5 1498,-129.5 1701,-129.5 1701,-45.5 1498,-45.5"/>
<text text-anchor="middle" x="1599.5" y="-114.3" font-family="Times,serif" font-size="14.00">Converter</text>
<polyline fill="none" stroke="black" points="1498,-106.5 1701,-106.5 "/>
<text text-anchor="start" x="1506" y="-91.3" font-family="Times,serif" font-size="14.00">func : Callable[[Any], Any]</text>
<text text-anchor="start" x="1506" y="-76.3" font-family="Times,serif" font-size="14.00">types : _SpecialForm</text>
<polyline fill="none" stroke="black" points="1498,-68.5 1701,-68.5 "/>
<text text-anchor="middle" x="1599.5" y="-53.3" font-family="Times,serif" font-size="14.00"> </text>
</g>
<!-- pytest_cache_assert._check_assert.differ.DictDiff -->
<g id="node7" class="node">
<title>pytest_cache_assert._check_assert.differ.DictDiff</title>
<polygon fill="none" stroke="black" points="1719,-0.5 1719,-174.5 2034,-174.5 2034,-0.5 1719,-0.5"/>
<text text-anchor="middle" x="1876.5" y="-159.3" font-family="Times,serif" font-size="14.00">DictDiff</text>
<polyline fill="none" stroke="black" points="1719,-151.5 2034,-151.5 "/>
<text text-anchor="start" x="1727" y="-136.3" font-family="Times,serif" font-size="14.00">data : _SpecialForm</text>
<text text-anchor="start" x="1727" y="-121.3" font-family="Times,serif" font-size="14.00">diff_type : str</text>
<text text-anchor="start" x="1727" y="-106.3" font-family="Times,serif" font-size="14.00">index : Optional[int]</text>
<text text-anchor="start" x="1727" y="-91.3" font-family="Times,serif" font-size="14.00">keys : List[Any]</text>
<text text-anchor="start" x="1727" y="-76.3" font-family="Times,serif" font-size="14.00">new : _SpecialForm</text>
<text text-anchor="start" x="1727" y="-61.3" font-family="Times,serif" font-size="14.00">old : _SpecialForm</text>
<text text-anchor="start" x="1727" y="-46.3" font-family="Times,serif" font-size="14.00">raw_data : _SpecialForm</text>
<text text-anchor="start" x="1727" y="-31.3" font-family="Times,serif" font-size="14.00">raw_keys : Union[str, List[Union[str, int]]]</text>
<polyline fill="none" stroke="black" points="1719,-23.5 2034,-23.5 "/>
<text text-anchor="middle" x="1876.5" y="-8.3" font-family="Times,serif" font-size="14.00"> </text>
</g>
<!-- pytest_cache_assert._check_assert.validator.DictDiffValidator -->
<g id="node8" class="node">
<title>pytest_cache_assert._check_assert.validator.DictDiffValidator</title>
<polygon fill="none" stroke="black" points="497.5,-52.5 497.5,-122.5 633.5,-122.5 633.5,-52.5 497.5,-52.5"/>
<text text-anchor="middle" x="565.5" y="-107.3" font-family="Times,serif" font-size="14.00">DictDiffValidator</text>
<polyline fill="none" stroke="black" points="497.5,-99.5 633.5,-99.5 "/>
<polyline fill="none" stroke="black" points="497.5,-75.5 633.5,-75.5 "/>
<text text-anchor="start" x="505.5" y="-60.3" font-family="Times,serif" font-size="14.00">assertion(): </text>
</g>
<!-- pytest_cache_assert._check_assert.validator.ValidatorType -->
<g id="node16" class="node">
<title>pytest_cache_assert._check_assert.validator.ValidatorType</title>
<polygon fill="none" stroke="black" points="461.5,-212.5 461.5,-282.5 577.5,-282.5 577.5,-212.5 461.5,-212.5"/>
<text text-anchor="middle" x="519.5" y="-267.3" font-family="Times,serif" font-size="14.00">ValidatorType</text>
<polyline fill="none" stroke="black" points="461.5,-259.5 577.5,-259.5 "/>
<polyline fill="none" stroke="black" points="461.5,-235.5 577.5,-235.5 "/>
<text text-anchor="middle" x="519.5" y="-220.3" font-family="Times,serif" font-size="14.00"> </text>
</g>
<!-- pytest_cache_assert._check_assert.validator.DictDiffValidator&#45;&gt;pytest_cache_assert._check_assert.validator.ValidatorType -->
<g id="edge2" class="edge">
<title>pytest_cache_assert._check_assert.validator.DictDiffValidator&#45;&gt;pytest_cache_assert._check_assert.validator.ValidatorType</title>
<path fill="none" stroke="black" d="M555.52,-122.78C548.71,-146.18 539.62,-177.38 532.28,-202.59"/>
<polygon fill="none" stroke="black" points="528.9,-201.7 529.46,-212.28 535.62,-203.66 528.9,-201.7"/>
</g>
<!-- pytest_cache_assert._check_assert.differ.DiffResult -->
<g id="node9" class="node">
<title>pytest_cache_assert._check_assert.differ.DiffResult</title>
<polygon fill="none" stroke="black" points="2052.5,-30.5 2052.5,-144.5 2506.5,-144.5 2506.5,-30.5 2052.5,-30.5"/>
<text text-anchor="middle" x="2279.5" y="-129.3" font-family="Times,serif" font-size="14.00">DiffResult</text>
<polyline fill="none" stroke="black" points="2052.5,-121.5 2506.5,-121.5 "/>
<text text-anchor="start" x="2060.5" y="-106.3" font-family="Times,serif" font-size="14.00">key_list : List[Union[str, int]]</text>
<text text-anchor="start" x="2060.5" y="-91.3" font-family="Times,serif" font-size="14.00">list_index : Optional[int]</text>
<text text-anchor="start" x="2060.5" y="-76.3" font-family="Times,serif" font-size="14.00">new : _SpecialForm</text>
<text text-anchor="start" x="2060.5" y="-61.3" font-family="Times,serif" font-size="14.00">old : _SpecialForm</text>
<polyline fill="none" stroke="black" points="2052.5,-53.5 2506.5,-53.5 "/>
<text text-anchor="start" x="2060.5" y="-38.3" font-family="Times,serif" font-size="14.00">match_key_pattern(pattern: List[Union[str, Wildcards]]): bool</text>
</g>
<!-- pytest_cache_assert._check_assert.key_rules.KeyRule -->
<g id="node10" class="node">
<title>pytest_cache_assert._check_assert.key_rules.KeyRule</title>
<polygon fill="none" stroke="black" points="2524.5,-45.5 2524.5,-129.5 2892.5,-129.5 2892.5,-45.5 2524.5,-45.5"/>
<text text-anchor="middle" x="2708.5" y="-114.3" font-family="Times,serif" font-size="14.00">KeyRule</text>
<polyline fill="none" stroke="black" points="2524.5,-106.5 2892.5,-106.5 "/>
<text text-anchor="start" x="2532.5" y="-91.3" font-family="Times,serif" font-size="14.00">func : Callable[[DIFF_TYPES, DIFF_TYPES], bool]</text>
<text text-anchor="start" x="2532.5" y="-76.3" font-family="Times,serif" font-size="14.00">pattern : List[Union[str, Wildcards]]</text>
<polyline fill="none" stroke="black" points="2524.5,-68.5 2892.5,-68.5 "/>
<text text-anchor="middle" x="2708.5" y="-53.3" font-family="Times,serif" font-size="14.00"> </text>
</g>
<!-- pytest_cache_assert._check_assert.cache_store.LocalJSONCacheStore -->
<g id="node11" class="node">
<title>pytest_cache_assert._check_assert.cache_store.LocalJSONCacheStore</title>
<polygon fill="none" stroke="black" points="0,-30 0,-145 479,-145 479,-30 0,-30"/>
<text text-anchor="middle" x="239.5" y="-129.8" font-family="Times,serif" font-size="14.00">LocalJSONCacheStore</text>
<polyline fill="none" stroke="black" points="0,-122 479,-122 "/>
<polyline fill="none" stroke="black" points="0,-98 479,-98 "/>
<text text-anchor="start" x="8" y="-82.8" font-family="Times,serif" font-size="14.00">initialize(path_cache_dir: Optional[List[Converter]], converters): </text>
<text text-anchor="start" x="8" y="-67.8" font-family="Times,serif" font-size="14.00">read_cached_data(path_cache_file): Any</text>
<text text-anchor="start" x="8" y="-52.8" font-family="Times,serif" font-size="14.00">serialize(data): Any</text>
<text text-anchor="start" x="8" y="-37.8" font-family="Times,serif" font-size="14.00">write(path_cache_file): </text>
</g>
<!-- pytest_cache_assert._check_assert.cache_store.LocalJSONCacheStore&#45;&gt;pytest_cache_assert._check_assert.cache_store.CacheStoreType -->
<g id="edge1" class="edge">
<title>pytest_cache_assert._check_assert.cache_store.LocalJSONCacheStore&#45;&gt;pytest_cache_assert._check_assert.cache_store.CacheStoreType</title>
<path fill="none" stroke="black" d="M255.98,-145.1C261.45,-163.9 267.46,-184.54 272.62,-202.27"/>
<polygon fill="none" stroke="black" points="269.4,-203.71 275.55,-212.34 276.12,-201.76 269.4,-203.71"/>
</g>
<!-- pytest_cache_assert._check_assert.error_message.RichAssertionError -->
<g id="node12" class="node">
<title>pytest_cache_assert._check_assert.error_message.RichAssertionError</title>
<polygon fill="none" stroke="black" points="2910.5,-53 2910.5,-122 3704.5,-122 3704.5,-53 2910.5,-53"/>
<text text-anchor="middle" x="3307.5" y="-106.8" font-family="Times,serif" font-size="14.00" fill="red">RichAssertionError</text>
<polyline fill="none" stroke="black" points="2910.5,-99 3704.5,-99 "/>
<text text-anchor="start" x="2918.5" y="-83.8" font-family="Times,serif" font-size="14.00" fill="red">error_info : NoneType</text>
<polyline fill="none" stroke="black" points="2910.5,-76 3704.5,-76 "/>
<text text-anchor="start" x="2918.5" y="-60.8" font-family="Times,serif" font-size="14.00" fill="red">create_message(cls: Any, test_data: Any, cached_data: Path, path_cache_file: List[DiffResult], diff_results): str</text>
</g>
<!-- pytest_cache_assert.plugin.TestMetadata -->
<g id="node13" class="node">
<title>pytest_cache_assert.plugin.TestMetadata</title>
<polygon fill="none" stroke="black" points="3722.5,-38 3722.5,-137 4278.5,-137 4278.5,-38 3722.5,-38"/>
<text text-anchor="middle" x="4000.5" y="-121.8" font-family="Times,serif" font-size="14.00">TestMetadata</text>
<polyline fill="none" stroke="black" points="3722.5,-114 4278.5,-114 "/>
<text text-anchor="start" x="3730.5" y="-98.8" font-family="Times,serif" font-size="14.00">func_args : Union[Dict, Iterable]</text>
<text text-anchor="start" x="3730.5" y="-83.8" font-family="Times,serif" font-size="14.00">test_file : str</text>
<text text-anchor="start" x="3730.5" y="-68.8" font-family="Times,serif" font-size="14.00">test_name : str</text>
<polyline fill="none" stroke="black" points="3722.5,-61 4278.5,-61 "/>
<text text-anchor="start" x="3730.5" y="-45.8" font-family="Times,serif" font-size="14.00">from_pytest(cls: FixtureRequest, request: Path, rel_test_file): TestMetadata</text>
</g>
<!-- pytest_cache_assert._check_assert.constants.TrueNull -->
<g id="node14" class="node">
<title>pytest_cache_assert._check_assert.constants.TrueNull</title>
<polygon fill="none" stroke="black" points="4296.5,-52.5 4296.5,-122.5 4376.5,-122.5 4376.5,-52.5 4296.5,-52.5"/>
<text text-anchor="middle" x="4336.5" y="-107.3" font-family="Times,serif" font-size="14.00">TrueNull</text>
<polyline fill="none" stroke="black" points="4296.5,-99.5 4376.5,-99.5 "/>
<polyline fill="none" stroke="black" points="4296.5,-75.5 4376.5,-75.5 "/>
<text text-anchor="middle" x="4336.5" y="-60.3" font-family="Times,serif" font-size="14.00"> </text>
</g>
<!-- pytest_cache_assert._check_assert.validator.Validator -->
<g id="node15" class="node">
<title>pytest_cache_assert._check_assert.validator.Validator</title>
<polygon fill="none" stroke="black" points="4394.5,-52.5 4394.5,-122.5 4496.5,-122.5 4496.5,-52.5 4394.5,-52.5"/>
<text text-anchor="middle" x="4445.5" y="-107.3" font-family="Times,serif" font-size="14.00">Validator</text>
<polyline fill="none" stroke="black" points="4394.5,-99.5 4496.5,-99.5 "/>
<polyline fill="none" stroke="black" points="4394.5,-75.5 4496.5,-75.5 "/>
<text text-anchor="start" x="4402.5" y="-60.3" font-family="Times,serif" font-size="14.00">assertion(): </text>
</g>
<!-- pytest_cache_assert._check_assert.validator.ValidatorType&#45;&gt;pytest_cache_assert._check_assert.assert_config.AssertConfig -->
<g id="edge4" class="edge">
<title>pytest_cache_assert._check_assert.validator.ValidatorType&#45;&gt;pytest_cache_assert._check_assert.assert_config.AssertConfig</title>
<path fill="none" stroke="black" d="M482.1,-282.8C467.99,-295.75 451.35,-311.01 434.87,-326.12"/>
<polygon fill="black" stroke="black" points="434.6,-326.37 432.88,-333.37 425.76,-334.48 427.48,-327.47 434.6,-326.37"/>
<text text-anchor="middle" x="494.5" y="-304.8" font-family="Times,serif" font-size="14.00" fill="green">validator</text>
</g>
<!-- pytest_cache_assert._check_assert.constants.Wildcards -->
<g id="node17" class="node">
<title>pytest_cache_assert._check_assert.constants.Wildcards</title>
<polygon fill="none" stroke="black" points="4514.5,-53 4514.5,-122 4602.5,-122 4602.5,-53 4514.5,-53"/>
<text text-anchor="middle" x="4558.5" y="-106.8" font-family="Times,serif" font-size="14.00">Wildcards</text>
<polyline fill="none" stroke="black" points="4514.5,-99 4602.5,-99 "/>
<text text-anchor="start" x="4522.5" y="-83.8" font-family="Times,serif" font-size="14.00">name</text>
<polyline fill="none" stroke="black" points="4514.5,-76 4602.5,-76 "/>
<text text-anchor="middle" x="4558.5" y="-60.8" font-family="Times,serif" font-size="14.00"> </text>
</g>
</g>
</svg>
