<?xml version="1.0" encoding="UTF-8" standalone="no"?>
<!DOCTYPE svg PUBLIC "-//W3C//DTD SVG 1.1//EN"
 "http://www.w3.org/Graphics/SVG/1.1/DTD/svg11.dtd">
<!-- Generated by graphviz version 8.1.0 (20230707.0739)
 -->
<!-- Title: classes Pages: 1 -->
<svg width="5351pt" height="342pt"
 viewBox="0.00 0.00 5350.88 341.50" xmlns="http://www.w3.org/2000/svg" xmlns:xlink="http://www.w3.org/1999/xlink">
<g id="graph0" class="graph" transform="scale(1 1) rotate(0) translate(4 337.5)">
<title>classes</title>
<polygon fill="white" stroke="none" points="-4,4 -4,-337.5 5346.88,-337.5 5346.88,4 -4,4"/>
<!-- pytest_cache_assert._check_assert.assert_config.AssertConfig -->
<g id="node1" class="node">
<title>pytest_cache_assert._check_assert.assert_config.AssertConfig</title>
<polygon fill="none" stroke="black" points="320.62,-177 320.62,-333 488.12,-333 488.12,-177 320.62,-177"/>
<text text-anchor="start" x="368.38" y="-315.7" font-family="Times,serif" font-size="14.00">AssertConfig</text>
<polyline fill="none" stroke="black" points="320.62,-308.5 488.12,-308.5"/>
<text text-anchor="start" x="328.62" y="-291.2" font-family="Times,serif" font-size="14.00">always_write : bool</text>
<text text-anchor="start" x="328.62" y="-274.7" font-family="Times,serif" font-size="14.00">cache_dir_rel_path : str</text>
<text text-anchor="start" x="328.62" y="-258.2" font-family="Times,serif" font-size="14.00">cache_store</text>
<text text-anchor="start" x="328.62" y="-241.7" font-family="Times,serif" font-size="14.00">converters : List[Converter]</text>
<text text-anchor="start" x="328.62" y="-225.2" font-family="Times,serif" font-size="14.00">model_config : ConfigDict</text>
<text text-anchor="start" x="328.62" y="-208.7" font-family="Times,serif" font-size="14.00">validator</text>
<polyline fill="none" stroke="black" points="320.62,-201.5 488.12,-201.5"/>
<text text-anchor="start" x="402.5" y="-184.2" font-family="Times,serif" font-size="14.00"> </text>
</g>
<!-- pytest_cache_assert._check_assert.assert_rules.AssertRule -->
<g id="node2" class="node">
<title>pytest_cache_assert._check_assert.assert_rules.AssertRule</title>
<polygon fill="none" stroke="black" points="636.12,-8.75 636.12,-115.25 1094.62,-115.25 1094.62,-8.75 636.12,-8.75"/>
<text text-anchor="start" x="835.38" y="-97.95" font-family="Times,serif" font-size="14.00">AssertRule</text>
<polyline fill="none" stroke="black" points="636.12,-90.75 1094.62,-90.75"/>
<text text-anchor="start" x="753.25" y="-73.45" font-family="Times,serif" font-size="14.00">func : Callable[[T_DIFF, T_DIFF], bool]</text>
<text text-anchor="start" x="753.25" y="-56.95" font-family="Times,serif" font-size="14.00">pattern : Union[str, Pattern]</text>
<polyline fill="none" stroke="black" points="636.12,-49.75 1094.62,-49.75"/>
<text text-anchor="start" x="644.12" y="-32.45" font-family="Times,serif" font-size="14.00">build_re(pattern: List[str], func: Callable[[T_DIFF, T_DIFF], bool]): &#39;AssertRule&#39;</text>
<text text-anchor="start" x="644.12" y="-15.95" font-family="Times,serif" font-size="14.00">is_regex(): bool</text>
</g>
<!-- pytest_cache_assert._check_assert.config.CacheAssertContainerKeys -->
<g id="node3" class="node">
<title>pytest_cache_assert._check_assert.config.CacheAssertContainerKeys</title>
<polygon fill="none" stroke="black" points="1112.75,-25.25 1112.75,-98.75 1278,-98.75 1278,-25.25 1112.75,-25.25"/>
<text text-anchor="start" x="1120.75" y="-81.45" font-family="Times,serif" font-size="14.00">CacheAssertContainerKeys</text>
<polyline fill="none" stroke="black" points="1112.75,-74.25 1278,-74.25"/>
<text text-anchor="start" x="1180.38" y="-56.95" font-family="Times,serif" font-size="14.00">name</text>
<polyline fill="none" stroke="black" points="1112.75,-49.75 1278,-49.75"/>
<text text-anchor="start" x="1193.5" y="-32.45" font-family="Times,serif" font-size="14.00"> </text>
</g>
<!-- pytest_cache_assert._check_assert.cache_store.CacheStoreType -->
<g id="node4" class="node">
<title>pytest_cache_assert._check_assert.cache_store.CacheStoreType</title>
<polygon fill="none" stroke="black" points="0,-12.75 0,-111.25 490.75,-111.25 490.75,-12.75 0,-12.75"/>
<text text-anchor="start" x="200.38" y="-93.95" font-family="Times,serif" font-size="14.00">CacheStoreType</text>
<polyline fill="none" stroke="black" points="0,-86.75 490.75,-86.75"/>
<polyline fill="none" stroke="black" points="0,-86.75 490.75,-86.75"/>
<text text-anchor="start" x="8" y="-69.45" font-family="Times,serif" font-size="14.00">initialize(path_cache_dir: Optional[Path], converters: Optional[List[Converter]]): None</text>
<text text-anchor="start" x="8" y="-52.95" font-family="Times,serif" font-size="14.00">read_cached_data(path_cache_file: Path): Any</text>
<text text-anchor="start" x="8" y="-36.45" font-family="Times,serif" font-size="14.00">serialize(data: Any): Any</text>
<text text-anchor="start" x="8" y="-19.95" font-family="Times,serif" font-size="14.00">write(path_cache_file: Path): None</text>
</g>
<!-- pytest_cache_assert._check_assert.cache_store.CacheStoreType&#45;&gt;pytest_cache_assert._check_assert.assert_config.AssertConfig -->
<g id="edge1" class="edge">
<title>pytest_cache_assert._check_assert.cache_store.CacheStoreType&#45;&gt;pytest_cache_assert._check_assert.assert_config.AssertConfig</title>
<path fill="none" stroke="black" d="M285.5,-111.2C299.68,-128.23 316.09,-147.95 332.11,-167.2"/>
<polygon fill="black" stroke="black" points="332.19,-167.28 339.1,-169.34 339.86,-176.51 332.95,-174.45 332.19,-167.28"/>
<text text-anchor="middle" x="357.25" y="-145.2" font-family="Times,serif" font-size="14.00" fill="green">cache_store</text>
</g>
<!-- pytest_cache_assert._check_assert.assert_rules.Comparator -->
<g id="node5" class="node">
<title>pytest_cache_assert._check_assert.assert_rules.Comparator</title>
<polygon fill="none" stroke="black" points="1295.75,-25.25 1295.75,-98.75 1377,-98.75 1377,-25.25 1295.75,-25.25"/>
<text text-anchor="start" x="1303.75" y="-81.45" font-family="Times,serif" font-size="14.00">Comparator</text>
<polyline fill="none" stroke="black" points="1295.75,-74.25 1377,-74.25"/>
<text text-anchor="start" x="1321.38" y="-56.95" font-family="Times,serif" font-size="14.00">name</text>
<polyline fill="none" stroke="black" points="1295.75,-49.75 1377,-49.75"/>
<text text-anchor="start" x="1334.5" y="-32.45" font-family="Times,serif" font-size="14.00"> </text>
</g>
<!-- pytest_cache_assert._check_assert.converter.Converter -->
<g id="node6" class="node">
<title>pytest_cache_assert._check_assert.converter.Converter</title>
<polygon fill="none" stroke="black" points="1394.88,-17 1394.88,-107 1503.88,-107 1503.88,-17 1394.88,-17"/>
<text text-anchor="start" x="1422.38" y="-89.7" font-family="Times,serif" font-size="14.00">Converter</text>
<polyline fill="none" stroke="black" points="1394.88,-82.5 1503.88,-82.5"/>
<text text-anchor="start" x="1402.88" y="-65.2" font-family="Times,serif" font-size="14.00">func : Callable</text>
<text text-anchor="start" x="1402.88" y="-48.7" font-family="Times,serif" font-size="14.00">types : List[Any]</text>
<polyline fill="none" stroke="black" points="1394.88,-41.5 1503.88,-41.5"/>
<text text-anchor="start" x="1447.5" y="-24.2" font-family="Times,serif" font-size="14.00"> </text>
</g>
<!-- pytest_cache_assert._check_assert.validator.DictDiffValidator -->
<g id="node7" class="node">
<title>pytest_cache_assert._check_assert.validator.DictDiffValidator</title>
<polygon fill="none" stroke="black" points="1521.75,-37.5 1521.75,-86.5 1633,-86.5 1633,-37.5 1521.75,-37.5"/>
<text text-anchor="start" x="1529.75" y="-69.2" font-family="Times,serif" font-size="14.00">DictDiffValidator</text>
<polyline fill="none" stroke="black" points="1521.75,-62 1633,-62"/>
<polyline fill="none" stroke="black" points="1521.75,-62 1633,-62"/>
<text text-anchor="start" x="1530.5" y="-44.7" font-family="Times,serif" font-size="14.00">assertion(): None</text>
</g>
<!-- pytest_cache_assert._check_assert.differ.DiffResults -->
<g id="node8" class="node">
<title>pytest_cache_assert._check_assert.differ.DiffResults</title>
<polygon fill="none" stroke="black" points="1651.25,-17 1651.25,-107 1945.5,-107 1945.5,-17 1651.25,-17"/>
<text text-anchor="start" x="1767.25" y="-89.7" font-family="Times,serif" font-size="14.00">DiffResults</text>
<polyline fill="none" stroke="black" points="1651.25,-82.5 1945.5,-82.5"/>
<text text-anchor="start" x="1749.62" y="-65.2" font-family="Times,serif" font-size="14.00">results : dict, Dict</text>
<polyline fill="none" stroke="black" points="1651.25,-58 1945.5,-58"/>
<text text-anchor="start" x="1659.25" y="-40.7" font-family="Times,serif" font-size="14.00">append(assert_rule: AssertRule, result: Dict): None</text>
<text text-anchor="start" x="1659.25" y="-24.2" font-family="Times,serif" font-size="14.00">to_dict(): Dict</text>
</g>
<!-- pytest_cache_assert._check_assert.cache_store.LocalJSONCacheStore -->
<g id="node9" class="node">
<title>pytest_cache_assert._check_assert.cache_store.LocalJSONCacheStore</title>
<polygon fill="none" stroke="black" points="1964,-12.75 1964,-111.25 2454.75,-111.25 2454.75,-12.75 1964,-12.75"/>
<text text-anchor="start" x="2146.75" y="-93.95" font-family="Times,serif" font-size="14.00">LocalJSONCacheStore</text>
<polyline fill="none" stroke="black" points="1964,-86.75 2454.75,-86.75"/>
<polyline fill="none" stroke="black" points="1964,-86.75 2454.75,-86.75"/>
<text text-anchor="start" x="1972" y="-69.45" font-family="Times,serif" font-size="14.00">initialize(path_cache_dir: Optional[Path], converters: Optional[List[Converter]]): None</text>
<text text-anchor="start" x="1972" y="-52.95" font-family="Times,serif" font-size="14.00">read_cached_data(path_cache_file: Path): Any</text>
<text text-anchor="start" x="1972" y="-36.45" font-family="Times,serif" font-size="14.00">serialize(data: Any): Any</text>
<text text-anchor="start" x="1972" y="-19.95" font-family="Times,serif" font-size="14.00">write(path_cache_file: Path): None</text>
</g>
<!-- pytest_cache_assert._check_assert.config.MissingConfigItemError -->
<g id="node10" class="node">
<title>pytest_cache_assert._check_assert.config.MissingConfigItemError</title>
<polygon fill="none" stroke="black" points="2472.5,-37.5 2472.5,-86.5 2624.25,-86.5 2624.25,-37.5 2472.5,-37.5"/>
<text text-anchor="start" x="2480.5" y="-69.2" font-family="Times,serif" font-size="14.00" fill="red">MissingConfigItemError</text>
<polyline fill="none" stroke="black" points="2472.5,-62 2624.25,-62"/>
<polyline fill="none" stroke="black" points="2472.5,-62 2624.25,-62"/>
<text text-anchor="start" x="2546.5" y="-44.7" font-family="Times,serif" font-size="14.00" fill="red"> </text>
</g>
<!-- pytest_cache_assert._check_assert.error_message.NoCacheError -->
<g id="node11" class="node">
<title>pytest_cache_assert._check_assert.error_message.NoCacheError</title>
<polygon fill="none" stroke="black" points="2642,-37.5 2642,-86.5 2736.75,-86.5 2736.75,-37.5 2642,-37.5"/>
<text text-anchor="start" x="2650" y="-69.2" font-family="Times,serif" font-size="14.00" fill="red">NoCacheError</text>
<polyline fill="none" stroke="black" points="2642,-62 2736.75,-62"/>
<polyline fill="none" stroke="black" points="2642,-62 2736.75,-62"/>
<text text-anchor="start" x="2687.5" y="-44.7" font-family="Times,serif" font-size="14.00" fill="red"> </text>
</g>
<!-- pytest_cache_assert._check_assert.constants.NotFound -->
<g id="node12" class="node">
<title>pytest_cache_assert._check_assert.constants.NotFound</title>
<polygon fill="none" stroke="black" points="2755,-37.5 2755,-86.5 2825.75,-86.5 2825.75,-37.5 2755,-37.5"/>
<text text-anchor="start" x="2763" y="-69.2" font-family="Times,serif" font-size="14.00">NotFound</text>
<polyline fill="none" stroke="black" points="2755,-62 2825.75,-62"/>
<polyline fill="none" stroke="black" points="2755,-62 2825.75,-62"/>
<text text-anchor="start" x="2788.5" y="-44.7" font-family="Times,serif" font-size="14.00"> </text>
</g>
<!-- pytest_cache_assert._check_assert.error_message.RichAssertionError -->
<g id="node13" class="node">
<title>pytest_cache_assert._check_assert.error_message.RichAssertionError</title>
<polygon fill="none" stroke="black" points="2843.62,-25.25 2843.62,-98.75 3419.12,-98.75 3419.12,-25.25 2843.62,-25.25"/>
<text text-anchor="start" x="3078.5" y="-81.45" font-family="Times,serif" font-size="14.00" fill="red">RichAssertionError</text>
<polyline fill="none" stroke="black" points="2843.62,-74.25 3419.12,-74.25"/>
<text text-anchor="start" x="3069.88" y="-56.95" font-family="Times,serif" font-size="14.00" fill="red">error_info : NoneType</text>
<polyline fill="none" stroke="black" points="2843.62,-49.75 3419.12,-49.75"/>
<text text-anchor="start" x="2851.62" y="-32.45" font-family="Times,serif" font-size="14.00" fill="red">create_message(test_data: Any, cached_data: Any, path_cache_file: Path, diff_results: DiffResults): str</text>
</g>
<!-- pytest_cache_assert.plugin.TestMetadata -->
<g id="node14" class="node">
<title>pytest_cache_assert.plugin.TestMetadata</title>
<polygon fill="none" stroke="black" points="3437.12,-0.5 3437.12,-123.5 3841.62,-123.5 3841.62,-0.5 3437.12,-0.5"/>
<text text-anchor="start" x="3602.25" y="-106.2" font-family="Times,serif" font-size="14.00">TestMetadata</text>
<polyline fill="none" stroke="black" points="3437.12,-99 3841.62,-99"/>
<text text-anchor="start" x="3549.75" y="-81.7" font-family="Times,serif" font-size="14.00">func_args : Union[Dict, Iterable]</text>
<text text-anchor="start" x="3549.75" y="-65.2" font-family="Times,serif" font-size="14.00">model_config : ConfigDict</text>
<text text-anchor="start" x="3549.75" y="-48.7" font-family="Times,serif" font-size="14.00">test_file : str</text>
<text text-anchor="start" x="3549.75" y="-32.2" font-family="Times,serif" font-size="14.00">test_name : str</text>
<polyline fill="none" stroke="black" points="3437.12,-25 3841.62,-25"/>
<text text-anchor="start" x="3445.12" y="-7.7" font-family="Times,serif" font-size="14.00">from_pytest(request: FixtureRequest, rel_test_file: Path): TestMetadata</text>
</g>
<!-- pytest_cache_assert._check_assert.serializer.UnconvertableError -->
<g id="node15" class="node">
<title>pytest_cache_assert._check_assert.serializer.UnconvertableError</title>
<polygon fill="none" stroke="black" points="3859.38,-37.5 3859.38,-86.5 3983.38,-86.5 3983.38,-37.5 3859.38,-37.5"/>
<text text-anchor="start" x="3867.38" y="-69.2" font-family="Times,serif" font-size="14.00" fill="red">UnconvertableError</text>
<polyline fill="none" stroke="black" points="3859.38,-62 3983.38,-62"/>
<polyline fill="none" stroke="black" points="3859.38,-62 3983.38,-62"/>
<text text-anchor="start" x="3919.5" y="-44.7" font-family="Times,serif" font-size="14.00" fill="red"> </text>
</g>
<!-- pytest_cache_assert._check_assert.validator.ValidatorType -->
<g id="node16" class="node">
<title>pytest_cache_assert._check_assert.validator.ValidatorType</title>
<polygon fill="none" stroke="black" points="508.5,-37.5 508.5,-86.5 618.25,-86.5 618.25,-37.5 508.5,-37.5"/>
<text text-anchor="start" x="524.75" y="-69.2" font-family="Times,serif" font-size="14.00">ValidatorType</text>
<polyline fill="none" stroke="black" points="508.5,-62 618.25,-62"/>
<polyline fill="none" stroke="black" points="508.5,-62 618.25,-62"/>
<text text-anchor="start" x="516.5" y="-44.7" font-family="Times,serif" font-size="14.00">assertion(): None</text>
</g>
<!-- pytest_cache_assert._check_assert.validator.ValidatorType&#45;&gt;pytest_cache_assert._check_assert.assert_config.AssertConfig -->
<g id="edge2" class="edge">
<title>pytest_cache_assert._check_assert.validator.ValidatorType&#45;&gt;pytest_cache_assert._check_assert.assert_config.AssertConfig</title>
<path fill="none" stroke="black" d="M543.88,-86.42C526.97,-106.74 501.39,-137.46 476.74,-167.07"/>
<polygon fill="black" stroke="black" points="476.68,-167.14 475.92,-174.31 469.01,-176.36 469.77,-169.19 476.68,-167.14"/>
<text text-anchor="middle" x="517.38" y="-145.2" font-family="Times,serif" font-size="14.00" fill="green">validator</text>
</g>
<!-- pytest_cache_assert._check_assert.assert_rules.Wild -->
<g id="node17" class="node">
<title>pytest_cache_assert._check_assert.assert_rules.Wild</title>
<polygon fill="none" stroke="black" points="4001.75,-12.75 4001.75,-111.25 4227,-111.25 4227,-12.75 4001.75,-12.75"/>
<text text-anchor="start" x="4100.88" y="-93.95" font-family="Times,serif" font-size="14.00">Wild</text>
<polyline fill="none" stroke="black" points="4001.75,-86.75 4227,-86.75"/>
<polyline fill="none" stroke="black" points="4001.75,-86.75 4227,-86.75"/>
<text text-anchor="start" x="4009.75" y="-69.45" font-family="Times,serif" font-size="14.00">build(inner_pattern: str, count: int): str</text>
<text text-anchor="start" x="4009.75" y="-52.95" font-family="Times,serif" font-size="14.00">index(count: int): str</text>
<text text-anchor="start" x="4009.75" y="-36.45" font-family="Times,serif" font-size="14.00">keys(count: int): str</text>
<text text-anchor="start" x="4009.75" y="-19.95" font-family="Times,serif" font-size="14.00">recur(count: int): str</text>
</g>
<!-- pytest_cache_assert._check_assert.serializer._CacheAssertSerializer -->
<g id="node18" class="node">
<title>pytest_cache_assert._check_assert.serializer._CacheAssertSerializer</title>
<polygon fill="none" stroke="black" points="4245,-37.5 4245,-86.5 4387.75,-86.5 4387.75,-37.5 4245,-37.5"/>
<text text-anchor="start" x="4253" y="-69.2" font-family="Times,serif" font-size="14.00">_CacheAssertSerializer</text>
<polyline fill="none" stroke="black" points="4245,-62 4387.75,-62"/>
<polyline fill="none" stroke="black" points="4245,-62 4387.75,-62"/>
<text text-anchor="start" x="4254.5" y="-44.7" font-family="Times,serif" font-size="14.00">default(obj: Any): Any</text>
</g>
<!-- pytest_cache_assert._check_assert.config._ConfigContainer -->
<g id="node19" class="node">
<title>pytest_cache_assert._check_assert.config._ConfigContainer</title>
<polygon fill="none" stroke="black" points="4406.25,-17 4406.25,-107 4766.5,-107 4766.5,-17 4406.25,-17"/>
<text text-anchor="start" x="4537.62" y="-89.7" font-family="Times,serif" font-size="14.00">_ConfigContainer</text>
<polyline fill="none" stroke="black" points="4406.25,-82.5 4766.5,-82.5"/>
<text text-anchor="start" x="4532" y="-65.2" font-family="Times,serif" font-size="14.00">data : Dict[str, Any]</text>
<polyline fill="none" stroke="black" points="4406.25,-58 4766.5,-58"/>
<text text-anchor="start" x="4414.25" y="-40.7" font-family="Times,serif" font-size="14.00">register(key: CacheAssertContainerKeys, instance: Any): None</text>
<text text-anchor="start" x="4414.25" y="-24.2" font-family="Times,serif" font-size="14.00">retrieve(key: CacheAssertContainerKeys): Any</text>
</g>
<!-- pytest_cache_assert._check_assert.serializer._Converters -->
<g id="node20" class="node">
<title>pytest_cache_assert._check_assert.serializer._Converters</title>
<polygon fill="none" stroke="black" points="4785,-0.5 4785,-123.5 5137.75,-123.5 5137.75,-0.5 4785,-0.5"/>
<text text-anchor="start" x="4928.38" y="-106.2" font-family="Times,serif" font-size="14.00">_Converters</text>
<polyline fill="none" stroke="black" points="4785,-99 5137.75,-99"/>
<text text-anchor="start" x="4814" y="-81.7" font-family="Times,serif" font-size="14.00">converter_lookup : Dict[Any, List[T_CONVERTER]]</text>
<text text-anchor="start" x="4814" y="-65.2" font-family="Times,serif" font-size="14.00">converter_lookup : defaultdict, dict</text>
<text text-anchor="start" x="4814" y="-48.7" font-family="Times,serif" font-size="14.00">converters : List[Tuple[Any, T_CONVERTER]]</text>
<polyline fill="none" stroke="black" points="4785,-41.5 5137.75,-41.5"/>
<text text-anchor="start" x="4793" y="-24.2" font-family="Times,serif" font-size="14.00">get_lookup(): Dict[Any, List[T_CONVERTER]]</text>
<text text-anchor="start" x="4793" y="-7.7" font-family="Times,serif" font-size="14.00">register(types: List[Any], converter: T_CONVERTER): None</text>
</g>
<!-- pytest_cache_assert._RuntimeTypeCheckingModes -->
<g id="node21" class="node">
<title>pytest_cache_assert._RuntimeTypeCheckingModes</title>
<polygon fill="none" stroke="black" points="5155.88,-25.25 5155.88,-98.75 5342.88,-98.75 5342.88,-25.25 5155.88,-25.25"/>
<text text-anchor="start" x="5163.88" y="-81.45" font-family="Times,serif" font-size="14.00">_RuntimeTypeCheckingModes</text>
<polyline fill="none" stroke="black" points="5155.88,-74.25 5342.88,-74.25"/>
<text text-anchor="start" x="5234.38" y="-56.95" font-family="Times,serif" font-size="14.00">name</text>
<polyline fill="none" stroke="black" points="5155.88,-49.75 5342.88,-49.75"/>
<text text-anchor="start" x="5178.88" y="-32.45" font-family="Times,serif" font-size="14.00">from_environment(): Self</text>
</g>
</g>
</svg>
