<?xml version="1.0" encoding="UTF-8" standalone="no"?>
<!DOCTYPE svg PUBLIC "-//W3C//DTD SVG 1.1//EN"
 "http://www.w3.org/Graphics/SVG/1.1/DTD/svg11.dtd">
<!-- Generated by graphviz version 2.50.0 (20211204.2007)
 -->
<!-- Title: classes Pages: 1 -->
<svg width="1984pt" height="273pt"
 viewBox="0.00 0.00 1983.50 273.00" xmlns="http://www.w3.org/2000/svg" xmlns:xlink="http://www.w3.org/1999/xlink">
<g id="graph0" class="graph" transform="scale(1 1) rotate(0) translate(4 269)">
<title>classes</title>
<polygon fill="white" stroke="transparent" points="-4,4 -4,-269 1979.5,-269 1979.5,4 -4,4"/>
<!-- pytest_cache_assert.plugin.AssertConfig -->
<g id="node1" class="node">
<title>pytest_cache_assert.plugin.AssertConfig</title>
<polygon fill="none" stroke="black" points="0,-83 0,-182 233,-182 233,-83 0,-83"/>
<text text-anchor="middle" x="116.5" y="-166.8" font-family="Times,serif" font-size="14.00">AssertConfig</text>
<polyline fill="none" stroke="black" points="0,-159 233,-159 "/>
<text text-anchor="start" x="8" y="-143.8" font-family="Times,serif" font-size="14.00">always_write : bool</text>
<text text-anchor="start" x="8" y="-128.8" font-family="Times,serif" font-size="14.00">cache_dir_rel_path : str</text>
<text text-anchor="start" x="8" y="-113.8" font-family="Times,serif" font-size="14.00">extra_ser_rules : List[Tuple[Any, Any]]</text>
<polyline fill="none" stroke="black" points="0,-106 233,-106 "/>
<text text-anchor="middle" x="116.5" y="-90.8" font-family="Times,serif" font-size="14.00"> </text>
</g>
<!-- pytest_cache_assert._check_assert.config.CacheAssertContainerKeys -->
<g id="node2" class="node">
<title>pytest_cache_assert._check_assert.config.CacheAssertContainerKeys</title>
<polygon fill="none" stroke="black" points="251.5,-98 251.5,-167 417.5,-167 417.5,-98 251.5,-98"/>
<text text-anchor="middle" x="334.5" y="-151.8" font-family="Times,serif" font-size="14.00">CacheAssertContainerKeys</text>
<polyline fill="none" stroke="black" points="251.5,-144 417.5,-144 "/>
<text text-anchor="start" x="259.5" y="-128.8" font-family="Times,serif" font-size="14.00">name</text>
<polyline fill="none" stroke="black" points="251.5,-121 417.5,-121 "/>
<text text-anchor="middle" x="334.5" y="-105.8" font-family="Times,serif" font-size="14.00"> </text>
</g>
<!-- pytest_cache_assert._check_assert.serializer.CacheAssertSerializer -->
<g id="node3" class="node">
<title>pytest_cache_assert._check_assert.serializer.CacheAssertSerializer</title>
<polygon fill="none" stroke="black" points="435.5,-97.5 435.5,-167.5 575.5,-167.5 575.5,-97.5 435.5,-97.5"/>
<text text-anchor="middle" x="505.5" y="-152.3" font-family="Times,serif" font-size="14.00">CacheAssertSerializer</text>
<polyline fill="none" stroke="black" points="435.5,-144.5 575.5,-144.5 "/>
<polyline fill="none" stroke="black" points="435.5,-120.5 575.5,-120.5 "/>
<text text-anchor="start" x="443.5" y="-105.3" font-family="Times,serif" font-size="14.00">default(obj: Any): Any</text>
</g>
<!-- pytest_cache_assert._check_assert.key_rules.Comparator -->
<g id="node4" class="node">
<title>pytest_cache_assert._check_assert.key_rules.Comparator</title>
<polygon fill="none" stroke="black" points="593.5,-98 593.5,-167 675.5,-167 675.5,-98 593.5,-98"/>
<text text-anchor="middle" x="634.5" y="-151.8" font-family="Times,serif" font-size="14.00">Comparator</text>
<polyline fill="none" stroke="black" points="593.5,-144 675.5,-144 "/>
<text text-anchor="start" x="601.5" y="-128.8" font-family="Times,serif" font-size="14.00">name</text>
<polyline fill="none" stroke="black" points="593.5,-121 675.5,-121 "/>
<text text-anchor="middle" x="634.5" y="-105.8" font-family="Times,serif" font-size="14.00"> </text>
</g>
<!-- pytest_cache_assert._check_assert.differ.DictDiff -->
<g id="node5" class="node">
<title>pytest_cache_assert._check_assert.differ.DictDiff</title>
<polygon fill="none" stroke="black" points="693.5,-0.5 693.5,-264.5 943.5,-264.5 943.5,-0.5 693.5,-0.5"/>
<text text-anchor="middle" x="818.5" y="-249.3" font-family="Times,serif" font-size="14.00">DictDiff</text>
<polyline fill="none" stroke="black" points="693.5,-241.5 943.5,-241.5 "/>
<text text-anchor="start" x="701.5" y="-226.3" font-family="Times,serif" font-size="14.00">data</text>
<text text-anchor="start" x="701.5" y="-211.3" font-family="Times,serif" font-size="14.00">data : _SpecialForm</text>
<text text-anchor="start" x="701.5" y="-196.3" font-family="Times,serif" font-size="14.00">diff_type : str</text>
<text text-anchor="start" x="701.5" y="-181.3" font-family="Times,serif" font-size="14.00">index</text>
<text text-anchor="start" x="701.5" y="-166.3" font-family="Times,serif" font-size="14.00">index : Optional[int]</text>
<text text-anchor="start" x="701.5" y="-151.3" font-family="Times,serif" font-size="14.00">keys : List[Any]</text>
<text text-anchor="start" x="701.5" y="-136.3" font-family="Times,serif" font-size="14.00">keys : list</text>
<text text-anchor="start" x="701.5" y="-121.3" font-family="Times,serif" font-size="14.00">new</text>
<text text-anchor="start" x="701.5" y="-106.3" font-family="Times,serif" font-size="14.00">new : _SpecialForm</text>
<text text-anchor="start" x="701.5" y="-91.3" font-family="Times,serif" font-size="14.00">old</text>
<text text-anchor="start" x="701.5" y="-76.3" font-family="Times,serif" font-size="14.00">old : _SpecialForm</text>
<text text-anchor="start" x="701.5" y="-61.3" font-family="Times,serif" font-size="14.00">raw_data : _SpecialForm</text>
<text text-anchor="start" x="701.5" y="-46.3" font-family="Times,serif" font-size="14.00">raw_keys</text>
<text text-anchor="start" x="701.5" y="-31.3" font-family="Times,serif" font-size="14.00">raw_keys : Union[str, List[Union[str, int]]]</text>
<polyline fill="none" stroke="black" points="693.5,-23.5 943.5,-23.5 "/>
<text text-anchor="start" x="701.5" y="-8.3" font-family="Times,serif" font-size="14.00">get_diff_result(): DiffResult</text>
</g>
<!-- pytest_cache_assert._check_assert.differ.DiffResult -->
<g id="node6" class="node">
<title>pytest_cache_assert._check_assert.differ.DiffResult</title>
<polygon fill="none" stroke="black" points="962,-75.5 962,-189.5 1317,-189.5 1317,-75.5 962,-75.5"/>
<text text-anchor="middle" x="1139.5" y="-174.3" font-family="Times,serif" font-size="14.00">DiffResult</text>
<polyline fill="none" stroke="black" points="962,-166.5 1317,-166.5 "/>
<text text-anchor="start" x="970" y="-151.3" font-family="Times,serif" font-size="14.00">key_list : List[Union[str, int]]</text>
<text text-anchor="start" x="970" y="-136.3" font-family="Times,serif" font-size="14.00">list_index : Optional[int]</text>
<text text-anchor="start" x="970" y="-121.3" font-family="Times,serif" font-size="14.00">new : _SpecialForm</text>
<text text-anchor="start" x="970" y="-106.3" font-family="Times,serif" font-size="14.00">old : _SpecialForm</text>
<polyline fill="none" stroke="black" points="962,-98.5 1317,-98.5 "/>
<text text-anchor="start" x="970" y="-83.3" font-family="Times,serif" font-size="14.00">match_key_pattern(pattern: List[Union[str, Wildcards]]): bool</text>
</g>
<!-- pytest_cache_assert._check_assert.key_rules.KeyRule -->
<g id="node7" class="node">
<title>pytest_cache_assert._check_assert.key_rules.KeyRule</title>
<polygon fill="none" stroke="black" points="1335.5,-90.5 1335.5,-174.5 1643.5,-174.5 1643.5,-90.5 1335.5,-90.5"/>
<text text-anchor="middle" x="1489.5" y="-159.3" font-family="Times,serif" font-size="14.00">KeyRule</text>
<polyline fill="none" stroke="black" points="1335.5,-151.5 1643.5,-151.5 "/>
<text text-anchor="start" x="1343.5" y="-136.3" font-family="Times,serif" font-size="14.00">func : Callable[[DIFF_TYPES, DIFF_TYPES], bool]</text>
<text text-anchor="start" x="1343.5" y="-121.3" font-family="Times,serif" font-size="14.00">pattern : List[Union[str, Wildcards]]</text>
<polyline fill="none" stroke="black" points="1335.5,-113.5 1643.5,-113.5 "/>
<text text-anchor="middle" x="1489.5" y="-98.3" font-family="Times,serif" font-size="14.00"> </text>
</g>
<!-- pytest_cache_assert._check_assert.error_message.RichAssertionError -->
<g id="node8" class="node">
<title>pytest_cache_assert._check_assert.error_message.RichAssertionError</title>
<polygon fill="none" stroke="black" points="1661.5,-98 1661.5,-167 1801.5,-167 1801.5,-98 1661.5,-98"/>
<text text-anchor="middle" x="1731.5" y="-151.8" font-family="Times,serif" font-size="14.00" fill="red">RichAssertionError</text>
<polyline fill="none" stroke="black" points="1661.5,-144 1801.5,-144 "/>
<text text-anchor="start" x="1669.5" y="-128.8" font-family="Times,serif" font-size="14.00" fill="red">error_info : NoneType</text>
<polyline fill="none" stroke="black" points="1661.5,-121 1801.5,-121 "/>
<text text-anchor="middle" x="1731.5" y="-105.8" font-family="Times,serif" font-size="14.00" fill="red"> </text>
</g>
<!-- pytest_cache_assert._check_assert.constants.TrueNull -->
<g id="node9" class="node">
<title>pytest_cache_assert._check_assert.constants.TrueNull</title>
<polygon fill="none" stroke="black" points="1819.5,-97.5 1819.5,-167.5 1885.5,-167.5 1885.5,-97.5 1819.5,-97.5"/>
<text text-anchor="middle" x="1852.5" y="-152.3" font-family="Times,serif" font-size="14.00">TrueNull</text>
<polyline fill="none" stroke="black" points="1819.5,-144.5 1885.5,-144.5 "/>
<polyline fill="none" stroke="black" points="1819.5,-120.5 1885.5,-120.5 "/>
<text text-anchor="middle" x="1852.5" y="-105.3" font-family="Times,serif" font-size="14.00"> </text>
</g>
<!-- pytest_cache_assert._check_assert.constants.Wildcards -->
<g id="node10" class="node">
<title>pytest_cache_assert._check_assert.constants.Wildcards</title>
<polygon fill="none" stroke="black" points="1903.5,-98 1903.5,-167 1975.5,-167 1975.5,-98 1903.5,-98"/>
<text text-anchor="middle" x="1939.5" y="-151.8" font-family="Times,serif" font-size="14.00">Wildcards</text>
<polyline fill="none" stroke="black" points="1903.5,-144 1975.5,-144 "/>
<text text-anchor="start" x="1911.5" y="-128.8" font-family="Times,serif" font-size="14.00">name</text>
<polyline fill="none" stroke="black" points="1903.5,-121 1975.5,-121 "/>
<text text-anchor="middle" x="1939.5" y="-105.8" font-family="Times,serif" font-size="14.00"> </text>
</g>
</g>
</svg>
