<?xml version="1.0" encoding="UTF-8" standalone="no"?>
<!DOCTYPE svg PUBLIC "-//W3C//DTD SVG 1.1//EN"
 "http://www.w3.org/Graphics/SVG/1.1/DTD/svg11.dtd">
<!-- Generated by graphviz version 2.49.3 (20211023.0002)
 -->
<!-- Title: classes Pages: 1 -->
<svg width="985pt" height="79pt"
 viewBox="0.00 0.00 984.50 79.00" xmlns="http://www.w3.org/2000/svg" xmlns:xlink="http://www.w3.org/1999/xlink">
<g id="graph0" class="graph" transform="scale(1 1) rotate(0) translate(4 75)">
<title>classes</title>
<polygon fill="white" stroke="transparent" points="-4,4 -4,-75 980.5,-75 980.5,4 -4,4"/>
<!-- pytest_cache_assert._check_assert.differ.DictDiff -->
<g id="node1" class="node">
<title>pytest_cache_assert._check_assert.differ.DictDiff</title>
<polygon fill="none" stroke="black" points="0,-1 0,-70 174,-70 174,-1 0,-1"/>
<text text-anchor="middle" x="87" y="-54.8" font-family="Times,serif" font-size="14.00">DictDiff</text>
<polyline fill="none" stroke="black" points="0,-47 174,-47 "/>
<text text-anchor="start" x="8" y="-31.8" font-family="Times,serif" font-size="14.00">raw_data : _SpecialForm</text>
<polyline fill="none" stroke="black" points="0,-24 174,-24 "/>
<text text-anchor="start" x="8" y="-8.8" font-family="Times,serif" font-size="14.00">get_diff_result(): DiffResult</text>
</g>
<!-- pytest_cache_assert._check_assert.differ.DiffResult -->
<g id="node2" class="node">
<title>pytest_cache_assert._check_assert.differ.DiffResult</title>
<polygon fill="none" stroke="black" points="192,-0.5 192,-70.5 556,-70.5 556,-0.5 192,-0.5"/>
<text text-anchor="middle" x="374" y="-55.3" font-family="Times,serif" font-size="14.00">DiffResult</text>
<polyline fill="none" stroke="black" points="192,-47.5 556,-47.5 "/>
<polyline fill="none" stroke="black" points="192,-23.5 556,-23.5 "/>
<text text-anchor="start" x="200" y="-8.3" font-family="Times,serif" font-size="14.00">match_key_pattern(pattern: List[Union[str, Wildcards]]): bool</text>
</g>
<!-- pytest_cache_assert._check_assert.key_rules.KeyRule -->
<g id="node3" class="node">
<title>pytest_cache_assert._check_assert.key_rules.KeyRule</title>
<polygon fill="none" stroke="black" points="574,-0.5 574,-70.5 640,-70.5 640,-0.5 574,-0.5"/>
<text text-anchor="middle" x="607" y="-55.3" font-family="Times,serif" font-size="14.00">KeyRule</text>
<polyline fill="none" stroke="black" points="574,-47.5 640,-47.5 "/>
<polyline fill="none" stroke="black" points="574,-23.5 640,-23.5 "/>
<text text-anchor="middle" x="607" y="-8.3" font-family="Times,serif" font-size="14.00"> </text>
</g>
<!-- pytest_cache_assert._check_assert.error_message.RichAssertionError -->
<g id="node4" class="node">
<title>pytest_cache_assert._check_assert.error_message.RichAssertionError</title>
<polygon fill="none" stroke="black" points="658,-1 658,-70 800,-70 800,-1 658,-1"/>
<text text-anchor="middle" x="729" y="-54.8" font-family="Times,serif" font-size="14.00" fill="red">RichAssertionError</text>
<polyline fill="none" stroke="black" points="658,-47 800,-47 "/>
<text text-anchor="start" x="666" y="-31.8" font-family="Times,serif" font-size="14.00" fill="red">error_info : NoneType</text>
<polyline fill="none" stroke="black" points="658,-24 800,-24 "/>
<text text-anchor="middle" x="729" y="-8.8" font-family="Times,serif" font-size="14.00" fill="red"> </text>
</g>
<!-- pytest_cache_assert._check_assert.constants.TrueNull -->
<g id="node5" class="node">
<title>pytest_cache_assert._check_assert.constants.TrueNull</title>
<polygon fill="none" stroke="black" points="818.5,-0.5 818.5,-70.5 885.5,-70.5 885.5,-0.5 818.5,-0.5"/>
<text text-anchor="middle" x="852" y="-55.3" font-family="Times,serif" font-size="14.00">TrueNull</text>
<polyline fill="none" stroke="black" points="818.5,-47.5 885.5,-47.5 "/>
<polyline fill="none" stroke="black" points="818.5,-23.5 885.5,-23.5 "/>
<text text-anchor="middle" x="852" y="-8.3" font-family="Times,serif" font-size="14.00"> </text>
</g>
<!-- pytest_cache_assert._check_assert.constants.Wildcards -->
<g id="node6" class="node">
<title>pytest_cache_assert._check_assert.constants.Wildcards</title>
<polygon fill="none" stroke="black" points="903.5,-1 903.5,-70 976.5,-70 976.5,-1 903.5,-1"/>
<text text-anchor="middle" x="940" y="-54.8" font-family="Times,serif" font-size="14.00">Wildcards</text>
<polyline fill="none" stroke="black" points="903.5,-47 976.5,-47 "/>
<text text-anchor="start" x="911.5" y="-31.8" font-family="Times,serif" font-size="14.00">name</text>
<polyline fill="none" stroke="black" points="903.5,-24 976.5,-24 "/>
<text text-anchor="middle" x="940" y="-8.8" font-family="Times,serif" font-size="14.00"> </text>
</g>
</g>
</svg>
