<?xml version="1.0" encoding="UTF-8" standalone="no"?>
<!DOCTYPE svg PUBLIC "-//W3C//DTD SVG 1.1//EN"
 "http://www.w3.org/Graphics/SVG/1.1/DTD/svg11.dtd">
<!-- Generated by graphviz version 2.43.0 (0)
 -->
<!-- Title: classes Pages: 1 -->
<svg width="2426pt" height="273pt"
 viewBox="0.00 0.00 2426.00 273.00" xmlns="http://www.w3.org/2000/svg" xmlns:xlink="http://www.w3.org/1999/xlink">
<g id="graph0" class="graph" transform="scale(1 1) rotate(0) translate(4 269)">
<title>classes</title>
<polygon fill="white" stroke="transparent" points="-4,4 -4,-269 2422,-269 2422,4 -4,4"/>
<!-- pytest_cache_assert.plugin.AssertConfig -->
<g id="node1" class="node">
<title>pytest_cache_assert.plugin.AssertConfig</title>
<polygon fill="none" stroke="black" points="0,-83 0,-182 288,-182 288,-83 0,-83"/>
<text text-anchor="middle" x="144" y="-166.8" font-family="Times,serif" font-size="14.00">AssertConfig</text>
<polyline fill="none" stroke="black" points="0,-159 288,-159 "/>
<text text-anchor="start" x="8" y="-143.8" font-family="Times,serif" font-size="14.00">always_write : bool</text>
<text text-anchor="start" x="8" y="-128.8" font-family="Times,serif" font-size="14.00">cache_dir_rel_path : str</text>
<text text-anchor="start" x="8" y="-113.8" font-family="Times,serif" font-size="14.00">extra_ser_rules : List[Tuple[Any, Any]]</text>
<polyline fill="none" stroke="black" points="0,-106 288,-106 "/>
<text text-anchor="middle" x="144" y="-90.8" font-family="Times,serif" font-size="14.00"> </text>
</g>
<!-- pytest_cache_assert._check_assert.config.CacheAssertContainerKeys -->
<g id="node2" class="node">
<title>pytest_cache_assert._check_assert.config.CacheAssertContainerKeys</title>
<polygon fill="none" stroke="black" points="306,-98 306,-167 516,-167 516,-98 306,-98"/>
<text text-anchor="middle" x="411" y="-151.8" font-family="Times,serif" font-size="14.00">CacheAssertContainerKeys</text>
<polyline fill="none" stroke="black" points="306,-144 516,-144 "/>
<text text-anchor="start" x="314" y="-128.8" font-family="Times,serif" font-size="14.00">name</text>
<polyline fill="none" stroke="black" points="306,-121 516,-121 "/>
<text text-anchor="middle" x="411" y="-105.8" font-family="Times,serif" font-size="14.00"> </text>
</g>
<!-- pytest_cache_assert._check_assert.serializer.CacheAssertSerializer -->
<g id="node3" class="node">
<title>pytest_cache_assert._check_assert.serializer.CacheAssertSerializer</title>
<polygon fill="none" stroke="black" points="534.5,-97.5 534.5,-167.5 709.5,-167.5 709.5,-97.5 534.5,-97.5"/>
<text text-anchor="middle" x="622" y="-152.3" font-family="Times,serif" font-size="14.00">CacheAssertSerializer</text>
<polyline fill="none" stroke="black" points="534.5,-144.5 709.5,-144.5 "/>
<polyline fill="none" stroke="black" points="534.5,-120.5 709.5,-120.5 "/>
<text text-anchor="start" x="542.5" y="-105.3" font-family="Times,serif" font-size="14.00">default(obj: Any): Any</text>
</g>
<!-- pytest_cache_assert._check_assert.key_rules.Comparator -->
<g id="node4" class="node">
<title>pytest_cache_assert._check_assert.key_rules.Comparator</title>
<polygon fill="none" stroke="black" points="728,-98 728,-167 830,-167 830,-98 728,-98"/>
<text text-anchor="middle" x="779" y="-151.8" font-family="Times,serif" font-size="14.00">Comparator</text>
<polyline fill="none" stroke="black" points="728,-144 830,-144 "/>
<text text-anchor="start" x="736" y="-128.8" font-family="Times,serif" font-size="14.00">name</text>
<polyline fill="none" stroke="black" points="728,-121 830,-121 "/>
<text text-anchor="middle" x="779" y="-105.8" font-family="Times,serif" font-size="14.00"> </text>
</g>
<!-- pytest_cache_assert._check_assert.differ.DictDiff -->
<g id="node5" class="node">
<title>pytest_cache_assert._check_assert.differ.DictDiff</title>
<polygon fill="none" stroke="black" points="848.5,-0.5 848.5,-264.5 1163.5,-264.5 1163.5,-0.5 848.5,-0.5"/>
<text text-anchor="middle" x="1006" y="-249.3" font-family="Times,serif" font-size="14.00">DictDiff</text>
<polyline fill="none" stroke="black" points="848.5,-241.5 1163.5,-241.5 "/>
<text text-anchor="start" x="856.5" y="-226.3" font-family="Times,serif" font-size="14.00">data</text>
<text text-anchor="start" x="856.5" y="-211.3" font-family="Times,serif" font-size="14.00">data : _SpecialForm</text>
<text text-anchor="start" x="856.5" y="-196.3" font-family="Times,serif" font-size="14.00">diff_type : str</text>
<text text-anchor="start" x="856.5" y="-181.3" font-family="Times,serif" font-size="14.00">index</text>
<text text-anchor="start" x="856.5" y="-166.3" font-family="Times,serif" font-size="14.00">index : Optional[int]</text>
<text text-anchor="start" x="856.5" y="-151.3" font-family="Times,serif" font-size="14.00">keys : List[Any]</text>
<text text-anchor="start" x="856.5" y="-136.3" font-family="Times,serif" font-size="14.00">keys : list</text>
<text text-anchor="start" x="856.5" y="-121.3" font-family="Times,serif" font-size="14.00">new</text>
<text text-anchor="start" x="856.5" y="-106.3" font-family="Times,serif" font-size="14.00">new : _SpecialForm</text>
<text text-anchor="start" x="856.5" y="-91.3" font-family="Times,serif" font-size="14.00">old</text>
<text text-anchor="start" x="856.5" y="-76.3" font-family="Times,serif" font-size="14.00">old : _SpecialForm</text>
<text text-anchor="start" x="856.5" y="-61.3" font-family="Times,serif" font-size="14.00">raw_data : _SpecialForm</text>
<text text-anchor="start" x="856.5" y="-46.3" font-family="Times,serif" font-size="14.00">raw_keys</text>
<text text-anchor="start" x="856.5" y="-31.3" font-family="Times,serif" font-size="14.00">raw_keys : Union[str, List[Union[str, int]]]</text>
<polyline fill="none" stroke="black" points="848.5,-23.5 1163.5,-23.5 "/>
<text text-anchor="start" x="856.5" y="-8.3" font-family="Times,serif" font-size="14.00">get_diff_result(): DiffResult</text>
</g>
<!-- pytest_cache_assert._check_assert.differ.DiffResult -->
<g id="node6" class="node">
<title>pytest_cache_assert._check_assert.differ.DiffResult</title>
<polygon fill="none" stroke="black" points="1182,-75.5 1182,-189.5 1636,-189.5 1636,-75.5 1182,-75.5"/>
<text text-anchor="middle" x="1409" y="-174.3" font-family="Times,serif" font-size="14.00">DiffResult</text>
<polyline fill="none" stroke="black" points="1182,-166.5 1636,-166.5 "/>
<text text-anchor="start" x="1190" y="-151.3" font-family="Times,serif" font-size="14.00">key_list : List[Union[str, int]]</text>
<text text-anchor="start" x="1190" y="-136.3" font-family="Times,serif" font-size="14.00">list_index : Optional[int]</text>
<text text-anchor="start" x="1190" y="-121.3" font-family="Times,serif" font-size="14.00">new : _SpecialForm</text>
<text text-anchor="start" x="1190" y="-106.3" font-family="Times,serif" font-size="14.00">old : _SpecialForm</text>
<polyline fill="none" stroke="black" points="1182,-98.5 1636,-98.5 "/>
<text text-anchor="start" x="1190" y="-83.3" font-family="Times,serif" font-size="14.00">match_key_pattern(pattern: List[Union[str, Wildcards]]): bool</text>
</g>
<!-- pytest_cache_assert._check_assert.key_rules.KeyRule -->
<g id="node7" class="node">
<title>pytest_cache_assert._check_assert.key_rules.KeyRule</title>
<polygon fill="none" stroke="black" points="1654,-90.5 1654,-174.5 2022,-174.5 2022,-90.5 1654,-90.5"/>
<text text-anchor="middle" x="1838" y="-159.3" font-family="Times,serif" font-size="14.00">KeyRule</text>
<polyline fill="none" stroke="black" points="1654,-151.5 2022,-151.5 "/>
<text text-anchor="start" x="1662" y="-136.3" font-family="Times,serif" font-size="14.00">func : Callable[[DIFF_TYPES, DIFF_TYPES], bool]</text>
<text text-anchor="start" x="1662" y="-121.3" font-family="Times,serif" font-size="14.00">pattern : List[Union[str, Wildcards]]</text>
<polyline fill="none" stroke="black" points="1654,-113.5 2022,-113.5 "/>
<text text-anchor="middle" x="1838" y="-98.3" font-family="Times,serif" font-size="14.00"> </text>
</g>
<!-- pytest_cache_assert._check_assert.error_message.RichAssertionError -->
<g id="node8" class="node">
<title>pytest_cache_assert._check_assert.error_message.RichAssertionError</title>
<polygon fill="none" stroke="black" points="2040.5,-98 2040.5,-167 2213.5,-167 2213.5,-98 2040.5,-98"/>
<text text-anchor="middle" x="2127" y="-151.8" font-family="Times,serif" font-size="14.00" fill="red">RichAssertionError</text>
<polyline fill="none" stroke="black" points="2040.5,-144 2213.5,-144 "/>
<text text-anchor="start" x="2048.5" y="-128.8" font-family="Times,serif" font-size="14.00" fill="red">error_info : NoneType</text>
<polyline fill="none" stroke="black" points="2040.5,-121 2213.5,-121 "/>
<text text-anchor="middle" x="2127" y="-105.8" font-family="Times,serif" font-size="14.00" fill="red"> </text>
</g>
<!-- pytest_cache_assert._check_assert.constants.TrueNull -->
<g id="node9" class="node">
<title>pytest_cache_assert._check_assert.constants.TrueNull</title>
<polygon fill="none" stroke="black" points="2232,-97.5 2232,-167.5 2312,-167.5 2312,-97.5 2232,-97.5"/>
<text text-anchor="middle" x="2272" y="-152.3" font-family="Times,serif" font-size="14.00">TrueNull</text>
<polyline fill="none" stroke="black" points="2232,-144.5 2312,-144.5 "/>
<polyline fill="none" stroke="black" points="2232,-120.5 2312,-120.5 "/>
<text text-anchor="middle" x="2272" y="-105.3" font-family="Times,serif" font-size="14.00"> </text>
</g>
<!-- pytest_cache_assert._check_assert.constants.Wildcards -->
<g id="node10" class="node">
<title>pytest_cache_assert._check_assert.constants.Wildcards</title>
<polygon fill="none" stroke="black" points="2330,-98 2330,-167 2418,-167 2418,-98 2330,-98"/>
<text text-anchor="middle" x="2374" y="-151.8" font-family="Times,serif" font-size="14.00">Wildcards</text>
<polyline fill="none" stroke="black" points="2330,-144 2418,-144 "/>
<text text-anchor="start" x="2338" y="-128.8" font-family="Times,serif" font-size="14.00">name</text>
<polyline fill="none" stroke="black" points="2330,-121 2418,-121 "/>
<text text-anchor="middle" x="2374" y="-105.8" font-family="Times,serif" font-size="14.00"> </text>
</g>
</g>
</svg>
