<?xml version="1.0" encoding="UTF-8" standalone="no"?>
<!DOCTYPE svg PUBLIC "-//W3C//DTD SVG 1.1//EN"
 "http://www.w3.org/Graphics/SVG/1.1/DTD/svg11.dtd">
<!-- Generated by graphviz version 3.0.0 (20220226.1711)
 -->
<!-- Title: classes Pages: 1 -->
<svg width="4632pt" height="472pt"
 viewBox="0.00 0.00 4632.00 472.00" xmlns="http://www.w3.org/2000/svg" xmlns:xlink="http://www.w3.org/1999/xlink">
<g id="graph0" class="graph" transform="scale(1 1) rotate(0) translate(4 468)">
<title>classes</title>
<polygon fill="white" stroke="transparent" points="-4,4 -4,-468 4628,-468 4628,4 -4,4"/>
<!-- pytest_cache_assert._check_assert.assert_config.AssertConfig -->
<g id="node1" class="node">
<title>pytest_cache_assert._check_assert.assert_config.AssertConfig</title>
<polygon fill="none" stroke="black" points="271.5,-334.5 271.5,-463.5 439.5,-463.5 439.5,-334.5 271.5,-334.5"/>
<text text-anchor="middle" x="355.5" y="-448.3" font-family="Times,serif" font-size="14.00">AssertConfig</text>
<polyline fill="none" stroke="black" points="271.5,-440.5 439.5,-440.5 "/>
<text text-anchor="start" x="279.5" y="-425.3" font-family="Times,serif" font-size="14.00">always_write : bool</text>
<text text-anchor="start" x="279.5" y="-410.3" font-family="Times,serif" font-size="14.00">cache_dir_rel_path : str</text>
<text text-anchor="start" x="279.5" y="-395.3" font-family="Times,serif" font-size="14.00">cache_store</text>
<text text-anchor="start" x="279.5" y="-380.3" font-family="Times,serif" font-size="14.00">converters : List[Converter]</text>
<text text-anchor="start" x="279.5" y="-365.3" font-family="Times,serif" font-size="14.00">validator</text>
<polyline fill="none" stroke="black" points="271.5,-357.5 439.5,-357.5 "/>
<text text-anchor="middle" x="355.5" y="-342.3" font-family="Times,serif" font-size="14.00"> </text>
</g>
<!-- pytest_cache_assert._check_assert.config.CacheAssertContainerKeys -->
<g id="node2" class="node">
<title>pytest_cache_assert._check_assert.config.CacheAssertContainerKeys</title>
<polygon fill="none" stroke="black" points="639.5,-53 639.5,-122 805.5,-122 805.5,-53 639.5,-53"/>
<text text-anchor="middle" x="722.5" y="-106.8" font-family="Times,serif" font-size="14.00">CacheAssertContainerKeys</text>
<polyline fill="none" stroke="black" points="639.5,-99 805.5,-99 "/>
<text text-anchor="start" x="647.5" y="-83.8" font-family="Times,serif" font-size="14.00">name</text>
<polyline fill="none" stroke="black" points="639.5,-76 805.5,-76 "/>
<text text-anchor="middle" x="722.5" y="-60.8" font-family="Times,serif" font-size="14.00"> </text>
</g>
<!-- pytest_cache_assert._check_assert.cache_store.CacheStore -->
<g id="node3" class="node">
<title>pytest_cache_assert._check_assert.cache_store.CacheStore</title>
<polygon fill="none" stroke="black" points="824,-30 824,-145 1315,-145 1315,-30 824,-30"/>
<text text-anchor="middle" x="1069.5" y="-129.8" font-family="Times,serif" font-size="14.00">CacheStore</text>
<polyline fill="none" stroke="black" points="824,-122 1315,-122 "/>
<polyline fill="none" stroke="black" points="824,-98 1315,-98 "/>
<text text-anchor="start" x="832" y="-82.8" font-family="Times,serif" font-size="14.00">initialize(path_cache_dir: Optional[Path], converters: Optional[List[Converter]]): None</text>
<text text-anchor="start" x="832" y="-67.8" font-family="Times,serif" font-size="14.00">read_cached_data(path_cache_file: Path): Any</text>
<text text-anchor="start" x="832" y="-52.8" font-family="Times,serif" font-size="14.00">serialize(data: Any): Any</text>
<text text-anchor="start" x="832" y="-37.8" font-family="Times,serif" font-size="14.00">write(path_cache_file: Path): None</text>
</g>
<!-- pytest_cache_assert._check_assert.cache_store.CacheStoreType -->
<g id="node4" class="node">
<title>pytest_cache_assert._check_assert.cache_store.CacheStoreType</title>
<polygon fill="none" stroke="black" points="243,-212.5 243,-282.5 350,-282.5 350,-212.5 243,-212.5"/>
<text text-anchor="middle" x="296.5" y="-267.3" font-family="Times,serif" font-size="14.00">CacheStoreType</text>
<polyline fill="none" stroke="black" points="243,-259.5 350,-259.5 "/>
<polyline fill="none" stroke="black" points="243,-235.5 350,-235.5 "/>
<text text-anchor="middle" x="296.5" y="-220.3" font-family="Times,serif" font-size="14.00"> </text>
</g>
<!-- pytest_cache_assert._check_assert.cache_store.CacheStoreType&#45;&gt;pytest_cache_assert._check_assert.assert_config.AssertConfig -->
<g id="edge3" class="edge">
<title>pytest_cache_assert._check_assert.cache_store.CacheStoreType&#45;&gt;pytest_cache_assert._check_assert.assert_config.AssertConfig</title>
<path fill="none" stroke="black" d="M310.04,-282.8C314.81,-294.91 320.39,-309.04 325.97,-323.18"/>
<polygon fill="black" stroke="black" points="326.03,-323.32 331.95,-327.43 330.43,-334.48 324.51,-330.37 326.03,-323.32"/>
<text text-anchor="middle" x="354.5" y="-304.8" font-family="Times,serif" font-size="14.00" fill="green">cache_store</text>
</g>
<!-- pytest_cache_assert._check_assert.key_rules.Comparator -->
<g id="node5" class="node">
<title>pytest_cache_assert._check_assert.key_rules.Comparator</title>
<polygon fill="none" stroke="black" points="1333.5,-53 1333.5,-122 1415.5,-122 1415.5,-53 1333.5,-53"/>
<text text-anchor="middle" x="1374.5" y="-106.8" font-family="Times,serif" font-size="14.00">Comparator</text>
<polyline fill="none" stroke="black" points="1333.5,-99 1415.5,-99 "/>
<text text-anchor="start" x="1341.5" y="-83.8" font-family="Times,serif" font-size="14.00">name</text>
<polyline fill="none" stroke="black" points="1333.5,-76 1415.5,-76 "/>
<text text-anchor="middle" x="1374.5" y="-60.8" font-family="Times,serif" font-size="14.00"> </text>
</g>
<!-- pytest_cache_assert._check_assert.converter.Converter -->
<g id="node6" class="node">
<title>pytest_cache_assert._check_assert.converter.Converter</title>
<polygon fill="none" stroke="black" points="1433.5,-45.5 1433.5,-129.5 1601.5,-129.5 1601.5,-45.5 1433.5,-45.5"/>
<text text-anchor="middle" x="1517.5" y="-114.3" font-family="Times,serif" font-size="14.00">Converter</text>
<polyline fill="none" stroke="black" points="1433.5,-106.5 1601.5,-106.5 "/>
<text text-anchor="start" x="1441.5" y="-91.3" font-family="Times,serif" font-size="14.00">func : Callable[[Any], Any]</text>
<text text-anchor="start" x="1441.5" y="-76.3" font-family="Times,serif" font-size="14.00">types : List[Any]</text>
<polyline fill="none" stroke="black" points="1433.5,-68.5 1601.5,-68.5 "/>
<text text-anchor="middle" x="1517.5" y="-53.3" font-family="Times,serif" font-size="14.00"> </text>
</g>
<!-- pytest_cache_assert._check_assert.differ.DictDiff -->
<g id="node7" class="node">
<title>pytest_cache_assert._check_assert.differ.DictDiff</title>
<polygon fill="none" stroke="black" points="1619.5,-0.5 1619.5,-174.5 1869.5,-174.5 1869.5,-0.5 1619.5,-0.5"/>
<text text-anchor="middle" x="1744.5" y="-159.3" font-family="Times,serif" font-size="14.00">DictDiff</text>
<polyline fill="none" stroke="black" points="1619.5,-151.5 1869.5,-151.5 "/>
<text text-anchor="start" x="1627.5" y="-136.3" font-family="Times,serif" font-size="14.00">data : _SpecialForm</text>
<text text-anchor="start" x="1627.5" y="-121.3" font-family="Times,serif" font-size="14.00">diff_type : str</text>
<text text-anchor="start" x="1627.5" y="-106.3" font-family="Times,serif" font-size="14.00">index : Optional[int]</text>
<text text-anchor="start" x="1627.5" y="-91.3" font-family="Times,serif" font-size="14.00">keys : List[Any]</text>
<text text-anchor="start" x="1627.5" y="-76.3" font-family="Times,serif" font-size="14.00">new : _SpecialForm</text>
<text text-anchor="start" x="1627.5" y="-61.3" font-family="Times,serif" font-size="14.00">old : _SpecialForm</text>
<text text-anchor="start" x="1627.5" y="-46.3" font-family="Times,serif" font-size="14.00">raw_data : _SpecialForm</text>
<text text-anchor="start" x="1627.5" y="-31.3" font-family="Times,serif" font-size="14.00">raw_keys : Union[str, List[Union[str, int]]]</text>
<polyline fill="none" stroke="black" points="1619.5,-23.5 1869.5,-23.5 "/>
<text text-anchor="middle" x="1744.5" y="-8.3" font-family="Times,serif" font-size="14.00"> </text>
</g>
<!-- pytest_cache_assert._check_assert.validator.DictDiffValidator -->
<g id="node8" class="node">
<title>pytest_cache_assert._check_assert.validator.DictDiffValidator</title>
<polygon fill="none" stroke="black" points="509.5,-52.5 509.5,-122.5 621.5,-122.5 621.5,-52.5 509.5,-52.5"/>
<text text-anchor="middle" x="565.5" y="-107.3" font-family="Times,serif" font-size="14.00">DictDiffValidator</text>
<polyline fill="none" stroke="black" points="509.5,-99.5 621.5,-99.5 "/>
<polyline fill="none" stroke="black" points="509.5,-75.5 621.5,-75.5 "/>
<text text-anchor="start" x="517.5" y="-60.3" font-family="Times,serif" font-size="14.00">assertion(): None</text>
</g>
<!-- pytest_cache_assert._check_assert.validator.ValidatorType -->
<g id="node18" class="node">
<title>pytest_cache_assert._check_assert.validator.ValidatorType</title>
<polygon fill="none" stroke="black" points="468.5,-212.5 468.5,-282.5 562.5,-282.5 562.5,-212.5 468.5,-212.5"/>
<text text-anchor="middle" x="515.5" y="-267.3" font-family="Times,serif" font-size="14.00">ValidatorType</text>
<polyline fill="none" stroke="black" points="468.5,-259.5 562.5,-259.5 "/>
<polyline fill="none" stroke="black" points="468.5,-235.5 562.5,-235.5 "/>
<text text-anchor="middle" x="515.5" y="-220.3" font-family="Times,serif" font-size="14.00"> </text>
</g>
<!-- pytest_cache_assert._check_assert.validator.DictDiffValidator&#45;&gt;pytest_cache_assert._check_assert.validator.ValidatorType -->
<g id="edge2" class="edge">
<title>pytest_cache_assert._check_assert.validator.DictDiffValidator&#45;&gt;pytest_cache_assert._check_assert.validator.ValidatorType</title>
<path fill="none" stroke="black" d="M554.65,-122.78C547.25,-146.18 537.37,-177.38 529.4,-202.59"/>
<polygon fill="none" stroke="black" points="526.01,-201.69 526.33,-212.28 532.68,-203.81 526.01,-201.69"/>
</g>
<!-- pytest_cache_assert._check_assert.differ.DiffResult -->
<g id="node9" class="node">
<title>pytest_cache_assert._check_assert.differ.DiffResult</title>
<polygon fill="none" stroke="black" points="1888,-30.5 1888,-144.5 2243,-144.5 2243,-30.5 1888,-30.5"/>
<text text-anchor="middle" x="2065.5" y="-129.3" font-family="Times,serif" font-size="14.00">DiffResult</text>
<polyline fill="none" stroke="black" points="1888,-121.5 2243,-121.5 "/>
<text text-anchor="start" x="1896" y="-106.3" font-family="Times,serif" font-size="14.00">key_list : List[Union[str, int]]</text>
<text text-anchor="start" x="1896" y="-91.3" font-family="Times,serif" font-size="14.00">list_index : Optional[int]</text>
<text text-anchor="start" x="1896" y="-76.3" font-family="Times,serif" font-size="14.00">new : _SpecialForm</text>
<text text-anchor="start" x="1896" y="-61.3" font-family="Times,serif" font-size="14.00">old : _SpecialForm</text>
<polyline fill="none" stroke="black" points="1888,-53.5 2243,-53.5 "/>
<text text-anchor="start" x="1896" y="-38.3" font-family="Times,serif" font-size="14.00">match_key_pattern(pattern: List[Union[str, Wildcards]]): bool</text>
</g>
<!-- pytest_cache_assert._check_assert.key_rules.KeyRule -->
<g id="node10" class="node">
<title>pytest_cache_assert._check_assert.key_rules.KeyRule</title>
<polygon fill="none" stroke="black" points="2261.5,-45.5 2261.5,-129.5 2569.5,-129.5 2569.5,-45.5 2261.5,-45.5"/>
<text text-anchor="middle" x="2415.5" y="-114.3" font-family="Times,serif" font-size="14.00">KeyRule</text>
<polyline fill="none" stroke="black" points="2261.5,-106.5 2569.5,-106.5 "/>
<text text-anchor="start" x="2269.5" y="-91.3" font-family="Times,serif" font-size="14.00">func : Callable[[DIFF_TYPES, DIFF_TYPES], bool]</text>
<text text-anchor="start" x="2269.5" y="-76.3" font-family="Times,serif" font-size="14.00">pattern : List[Union[str, Wildcards]]</text>
<polyline fill="none" stroke="black" points="2261.5,-68.5 2569.5,-68.5 "/>
<text text-anchor="middle" x="2415.5" y="-53.3" font-family="Times,serif" font-size="14.00"> </text>
</g>
<!-- pytest_cache_assert._check_assert.cache_store.LocalJSONCacheStore -->
<g id="node11" class="node">
<title>pytest_cache_assert._check_assert.cache_store.LocalJSONCacheStore</title>
<polygon fill="none" stroke="black" points="0,-30 0,-145 491,-145 491,-30 0,-30"/>
<text text-anchor="middle" x="245.5" y="-129.8" font-family="Times,serif" font-size="14.00">LocalJSONCacheStore</text>
<polyline fill="none" stroke="black" points="0,-122 491,-122 "/>
<polyline fill="none" stroke="black" points="0,-98 491,-98 "/>
<text text-anchor="start" x="8" y="-82.8" font-family="Times,serif" font-size="14.00">initialize(path_cache_dir: Optional[Path], converters: Optional[List[Converter]]): None</text>
<text text-anchor="start" x="8" y="-67.8" font-family="Times,serif" font-size="14.00">read_cached_data(path_cache_file: Path): Any</text>
<text text-anchor="start" x="8" y="-52.8" font-family="Times,serif" font-size="14.00">serialize(data: Any): Any</text>
<text text-anchor="start" x="8" y="-37.8" font-family="Times,serif" font-size="14.00">write(path_cache_file: Path): None</text>
</g>
<!-- pytest_cache_assert._check_assert.cache_store.LocalJSONCacheStore&#45;&gt;pytest_cache_assert._check_assert.cache_store.CacheStoreType -->
<g id="edge1" class="edge">
<title>pytest_cache_assert._check_assert.cache_store.LocalJSONCacheStore&#45;&gt;pytest_cache_assert._check_assert.cache_store.CacheStoreType</title>
<path fill="none" stroke="black" d="M263.77,-145.1C269.89,-164.07 276.63,-184.93 282.38,-202.77"/>
<polygon fill="none" stroke="black" points="279.07,-203.9 285.47,-212.34 285.73,-201.74 279.07,-203.9"/>
</g>
<!-- pytest_cache_assert._check_assert.error_message.NoCacheError -->
<g id="node12" class="node">
<title>pytest_cache_assert._check_assert.error_message.NoCacheError</title>
<polygon fill="none" stroke="black" points="2588,-52.5 2588,-122.5 2683,-122.5 2683,-52.5 2588,-52.5"/>
<text text-anchor="middle" x="2635.5" y="-107.3" font-family="Times,serif" font-size="14.00" fill="red">NoCacheError</text>
<polyline fill="none" stroke="black" points="2588,-99.5 2683,-99.5 "/>
<polyline fill="none" stroke="black" points="2588,-75.5 2683,-75.5 "/>
<text text-anchor="middle" x="2635.5" y="-60.3" font-family="Times,serif" font-size="14.00" fill="red"> </text>
</g>
<!-- pytest_cache_assert._check_assert.error_message.RichAssertionError -->
<g id="node13" class="node">
<title>pytest_cache_assert._check_assert.error_message.RichAssertionError</title>
<polygon fill="none" stroke="black" points="2701.5,-53 2701.5,-122 3301.5,-122 3301.5,-53 2701.5,-53"/>
<text text-anchor="middle" x="3001.5" y="-106.8" font-family="Times,serif" font-size="14.00" fill="red">RichAssertionError</text>
<polyline fill="none" stroke="black" points="2701.5,-99 3301.5,-99 "/>
<text text-anchor="start" x="2709.5" y="-83.8" font-family="Times,serif" font-size="14.00" fill="red">error_info : NoneType</text>
<polyline fill="none" stroke="black" points="2701.5,-76 3301.5,-76 "/>
<text text-anchor="start" x="2709.5" y="-60.8" font-family="Times,serif" font-size="14.00" fill="red">create_message(test_data: Any, cached_data: Any, path_cache_file: Path, diff_results: List[DiffResult]): str</text>
</g>
<!-- pytest_cache_assert.plugin.TestMetadata -->
<g id="node14" class="node">
<title>pytest_cache_assert.plugin.TestMetadata</title>
<polygon fill="none" stroke="black" points="3320,-38 3320,-137 3725,-137 3725,-38 3320,-38"/>
<text text-anchor="middle" x="3522.5" y="-121.8" font-family="Times,serif" font-size="14.00">TestMetadata</text>
<polyline fill="none" stroke="black" points="3320,-114 3725,-114 "/>
<text text-anchor="start" x="3328" y="-98.8" font-family="Times,serif" font-size="14.00">func_args : Union[Dict, Iterable]</text>
<text text-anchor="start" x="3328" y="-83.8" font-family="Times,serif" font-size="14.00">test_file : str</text>
<text text-anchor="start" x="3328" y="-68.8" font-family="Times,serif" font-size="14.00">test_name : str</text>
<polyline fill="none" stroke="black" points="3320,-61 3725,-61 "/>
<text text-anchor="start" x="3328" y="-45.8" font-family="Times,serif" font-size="14.00">from_pytest(request: FixtureRequest, rel_test_file: Path): TestMetadata</text>
</g>
<!-- pytest_cache_assert._check_assert.constants.TrueNull -->
<g id="node15" class="node">
<title>pytest_cache_assert._check_assert.constants.TrueNull</title>
<polygon fill="none" stroke="black" points="3743.5,-52.5 3743.5,-122.5 3809.5,-122.5 3809.5,-52.5 3743.5,-52.5"/>
<text text-anchor="middle" x="3776.5" y="-107.3" font-family="Times,serif" font-size="14.00">TrueNull</text>
<polyline fill="none" stroke="black" points="3743.5,-99.5 3809.5,-99.5 "/>
<polyline fill="none" stroke="black" points="3743.5,-75.5 3809.5,-75.5 "/>
<text text-anchor="middle" x="3776.5" y="-60.3" font-family="Times,serif" font-size="14.00"> </text>
</g>
<!-- pytest_cache_assert._check_assert.serializer.Unconvertable -->
<g id="node16" class="node">
<title>pytest_cache_assert._check_assert.serializer.Unconvertable</title>
<polygon fill="none" stroke="black" points="3827.5,-52.5 3827.5,-122.5 3923.5,-122.5 3923.5,-52.5 3827.5,-52.5"/>
<text text-anchor="middle" x="3875.5" y="-107.3" font-family="Times,serif" font-size="14.00" fill="red">Unconvertable</text>
<polyline fill="none" stroke="black" points="3827.5,-99.5 3923.5,-99.5 "/>
<polyline fill="none" stroke="black" points="3827.5,-75.5 3923.5,-75.5 "/>
<text text-anchor="middle" x="3875.5" y="-60.3" font-family="Times,serif" font-size="14.00" fill="red"> </text>
</g>
<!-- pytest_cache_assert._check_assert.validator.Validator -->
<g id="node17" class="node">
<title>pytest_cache_assert._check_assert.validator.Validator</title>
<polygon fill="none" stroke="black" points="3941.5,-52.5 3941.5,-122.5 4051.5,-122.5 4051.5,-52.5 3941.5,-52.5"/>
<text text-anchor="middle" x="3996.5" y="-107.3" font-family="Times,serif" font-size="14.00">Validator</text>
<polyline fill="none" stroke="black" points="3941.5,-99.5 4051.5,-99.5 "/>
<polyline fill="none" stroke="black" points="3941.5,-75.5 4051.5,-75.5 "/>
<text text-anchor="start" x="3949.5" y="-60.3" font-family="Times,serif" font-size="14.00">assertion(): None</text>
</g>
<!-- pytest_cache_assert._check_assert.validator.ValidatorType&#45;&gt;pytest_cache_assert._check_assert.assert_config.AssertConfig -->
<g id="edge4" class="edge">
<title>pytest_cache_assert._check_assert.validator.ValidatorType&#45;&gt;pytest_cache_assert._check_assert.assert_config.AssertConfig</title>
<path fill="none" stroke="black" d="M478.79,-282.8C464.94,-295.75 448.6,-311.01 432.43,-326.12"/>
<polygon fill="black" stroke="black" points="432.25,-326.29 430.6,-333.3 423.48,-334.48 425.14,-327.46 432.25,-326.29"/>
<text text-anchor="middle" x="484" y="-304.8" font-family="Times,serif" font-size="14.00" fill="green">validator</text>
</g>
<!-- pytest_cache_assert._check_assert.constants.Wildcards -->
<g id="node19" class="node">
<title>pytest_cache_assert._check_assert.constants.Wildcards</title>
<polygon fill="none" stroke="black" points="4069.5,-53 4069.5,-122 4141.5,-122 4141.5,-53 4069.5,-53"/>
<text text-anchor="middle" x="4105.5" y="-106.8" font-family="Times,serif" font-size="14.00">Wildcards</text>
<polyline fill="none" stroke="black" points="4069.5,-99 4141.5,-99 "/>
<text text-anchor="start" x="4077.5" y="-83.8" font-family="Times,serif" font-size="14.00">name</text>
<polyline fill="none" stroke="black" points="4069.5,-76 4141.5,-76 "/>
<text text-anchor="middle" x="4105.5" y="-60.8" font-family="Times,serif" font-size="14.00"> </text>
</g>
<!-- pytest_cache_assert._check_assert.serializer._CacheAssertSerializer -->
<g id="node20" class="node">
<title>pytest_cache_assert._check_assert.serializer._CacheAssertSerializer</title>
<polygon fill="none" stroke="black" points="4160,-52.5 4160,-122.5 4303,-122.5 4303,-52.5 4160,-52.5"/>
<text text-anchor="middle" x="4231.5" y="-107.3" font-family="Times,serif" font-size="14.00">_CacheAssertSerializer</text>
<polyline fill="none" stroke="black" points="4160,-99.5 4303,-99.5 "/>
<polyline fill="none" stroke="black" points="4160,-75.5 4303,-75.5 "/>
<text text-anchor="start" x="4168" y="-60.3" font-family="Times,serif" font-size="14.00">default(obj: Any): Any</text>
</g>
<!-- pytest_cache_assert._check_assert.serializer._Converters -->
<g id="node21" class="node">
<title>pytest_cache_assert._check_assert.serializer._Converters</title>
<polygon fill="none" stroke="black" points="4321,-30.5 4321,-144.5 4624,-144.5 4624,-30.5 4321,-30.5"/>
<text text-anchor="middle" x="4472.5" y="-129.3" font-family="Times,serif" font-size="14.00">_Converters</text>
<polyline fill="none" stroke="black" points="4321,-121.5 4624,-121.5 "/>
<text text-anchor="start" x="4329" y="-106.3" font-family="Times,serif" font-size="14.00">converter_lookup : Dict[Any, List[Callable]]</text>
<text text-anchor="start" x="4329" y="-91.3" font-family="Times,serif" font-size="14.00">converter_lookup : dict, defaultdict</text>
<text text-anchor="start" x="4329" y="-76.3" font-family="Times,serif" font-size="14.00">converters : List[Tuple[Any, Callable]]</text>
<polyline fill="none" stroke="black" points="4321,-68.5 4624,-68.5 "/>
<text text-anchor="start" x="4329" y="-53.3" font-family="Times,serif" font-size="14.00">get_lookup(): Dict[Any, List[Callable]]</text>
<text text-anchor="start" x="4329" y="-38.3" font-family="Times,serif" font-size="14.00">register(types: List[Any], converter: Callable): None</text>
</g>
</g>
</svg>
