<?xml version="1.0" encoding="UTF-8" standalone="no"?>
<!DOCTYPE svg PUBLIC "-//W3C//DTD SVG 1.1//EN"
 "http://www.w3.org/Graphics/SVG/1.1/DTD/svg11.dtd">
<!-- Generated by graphviz version 2.50.0 (20211204.2007)
 -->
<!-- Title: classes Pages: 1 -->
<svg width="1548pt" height="273pt"
 viewBox="0.00 0.00 1548.00 273.00" xmlns="http://www.w3.org/2000/svg" xmlns:xlink="http://www.w3.org/1999/xlink">
<g id="graph0" class="graph" transform="scale(1 1) rotate(0) translate(4 269)">
<title>classes</title>
<polygon fill="white" stroke="transparent" points="-4,4 -4,-269 1544,-269 1544,4 -4,4"/>
<!-- pytest_cache_assert._check_assert.serializer.CacheAssertSerializer -->
<g id="node1" class="node">
<title>pytest_cache_assert._check_assert.serializer.CacheAssertSerializer</title>
<polygon fill="none" stroke="black" points="0,-97.5 0,-167.5 140,-167.5 140,-97.5 0,-97.5"/>
<text text-anchor="middle" x="70" y="-152.3" font-family="Times,serif" font-size="14.00">CacheAssertSerializer</text>
<polyline fill="none" stroke="black" points="0,-144.5 140,-144.5 "/>
<polyline fill="none" stroke="black" points="0,-120.5 140,-120.5 "/>
<text text-anchor="start" x="8" y="-105.3" font-family="Times,serif" font-size="14.00">default(obj: Any): Any</text>
</g>
<!-- pytest_cache_assert._check_assert.key_rules.Comparator -->
<g id="node2" class="node">
<title>pytest_cache_assert._check_assert.key_rules.Comparator</title>
<polygon fill="none" stroke="black" points="158,-98 158,-167 240,-167 240,-98 158,-98"/>
<text text-anchor="middle" x="199" y="-151.8" font-family="Times,serif" font-size="14.00">Comparator</text>
<polyline fill="none" stroke="black" points="158,-144 240,-144 "/>
<text text-anchor="start" x="166" y="-128.8" font-family="Times,serif" font-size="14.00">name</text>
<polyline fill="none" stroke="black" points="158,-121 240,-121 "/>
<text text-anchor="middle" x="199" y="-105.8" font-family="Times,serif" font-size="14.00"> </text>
</g>
<!-- pytest_cache_assert._check_assert.differ.DictDiff -->
<g id="node3" class="node">
<title>pytest_cache_assert._check_assert.differ.DictDiff</title>
<polygon fill="none" stroke="black" points="258,-0.5 258,-264.5 508,-264.5 508,-0.5 258,-0.5"/>
<text text-anchor="middle" x="383" y="-249.3" font-family="Times,serif" font-size="14.00">DictDiff</text>
<polyline fill="none" stroke="black" points="258,-241.5 508,-241.5 "/>
<text text-anchor="start" x="266" y="-226.3" font-family="Times,serif" font-size="14.00">data</text>
<text text-anchor="start" x="266" y="-211.3" font-family="Times,serif" font-size="14.00">data : _SpecialForm</text>
<text text-anchor="start" x="266" y="-196.3" font-family="Times,serif" font-size="14.00">diff_type : str</text>
<text text-anchor="start" x="266" y="-181.3" font-family="Times,serif" font-size="14.00">index</text>
<text text-anchor="start" x="266" y="-166.3" font-family="Times,serif" font-size="14.00">index : Optional[int]</text>
<text text-anchor="start" x="266" y="-151.3" font-family="Times,serif" font-size="14.00">keys : List[Any]</text>
<text text-anchor="start" x="266" y="-136.3" font-family="Times,serif" font-size="14.00">keys : list</text>
<text text-anchor="start" x="266" y="-121.3" font-family="Times,serif" font-size="14.00">new</text>
<text text-anchor="start" x="266" y="-106.3" font-family="Times,serif" font-size="14.00">new : _SpecialForm</text>
<text text-anchor="start" x="266" y="-91.3" font-family="Times,serif" font-size="14.00">old</text>
<text text-anchor="start" x="266" y="-76.3" font-family="Times,serif" font-size="14.00">old : _SpecialForm</text>
<text text-anchor="start" x="266" y="-61.3" font-family="Times,serif" font-size="14.00">raw_data : _SpecialForm</text>
<text text-anchor="start" x="266" y="-46.3" font-family="Times,serif" font-size="14.00">raw_keys</text>
<text text-anchor="start" x="266" y="-31.3" font-family="Times,serif" font-size="14.00">raw_keys : Union[str, List[Union[str, int]]]</text>
<polyline fill="none" stroke="black" points="258,-23.5 508,-23.5 "/>
<text text-anchor="start" x="266" y="-8.3" font-family="Times,serif" font-size="14.00">get_diff_result(): DiffResult</text>
</g>
<!-- pytest_cache_assert._check_assert.differ.DiffResult -->
<g id="node4" class="node">
<title>pytest_cache_assert._check_assert.differ.DiffResult</title>
<polygon fill="none" stroke="black" points="526.5,-75.5 526.5,-189.5 881.5,-189.5 881.5,-75.5 526.5,-75.5"/>
<text text-anchor="middle" x="704" y="-174.3" font-family="Times,serif" font-size="14.00">DiffResult</text>
<polyline fill="none" stroke="black" points="526.5,-166.5 881.5,-166.5 "/>
<text text-anchor="start" x="534.5" y="-151.3" font-family="Times,serif" font-size="14.00">key_list : List[Union[str, int]]</text>
<text text-anchor="start" x="534.5" y="-136.3" font-family="Times,serif" font-size="14.00">list_index : Optional[int]</text>
<text text-anchor="start" x="534.5" y="-121.3" font-family="Times,serif" font-size="14.00">new : _SpecialForm</text>
<text text-anchor="start" x="534.5" y="-106.3" font-family="Times,serif" font-size="14.00">old : _SpecialForm</text>
<polyline fill="none" stroke="black" points="526.5,-98.5 881.5,-98.5 "/>
<text text-anchor="start" x="534.5" y="-83.3" font-family="Times,serif" font-size="14.00">match_key_pattern(pattern: List[Union[str, Wildcards]]): bool</text>
</g>
<!-- pytest_cache_assert._check_assert.key_rules.KeyRule -->
<g id="node5" class="node">
<title>pytest_cache_assert._check_assert.key_rules.KeyRule</title>
<polygon fill="none" stroke="black" points="900,-90.5 900,-174.5 1208,-174.5 1208,-90.5 900,-90.5"/>
<text text-anchor="middle" x="1054" y="-159.3" font-family="Times,serif" font-size="14.00">KeyRule</text>
<polyline fill="none" stroke="black" points="900,-151.5 1208,-151.5 "/>
<text text-anchor="start" x="908" y="-136.3" font-family="Times,serif" font-size="14.00">func : Callable[[DIFF_TYPES, DIFF_TYPES], bool]</text>
<text text-anchor="start" x="908" y="-121.3" font-family="Times,serif" font-size="14.00">pattern : List[Union[str, Wildcards]]</text>
<polyline fill="none" stroke="black" points="900,-113.5 1208,-113.5 "/>
<text text-anchor="middle" x="1054" y="-98.3" font-family="Times,serif" font-size="14.00"> </text>
</g>
<!-- pytest_cache_assert._check_assert.error_message.RichAssertionError -->
<g id="node6" class="node">
<title>pytest_cache_assert._check_assert.error_message.RichAssertionError</title>
<polygon fill="none" stroke="black" points="1226,-98 1226,-167 1366,-167 1366,-98 1226,-98"/>
<text text-anchor="middle" x="1296" y="-151.8" font-family="Times,serif" font-size="14.00" fill="red">RichAssertionError</text>
<polyline fill="none" stroke="black" points="1226,-144 1366,-144 "/>
<text text-anchor="start" x="1234" y="-128.8" font-family="Times,serif" font-size="14.00" fill="red">error_info : NoneType</text>
<polyline fill="none" stroke="black" points="1226,-121 1366,-121 "/>
<text text-anchor="middle" x="1296" y="-105.8" font-family="Times,serif" font-size="14.00" fill="red"> </text>
</g>
<!-- pytest_cache_assert._check_assert.constants.TrueNull -->
<g id="node7" class="node">
<title>pytest_cache_assert._check_assert.constants.TrueNull</title>
<polygon fill="none" stroke="black" points="1384,-97.5 1384,-167.5 1450,-167.5 1450,-97.5 1384,-97.5"/>
<text text-anchor="middle" x="1417" y="-152.3" font-family="Times,serif" font-size="14.00">TrueNull</text>
<polyline fill="none" stroke="black" points="1384,-144.5 1450,-144.5 "/>
<polyline fill="none" stroke="black" points="1384,-120.5 1450,-120.5 "/>
<text text-anchor="middle" x="1417" y="-105.3" font-family="Times,serif" font-size="14.00"> </text>
</g>
<!-- pytest_cache_assert._check_assert.constants.Wildcards -->
<g id="node8" class="node">
<title>pytest_cache_assert._check_assert.constants.Wildcards</title>
<polygon fill="none" stroke="black" points="1468,-98 1468,-167 1540,-167 1540,-98 1468,-98"/>
<text text-anchor="middle" x="1504" y="-151.8" font-family="Times,serif" font-size="14.00">Wildcards</text>
<polyline fill="none" stroke="black" points="1468,-144 1540,-144 "/>
<text text-anchor="start" x="1476" y="-128.8" font-family="Times,serif" font-size="14.00">name</text>
<polyline fill="none" stroke="black" points="1468,-121 1540,-121 "/>
<text text-anchor="middle" x="1504" y="-105.8" font-family="Times,serif" font-size="14.00"> </text>
</g>
</g>
</svg>
