<?xml version="1.0" encoding="UTF-8" standalone="no"?>
<!DOCTYPE svg PUBLIC "-//W3C//DTD SVG 1.1//EN"
 "http://www.w3.org/Graphics/SVG/1.1/DTD/svg11.dtd">
<!-- Generated by graphviz version 2.50.0 (20211204.2007)
 -->
<!-- Title: classes Pages: 1 -->
<svg width="1067pt" height="79pt"
 viewBox="0.00 0.00 1067.00 79.00" xmlns="http://www.w3.org/2000/svg" xmlns:xlink="http://www.w3.org/1999/xlink">
<g id="graph0" class="graph" transform="scale(1 1) rotate(0) translate(4 75)">
<title>classes</title>
<polygon fill="white" stroke="transparent" points="-4,4 -4,-75 1063,-75 1063,4 -4,4"/>
<!-- pytest_cache_assert._check_assert.key_rules.Comparator -->
<g id="node1" class="node">
<title>pytest_cache_assert._check_assert.key_rules.Comparator</title>
<polygon fill="none" stroke="black" points="0,-1 0,-70 82,-70 82,-1 0,-1"/>
<text text-anchor="middle" x="41" y="-54.8" font-family="Times,serif" font-size="14.00">Comparator</text>
<polyline fill="none" stroke="black" points="0,-47 82,-47 "/>
<text text-anchor="start" x="8" y="-31.8" font-family="Times,serif" font-size="14.00">name</text>
<polyline fill="none" stroke="black" points="0,-24 82,-24 "/>
<text text-anchor="middle" x="41" y="-8.8" font-family="Times,serif" font-size="14.00"> </text>
</g>
<!-- pytest_cache_assert._check_assert.differ.DictDiff -->
<g id="node2" class="node">
<title>pytest_cache_assert._check_assert.differ.DictDiff</title>
<polygon fill="none" stroke="black" points="100,-1 100,-70 270,-70 270,-1 100,-1"/>
<text text-anchor="middle" x="185" y="-54.8" font-family="Times,serif" font-size="14.00">DictDiff</text>
<polyline fill="none" stroke="black" points="100,-47 270,-47 "/>
<text text-anchor="start" x="108" y="-31.8" font-family="Times,serif" font-size="14.00">raw_data : _SpecialForm</text>
<polyline fill="none" stroke="black" points="100,-24 270,-24 "/>
<text text-anchor="start" x="108" y="-8.8" font-family="Times,serif" font-size="14.00">get_diff_result(): DiffResult</text>
</g>
<!-- pytest_cache_assert._check_assert.differ.DiffResult -->
<g id="node3" class="node">
<title>pytest_cache_assert._check_assert.differ.DiffResult</title>
<polygon fill="none" stroke="black" points="288.5,-0.5 288.5,-70.5 643.5,-70.5 643.5,-0.5 288.5,-0.5"/>
<text text-anchor="middle" x="466" y="-55.3" font-family="Times,serif" font-size="14.00">DiffResult</text>
<polyline fill="none" stroke="black" points="288.5,-47.5 643.5,-47.5 "/>
<polyline fill="none" stroke="black" points="288.5,-23.5 643.5,-23.5 "/>
<text text-anchor="start" x="296.5" y="-8.3" font-family="Times,serif" font-size="14.00">match_key_pattern(pattern: List[Union[str, Wildcards]]): bool</text>
</g>
<!-- pytest_cache_assert._check_assert.key_rules.KeyRule -->
<g id="node4" class="node">
<title>pytest_cache_assert._check_assert.key_rules.KeyRule</title>
<polygon fill="none" stroke="black" points="661.5,-0.5 661.5,-70.5 726.5,-70.5 726.5,-0.5 661.5,-0.5"/>
<text text-anchor="middle" x="694" y="-55.3" font-family="Times,serif" font-size="14.00">KeyRule</text>
<polyline fill="none" stroke="black" points="661.5,-47.5 726.5,-47.5 "/>
<polyline fill="none" stroke="black" points="661.5,-23.5 726.5,-23.5 "/>
<text text-anchor="middle" x="694" y="-8.3" font-family="Times,serif" font-size="14.00"> </text>
</g>
<!-- pytest_cache_assert._check_assert.error_message.RichAssertionError -->
<g id="node5" class="node">
<title>pytest_cache_assert._check_assert.error_message.RichAssertionError</title>
<polygon fill="none" stroke="black" points="745,-1 745,-70 885,-70 885,-1 745,-1"/>
<text text-anchor="middle" x="815" y="-54.8" font-family="Times,serif" font-size="14.00" fill="red">RichAssertionError</text>
<polyline fill="none" stroke="black" points="745,-47 885,-47 "/>
<text text-anchor="start" x="753" y="-31.8" font-family="Times,serif" font-size="14.00" fill="red">error_info : NoneType</text>
<polyline fill="none" stroke="black" points="745,-24 885,-24 "/>
<text text-anchor="middle" x="815" y="-8.8" font-family="Times,serif" font-size="14.00" fill="red"> </text>
</g>
<!-- pytest_cache_assert._check_assert.constants.TrueNull -->
<g id="node6" class="node">
<title>pytest_cache_assert._check_assert.constants.TrueNull</title>
<polygon fill="none" stroke="black" points="903,-0.5 903,-70.5 969,-70.5 969,-0.5 903,-0.5"/>
<text text-anchor="middle" x="936" y="-55.3" font-family="Times,serif" font-size="14.00">TrueNull</text>
<polyline fill="none" stroke="black" points="903,-47.5 969,-47.5 "/>
<polyline fill="none" stroke="black" points="903,-23.5 969,-23.5 "/>
<text text-anchor="middle" x="936" y="-8.3" font-family="Times,serif" font-size="14.00"> </text>
</g>
<!-- pytest_cache_assert._check_assert.constants.Wildcards -->
<g id="node7" class="node">
<title>pytest_cache_assert._check_assert.constants.Wildcards</title>
<polygon fill="none" stroke="black" points="987,-1 987,-70 1059,-70 1059,-1 987,-1"/>
<text text-anchor="middle" x="1023" y="-54.8" font-family="Times,serif" font-size="14.00">Wildcards</text>
<polyline fill="none" stroke="black" points="987,-47 1059,-47 "/>
<text text-anchor="start" x="995" y="-31.8" font-family="Times,serif" font-size="14.00">name</text>
<polyline fill="none" stroke="black" points="987,-24 1059,-24 "/>
<text text-anchor="middle" x="1023" y="-8.8" font-family="Times,serif" font-size="14.00"> </text>
</g>
</g>
</svg>
