<?xml version="1.0" encoding="UTF-8" standalone="no"?>
<!DOCTYPE svg PUBLIC "-//W3C//DTD SVG 1.1//EN"
 "http://www.w3.org/Graphics/SVG/1.1/DTD/svg11.dtd">
<!-- Generated by graphviz version 2.43.0 (0)
 -->
<!-- Title: classes Pages: 1 -->
<svg width="5601pt" height="413pt"
 viewBox="0.00 0.00 5600.50 413.00" xmlns="http://www.w3.org/2000/svg" xmlns:xlink="http://www.w3.org/1999/xlink">
<g id="graph0" class="graph" transform="scale(1 1) rotate(0) translate(4 409)">
<title>classes</title>
<polygon fill="white" stroke="transparent" points="-4,4 -4,-409 5596.5,-409 5596.5,4 -4,4"/>
<!-- pytest_cache_assert._check_assert.assert_config.AssertConfig -->
<g id="node1" class="node">
<title>pytest_cache_assert._check_assert.assert_config.AssertConfig</title>
<polygon fill="none" stroke="black" points="344.5,-275.5 344.5,-404.5 560.5,-404.5 560.5,-275.5 344.5,-275.5"/>
<text text-anchor="middle" x="452.5" y="-389.3" font-family="Times,serif" font-size="14.00">AssertConfig</text>
<polyline fill="none" stroke="black" points="344.5,-381.5 560.5,-381.5 "/>
<text text-anchor="start" x="352.5" y="-366.3" font-family="Times,serif" font-size="14.00">always_write : bool</text>
<text text-anchor="start" x="352.5" y="-351.3" font-family="Times,serif" font-size="14.00">cache_dir_rel_path : str</text>
<text text-anchor="start" x="352.5" y="-336.3" font-family="Times,serif" font-size="14.00">cache_store</text>
<text text-anchor="start" x="352.5" y="-321.3" font-family="Times,serif" font-size="14.00">converters : List[Converter]</text>
<text text-anchor="start" x="352.5" y="-306.3" font-family="Times,serif" font-size="14.00">validator</text>
<polyline fill="none" stroke="black" points="344.5,-298.5 560.5,-298.5 "/>
<text text-anchor="middle" x="452.5" y="-283.3" font-family="Times,serif" font-size="14.00"> </text>
</g>
<!-- pytest_cache_assert._check_assert.config.CacheAssertContainerKeys -->
<g id="node2" class="node">
<title>pytest_cache_assert._check_assert.config.CacheAssertContainerKeys</title>
<polygon fill="none" stroke="black" points="805.5,-23.5 805.5,-92.5 1015.5,-92.5 1015.5,-23.5 805.5,-23.5"/>
<text text-anchor="middle" x="910.5" y="-77.3" font-family="Times,serif" font-size="14.00">CacheAssertContainerKeys</text>
<polyline fill="none" stroke="black" points="805.5,-69.5 1015.5,-69.5 "/>
<text text-anchor="start" x="813.5" y="-54.3" font-family="Times,serif" font-size="14.00">name</text>
<polyline fill="none" stroke="black" points="805.5,-46.5 1015.5,-46.5 "/>
<text text-anchor="middle" x="910.5" y="-31.3" font-family="Times,serif" font-size="14.00"> </text>
</g>
<!-- pytest_cache_assert._check_assert.cache_store.CacheStore -->
<g id="node3" class="node">
<title>pytest_cache_assert._check_assert.cache_store.CacheStore</title>
<polygon fill="none" stroke="black" points="1034,-0.5 1034,-115.5 1663,-115.5 1663,-0.5 1034,-0.5"/>
<text text-anchor="middle" x="1348.5" y="-100.3" font-family="Times,serif" font-size="14.00">CacheStore</text>
<polyline fill="none" stroke="black" points="1034,-92.5 1663,-92.5 "/>
<polyline fill="none" stroke="black" points="1034,-68.5 1663,-68.5 "/>
<text text-anchor="start" x="1042" y="-53.3" font-family="Times,serif" font-size="14.00">initialize(path_cache_dir: Optional[Path], converters: Optional[List[Converter]]): None</text>
<text text-anchor="start" x="1042" y="-38.3" font-family="Times,serif" font-size="14.00">read_cached_data(path_cache_file: Path): Any</text>
<text text-anchor="start" x="1042" y="-23.3" font-family="Times,serif" font-size="14.00">serialize(data: Any): Any</text>
<text text-anchor="start" x="1042" y="-8.3" font-family="Times,serif" font-size="14.00">write(path_cache_file: Path): None</text>
</g>
<!-- pytest_cache_assert._check_assert.cache_store.CacheStoreType -->
<g id="node4" class="node">
<title>pytest_cache_assert._check_assert.cache_store.CacheStoreType</title>
<polygon fill="none" stroke="black" points="312.5,-153.5 312.5,-223.5 446.5,-223.5 446.5,-153.5 312.5,-153.5"/>
<text text-anchor="middle" x="379.5" y="-208.3" font-family="Times,serif" font-size="14.00">CacheStoreType</text>
<polyline fill="none" stroke="black" points="312.5,-200.5 446.5,-200.5 "/>
<polyline fill="none" stroke="black" points="312.5,-176.5 446.5,-176.5 "/>
<text text-anchor="start" x="320.5" y="-161.3" font-family="Times,serif" font-size="14.00">validate(value)</text>
</g>
<!-- pytest_cache_assert._check_assert.cache_store.CacheStoreType&#45;&gt;pytest_cache_assert._check_assert.assert_config.AssertConfig -->
<g id="edge3" class="edge">
<title>pytest_cache_assert._check_assert.cache_store.CacheStoreType&#45;&gt;pytest_cache_assert._check_assert.assert_config.AssertConfig</title>
<path fill="none" stroke="black" d="M396.25,-223.8C402.22,-236.03 409.2,-250.32 416.17,-264.6"/>
<polygon fill="black" stroke="black" points="416.22,-264.7 422.44,-268.33 421.48,-275.48 415.26,-271.84 416.22,-264.7"/>
<text text-anchor="middle" x="455" y="-245.8" font-family="Times,serif" font-size="14.00" fill="green">cache_store</text>
</g>
<!-- pytest_cache_assert._check_assert.key_rules.Comparator -->
<g id="node5" class="node">
<title>pytest_cache_assert._check_assert.key_rules.Comparator</title>
<polygon fill="none" stroke="black" points="1681.5,-23.5 1681.5,-92.5 1783.5,-92.5 1783.5,-23.5 1681.5,-23.5"/>
<text text-anchor="middle" x="1732.5" y="-77.3" font-family="Times,serif" font-size="14.00">Comparator</text>
<polyline fill="none" stroke="black" points="1681.5,-69.5 1783.5,-69.5 "/>
<text text-anchor="start" x="1689.5" y="-54.3" font-family="Times,serif" font-size="14.00">name</text>
<polyline fill="none" stroke="black" points="1681.5,-46.5 1783.5,-46.5 "/>
<text text-anchor="middle" x="1732.5" y="-31.3" font-family="Times,serif" font-size="14.00"> </text>
</g>
<!-- pytest_cache_assert.plugin.TestMetadata.Config -->
<g id="node6" class="node">
<title>pytest_cache_assert.plugin.TestMetadata.Config</title>
<polygon fill="none" stroke="black" points="1801.5,-16 1801.5,-100 2033.5,-100 2033.5,-16 1801.5,-16"/>
<text text-anchor="middle" x="1917.5" y="-84.8" font-family="Times,serif" font-size="14.00">Config</text>
<polyline fill="none" stroke="black" points="1801.5,-77 2033.5,-77 "/>
<text text-anchor="start" x="1809.5" y="-61.8" font-family="Times,serif" font-size="14.00">arbitrary_types_allowed : bool</text>
<text text-anchor="start" x="1809.5" y="-46.8" font-family="Times,serif" font-size="14.00">frozen : bool</text>
<polyline fill="none" stroke="black" points="1801.5,-39 2033.5,-39 "/>
<text text-anchor="middle" x="1917.5" y="-23.8" font-family="Times,serif" font-size="14.00"> </text>
</g>
<!-- pytest_cache_assert._check_assert.assert_config.AssertConfig.Config -->
<g id="node7" class="node">
<title>pytest_cache_assert._check_assert.assert_config.AssertConfig.Config</title>
<polygon fill="none" stroke="black" points="2051.5,-16 2051.5,-100 2283.5,-100 2283.5,-16 2051.5,-16"/>
<text text-anchor="middle" x="2167.5" y="-84.8" font-family="Times,serif" font-size="14.00">Config</text>
<polyline fill="none" stroke="black" points="2051.5,-77 2283.5,-77 "/>
<text text-anchor="start" x="2059.5" y="-61.8" font-family="Times,serif" font-size="14.00">arbitrary_types_allowed : bool</text>
<text text-anchor="start" x="2059.5" y="-46.8" font-family="Times,serif" font-size="14.00">frozen : bool</text>
<polyline fill="none" stroke="black" points="2051.5,-39 2283.5,-39 "/>
<text text-anchor="middle" x="2167.5" y="-23.8" font-family="Times,serif" font-size="14.00"> </text>
</g>
<!-- pytest_cache_assert._check_assert.converter.Converter -->
<g id="node8" class="node">
<title>pytest_cache_assert._check_assert.converter.Converter</title>
<polygon fill="none" stroke="black" points="2302,-16 2302,-100 2505,-100 2505,-16 2302,-16"/>
<text text-anchor="middle" x="2403.5" y="-84.8" font-family="Times,serif" font-size="14.00">Converter</text>
<polyline fill="none" stroke="black" points="2302,-77 2505,-77 "/>
<text text-anchor="start" x="2310" y="-61.8" font-family="Times,serif" font-size="14.00">func : Callable[[Any], Any]</text>
<text text-anchor="start" x="2310" y="-46.8" font-family="Times,serif" font-size="14.00">types : List[Any]</text>
<polyline fill="none" stroke="black" points="2302,-39 2505,-39 "/>
<text text-anchor="middle" x="2403.5" y="-23.8" font-family="Times,serif" font-size="14.00"> </text>
</g>
<!-- pytest_cache_assert._check_assert.validator.DictDiffValidator -->
<g id="node9" class="node">
<title>pytest_cache_assert._check_assert.validator.DictDiffValidator</title>
<polygon fill="none" stroke="black" points="647.5,-23 647.5,-93 787.5,-93 787.5,-23 647.5,-23"/>
<text text-anchor="middle" x="717.5" y="-77.8" font-family="Times,serif" font-size="14.00">DictDiffValidator</text>
<polyline fill="none" stroke="black" points="647.5,-70 787.5,-70 "/>
<polyline fill="none" stroke="black" points="647.5,-46 787.5,-46 "/>
<text text-anchor="start" x="655.5" y="-30.8" font-family="Times,serif" font-size="14.00">assertion(): None</text>
</g>
<!-- pytest_cache_assert._check_assert.validator.ValidatorType -->
<g id="node18" class="node">
<title>pytest_cache_assert._check_assert.validator.ValidatorType</title>
<polygon fill="none" stroke="black" points="592.5,-153.5 592.5,-223.5 714.5,-223.5 714.5,-153.5 592.5,-153.5"/>
<text text-anchor="middle" x="653.5" y="-208.3" font-family="Times,serif" font-size="14.00">ValidatorType</text>
<polyline fill="none" stroke="black" points="592.5,-200.5 714.5,-200.5 "/>
<polyline fill="none" stroke="black" points="592.5,-176.5 714.5,-176.5 "/>
<text text-anchor="start" x="600.5" y="-161.3" font-family="Times,serif" font-size="14.00">validate(value)</text>
</g>
<!-- pytest_cache_assert._check_assert.validator.DictDiffValidator&#45;&gt;pytest_cache_assert._check_assert.validator.ValidatorType -->
<g id="edge2" class="edge">
<title>pytest_cache_assert._check_assert.validator.DictDiffValidator&#45;&gt;pytest_cache_assert._check_assert.validator.ValidatorType</title>
<path fill="none" stroke="black" d="M700.52,-93.1C692.71,-108.78 683.35,-127.57 675.05,-144.23"/>
<polygon fill="none" stroke="black" points="671.89,-142.73 670.56,-153.24 678.15,-145.85 671.89,-142.73"/>
</g>
<!-- pytest_cache_assert._check_assert.differ.DiffResults -->
<g id="node10" class="node">
<title>pytest_cache_assert._check_assert.differ.DiffResults</title>
<polygon fill="none" stroke="black" points="2523,-16 2523,-100 2866,-100 2866,-16 2523,-16"/>
<text text-anchor="middle" x="2694.5" y="-84.8" font-family="Times,serif" font-size="14.00">DiffResults</text>
<polyline fill="none" stroke="black" points="2523,-77 2866,-77 "/>
<text text-anchor="start" x="2531" y="-61.8" font-family="Times,serif" font-size="14.00">results : dict, Dict</text>
<polyline fill="none" stroke="black" points="2523,-54 2866,-54 "/>
<text text-anchor="start" x="2531" y="-38.8" font-family="Times,serif" font-size="14.00">append(key_rule: KeyRule, result: Dict): None</text>
<text text-anchor="start" x="2531" y="-23.8" font-family="Times,serif" font-size="14.00">to_dict(): Dict</text>
</g>
<!-- pytest_cache_assert._check_assert.key_rules.KeyRule -->
<g id="node11" class="node">
<title>pytest_cache_assert._check_assert.key_rules.KeyRule</title>
<polygon fill="none" stroke="black" points="2884.5,-16 2884.5,-100 3252.5,-100 3252.5,-16 2884.5,-16"/>
<text text-anchor="middle" x="3068.5" y="-84.8" font-family="Times,serif" font-size="14.00">KeyRule</text>
<polyline fill="none" stroke="black" points="2884.5,-77 3252.5,-77 "/>
<text text-anchor="start" x="2892.5" y="-61.8" font-family="Times,serif" font-size="14.00">func : Callable[[DIFF_TYPES, DIFF_TYPES], bool]</text>
<text text-anchor="start" x="2892.5" y="-46.8" font-family="Times,serif" font-size="14.00">pattern : Union[str, Pattern, List]</text>
<polyline fill="none" stroke="black" points="2884.5,-39 3252.5,-39 "/>
<text text-anchor="middle" x="3068.5" y="-23.8" font-family="Times,serif" font-size="14.00"> </text>
</g>
<!-- pytest_cache_assert._check_assert.cache_store.LocalJSONCacheStore -->
<g id="node12" class="node">
<title>pytest_cache_assert._check_assert.cache_store.LocalJSONCacheStore</title>
<polygon fill="none" stroke="black" points="0,-0.5 0,-115.5 629,-115.5 629,-0.5 0,-0.5"/>
<text text-anchor="middle" x="314.5" y="-100.3" font-family="Times,serif" font-size="14.00">LocalJSONCacheStore</text>
<polyline fill="none" stroke="black" points="0,-92.5 629,-92.5 "/>
<polyline fill="none" stroke="black" points="0,-68.5 629,-68.5 "/>
<text text-anchor="start" x="8" y="-53.3" font-family="Times,serif" font-size="14.00">initialize(path_cache_dir: Optional[Path], converters: Optional[List[Converter]]): None</text>
<text text-anchor="start" x="8" y="-38.3" font-family="Times,serif" font-size="14.00">read_cached_data(path_cache_file: Path): Any</text>
<text text-anchor="start" x="8" y="-23.3" font-family="Times,serif" font-size="14.00">serialize(data: Any): Any</text>
<text text-anchor="start" x="8" y="-8.3" font-family="Times,serif" font-size="14.00">write(path_cache_file: Path): None</text>
</g>
<!-- pytest_cache_assert._check_assert.cache_store.LocalJSONCacheStore&#45;&gt;pytest_cache_assert._check_assert.cache_store.CacheStoreType -->
<g id="edge1" class="edge">
<title>pytest_cache_assert._check_assert.cache_store.LocalJSONCacheStore&#45;&gt;pytest_cache_assert._check_assert.cache_store.CacheStoreType</title>
<path fill="none" stroke="black" d="M343.2,-115.74C347.99,-125.22 352.9,-134.92 357.5,-144"/>
<polygon fill="none" stroke="black" points="354.52,-145.86 362.15,-153.21 360.76,-142.7 354.52,-145.86"/>
</g>
<!-- pytest_cache_assert._check_assert.error_message.NoCacheError -->
<g id="node13" class="node">
<title>pytest_cache_assert._check_assert.error_message.NoCacheError</title>
<polygon fill="none" stroke="black" points="3271,-23 3271,-93 3390,-93 3390,-23 3271,-23"/>
<text text-anchor="middle" x="3330.5" y="-77.8" font-family="Times,serif" font-size="14.00" fill="red">NoCacheError</text>
<polyline fill="none" stroke="black" points="3271,-70 3390,-70 "/>
<polyline fill="none" stroke="black" points="3271,-46 3390,-46 "/>
<text text-anchor="middle" x="3330.5" y="-30.8" font-family="Times,serif" font-size="14.00" fill="red"> </text>
</g>
<!-- pytest_cache_assert._check_assert.error_message.RichAssertionError -->
<g id="node14" class="node">
<title>pytest_cache_assert._check_assert.error_message.RichAssertionError</title>
<polygon fill="none" stroke="black" points="3408,-23.5 3408,-92.5 4143,-92.5 4143,-23.5 3408,-23.5"/>
<text text-anchor="middle" x="3775.5" y="-77.3" font-family="Times,serif" font-size="14.00" fill="red">RichAssertionError</text>
<polyline fill="none" stroke="black" points="3408,-69.5 4143,-69.5 "/>
<text text-anchor="start" x="3416" y="-54.3" font-family="Times,serif" font-size="14.00" fill="red">error_info : NoneType</text>
<polyline fill="none" stroke="black" points="3408,-46.5 4143,-46.5 "/>
<text text-anchor="start" x="3416" y="-31.3" font-family="Times,serif" font-size="14.00" fill="red">create_message(test_data: Any, cached_data: Any, path_cache_file: Path, diff_results: DiffResults): str</text>
</g>
<!-- pytest_cache_assert.plugin.TestMetadata -->
<g id="node15" class="node">
<title>pytest_cache_assert.plugin.TestMetadata</title>
<polygon fill="none" stroke="black" points="4161,-8.5 4161,-107.5 4688,-107.5 4688,-8.5 4161,-8.5"/>
<text text-anchor="middle" x="4424.5" y="-92.3" font-family="Times,serif" font-size="14.00">TestMetadata</text>
<polyline fill="none" stroke="black" points="4161,-84.5 4688,-84.5 "/>
<text text-anchor="start" x="4169" y="-69.3" font-family="Times,serif" font-size="14.00">func_args : Union[Dict, Iterable]</text>
<text text-anchor="start" x="4169" y="-54.3" font-family="Times,serif" font-size="14.00">test_file : str</text>
<text text-anchor="start" x="4169" y="-39.3" font-family="Times,serif" font-size="14.00">test_name : str</text>
<polyline fill="none" stroke="black" points="4161,-31.5 4688,-31.5 "/>
<text text-anchor="start" x="4169" y="-16.3" font-family="Times,serif" font-size="14.00">from_pytest(request: FixtureRequest, rel_test_file: Path): TestMetadata</text>
</g>
<!-- pytest_cache_assert._check_assert.serializer.Unconvertable -->
<g id="node16" class="node">
<title>pytest_cache_assert._check_assert.serializer.Unconvertable</title>
<polygon fill="none" stroke="black" points="4706.5,-23 4706.5,-93 4828.5,-93 4828.5,-23 4706.5,-23"/>
<text text-anchor="middle" x="4767.5" y="-77.8" font-family="Times,serif" font-size="14.00" fill="red">Unconvertable</text>
<polyline fill="none" stroke="black" points="4706.5,-70 4828.5,-70 "/>
<polyline fill="none" stroke="black" points="4706.5,-46 4828.5,-46 "/>
<text text-anchor="middle" x="4767.5" y="-30.8" font-family="Times,serif" font-size="14.00" fill="red"> </text>
</g>
<!-- pytest_cache_assert._check_assert.validator.Validator -->
<g id="node17" class="node">
<title>pytest_cache_assert._check_assert.validator.Validator</title>
<polygon fill="none" stroke="black" points="4846.5,-23 4846.5,-93 4986.5,-93 4986.5,-23 4846.5,-23"/>
<text text-anchor="middle" x="4916.5" y="-77.8" font-family="Times,serif" font-size="14.00">Validator</text>
<polyline fill="none" stroke="black" points="4846.5,-70 4986.5,-70 "/>
<polyline fill="none" stroke="black" points="4846.5,-46 4986.5,-46 "/>
<text text-anchor="start" x="4854.5" y="-30.8" font-family="Times,serif" font-size="14.00">assertion(): None</text>
</g>
<!-- pytest_cache_assert._check_assert.validator.ValidatorType&#45;&gt;pytest_cache_assert._check_assert.assert_config.AssertConfig -->
<g id="edge4" class="edge">
<title>pytest_cache_assert._check_assert.validator.ValidatorType&#45;&gt;pytest_cache_assert._check_assert.assert_config.AssertConfig</title>
<path fill="none" stroke="black" d="M607.64,-223.61C589.83,-236.85 568.74,-252.54 547.94,-268.01"/>
<polygon fill="black" stroke="black" points="547.72,-268.18 545.3,-274.97 538.09,-275.34 540.52,-268.55 547.72,-268.18"/>
<text text-anchor="middle" x="615.5" y="-245.8" font-family="Times,serif" font-size="14.00" fill="green">validator</text>
</g>
<!-- pytest_cache_assert._check_assert.serializer._CacheAssertSerializer -->
<g id="node19" class="node">
<title>pytest_cache_assert._check_assert.serializer._CacheAssertSerializer</title>
<polygon fill="none" stroke="black" points="5004.5,-23 5004.5,-93 5186.5,-93 5186.5,-23 5004.5,-23"/>
<text text-anchor="middle" x="5095.5" y="-77.8" font-family="Times,serif" font-size="14.00">_CacheAssertSerializer</text>
<polyline fill="none" stroke="black" points="5004.5,-70 5186.5,-70 "/>
<polyline fill="none" stroke="black" points="5004.5,-46 5186.5,-46 "/>
<text text-anchor="start" x="5012.5" y="-30.8" font-family="Times,serif" font-size="14.00">default(obj: Any): Any</text>
</g>
<!-- pytest_cache_assert._check_assert.serializer._Converters -->
<g id="node20" class="node">
<title>pytest_cache_assert._check_assert.serializer._Converters</title>
<polygon fill="none" stroke="black" points="5204.5,-1 5204.5,-115 5592.5,-115 5592.5,-1 5204.5,-1"/>
<text text-anchor="middle" x="5398.5" y="-99.8" font-family="Times,serif" font-size="14.00">_Converters</text>
<polyline fill="none" stroke="black" points="5204.5,-92 5592.5,-92 "/>
<text text-anchor="start" x="5212.5" y="-76.8" font-family="Times,serif" font-size="14.00">converter_lookup : Dict[Any, List[Callable]]</text>
<text text-anchor="start" x="5212.5" y="-61.8" font-family="Times,serif" font-size="14.00">converter_lookup : defaultdict, dict</text>
<text text-anchor="start" x="5212.5" y="-46.8" font-family="Times,serif" font-size="14.00">converters : List[Tuple[Any, Callable]]</text>
<polyline fill="none" stroke="black" points="5204.5,-39 5592.5,-39 "/>
<text text-anchor="start" x="5212.5" y="-23.8" font-family="Times,serif" font-size="14.00">get_lookup(): Dict[Any, List[Callable]]</text>
<text text-anchor="start" x="5212.5" y="-8.8" font-family="Times,serif" font-size="14.00">register(types: List[Any], converter: Callable): None</text>
</g>
</g>
</svg>
