<?xml version="1.0" encoding="UTF-8" standalone="no"?>
<!DOCTYPE svg PUBLIC "-//W3C//DTD SVG 1.1//EN"
 "http://www.w3.org/Graphics/SVG/1.1/DTD/svg11.dtd">
<!-- Generated by graphviz version 2.49.3 (20211023.0002)
 -->
<!-- Title: classes Pages: 1 -->
<svg width="595pt" height="79pt"
 viewBox="0.00 0.00 595.00 79.00" xmlns="http://www.w3.org/2000/svg" xmlns:xlink="http://www.w3.org/1999/xlink">
<g id="graph0" class="graph" transform="scale(1 1) rotate(0) translate(4 75)">
<title>classes</title>
<polygon fill="white" stroke="transparent" points="-4,4 -4,-75 591,-75 591,4 -4,4"/>
<!-- pytest_cache_assert._check_assert.differ.DiffResult -->
<g id="node1" class="node">
<title>pytest_cache_assert._check_assert.differ.DiffResult</title>
<polygon fill="none" stroke="black" points="0,-0.5 0,-70.5 257,-70.5 257,-0.5 0,-0.5"/>
<text text-anchor="middle" x="128.5" y="-55.3" font-family="Times,serif" font-size="14.00">DiffResult</text>
<polyline fill="none" stroke="black" points="0,-47.5 257,-47.5 "/>
<polyline fill="none" stroke="black" points="0,-23.5 257,-23.5 "/>
<text text-anchor="start" x="8" y="-8.3" font-family="Times,serif" font-size="14.00">match_key_pattern(pattern: List[str]): bool</text>
</g>
<!-- pytest_cache_assert._check_assert.key_rules.KeyRule -->
<g id="node2" class="node">
<title>pytest_cache_assert._check_assert.key_rules.KeyRule</title>
<polygon fill="none" stroke="black" points="275.5,-0.5 275.5,-70.5 341.5,-70.5 341.5,-0.5 275.5,-0.5"/>
<text text-anchor="middle" x="308.5" y="-55.3" font-family="Times,serif" font-size="14.00">KeyRule</text>
<polyline fill="none" stroke="black" points="275.5,-47.5 341.5,-47.5 "/>
<polyline fill="none" stroke="black" points="275.5,-23.5 341.5,-23.5 "/>
<text text-anchor="middle" x="308.5" y="-8.3" font-family="Times,serif" font-size="14.00"> </text>
</g>
<!-- pytest_cache_assert._check_assert.error_message.RichAssertionError -->
<g id="node3" class="node">
<title>pytest_cache_assert._check_assert.error_message.RichAssertionError</title>
<polygon fill="none" stroke="black" points="359.5,-1 359.5,-70 501.5,-70 501.5,-1 359.5,-1"/>
<text text-anchor="middle" x="430.5" y="-54.8" font-family="Times,serif" font-size="14.00" fill="red">RichAssertionError</text>
<polyline fill="none" stroke="black" points="359.5,-47 501.5,-47 "/>
<text text-anchor="start" x="367.5" y="-31.8" font-family="Times,serif" font-size="14.00" fill="red">error_info : NoneType</text>
<polyline fill="none" stroke="black" points="359.5,-24 501.5,-24 "/>
<text text-anchor="middle" x="430.5" y="-8.8" font-family="Times,serif" font-size="14.00" fill="red"> </text>
</g>
<!-- pytest_cache_assert._check_assert.constants.TrueNull -->
<g id="node4" class="node">
<title>pytest_cache_assert._check_assert.constants.TrueNull</title>
<polygon fill="none" stroke="black" points="520,-0.5 520,-70.5 587,-70.5 587,-0.5 520,-0.5"/>
<text text-anchor="middle" x="553.5" y="-55.3" font-family="Times,serif" font-size="14.00">TrueNull</text>
<polyline fill="none" stroke="black" points="520,-47.5 587,-47.5 "/>
<polyline fill="none" stroke="black" points="520,-23.5 587,-23.5 "/>
<text text-anchor="middle" x="553.5" y="-8.3" font-family="Times,serif" font-size="14.00"> </text>
</g>
</g>
</svg>
