<?xml version="1.0" encoding="UTF-8" standalone="no"?>
<!DOCTYPE svg PUBLIC "-//W3C//DTD SVG 1.1//EN"
 "http://www.w3.org/Graphics/SVG/1.1/DTD/svg11.dtd">
<!-- Generated by graphviz version 3.0.0 (20220226.1711)
 -->
<!-- Title: packages Pages: 1 -->
<svg width="1256pt" height="548pt"
 viewBox="0.00 0.00 1256.00 548.00" xmlns="http://www.w3.org/2000/svg" xmlns:xlink="http://www.w3.org/1999/xlink">
<g id="graph0" class="graph" transform="scale(1 1) rotate(0) translate(4 544)">
<title>packages</title>
<polygon fill="white" stroke="transparent" points="-4,4 -4,-544 1252,-544 1252,4 -4,4"/>
<!-- pytest_cache_assert -->
<g id="node1" class="node">
<title>pytest_cache_assert</title>
<polygon fill="none" stroke="black" points="673,-36 549,-36 549,0 673,0 673,-36"/>
<text text-anchor="middle" x="611" y="-14.3" font-family="Times,serif" font-size="14.00">pytest_cache_assert</text>
</g>
<!-- pytest_cache_assert._check_assert.assert_config -->
<g id="node3" class="node">
<title>pytest_cache_assert._check_assert.assert_config</title>
<polygon fill="none" stroke="black" points="667,-108 389,-108 389,-72 667,-72 667,-108"/>
<text text-anchor="middle" x="528" y="-86.3" font-family="Times,serif" font-size="14.00">pytest_cache_assert._check_assert.assert_config</text>
</g>
<!-- pytest_cache_assert&#45;&gt;pytest_cache_assert._check_assert.assert_config -->
<g id="edge1" class="edge">
<title>pytest_cache_assert&#45;&gt;pytest_cache_assert._check_assert.assert_config</title>
<path fill="none" stroke="black" d="M590.48,-36.3C580.13,-45.03 567.41,-55.76 556.16,-65.25"/>
<polygon fill="black" stroke="black" points="548.28,-71.9 553.02,-62.01 552.1,-68.67 555.93,-65.45 555.93,-65.45 555.93,-65.45 552.1,-68.67 558.83,-68.89 548.28,-71.9 548.28,-71.9"/>
</g>
<!-- pytest_cache_assert._check_assert.cache_store -->
<g id="node4" class="node">
<title>pytest_cache_assert._check_assert.cache_store</title>
<polygon fill="none" stroke="black" points="597.5,-180 326.5,-180 326.5,-144 597.5,-144 597.5,-180"/>
<text text-anchor="middle" x="462" y="-158.3" font-family="Times,serif" font-size="14.00">pytest_cache_assert._check_assert.cache_store</text>
</g>
<!-- pytest_cache_assert&#45;&gt;pytest_cache_assert._check_assert.cache_store -->
<g id="edge2" class="edge">
<title>pytest_cache_assert&#45;&gt;pytest_cache_assert._check_assert.cache_store</title>
<path fill="none" stroke="black" d="M548.84,-24.65C487.75,-31.63 400.77,-45.93 380,-72 370.03,-84.51 372.35,-93.95 380,-108 386.91,-120.7 398.32,-130.82 410.46,-138.67"/>
<polygon fill="black" stroke="black" points="419.38,-143.99 408.49,-142.73 415.09,-141.43 410.79,-138.87 410.79,-138.87 410.79,-138.87 415.09,-141.43 413.1,-135 419.38,-143.99 419.38,-143.99"/>
</g>
<!-- pytest_cache_assert._check_assert.config -->
<g id="node6" class="node">
<title>pytest_cache_assert._check_assert.config</title>
<polygon fill="none" stroke="black" points="269.5,-180 28.5,-180 28.5,-144 269.5,-144 269.5,-180"/>
<text text-anchor="middle" x="149" y="-158.3" font-family="Times,serif" font-size="14.00">pytest_cache_assert._check_assert.config</text>
</g>
<!-- pytest_cache_assert&#45;&gt;pytest_cache_assert._check_assert.config -->
<g id="edge3" class="edge">
<title>pytest_cache_assert&#45;&gt;pytest_cache_assert._check_assert.config</title>
<path fill="none" stroke="black" d="M548.84,-29.62C499.51,-38.76 429.09,-53.41 369,-72 307.39,-91.06 238.88,-120.08 194.94,-139.76"/>
<polygon fill="black" stroke="black" points="185.67,-143.93 192.94,-135.72 190.23,-141.88 194.79,-139.82 194.79,-139.82 194.79,-139.82 190.23,-141.88 196.64,-143.93 185.67,-143.93 185.67,-143.93"/>
</g>
<!-- pytest_cache_assert._check_assert.constants -->
<g id="node7" class="node">
<title>pytest_cache_assert._check_assert.constants</title>
<polygon fill="none" stroke="black" points="864.5,-540 607.5,-540 607.5,-504 864.5,-504 864.5,-540"/>
<text text-anchor="middle" x="736" y="-518.3" font-family="Times,serif" font-size="14.00">pytest_cache_assert._check_assert.constants</text>
</g>
<!-- pytest_cache_assert&#45;&gt;pytest_cache_assert._check_assert.constants -->
<g id="edge4" class="edge">
<title>pytest_cache_assert&#45;&gt;pytest_cache_assert._check_assert.constants</title>
<path fill="none" stroke="black" d="M673.09,-34.35C810.85,-68.62 1130,-149.28 1130,-161 1130,-161 1130,-161 1130,-379 1130,-438.48 969.08,-479.93 852.92,-502.1"/>
<polygon fill="black" stroke="black" points="842.88,-503.99 851.88,-497.72 847.8,-503.07 852.71,-502.14 852.71,-502.14 852.71,-502.14 847.8,-503.07 853.54,-506.57 842.88,-503.99 842.88,-503.99"/>
</g>
<!-- pytest_cache_assert._check_assert.converter -->
<g id="node8" class="node">
<title>pytest_cache_assert._check_assert.converter</title>
<polygon fill="none" stroke="black" points="415,-396 157,-396 157,-360 415,-360 415,-396"/>
<text text-anchor="middle" x="286" y="-374.3" font-family="Times,serif" font-size="14.00">pytest_cache_assert._check_assert.converter</text>
</g>
<!-- pytest_cache_assert&#45;&gt;pytest_cache_assert._check_assert.converter -->
<g id="edge5" class="edge">
<title>pytest_cache_assert&#45;&gt;pytest_cache_assert._check_assert.converter</title>
<path fill="none" stroke="black" d="M548.77,-20.34C393.24,-25.38 0,-49.17 0,-161 0,-161 0,-161 0,-235 0,-307.29 74.2,-342.77 147.01,-360.2"/>
<polygon fill="black" stroke="black" points="156.81,-362.44 146.05,-364.59 151.93,-361.32 147.06,-360.21 147.06,-360.21 147.06,-360.21 151.93,-361.32 148.06,-355.82 156.81,-362.44 156.81,-362.44"/>
</g>
<!-- pytest_cache_assert._check_assert.error_message -->
<g id="node10" class="node">
<title>pytest_cache_assert._check_assert.error_message</title>
<polygon fill="none" stroke="black" points="1101.5,-324 814.5,-324 814.5,-288 1101.5,-288 1101.5,-324"/>
<text text-anchor="middle" x="958" y="-302.3" font-family="Times,serif" font-size="14.00">pytest_cache_assert._check_assert.error_message</text>
</g>
<!-- pytest_cache_assert&#45;&gt;pytest_cache_assert._check_assert.error_message -->
<g id="edge6" class="edge">
<title>pytest_cache_assert&#45;&gt;pytest_cache_assert._check_assert.error_message</title>
<path fill="none" stroke="black" d="M657.48,-36.05C750.11,-71.11 951.95,-153.25 988,-216 999.45,-235.93 989.2,-260.89 977.67,-279.3"/>
<polygon fill="black" stroke="black" points="972,-287.76 973.83,-276.95 974.78,-283.61 977.57,-279.46 977.57,-279.46 977.57,-279.46 974.78,-283.61 981.31,-281.96 972,-287.76 972,-287.76"/>
</g>
<!-- pytest_cache_assert._check_assert.key_rules -->
<g id="node11" class="node">
<title>pytest_cache_assert._check_assert.key_rules</title>
<polygon fill="none" stroke="black" points="945,-468 685,-468 685,-432 945,-432 945,-468"/>
<text text-anchor="middle" x="815" y="-446.3" font-family="Times,serif" font-size="14.00">pytest_cache_assert._check_assert.key_rules</text>
</g>
<!-- pytest_cache_assert&#45;&gt;pytest_cache_assert._check_assert.key_rules -->
<g id="edge7" class="edge">
<title>pytest_cache_assert&#45;&gt;pytest_cache_assert._check_assert.key_rules</title>
<path fill="none" stroke="black" d="M639.82,-36.05C652.78,-45.14 667.12,-57.46 676,-72 697.09,-106.51 695,-120.55 695,-161 695,-161 695,-161 695,-307 695,-358.77 742.11,-401.42 777.3,-426.04"/>
<polygon fill="black" stroke="black" points="785.95,-431.91 775.15,-430.02 781.81,-429.11 777.67,-426.3 777.67,-426.3 777.67,-426.3 781.81,-429.11 780.2,-422.58 785.95,-431.91 785.95,-431.91"/>
</g>
<!-- pytest_cache_assert._check_assert.validator -->
<g id="node13" class="node">
<title>pytest_cache_assert._check_assert.validator</title>
<polygon fill="none" stroke="black" points="978.5,-252 723.5,-252 723.5,-216 978.5,-216 978.5,-252"/>
<text text-anchor="middle" x="851" y="-230.3" font-family="Times,serif" font-size="14.00">pytest_cache_assert._check_assert.validator</text>
</g>
<!-- pytest_cache_assert&#45;&gt;pytest_cache_assert._check_assert.validator -->
<g id="edge8" class="edge">
<title>pytest_cache_assert&#45;&gt;pytest_cache_assert._check_assert.validator</title>
<path fill="none" stroke="black" d="M650.16,-36.21C668.92,-45.42 691.14,-57.79 709,-72 760.14,-112.68 807.84,-173.16 832.82,-207.23"/>
<polygon fill="black" stroke="black" points="838.96,-215.7 829.45,-210.25 836.03,-211.65 833.09,-207.61 833.09,-207.61 833.09,-207.61 836.03,-211.65 836.74,-204.96 838.96,-215.7 838.96,-215.7"/>
</g>
<!-- pytest_cache_assert._check_assert -->
<g id="node2" class="node">
<title>pytest_cache_assert._check_assert</title>
<polygon fill="none" stroke="black" points="894.5,-36 691.5,-36 691.5,0 894.5,0 894.5,-36"/>
<text text-anchor="middle" x="793" y="-14.3" font-family="Times,serif" font-size="14.00">pytest_cache_assert._check_assert</text>
</g>
<!-- pytest_cache_assert._check_assert.assert_config&#45;&gt;pytest_cache_assert._check_assert.cache_store -->
<g id="edge9" class="edge">
<title>pytest_cache_assert._check_assert.assert_config&#45;&gt;pytest_cache_assert._check_assert.cache_store</title>
<path fill="none" stroke="black" d="M511.69,-108.3C503.69,-116.78 493.93,-127.14 485.18,-136.42"/>
<polygon fill="black" stroke="black" points="478.13,-143.9 481.71,-133.53 481.56,-140.26 484.99,-136.62 484.99,-136.62 484.99,-136.62 481.56,-140.26 488.26,-139.71 478.13,-143.9 478.13,-143.9"/>
</g>
<!-- pytest_cache_assert._check_assert.assert_config&#45;&gt;pytest_cache_assert._check_assert.config -->
<g id="edge10" class="edge">
<title>pytest_cache_assert._check_assert.assert_config&#45;&gt;pytest_cache_assert._check_assert.config</title>
<path fill="none" stroke="black" d="M435.77,-108.03C379.95,-118.34 308.68,-131.51 251.15,-142.13"/>
<polygon fill="black" stroke="black" points="241.31,-143.95 250.33,-137.71 246.23,-143.04 251.15,-142.13 251.15,-142.13 251.15,-142.13 246.23,-143.04 251.96,-146.56 241.31,-143.95 241.31,-143.95"/>
</g>
<!-- pytest_cache_assert._check_assert.assert_config&#45;&gt;pytest_cache_assert._check_assert.constants -->
<g id="edge11" class="edge">
<title>pytest_cache_assert._check_assert.assert_config&#45;&gt;pytest_cache_assert._check_assert.constants</title>
<path fill="none" stroke="black" d="M560.22,-108.13C598.43,-131.05 657,-175.55 657,-233 657,-233 657,-233 657,-379 657,-419.45 655.59,-433.08 676,-468 682.58,-479.27 692.41,-489.4 702.21,-497.71"/>
<polygon fill="black" stroke="black" points="710.01,-503.98 699.4,-501.22 706.11,-500.85 702.22,-497.71 702.22,-497.71 702.22,-497.71 706.11,-500.85 705.03,-494.21 710.01,-503.98 710.01,-503.98"/>
</g>
<!-- pytest_cache_assert._check_assert.assert_config&#45;&gt;pytest_cache_assert._check_assert.converter -->
<g id="edge12" class="edge">
<title>pytest_cache_assert._check_assert.assert_config&#45;&gt;pytest_cache_assert._check_assert.converter</title>
<path fill="none" stroke="black" d="M415.14,-108C373.01,-116.65 331.97,-128.62 318,-144 265.92,-201.31 273.44,-301.59 280.84,-349.71"/>
<polygon fill="black" stroke="black" points="282.49,-359.7 276.42,-350.56 281.68,-354.76 280.86,-349.83 280.86,-349.83 280.86,-349.83 281.68,-354.76 285.3,-349.1 282.49,-359.7 282.49,-359.7"/>
</g>
<!-- pytest_cache_assert._check_assert.assert_config&#45;&gt;pytest_cache_assert._check_assert.validator -->
<g id="edge13" class="edge">
<title>pytest_cache_assert._check_assert.assert_config&#45;&gt;pytest_cache_assert._check_assert.validator</title>
<path fill="none" stroke="black" d="M577.81,-108.02C605.52,-117.85 640.49,-130.84 671,-144 719.49,-164.91 773.61,-192.23 809.73,-211.06"/>
<polygon fill="black" stroke="black" points="818.96,-215.89 808.01,-215.24 814.53,-213.57 810.1,-211.25 810.1,-211.25 810.1,-211.25 814.53,-213.57 812.19,-207.27 818.96,-215.89 818.96,-215.89"/>
</g>
<!-- pytest_cache_assert._check_assert.caching -->
<g id="node5" class="node">
<title>pytest_cache_assert._check_assert.caching</title>
<polygon fill="none" stroke="black" points="628.5,-252 379.5,-252 379.5,-216 628.5,-216 628.5,-252"/>
<text text-anchor="middle" x="504" y="-230.3" font-family="Times,serif" font-size="14.00">pytest_cache_assert._check_assert.caching</text>
</g>
<!-- pytest_cache_assert._check_assert.cache_store&#45;&gt;pytest_cache_assert._check_assert.caching -->
<g id="edge14" class="edge">
<title>pytest_cache_assert._check_assert.cache_store&#45;&gt;pytest_cache_assert._check_assert.caching</title>
<path fill="none" stroke="black" d="M472.38,-180.3C477.26,-188.44 483.19,-198.31 488.58,-207.3"/>
<polygon fill="black" stroke="black" points="493.74,-215.9 484.73,-209.64 491.16,-211.61 488.59,-207.32 488.59,-207.32 488.59,-207.32 491.16,-211.61 492.45,-205.01 493.74,-215.9 493.74,-215.9"/>
</g>
<!-- pytest_cache_assert._check_assert.cache_store&#45;&gt;pytest_cache_assert._check_assert.converter -->
<g id="edge15" class="edge">
<title>pytest_cache_assert._check_assert.cache_store&#45;&gt;pytest_cache_assert._check_assert.converter</title>
<path fill="none" stroke="black" d="M415.29,-180.11C396.67,-188.69 376.11,-200.59 361,-216 323.43,-254.31 302.29,-314.92 292.59,-349.82"/>
<polygon fill="black" stroke="black" points="289.95,-359.77 288.17,-348.95 291.23,-354.94 292.52,-350.11 292.52,-350.11 292.52,-350.11 291.23,-354.94 296.87,-351.26 289.95,-359.77 289.95,-359.77"/>
</g>
<!-- pytest_cache_assert._check_assert.serializer -->
<g id="node12" class="node">
<title>pytest_cache_assert._check_assert.serializer</title>
<polygon fill="none" stroke="black" points="590.5,-324 333.5,-324 333.5,-288 590.5,-288 590.5,-324"/>
<text text-anchor="middle" x="462" y="-302.3" font-family="Times,serif" font-size="14.00">pytest_cache_assert._check_assert.serializer</text>
</g>
<!-- pytest_cache_assert._check_assert.cache_store&#45;&gt;pytest_cache_assert._check_assert.serializer -->
<g id="edge16" class="edge">
<title>pytest_cache_assert._check_assert.cache_store&#45;&gt;pytest_cache_assert._check_assert.serializer</title>
<path fill="none" stroke="black" d="M412.44,-180.15C396.31,-188.36 380.2,-199.99 371,-216 363.03,-229.87 363.03,-238.13 371,-252 378.48,-265.01 390.51,-275.12 403.41,-282.86"/>
<polygon fill="black" stroke="black" points="412.44,-287.85 401.51,-286.95 408.06,-285.43 403.68,-283.01 403.68,-283.01 403.68,-283.01 408.06,-285.43 405.86,-279.07 412.44,-287.85 412.44,-287.85"/>
</g>
<!-- pytest_cache_assert._check_assert.caching&#45;&gt;pytest_cache_assert._check_assert.constants -->
<g id="edge17" class="edge">
<title>pytest_cache_assert._check_assert.caching&#45;&gt;pytest_cache_assert._check_assert.constants</title>
<path fill="none" stroke="black" d="M552.66,-252.2C569.92,-260.54 588.01,-272.24 600,-288 649.81,-353.46 593.64,-402.21 643,-468 652.7,-480.93 666.54,-491.19 680.58,-499.1"/>
<polygon fill="black" stroke="black" points="689.81,-503.96 678.86,-503.28 685.38,-501.63 680.96,-499.3 680.96,-499.3 680.96,-499.3 685.38,-501.63 683.06,-495.32 689.81,-503.96 689.81,-503.96"/>
</g>
<!-- pytest_cache_assert._check_assert.caching&#45;&gt;pytest_cache_assert._check_assert.error_message -->
<g id="edge18" class="edge">
<title>pytest_cache_assert._check_assert.caching&#45;&gt;pytest_cache_assert._check_assert.error_message</title>
<path fill="none" stroke="black" d="M614.48,-252.03C681.9,-262.43 768.13,-275.73 837.34,-286.4"/>
<polygon fill="black" stroke="black" points="847.42,-287.95 836.85,-290.87 842.48,-287.19 837.54,-286.43 837.54,-286.43 837.54,-286.43 842.48,-287.19 838.22,-281.98 847.42,-287.95 847.42,-287.95"/>
</g>
<!-- pytest_cache_assert._check_assert.caching&#45;&gt;pytest_cache_assert._check_assert.serializer -->
<g id="edge19" class="edge">
<title>pytest_cache_assert._check_assert.caching&#45;&gt;pytest_cache_assert._check_assert.serializer</title>
<path fill="none" stroke="black" d="M493.62,-252.3C488.74,-260.44 482.81,-270.31 477.42,-279.3"/>
<polygon fill="black" stroke="black" points="472.26,-287.9 473.55,-277.01 474.84,-283.61 477.41,-279.32 477.41,-279.32 477.41,-279.32 474.84,-283.61 481.27,-281.64 472.26,-287.9 472.26,-287.9"/>
</g>
<!-- pytest_cache_assert._check_assert.differ -->
<g id="node9" class="node">
<title>pytest_cache_assert._check_assert.differ</title>
<polygon fill="none" stroke="black" points="1045.5,-396 808.5,-396 808.5,-360 1045.5,-360 1045.5,-396"/>
<text text-anchor="middle" x="927" y="-374.3" font-family="Times,serif" font-size="14.00">pytest_cache_assert._check_assert.differ</text>
</g>
<!-- pytest_cache_assert._check_assert.differ&#45;&gt;pytest_cache_assert._check_assert.constants -->
<g id="edge20" class="edge">
<title>pytest_cache_assert._check_assert.differ&#45;&gt;pytest_cache_assert._check_assert.constants</title>
<path fill="none" stroke="black" d="M940.56,-396.1C954.1,-415.39 970.66,-446.8 954,-468 942.51,-482.62 909.27,-493.7 872.11,-501.86"/>
<polygon fill="black" stroke="black" points="862.06,-503.98 870.92,-497.51 866.95,-502.94 871.84,-501.91 871.84,-501.91 871.84,-501.91 866.95,-502.94 872.77,-506.32 862.06,-503.98 862.06,-503.98"/>
</g>
<!-- pytest_cache_assert._check_assert.differ&#45;&gt;pytest_cache_assert._check_assert.key_rules -->
<g id="edge21" class="edge">
<title>pytest_cache_assert._check_assert.differ&#45;&gt;pytest_cache_assert._check_assert.key_rules</title>
<path fill="none" stroke="black" d="M899.6,-396.12C885.09,-405.19 867.08,-416.45 851.41,-426.24"/>
<polygon fill="black" stroke="black" points="842.5,-431.81 848.6,-422.69 846.74,-429.16 850.98,-426.51 850.98,-426.51 850.98,-426.51 846.74,-429.16 853.37,-430.33 842.5,-431.81 842.5,-431.81"/>
</g>
<!-- pytest_cache_assert._check_assert.error_message&#45;&gt;pytest_cache_assert._check_assert.differ -->
<g id="edge22" class="edge">
<title>pytest_cache_assert._check_assert.error_message&#45;&gt;pytest_cache_assert._check_assert.differ</title>
<path fill="none" stroke="black" d="M950.34,-324.3C946.81,-332.27 942.54,-341.9 938.63,-350.74"/>
<polygon fill="black" stroke="black" points="934.57,-359.9 934.51,-348.93 936.6,-355.32 938.62,-350.75 938.62,-350.75 938.62,-350.75 936.6,-355.32 942.74,-352.57 934.57,-359.9 934.57,-359.9"/>
</g>
<!-- pytest_cache_assert._check_assert.key_rules&#45;&gt;pytest_cache_assert._check_assert.constants -->
<g id="edge23" class="edge">
<title>pytest_cache_assert._check_assert.key_rules&#45;&gt;pytest_cache_assert._check_assert.constants</title>
<path fill="none" stroke="black" d="M795.47,-468.3C785.62,-477.03 773.51,-487.76 762.8,-497.25"/>
<polygon fill="black" stroke="black" points="755.3,-503.9 759.8,-493.9 759.05,-500.58 762.79,-497.26 762.79,-497.26 762.79,-497.26 759.05,-500.58 765.77,-500.63 755.3,-503.9 755.3,-503.9"/>
</g>
<!-- pytest_cache_assert._check_assert.serializer&#45;&gt;pytest_cache_assert._check_assert.constants -->
<g id="edge24" class="edge">
<title>pytest_cache_assert._check_assert.serializer&#45;&gt;pytest_cache_assert._check_assert.constants</title>
<path fill="none" stroke="black" d="M473.35,-324.4C495.24,-356.75 546.35,-426.62 605,-468 623.95,-481.37 646.76,-492.09 668.01,-500.3"/>
<polygon fill="black" stroke="black" points="677.64,-503.89 666.69,-504.61 672.95,-502.15 668.27,-500.4 668.27,-500.4 668.27,-500.4 672.95,-502.15 669.84,-496.18 677.64,-503.89 677.64,-503.89"/>
</g>
<!-- pytest_cache_assert._check_assert.serializer&#45;&gt;pytest_cache_assert._check_assert.converter -->
<g id="edge25" class="edge">
<title>pytest_cache_assert._check_assert.serializer&#45;&gt;pytest_cache_assert._check_assert.converter</title>
<path fill="none" stroke="black" d="M418.95,-324.12C394.67,-333.78 364.16,-345.91 338.49,-356.12"/>
<polygon fill="black" stroke="black" points="328.91,-359.93 336.54,-352.05 333.56,-358.08 338.21,-356.24 338.21,-356.24 338.21,-356.24 333.56,-358.08 339.87,-360.42 328.91,-359.93 328.91,-359.93"/>
</g>
<!-- pytest_cache_assert._check_assert.validator&#45;&gt;pytest_cache_assert._check_assert.differ -->
<g id="edge26" class="edge">
<title>pytest_cache_assert._check_assert.validator&#45;&gt;pytest_cache_assert._check_assert.differ</title>
<path fill="none" stroke="black" d="M831.72,-252.01C813.3,-270.39 790.46,-300.23 806,-324 814.99,-337.75 828.42,-347.96 843.11,-355.52"/>
<polygon fill="black" stroke="black" points="852.38,-359.9 841.42,-359.7 847.86,-357.77 843.34,-355.63 843.34,-355.63 843.34,-355.63 847.86,-357.77 845.26,-351.56 852.38,-359.9 852.38,-359.9"/>
</g>
<!-- pytest_cache_assert._check_assert.validator&#45;&gt;pytest_cache_assert._check_assert.error_message -->
<g id="edge27" class="edge">
<title>pytest_cache_assert._check_assert.validator&#45;&gt;pytest_cache_assert._check_assert.error_message</title>
<path fill="none" stroke="black" d="M877.18,-252.12C891.04,-261.19 908.24,-272.45 923.21,-282.24"/>
<polygon fill="black" stroke="black" points="931.72,-287.81 920.89,-286.1 927.54,-285.07 923.36,-282.34 923.36,-282.34 923.36,-282.34 927.54,-285.07 925.82,-278.57 931.72,-287.81 931.72,-287.81"/>
</g>
<!-- pytest_cache_assert._check_assert.validator&#45;&gt;pytest_cache_assert._check_assert.key_rules -->
<g id="edge28" class="edge">
<title>pytest_cache_assert._check_assert.validator&#45;&gt;pytest_cache_assert._check_assert.key_rules</title>
<path fill="none" stroke="black" d="M825.62,-252.05C814.29,-261.21 802.12,-273.6 796,-288 777.14,-332.37 792.02,-389.44 803.94,-422.35"/>
<polygon fill="black" stroke="black" points="807.5,-431.75 799.75,-423.99 805.73,-427.07 803.96,-422.4 803.96,-422.4 803.96,-422.4 805.73,-427.07 808.16,-420.8 807.5,-431.75 807.5,-431.75"/>
</g>
<!-- pytest_cache_assert.main -->
<g id="node14" class="node">
<title>pytest_cache_assert.main</title>
<polygon fill="none" stroke="black" points="1067.5,-36 912.5,-36 912.5,0 1067.5,0 1067.5,-36"/>
<text text-anchor="middle" x="990" y="-14.3" font-family="Times,serif" font-size="14.00">pytest_cache_assert.main</text>
</g>
<!-- pytest_cache_assert.plugin -->
<g id="node15" class="node">
<title>pytest_cache_assert.plugin</title>
<polygon fill="none" stroke="black" points="1248,-36 1086,-36 1086,0 1248,0 1248,-36"/>
<text text-anchor="middle" x="1167" y="-14.3" font-family="Times,serif" font-size="14.00">pytest_cache_assert.plugin</text>
</g>
</g>
</svg>
