<?xml version="1.0" encoding="UTF-8" standalone="no"?>
<!DOCTYPE svg PUBLIC "-//W3C//DTD SVG 1.1//EN"
 "http://www.w3.org/Graphics/SVG/1.1/DTD/svg11.dtd">
<!-- Generated by graphviz version 8.1.0 (20230707.0739)
 -->
<!-- Title: packages Pages: 1 -->
<svg width="1295pt" height="548pt"
 viewBox="0.00 0.00 1295.26 548.00" xmlns="http://www.w3.org/2000/svg" xmlns:xlink="http://www.w3.org/1999/xlink">
<g id="graph0" class="graph" transform="scale(1 1) rotate(0) translate(4 544)">
<title>packages</title>
<polygon fill="white" stroke="none" points="-4,4 -4,-544 1291.26,-544 1291.26,4 -4,4"/>
<!-- pytest_cache_assert -->
<g id="node1" class="node">
<title>pytest_cache_assert</title>
<polygon fill="none" stroke="black" points="714.14,-36 590.89,-36 590.89,0 714.14,0 714.14,-36"/>
<text text-anchor="middle" x="652.51" y="-12.95" font-family="Times,serif" font-size="14.00">pytest_cache_assert</text>
</g>
<!-- pytest_cache_assert._check_assert.assert_config -->
<g id="node3" class="node">
<title>pytest_cache_assert._check_assert.assert_config</title>
<polygon fill="none" stroke="black" points="614.76,-108 336.26,-108 336.26,-72 614.76,-72 614.76,-108"/>
<text text-anchor="middle" x="475.51" y="-84.95" font-family="Times,serif" font-size="14.00">pytest_cache_assert._check_assert.assert_config</text>
</g>
<!-- pytest_cache_assert&#45;&gt;pytest_cache_assert._check_assert.assert_config -->
<g id="edge1" class="edge">
<title>pytest_cache_assert&#45;&gt;pytest_cache_assert._check_assert.assert_config</title>
<path fill="none" stroke="black" d="M608.31,-36.48C584.14,-46.04 554.03,-57.95 528.6,-68"/>
<polygon fill="black" stroke="black" points="519.46,-71.62 527.11,-63.76 524.11,-69.78 528.76,-67.94 528.76,-67.94 528.76,-67.94 524.11,-69.78 530.42,-72.13 519.46,-71.62 519.46,-71.62"/>
</g>
<!-- pytest_cache_assert._check_assert.assert_rules -->
<g id="node4" class="node">
<title>pytest_cache_assert._check_assert.assert_rules</title>
<polygon fill="none" stroke="black" points="990.64,-468 720.39,-468 720.39,-432 990.64,-432 990.64,-468"/>
<text text-anchor="middle" x="855.51" y="-444.95" font-family="Times,serif" font-size="14.00">pytest_cache_assert._check_assert.assert_rules</text>
</g>
<!-- pytest_cache_assert&#45;&gt;pytest_cache_assert._check_assert.assert_rules -->
<g id="edge2" class="edge">
<title>pytest_cache_assert&#45;&gt;pytest_cache_assert._check_assert.assert_rules</title>
<path fill="none" stroke="black" d="M714.42,-34.88C839.7,-67.44 1111.51,-140.46 1111.51,-161 1111.51,-161 1111.51,-161 1111.51,-307 1111.51,-374.71 1042.17,-410.41 975.67,-429.07"/>
<polygon fill="black" stroke="black" points="966.31,-431.59 974.79,-424.64 971.14,-430.29 975.97,-428.99 975.97,-428.99 975.97,-428.99 971.14,-430.29 977.14,-433.33 966.31,-431.59 966.31,-431.59"/>
</g>
<!-- pytest_cache_assert._check_assert.cache_store -->
<g id="node5" class="node">
<title>pytest_cache_assert._check_assert.cache_store</title>
<polygon fill="none" stroke="black" points="349.64,-180 79.39,-180 79.39,-144 349.64,-144 349.64,-180"/>
<text text-anchor="middle" x="214.51" y="-156.95" font-family="Times,serif" font-size="14.00">pytest_cache_assert._check_assert.cache_store</text>
</g>
<!-- pytest_cache_assert&#45;&gt;pytest_cache_assert._check_assert.cache_store -->
<g id="edge3" class="edge">
<title>pytest_cache_assert&#45;&gt;pytest_cache_assert._check_assert.cache_store</title>
<path fill="none" stroke="black" d="M590.63,-19.96C523.24,-23.05 413.6,-34.13 327.51,-72 292.55,-87.38 259.02,-116.16 237.7,-136.83"/>
<polygon fill="black" stroke="black" points="230.69,-143.77 234.63,-133.54 234.24,-140.25 237.8,-136.73 237.8,-136.73 237.8,-136.73 234.24,-140.25 240.96,-139.93 230.69,-143.77 230.69,-143.77"/>
</g>
<!-- pytest_cache_assert._check_assert.config -->
<g id="node7" class="node">
<title>pytest_cache_assert._check_assert.config</title>
<polygon fill="none" stroke="black" points="773.01,-180 532.01,-180 532.01,-144 773.01,-144 773.01,-180"/>
<text text-anchor="middle" x="652.51" y="-156.95" font-family="Times,serif" font-size="14.00">pytest_cache_assert._check_assert.config</text>
</g>
<!-- pytest_cache_assert&#45;&gt;pytest_cache_assert._check_assert.config -->
<g id="edge4" class="edge">
<title>pytest_cache_assert&#45;&gt;pytest_cache_assert._check_assert.config</title>
<path fill="none" stroke="black" d="M652.51,-36.41C652.51,-60.82 652.51,-105.42 652.51,-134.11"/>
<polygon fill="black" stroke="black" points="652.51,-143.89 648.01,-133.89 652.51,-138.89 652.51,-133.89 652.51,-133.89 652.51,-133.89 652.51,-138.89 657.01,-133.89 652.51,-143.89 652.51,-143.89"/>
</g>
<!-- pytest_cache_assert._check_assert.converter -->
<g id="node9" class="node">
<title>pytest_cache_assert._check_assert.converter</title>
<polygon fill="none" stroke="black" points="444.26,-396 186.76,-396 186.76,-360 444.26,-360 444.26,-396"/>
<text text-anchor="middle" x="315.51" y="-372.95" font-family="Times,serif" font-size="14.00">pytest_cache_assert._check_assert.converter</text>
</g>
<!-- pytest_cache_assert&#45;&gt;pytest_cache_assert._check_assert.converter -->
<g id="edge5" class="edge">
<title>pytest_cache_assert&#45;&gt;pytest_cache_assert._check_assert.converter</title>
<path fill="none" stroke="black" d="M590.48,-19.47C428.01,-22.37 2.51,-41.38 2.51,-161 2.51,-161 2.51,-161 2.51,-235 2.51,-275.45 -7.54,-295.86 21.51,-324 44.19,-345.97 111.8,-359.03 176.47,-366.68"/>
<polygon fill="black" stroke="black" points="186.4,-367.82 175.95,-371.15 181.43,-367.25 176.46,-366.68 176.46,-366.68 176.46,-366.68 181.43,-367.25 176.97,-362.21 186.4,-367.82 186.4,-367.82"/>
</g>
<!-- pytest_cache_assert._check_assert.error_message -->
<g id="node11" class="node">
<title>pytest_cache_assert._check_assert.error_message</title>
<polygon fill="none" stroke="black" points="944.51,-324 658.51,-324 658.51,-288 944.51,-288 944.51,-324"/>
<text text-anchor="middle" x="801.51" y="-300.95" font-family="Times,serif" font-size="14.00">pytest_cache_assert._check_assert.error_message</text>
</g>
<!-- pytest_cache_assert&#45;&gt;pytest_cache_assert._check_assert.error_message -->
<g id="edge6" class="edge">
<title>pytest_cache_assert&#45;&gt;pytest_cache_assert._check_assert.error_message</title>
<path fill="none" stroke="black" d="M679.74,-36.46C710.43,-57.78 759.1,-96.9 782.51,-144 803.99,-187.21 805.22,-244.75 803.69,-278.05"/>
<polygon fill="black" stroke="black" points="803.12,-287.96 799.2,-277.72 803.41,-282.97 803.7,-277.98 803.7,-277.98 803.7,-277.98 803.41,-282.97 808.19,-278.24 803.12,-287.96 803.12,-287.96"/>
</g>
<!-- pytest_cache_assert._check_assert.validator -->
<g id="node13" class="node">
<title>pytest_cache_assert._check_assert.validator</title>
<polygon fill="none" stroke="black" points="1083.76,-252 829.26,-252 829.26,-216 1083.76,-216 1083.76,-252"/>
<text text-anchor="middle" x="956.51" y="-228.95" font-family="Times,serif" font-size="14.00">pytest_cache_assert._check_assert.validator</text>
</g>
<!-- pytest_cache_assert&#45;&gt;pytest_cache_assert._check_assert.validator -->
<g id="edge7" class="edge">
<title>pytest_cache_assert&#45;&gt;pytest_cache_assert._check_assert.validator</title>
<path fill="none" stroke="black" d="M714.4,-35.44C753.01,-46.39 798.5,-60.78 815.51,-72 870.7,-108.39 917.29,-171.97 940.57,-207.36"/>
<polygon fill="black" stroke="black" points="945.98,-215.72 936.76,-209.77 943.26,-211.52 940.54,-207.32 940.54,-207.32 940.54,-207.32 943.26,-211.52 944.32,-204.88 945.98,-215.72 945.98,-215.72"/>
</g>
<!-- pytest_cache_assert._check_assert -->
<g id="node2" class="node">
<title>pytest_cache_assert._check_assert</title>
<polygon fill="none" stroke="black" points="934.89,-36 732.14,-36 732.14,0 934.89,0 934.89,-36"/>
<text text-anchor="middle" x="833.51" y="-12.95" font-family="Times,serif" font-size="14.00">pytest_cache_assert._check_assert</text>
</g>
<!-- pytest_cache_assert._check_assert.assert_config&#45;&gt;pytest_cache_assert._check_assert.cache_store -->
<g id="edge8" class="edge">
<title>pytest_cache_assert._check_assert.assert_config&#45;&gt;pytest_cache_assert._check_assert.cache_store</title>
<path fill="none" stroke="black" d="M410.33,-108.48C373.44,-118.38 327.17,-130.78 288.88,-141.06"/>
<polygon fill="black" stroke="black" points="279.32,-143.62 287.82,-136.68 284.15,-142.32 288.98,-141.03 288.98,-141.03 288.98,-141.03 284.15,-142.32 290.15,-145.37 279.32,-143.62 279.32,-143.62"/>
</g>
<!-- pytest_cache_assert._check_assert.assert_config&#45;&gt;pytest_cache_assert._check_assert.config -->
<g id="edge9" class="edge">
<title>pytest_cache_assert._check_assert.assert_config&#45;&gt;pytest_cache_assert._check_assert.config</title>
<path fill="none" stroke="black" d="M519.72,-108.48C543.89,-118.04 573.99,-129.95 599.42,-140"/>
<polygon fill="black" stroke="black" points="608.56,-143.62 597.61,-144.13 603.91,-141.78 599.26,-139.94 599.26,-139.94 599.26,-139.94 603.91,-141.78 600.92,-135.76 608.56,-143.62 608.56,-143.62"/>
</g>
<!-- pytest_cache_assert._check_assert.constants -->
<g id="node8" class="node">
<title>pytest_cache_assert._check_assert.constants</title>
<polygon fill="none" stroke="black" points="660.89,-540 404.14,-540 404.14,-504 660.89,-504 660.89,-540"/>
<text text-anchor="middle" x="532.51" y="-516.95" font-family="Times,serif" font-size="14.00">pytest_cache_assert._check_assert.constants</text>
</g>
<!-- pytest_cache_assert._check_assert.assert_config&#45;&gt;pytest_cache_assert._check_assert.constants -->
<g id="edge10" class="edge">
<title>pytest_cache_assert._check_assert.assert_config&#45;&gt;pytest_cache_assert._check_assert.constants</title>
<path fill="none" stroke="black" d="M473.03,-108.47C471.25,-128.38 471.72,-160.67 489.51,-180 535.36,-229.8 595.68,-162.77 637.51,-216 673.04,-261.21 584.02,-430.13 547.39,-495.21"/>
<polygon fill="black" stroke="black" points="542.59,-503.68 543.61,-492.76 545.06,-499.33 547.52,-494.98 547.52,-494.98 547.52,-494.98 545.06,-499.33 551.44,-497.2 542.59,-503.68 542.59,-503.68"/>
</g>
<!-- pytest_cache_assert._check_assert.assert_config&#45;&gt;pytest_cache_assert._check_assert.converter -->
<g id="edge11" class="edge">
<title>pytest_cache_assert._check_assert.assert_config&#45;&gt;pytest_cache_assert._check_assert.converter</title>
<path fill="none" stroke="black" d="M457.38,-108.49C434.59,-131.34 395.54,-173.48 371.51,-216 346.58,-260.13 329.94,-317.28 321.66,-350.27"/>
<polygon fill="black" stroke="black" points="319.36,-359.7 317.36,-348.91 320.55,-354.84 321.73,-349.98 321.73,-349.98 321.73,-349.98 320.55,-354.84 326.1,-351.05 319.36,-359.7 319.36,-359.7"/>
</g>
<!-- pytest_cache_assert._check_assert.assert_config&#45;&gt;pytest_cache_assert._check_assert.validator -->
<g id="edge12" class="edge">
<title>pytest_cache_assert._check_assert.assert_config&#45;&gt;pytest_cache_assert._check_assert.validator</title>
<path fill="none" stroke="black" d="M479.67,-108.32C485.63,-129.05 498.72,-163.07 523.51,-180 547.77,-196.56 701.65,-212.51 819.13,-222.51"/>
<polygon fill="black" stroke="black" points="828.95,-223.34 818.61,-226.99 823.97,-222.92 818.99,-222.5 818.99,-222.5 818.99,-222.5 823.97,-222.92 819.37,-218.02 828.95,-223.34 828.95,-223.34"/>
</g>
<!-- pytest_cache_assert._check_assert.assert_rules&#45;&gt;pytest_cache_assert._check_assert.constants -->
<g id="edge13" class="edge">
<title>pytest_cache_assert._check_assert.assert_rules&#45;&gt;pytest_cache_assert._check_assert.constants</title>
<path fill="none" stroke="black" d="M774.84,-468.48C728.6,-478.5 670.45,-491.11 622.71,-501.45"/>
<polygon fill="black" stroke="black" points="613,-503.56 621.82,-497.04 617.88,-502.5 622.77,-501.44 622.77,-501.44 622.77,-501.44 617.88,-502.5 623.72,-505.84 613,-503.56 613,-503.56"/>
</g>
<!-- pytest_cache_assert._check_assert.caching -->
<g id="node6" class="node">
<title>pytest_cache_assert._check_assert.caching</title>
<polygon fill="none" stroke="black" points="628.76,-252 380.26,-252 380.26,-216 628.76,-216 628.76,-252"/>
<text text-anchor="middle" x="504.51" y="-228.95" font-family="Times,serif" font-size="14.00">pytest_cache_assert._check_assert.caching</text>
</g>
<!-- pytest_cache_assert._check_assert.cache_store&#45;&gt;pytest_cache_assert._check_assert.caching -->
<g id="edge14" class="edge">
<title>pytest_cache_assert._check_assert.cache_store&#45;&gt;pytest_cache_assert._check_assert.caching</title>
<path fill="none" stroke="black" d="M286.94,-180.48C328.2,-190.44 380.01,-202.95 422.73,-213.26"/>
<polygon fill="black" stroke="black" points="432.25,-215.56 421.48,-217.59 427.39,-214.38 422.53,-213.21 422.53,-213.21 422.53,-213.21 427.39,-214.38 423.59,-208.84 432.25,-215.56 432.25,-215.56"/>
</g>
<!-- pytest_cache_assert._check_assert.cache_store&#45;&gt;pytest_cache_assert._check_assert.converter -->
<g id="edge15" class="edge">
<title>pytest_cache_assert._check_assert.cache_store&#45;&gt;pytest_cache_assert._check_assert.converter</title>
<path fill="none" stroke="black" d="M228.75,-180.49C246.92,-203.68 278.07,-246.52 295.51,-288 303.88,-307.89 309,-331.82 311.97,-349.86"/>
<polygon fill="black" stroke="black" points="313.47,-359.72 307.52,-350.51 312.72,-354.78 311.97,-349.83 311.97,-349.83 311.97,-349.83 312.72,-354.78 316.41,-349.15 313.47,-359.72 313.47,-359.72"/>
</g>
<!-- pytest_cache_assert._check_assert.serializer -->
<g id="node12" class="node">
<title>pytest_cache_assert._check_assert.serializer</title>
<polygon fill="none" stroke="black" points="286.51,-324 30.51,-324 30.51,-288 286.51,-288 286.51,-324"/>
<text text-anchor="middle" x="158.51" y="-300.95" font-family="Times,serif" font-size="14.00">pytest_cache_assert._check_assert.serializer</text>
</g>
<!-- pytest_cache_assert._check_assert.cache_store&#45;&gt;pytest_cache_assert._check_assert.serializer -->
<g id="edge16" class="edge">
<title>pytest_cache_assert._check_assert.cache_store&#45;&gt;pytest_cache_assert._check_assert.serializer</title>
<path fill="none" stroke="black" d="M207.65,-180.41C197.94,-205.03 180.12,-250.2 168.82,-278.86"/>
<polygon fill="black" stroke="black" points="165.26,-287.89 164.74,-276.94 167.1,-283.24 168.93,-278.59 168.93,-278.59 168.93,-278.59 167.1,-283.24 173.12,-280.24 165.26,-287.89 165.26,-287.89"/>
</g>
<!-- pytest_cache_assert._check_assert.caching&#45;&gt;pytest_cache_assert._check_assert.constants -->
<g id="edge17" class="edge">
<title>pytest_cache_assert._check_assert.caching&#45;&gt;pytest_cache_assert._check_assert.constants</title>
<path fill="none" stroke="black" d="M506.22,-252.46C510.94,-300.64 524.17,-435.73 529.86,-493.85"/>
<polygon fill="black" stroke="black" points="530.83,-503.77 525.37,-494.25 530.34,-498.79 529.85,-493.82 529.85,-493.82 529.85,-493.82 530.34,-498.79 534.33,-493.38 530.83,-503.77 530.83,-503.77"/>
</g>
<!-- pytest_cache_assert._check_assert.caching&#45;&gt;pytest_cache_assert._check_assert.error_message -->
<g id="edge18" class="edge">
<title>pytest_cache_assert._check_assert.caching&#45;&gt;pytest_cache_assert._check_assert.error_message</title>
<path fill="none" stroke="black" d="M578.69,-252.48C621.03,-262.46 674.23,-275 718.03,-285.32"/>
<polygon fill="black" stroke="black" points="727.51,-287.56 716.74,-289.64 722.64,-286.41 717.77,-285.26 717.77,-285.26 717.77,-285.26 722.64,-286.41 718.81,-280.88 727.51,-287.56 727.51,-287.56"/>
</g>
<!-- pytest_cache_assert._check_assert.caching&#45;&gt;pytest_cache_assert._check_assert.serializer -->
<g id="edge19" class="edge">
<title>pytest_cache_assert._check_assert.caching&#45;&gt;pytest_cache_assert._check_assert.serializer</title>
<path fill="none" stroke="black" d="M418.1,-252.48C368.36,-262.55 305.76,-275.21 254.49,-285.58"/>
<polygon fill="black" stroke="black" points="244.73,-287.56 253.64,-281.16 249.63,-286.57 254.53,-285.57 254.53,-285.57 254.53,-285.57 249.63,-286.57 255.42,-289.99 244.73,-287.56 244.73,-287.56"/>
</g>
<!-- pytest_cache_assert._check_assert.converter&#45;&gt;pytest_cache_assert._check_assert.constants -->
<g id="edge20" class="edge">
<title>pytest_cache_assert._check_assert.converter&#45;&gt;pytest_cache_assert._check_assert.constants</title>
<path fill="none" stroke="black" d="M342.12,-396.41C381.27,-422.03 454.44,-469.91 497.78,-498.27"/>
<polygon fill="black" stroke="black" points="506.03,-503.67 495.2,-501.96 501.84,-500.93 497.66,-498.19 497.66,-498.19 497.66,-498.19 501.84,-500.93 500.12,-494.43 506.03,-503.67 506.03,-503.67"/>
</g>
<!-- pytest_cache_assert._check_assert.differ -->
<g id="node10" class="node">
<title>pytest_cache_assert._check_assert.differ</title>
<polygon fill="none" stroke="black" points="946.76,-396 710.26,-396 710.26,-360 946.76,-360 946.76,-396"/>
<text text-anchor="middle" x="828.51" y="-372.95" font-family="Times,serif" font-size="14.00">pytest_cache_assert._check_assert.differ</text>
</g>
<!-- pytest_cache_assert._check_assert.differ&#45;&gt;pytest_cache_assert._check_assert.assert_rules -->
<g id="edge21" class="edge">
<title>pytest_cache_assert._check_assert.differ&#45;&gt;pytest_cache_assert._check_assert.assert_rules</title>
<path fill="none" stroke="black" d="M835.19,-396.3C838.26,-404.27 841.98,-413.9 845.38,-422.74"/>
<polygon fill="black" stroke="black" points="848.92,-431.9 841.12,-424.19 847.12,-427.23 845.32,-422.57 845.32,-422.57 845.32,-422.57 847.12,-427.23 849.52,-420.95 848.92,-431.9 848.92,-431.9"/>
</g>
<!-- pytest_cache_assert._check_assert.differ&#45;&gt;pytest_cache_assert._check_assert.constants -->
<g id="edge22" class="edge">
<title>pytest_cache_assert._check_assert.differ&#45;&gt;pytest_cache_assert._check_assert.constants</title>
<path fill="none" stroke="black" d="M788.13,-396.49C765.44,-406.51 736.7,-419.55 711.51,-432 681.21,-446.98 674.69,-452.77 644.51,-468 623.36,-478.68 599.68,-489.98 579.56,-499.39"/>
<polygon fill="black" stroke="black" points="570.59,-503.57 577.75,-495.27 575.12,-501.46 579.66,-499.34 579.66,-499.34 579.66,-499.34 575.12,-501.46 581.56,-503.42 570.59,-503.57 570.59,-503.57"/>
</g>
<!-- pytest_cache_assert._check_assert.error_message&#45;&gt;pytest_cache_assert._check_assert.differ -->
<g id="edge23" class="edge">
<title>pytest_cache_assert._check_assert.error_message&#45;&gt;pytest_cache_assert._check_assert.differ</title>
<path fill="none" stroke="black" d="M808.19,-324.3C811.26,-332.27 814.98,-341.9 818.38,-350.74"/>
<polygon fill="black" stroke="black" points="821.92,-359.9 814.12,-352.19 820.12,-355.23 818.32,-350.57 818.32,-350.57 818.32,-350.57 820.12,-355.23 822.52,-348.95 821.92,-359.9 821.92,-359.9"/>
</g>
<!-- pytest_cache_assert._check_assert.serializer&#45;&gt;pytest_cache_assert._check_assert.constants -->
<g id="edge24" class="edge">
<title>pytest_cache_assert._check_assert.serializer&#45;&gt;pytest_cache_assert._check_assert.constants</title>
<path fill="none" stroke="black" d="M157.49,-324.25C157.28,-343.97 159.99,-376.07 177.51,-396 232.24,-458.23 319.87,-489.48 394.37,-505.17"/>
<polygon fill="black" stroke="black" points="403.85,-507.1 393.16,-509.52 398.95,-506.11 394.05,-505.11 394.05,-505.11 394.05,-505.11 398.95,-506.11 394.95,-500.7 403.85,-507.1 403.85,-507.1"/>
</g>
<!-- pytest_cache_assert._check_assert.serializer&#45;&gt;pytest_cache_assert._check_assert.converter -->
<g id="edge25" class="edge">
<title>pytest_cache_assert._check_assert.serializer&#45;&gt;pytest_cache_assert._check_assert.converter</title>
<path fill="none" stroke="black" d="M197.73,-324.48C218.88,-333.92 245.16,-345.63 267.53,-355.61"/>
<polygon fill="black" stroke="black" points="276.53,-359.62 265.56,-359.66 271.96,-357.58 267.4,-355.55 267.4,-355.55 267.4,-355.55 271.96,-357.58 269.23,-351.44 276.53,-359.62 276.53,-359.62"/>
</g>
<!-- pytest_cache_assert._check_assert.validator&#45;&gt;pytest_cache_assert._check_assert.assert_rules -->
<g id="edge26" class="edge">
<title>pytest_cache_assert._check_assert.validator&#45;&gt;pytest_cache_assert._check_assert.assert_rules</title>
<path fill="none" stroke="black" d="M963.17,-252.37C966.72,-262.58 970.72,-275.83 972.51,-288 979.61,-336.07 985.22,-357.54 955.51,-396 945.37,-409.13 931.04,-419.36 916.39,-427.18"/>
<polygon fill="black" stroke="black" points="907.76,-431.51 914.68,-423.01 912.23,-429.27 916.7,-427.03 916.7,-427.03 916.7,-427.03 912.23,-429.27 918.71,-431.05 907.76,-431.51 907.76,-431.51"/>
</g>
<!-- pytest_cache_assert._check_assert.validator&#45;&gt;pytest_cache_assert._check_assert.differ -->
<g id="edge27" class="edge">
<title>pytest_cache_assert._check_assert.validator&#45;&gt;pytest_cache_assert._check_assert.differ</title>
<path fill="none" stroke="black" d="M961.05,-252.42C964.99,-271.7 968.04,-302.84 953.51,-324 944.09,-337.73 930.35,-347.91 915.39,-355.47"/>
<polygon fill="black" stroke="black" points="906.47,-359.62 913.64,-351.32 911,-357.51 915.53,-355.4 915.53,-355.4 915.53,-355.4 911,-357.51 917.43,-359.48 906.47,-359.62 906.47,-359.62"/>
</g>
<!-- pytest_cache_assert._check_assert.validator&#45;&gt;pytest_cache_assert._check_assert.error_message -->
<g id="edge28" class="edge">
<title>pytest_cache_assert._check_assert.validator&#45;&gt;pytest_cache_assert._check_assert.error_message</title>
<path fill="none" stroke="black" d="M917.8,-252.48C896.92,-261.92 870.97,-273.63 848.89,-283.61"/>
<polygon fill="black" stroke="black" points="840,-287.62 847.26,-279.4 844.56,-285.56 849.12,-283.5 849.12,-283.5 849.12,-283.5 844.56,-285.56 850.97,-287.6 840,-287.62 840,-287.62"/>
</g>
<!-- pytest_cache_assert.main -->
<g id="node14" class="node">
<title>pytest_cache_assert.main</title>
<polygon fill="none" stroke="black" points="1107.89,-36 953.14,-36 953.14,0 1107.89,0 1107.89,-36"/>
<text text-anchor="middle" x="1030.51" y="-12.95" font-family="Times,serif" font-size="14.00">pytest_cache_assert.main</text>
</g>
<!-- pytest_cache_assert.plugin -->
<g id="node15" class="node">
<title>pytest_cache_assert.plugin</title>
<polygon fill="none" stroke="black" points="1287.26,-36 1125.76,-36 1125.76,0 1287.26,0 1287.26,-36"/>
<text text-anchor="middle" x="1206.51" y="-12.95" font-family="Times,serif" font-size="14.00">pytest_cache_assert.plugin</text>
</g>
</g>
</svg>
