<?xml version="1.0" encoding="UTF-8" standalone="no"?>
<!DOCTYPE svg PUBLIC "-//W3C//DTD SVG 1.1//EN"
 "http://www.w3.org/Graphics/SVG/1.1/DTD/svg11.dtd">
<!-- Generated by graphviz version 6.0.2 (20221011.1828)
 -->
<!-- Title: packages Pages: 1 -->
<svg width="1303pt" height="548pt"
 viewBox="0.00 0.00 1302.52 548.00" xmlns="http://www.w3.org/2000/svg" xmlns:xlink="http://www.w3.org/1999/xlink">
<g id="graph0" class="graph" transform="scale(1 1) rotate(0) translate(4 544)">
<title>packages</title>
<polygon fill="white" stroke="none" points="-4,4 -4,-544 1298.52,-544 1298.52,4 -4,4"/>
<!-- pytest_cache_assert -->
<g id="node1" class="node">
<title>pytest_cache_assert</title>
<polygon fill="none" stroke="black" points="719.52,-36 595.52,-36 595.52,0 719.52,0 719.52,-36"/>
<text text-anchor="middle" x="657.52" y="-14.3" font-family="Times,serif" font-size="14.00">pytest_cache_assert</text>
</g>
<!-- pytest_cache_assert._check_assert.assert_config -->
<g id="node3" class="node">
<title>pytest_cache_assert._check_assert.assert_config</title>
<polygon fill="none" stroke="black" points="619.52,-108 341.52,-108 341.52,-72 619.52,-72 619.52,-108"/>
<text text-anchor="middle" x="480.52" y="-86.3" font-family="Times,serif" font-size="14.00">pytest_cache_assert._check_assert.assert_config</text>
</g>
<!-- pytest_cache_assert&#45;&gt;pytest_cache_assert._check_assert.assert_config -->
<g id="edge1" class="edge">
<title>pytest_cache_assert&#45;&gt;pytest_cache_assert._check_assert.assert_config</title>
<path fill="none" stroke="black" d="M614.22,-36.12C589.8,-45.78 559.12,-57.91 533.31,-68.12"/>
<polygon fill="black" stroke="black" points="523.67,-71.93 531.32,-64.07 528.32,-70.09 532.97,-68.25 532.97,-68.25 532.97,-68.25 528.32,-70.09 534.63,-72.44 523.67,-71.93 523.67,-71.93"/>
</g>
<!-- pytest_cache_assert._check_assert.assert_rules -->
<g id="node4" class="node">
<title>pytest_cache_assert._check_assert.assert_rules</title>
<polygon fill="none" stroke="black" points="996.02,-468 725.02,-468 725.02,-432 996.02,-432 996.02,-468"/>
<text text-anchor="middle" x="860.52" y="-446.3" font-family="Times,serif" font-size="14.00">pytest_cache_assert._check_assert.assert_rules</text>
</g>
<!-- pytest_cache_assert&#45;&gt;pytest_cache_assert._check_assert.assert_rules -->
<g id="edge2" class="edge">
<title>pytest_cache_assert&#45;&gt;pytest_cache_assert._check_assert.assert_rules</title>
<path fill="none" stroke="black" d="M719.69,-34.86C845.52,-67.41 1118.52,-140.38 1118.52,-161 1118.52,-161 1118.52,-161 1118.52,-307 1118.52,-375.1 1048.67,-410.78 981.66,-429.33"/>
<polygon fill="black" stroke="black" points="971.8,-431.95 980.31,-425.04 976.64,-430.67 981.47,-429.39 981.47,-429.39 981.47,-429.39 976.64,-430.67 982.62,-433.74 971.8,-431.95 971.8,-431.95"/>
</g>
<!-- pytest_cache_assert._check_assert.cache_store -->
<g id="node5" class="node">
<title>pytest_cache_assert._check_assert.cache_store</title>
<polygon fill="none" stroke="black" points="352.02,-180 81.02,-180 81.02,-144 352.02,-144 352.02,-180"/>
<text text-anchor="middle" x="216.52" y="-158.3" font-family="Times,serif" font-size="14.00">pytest_cache_assert._check_assert.cache_store</text>
</g>
<!-- pytest_cache_assert&#45;&gt;pytest_cache_assert._check_assert.cache_store -->
<g id="edge3" class="edge">
<title>pytest_cache_assert&#45;&gt;pytest_cache_assert._check_assert.cache_store</title>
<path fill="none" stroke="black" d="M595.41,-20.19C528.08,-23.47 418.71,-34.74 332.52,-72 296.88,-87.41 262.41,-116.18 240.44,-136.84"/>
<polygon fill="black" stroke="black" points="233.21,-143.78 237.31,-133.61 236.82,-140.32 240.43,-136.85 240.43,-136.85 240.43,-136.85 236.82,-140.32 243.54,-140.1 233.21,-143.78 233.21,-143.78"/>
</g>
<!-- pytest_cache_assert._check_assert.config -->
<g id="node7" class="node">
<title>pytest_cache_assert._check_assert.config</title>
<polygon fill="none" stroke="black" points="778.02,-180 537.02,-180 537.02,-144 778.02,-144 778.02,-180"/>
<text text-anchor="middle" x="657.52" y="-158.3" font-family="Times,serif" font-size="14.00">pytest_cache_assert._check_assert.config</text>
</g>
<!-- pytest_cache_assert&#45;&gt;pytest_cache_assert._check_assert.config -->
<g id="edge4" class="edge">
<title>pytest_cache_assert&#45;&gt;pytest_cache_assert._check_assert.config</title>
<path fill="none" stroke="black" d="M657.52,-36.13C657.52,-60.33 657.52,-104.79 657.52,-133.61"/>
<polygon fill="black" stroke="black" points="657.52,-143.81 653.02,-133.81 657.52,-138.81 657.52,-133.81 657.52,-133.81 657.52,-133.81 657.52,-138.81 662.02,-133.81 657.52,-143.81 657.52,-143.81"/>
</g>
<!-- pytest_cache_assert._check_assert.converter -->
<g id="node9" class="node">
<title>pytest_cache_assert._check_assert.converter</title>
<polygon fill="none" stroke="black" points="445.52,-396 187.52,-396 187.52,-360 445.52,-360 445.52,-396"/>
<text text-anchor="middle" x="316.52" y="-374.3" font-family="Times,serif" font-size="14.00">pytest_cache_assert._check_assert.converter</text>
</g>
<!-- pytest_cache_assert&#45;&gt;pytest_cache_assert._check_assert.converter -->
<g id="edge5" class="edge">
<title>pytest_cache_assert&#45;&gt;pytest_cache_assert._check_assert.converter</title>
<path fill="none" stroke="black" d="M595.3,-19.37C431.81,-22.01 2.52,-40.43 2.52,-161 2.52,-161 2.52,-161 2.52,-235 2.52,-275.45 -7.55,-295.87 21.52,-324 44.32,-346.07 112.38,-359.15 177.38,-366.78"/>
<polygon fill="black" stroke="black" points="187.36,-367.92 176.92,-371.26 182.39,-367.35 177.42,-366.79 177.42,-366.79 177.42,-366.79 182.39,-367.35 177.93,-362.32 187.36,-367.92 187.36,-367.92"/>
</g>
<!-- pytest_cache_assert._check_assert.error_message -->
<g id="node11" class="node">
<title>pytest_cache_assert._check_assert.error_message</title>
<polygon fill="none" stroke="black" points="950.02,-324 663.02,-324 663.02,-288 950.02,-288 950.02,-324"/>
<text text-anchor="middle" x="806.52" y="-302.3" font-family="Times,serif" font-size="14.00">pytest_cache_assert._check_assert.error_message</text>
</g>
<!-- pytest_cache_assert&#45;&gt;pytest_cache_assert._check_assert.error_message -->
<g id="edge6" class="edge">
<title>pytest_cache_assert&#45;&gt;pytest_cache_assert._check_assert.error_message</title>
<path fill="none" stroke="black" d="M684.19,-36.08C714.85,-57.32 763.97,-96.62 787.52,-144 808.9,-187.02 810.21,-244.26 808.71,-277.62"/>
<polygon fill="black" stroke="black" points="808.12,-287.96 804.2,-277.72 808.41,-282.97 808.69,-277.98 808.69,-277.98 808.69,-277.98 808.41,-282.97 813.19,-278.24 808.12,-287.96 808.12,-287.96"/>
</g>
<!-- pytest_cache_assert._check_assert.validator -->
<g id="node13" class="node">
<title>pytest_cache_assert._check_assert.validator</title>
<polygon fill="none" stroke="black" points="1090.02,-252 835.02,-252 835.02,-216 1090.02,-216 1090.02,-252"/>
<text text-anchor="middle" x="962.52" y="-230.3" font-family="Times,serif" font-size="14.00">pytest_cache_assert._check_assert.validator</text>
</g>
<!-- pytest_cache_assert&#45;&gt;pytest_cache_assert._check_assert.validator -->
<g id="edge7" class="edge">
<title>pytest_cache_assert&#45;&gt;pytest_cache_assert._check_assert.validator</title>
<path fill="none" stroke="black" d="M719.81,-35.58C758.33,-46.52 803.54,-60.85 820.52,-72 875.85,-108.35 922.76,-171.77 946.3,-207.19"/>
<polygon fill="black" stroke="black" points="952.03,-215.98 942.8,-210.07 949.3,-211.79 946.57,-207.6 946.57,-207.6 946.57,-207.6 949.3,-211.79 950.33,-205.14 952.03,-215.98 952.03,-215.98"/>
</g>
<!-- pytest_cache_assert._check_assert -->
<g id="node2" class="node">
<title>pytest_cache_assert._check_assert</title>
<polygon fill="none" stroke="black" points="941.02,-36 738.02,-36 738.02,0 941.02,0 941.02,-36"/>
<text text-anchor="middle" x="839.52" y="-14.3" font-family="Times,serif" font-size="14.00">pytest_cache_assert._check_assert</text>
</g>
<!-- pytest_cache_assert._check_assert.assert_config&#45;&gt;pytest_cache_assert._check_assert.cache_store -->
<g id="edge8" class="edge">
<title>pytest_cache_assert._check_assert.assert_config&#45;&gt;pytest_cache_assert._check_assert.cache_store</title>
<path fill="none" stroke="black" d="M416.27,-108.03C378.42,-118.07 330.38,-130.81 290.89,-141.28"/>
<polygon fill="black" stroke="black" points="281.05,-143.89 289.56,-136.98 285.88,-142.61 290.71,-141.33 290.71,-141.33 290.71,-141.33 285.88,-142.61 291.87,-145.68 281.05,-143.89 281.05,-143.89"/>
</g>
<!-- pytest_cache_assert._check_assert.assert_config&#45;&gt;pytest_cache_assert._check_assert.config -->
<g id="edge9" class="edge">
<title>pytest_cache_assert._check_assert.assert_config&#45;&gt;pytest_cache_assert._check_assert.config</title>
<path fill="none" stroke="black" d="M523.81,-108.12C548.23,-117.78 578.91,-129.91 604.73,-140.12"/>
<polygon fill="black" stroke="black" points="614.36,-143.93 603.4,-144.44 609.71,-142.09 605.06,-140.25 605.06,-140.25 605.06,-140.25 609.71,-142.09 606.71,-136.07 614.36,-143.93 614.36,-143.93"/>
</g>
<!-- pytest_cache_assert._check_assert.constants -->
<g id="node8" class="node">
<title>pytest_cache_assert._check_assert.constants</title>
<polygon fill="none" stroke="black" points="663.02,-540 406.02,-540 406.02,-504 663.02,-504 663.02,-540"/>
<text text-anchor="middle" x="534.52" y="-518.3" font-family="Times,serif" font-size="14.00">pytest_cache_assert._check_assert.constants</text>
</g>
<!-- pytest_cache_assert._check_assert.assert_config&#45;&gt;pytest_cache_assert._check_assert.constants -->
<g id="edge10" class="edge">
<title>pytest_cache_assert._check_assert.assert_config&#45;&gt;pytest_cache_assert._check_assert.constants</title>
<path fill="none" stroke="black" d="M478.07,-108.11C476.26,-127.99 476.63,-160.54 494.52,-180 540.04,-229.52 599.99,-163.08 641.52,-216 677.01,-261.23 587.12,-429.48 549.83,-494.82"/>
<polygon fill="black" stroke="black" points="544.74,-503.69 545.82,-492.78 547.23,-499.35 549.72,-495.02 549.72,-495.02 549.72,-495.02 547.23,-499.35 553.62,-497.26 544.74,-503.69 544.74,-503.69"/>
</g>
<!-- pytest_cache_assert._check_assert.assert_config&#45;&gt;pytest_cache_assert._check_assert.converter -->
<g id="edge11" class="edge">
<title>pytest_cache_assert._check_assert.assert_config&#45;&gt;pytest_cache_assert._check_assert.converter</title>
<path fill="none" stroke="black" d="M462.27,-108.01C438.88,-130.68 398.39,-172.97 373.52,-216 348.21,-259.78 331.32,-316.68 322.87,-349.79"/>
<polygon fill="black" stroke="black" points="320.42,-359.66 318.46,-348.87 321.63,-354.81 322.83,-349.95 322.83,-349.95 322.83,-349.95 321.63,-354.81 327.2,-351.04 320.42,-359.66 320.42,-359.66"/>
</g>
<!-- pytest_cache_assert._check_assert.assert_config&#45;&gt;pytest_cache_assert._check_assert.validator -->
<g id="edge12" class="edge">
<title>pytest_cache_assert._check_assert.assert_config&#45;&gt;pytest_cache_assert._check_assert.validator</title>
<path fill="none" stroke="black" d="M484.68,-108.32C490.63,-129.05 503.72,-163.08 528.52,-180 552.83,-196.59 706.99,-212.53 824.74,-222.52"/>
<polygon fill="black" stroke="black" points="834.94,-223.38 824.6,-227.03 829.96,-222.96 824.97,-222.54 824.97,-222.54 824.97,-222.54 829.96,-222.96 825.35,-218.06 834.94,-223.38 834.94,-223.38"/>
</g>
<!-- pytest_cache_assert._check_assert.assert_rules&#45;&gt;pytest_cache_assert._check_assert.constants -->
<g id="edge13" class="edge">
<title>pytest_cache_assert._check_assert.assert_rules&#45;&gt;pytest_cache_assert._check_assert.constants</title>
<path fill="none" stroke="black" d="M781.18,-468.03C733.66,-478.24 673.13,-491.24 623.92,-501.8"/>
<polygon fill="black" stroke="black" points="613.92,-503.95 622.75,-497.45 618.81,-502.9 623.7,-501.85 623.7,-501.85 623.7,-501.85 618.81,-502.9 624.64,-506.25 613.92,-503.95 613.92,-503.95"/>
</g>
<!-- pytest_cache_assert._check_assert.caching -->
<g id="node6" class="node">
<title>pytest_cache_assert._check_assert.caching</title>
<polygon fill="none" stroke="black" points="632.02,-252 383.02,-252 383.02,-216 632.02,-216 632.02,-252"/>
<text text-anchor="middle" x="507.52" y="-230.3" font-family="Times,serif" font-size="14.00">pytest_cache_assert._check_assert.caching</text>
</g>
<!-- pytest_cache_assert._check_assert.cache_store&#45;&gt;pytest_cache_assert._check_assert.caching -->
<g id="edge14" class="edge">
<title>pytest_cache_assert._check_assert.cache_store&#45;&gt;pytest_cache_assert._check_assert.caching</title>
<path fill="none" stroke="black" d="M287.33,-180.03C329.48,-190.17 383.11,-203.07 426.88,-213.6"/>
<polygon fill="black" stroke="black" points="436.64,-215.95 425.86,-217.99 431.77,-214.78 426.91,-213.61 426.91,-213.61 426.91,-213.61 431.77,-214.78 427.97,-209.24 436.64,-215.95 436.64,-215.95"/>
</g>
<!-- pytest_cache_assert._check_assert.cache_store&#45;&gt;pytest_cache_assert._check_assert.converter -->
<g id="edge15" class="edge">
<title>pytest_cache_assert._check_assert.cache_store&#45;&gt;pytest_cache_assert._check_assert.converter</title>
<path fill="none" stroke="black" d="M230.26,-180.12C248.15,-203.25 279.16,-246.39 296.52,-288 304.78,-307.82 309.9,-331.62 312.89,-349.62"/>
<polygon fill="black" stroke="black" points="314.45,-359.73 308.48,-350.53 313.69,-354.79 312.93,-349.85 312.93,-349.85 312.93,-349.85 313.69,-354.79 317.37,-349.16 314.45,-359.73 314.45,-359.73"/>
</g>
<!-- pytest_cache_assert._check_assert.serializer -->
<g id="node12" class="node">
<title>pytest_cache_assert._check_assert.serializer</title>
<polygon fill="none" stroke="black" points="288.02,-324 31.02,-324 31.02,-288 288.02,-288 288.02,-324"/>
<text text-anchor="middle" x="159.52" y="-302.3" font-family="Times,serif" font-size="14.00">pytest_cache_assert._check_assert.serializer</text>
</g>
<!-- pytest_cache_assert._check_assert.cache_store&#45;&gt;pytest_cache_assert._check_assert.serializer -->
<g id="edge16" class="edge">
<title>pytest_cache_assert._check_assert.cache_store&#45;&gt;pytest_cache_assert._check_assert.serializer</title>
<path fill="none" stroke="black" d="M209.64,-180.13C199.84,-204.54 181.76,-249.57 170.21,-278.36"/>
<polygon fill="black" stroke="black" points="166.42,-287.81 165.96,-276.85 168.28,-283.17 170.14,-278.53 170.14,-278.53 170.14,-278.53 168.28,-283.17 174.32,-280.21 166.42,-287.81 166.42,-287.81"/>
</g>
<!-- pytest_cache_assert._check_assert.caching&#45;&gt;pytest_cache_assert._check_assert.constants -->
<g id="edge17" class="edge">
<title>pytest_cache_assert._check_assert.caching&#45;&gt;pytest_cache_assert._check_assert.constants</title>
<path fill="none" stroke="black" d="M509.12,-252.03C513.63,-299.81 526.43,-435.38 531.94,-493.73"/>
<polygon fill="black" stroke="black" points="532.88,-503.69 527.46,-494.16 532.41,-498.72 531.94,-493.74 531.94,-493.74 531.94,-493.74 532.41,-498.72 536.42,-493.31 532.88,-503.69 532.88,-503.69"/>
</g>
<!-- pytest_cache_assert._check_assert.caching&#45;&gt;pytest_cache_assert._check_assert.error_message -->
<g id="edge18" class="edge">
<title>pytest_cache_assert._check_assert.caching&#45;&gt;pytest_cache_assert._check_assert.error_message</title>
<path fill="none" stroke="black" d="M580.28,-252.03C623.68,-262.2 678.92,-275.13 723.95,-285.67"/>
<polygon fill="black" stroke="black" points="733.69,-287.95 722.92,-290.05 728.82,-286.81 723.95,-285.67 723.95,-285.67 723.95,-285.67 728.82,-286.81 724.98,-281.29 733.69,-287.95 733.69,-287.95"/>
</g>
<!-- pytest_cache_assert._check_assert.caching&#45;&gt;pytest_cache_assert._check_assert.serializer -->
<g id="edge19" class="edge">
<title>pytest_cache_assert._check_assert.caching&#45;&gt;pytest_cache_assert._check_assert.serializer</title>
<path fill="none" stroke="black" d="M422.83,-252.03C371.89,-262.28 306.94,-275.34 254.3,-285.93"/>
<polygon fill="black" stroke="black" points="244.28,-287.95 253.19,-281.57 249.18,-286.96 254.08,-285.98 254.08,-285.98 254.08,-285.98 249.18,-286.96 254.97,-290.39 244.28,-287.95 244.28,-287.95"/>
</g>
<!-- pytest_cache_assert._check_assert.converter&#45;&gt;pytest_cache_assert._check_assert.constants -->
<g id="edge20" class="edge">
<title>pytest_cache_assert._check_assert.converter&#45;&gt;pytest_cache_assert._check_assert.constants</title>
<path fill="none" stroke="black" d="M342.81,-396.13C382.01,-421.66 455.83,-469.75 499.54,-498.22"/>
<polygon fill="black" stroke="black" points="508.13,-503.81 497.29,-502.12 503.94,-501.08 499.75,-498.35 499.75,-498.35 499.75,-498.35 503.94,-501.08 502.2,-494.58 508.13,-503.81 508.13,-503.81"/>
</g>
<!-- pytest_cache_assert._check_assert.differ -->
<g id="node10" class="node">
<title>pytest_cache_assert._check_assert.differ</title>
<polygon fill="none" stroke="black" points="952.02,-396 715.02,-396 715.02,-360 952.02,-360 952.02,-396"/>
<text text-anchor="middle" x="833.52" y="-374.3" font-family="Times,serif" font-size="14.00">pytest_cache_assert._check_assert.differ</text>
</g>
<!-- pytest_cache_assert._check_assert.differ&#45;&gt;pytest_cache_assert._check_assert.assert_rules -->
<g id="edge21" class="edge">
<title>pytest_cache_assert._check_assert.differ&#45;&gt;pytest_cache_assert._check_assert.assert_rules</title>
<path fill="none" stroke="black" d="M840.19,-396.3C843.23,-404.19 846.9,-413.7 850.28,-422.45"/>
<polygon fill="black" stroke="black" points="853.92,-431.9 846.12,-424.19 852.12,-427.23 850.32,-422.57 850.32,-422.57 850.32,-422.57 852.12,-427.23 854.52,-420.95 853.92,-431.9 853.92,-431.9"/>
</g>
<!-- pytest_cache_assert._check_assert.differ&#45;&gt;pytest_cache_assert._check_assert.constants -->
<g id="edge22" class="edge">
<title>pytest_cache_assert._check_assert.differ&#45;&gt;pytest_cache_assert._check_assert.constants</title>
<path fill="none" stroke="black" d="M794.23,-396.07C771.39,-406.18 742.14,-419.43 716.52,-432 685.82,-447.06 679.14,-452.79 648.52,-468 626.73,-478.82 602.31,-490.26 581.68,-499.74"/>
<polygon fill="black" stroke="black" points="572.49,-503.94 579.71,-495.69 577.04,-501.86 581.58,-499.78 581.58,-499.78 581.58,-499.78 577.04,-501.86 583.46,-503.87 572.49,-503.94 572.49,-503.94"/>
</g>
<!-- pytest_cache_assert._check_assert.error_message&#45;&gt;pytest_cache_assert._check_assert.differ -->
<g id="edge23" class="edge">
<title>pytest_cache_assert._check_assert.error_message&#45;&gt;pytest_cache_assert._check_assert.differ</title>
<path fill="none" stroke="black" d="M813.19,-324.3C816.23,-332.19 819.9,-341.7 823.28,-350.45"/>
<polygon fill="black" stroke="black" points="826.92,-359.9 819.12,-352.19 825.12,-355.23 823.32,-350.57 823.32,-350.57 823.32,-350.57 825.12,-355.23 827.52,-348.95 826.92,-359.9 826.92,-359.9"/>
</g>
<!-- pytest_cache_assert._check_assert.serializer&#45;&gt;pytest_cache_assert._check_assert.constants -->
<g id="edge24" class="edge">
<title>pytest_cache_assert._check_assert.serializer&#45;&gt;pytest_cache_assert._check_assert.constants</title>
<path fill="none" stroke="black" d="M158.49,-324.26C158.28,-343.97 160.98,-376.07 178.52,-396 233.39,-458.35 321.25,-489.61 395.96,-505.27"/>
<polygon fill="black" stroke="black" points="405.93,-507.28 395.24,-509.71 401.03,-506.29 396.13,-505.3 396.13,-505.3 396.13,-505.3 401.03,-506.29 397.02,-500.89 405.93,-507.28 405.93,-507.28"/>
</g>
<!-- pytest_cache_assert._check_assert.serializer&#45;&gt;pytest_cache_assert._check_assert.converter -->
<g id="edge25" class="edge">
<title>pytest_cache_assert._check_assert.serializer&#45;&gt;pytest_cache_assert._check_assert.converter</title>
<path fill="none" stroke="black" d="M197.92,-324.12C219.38,-333.69 246.31,-345.7 269.08,-355.85"/>
<polygon fill="black" stroke="black" points="278.23,-359.93 267.27,-359.97 273.67,-357.9 269.1,-355.86 269.1,-355.86 269.1,-355.86 273.67,-357.9 270.93,-351.75 278.23,-359.93 278.23,-359.93"/>
</g>
<!-- pytest_cache_assert._check_assert.validator&#45;&gt;pytest_cache_assert._check_assert.assert_rules -->
<g id="edge26" class="edge">
<title>pytest_cache_assert._check_assert.validator&#45;&gt;pytest_cache_assert._check_assert.assert_rules</title>
<path fill="none" stroke="black" d="M969.17,-252.37C972.72,-262.58 976.72,-275.83 978.52,-288 985.61,-336.07 991.3,-357.6 961.52,-396 951.21,-409.28 936.64,-419.58 921.76,-427.42"/>
<polygon fill="black" stroke="black" points="912.49,-431.98 919.47,-423.53 916.97,-429.78 921.46,-427.57 921.46,-427.57 921.46,-427.57 916.97,-429.78 923.45,-431.6 912.49,-431.98 912.49,-431.98"/>
</g>
<!-- pytest_cache_assert._check_assert.validator&#45;&gt;pytest_cache_assert._check_assert.differ -->
<g id="edge27" class="edge">
<title>pytest_cache_assert._check_assert.validator&#45;&gt;pytest_cache_assert._check_assert.differ</title>
<path fill="none" stroke="black" d="M966.99,-252.08C970.98,-271.34 974.16,-302.74 959.52,-324 950.04,-337.76 936.25,-347.96 921.23,-355.51"/>
<polygon fill="black" stroke="black" points="911.75,-359.89 918.95,-351.61 916.29,-357.79 920.83,-355.7 920.83,-355.7 920.83,-355.7 916.29,-357.79 922.72,-359.78 911.75,-359.89 911.75,-359.89"/>
</g>
<!-- pytest_cache_assert._check_assert.validator&#45;&gt;pytest_cache_assert._check_assert.error_message -->
<g id="edge28" class="edge">
<title>pytest_cache_assert._check_assert.validator&#45;&gt;pytest_cache_assert._check_assert.error_message</title>
<path fill="none" stroke="black" d="M924.35,-252.12C903.12,-261.65 876.51,-273.59 853.95,-283.72"/>
<polygon fill="black" stroke="black" points="844.55,-287.93 851.83,-279.73 849.12,-285.88 853.68,-283.84 853.68,-283.84 853.68,-283.84 849.12,-285.88 855.52,-287.94 844.55,-287.93 844.55,-287.93"/>
</g>
<!-- pytest_cache_assert.main -->
<g id="node14" class="node">
<title>pytest_cache_assert.main</title>
<polygon fill="none" stroke="black" points="1114.02,-36 959.02,-36 959.02,0 1114.02,0 1114.02,-36"/>
<text text-anchor="middle" x="1036.52" y="-14.3" font-family="Times,serif" font-size="14.00">pytest_cache_assert.main</text>
</g>
<!-- pytest_cache_assert.plugin -->
<g id="node15" class="node">
<title>pytest_cache_assert.plugin</title>
<polygon fill="none" stroke="black" points="1294.52,-36 1132.52,-36 1132.52,0 1294.52,0 1294.52,-36"/>
<text text-anchor="middle" x="1213.52" y="-14.3" font-family="Times,serif" font-size="14.00">pytest_cache_assert.plugin</text>
</g>
</g>
</svg>
