<?xml version="1.0" encoding="UTF-8" standalone="no"?>
<!DOCTYPE svg PUBLIC "-//W3C//DTD SVG 1.1//EN"
 "http://www.w3.org/Graphics/SVG/1.1/DTD/svg11.dtd">
<!-- Generated by graphviz version 2.50.0 (20211204.2007)
 -->
<!-- Title: packages Pages: 1 -->
<svg width="944pt" height="332pt"
 viewBox="0.00 0.00 943.57 332.00" xmlns="http://www.w3.org/2000/svg" xmlns:xlink="http://www.w3.org/1999/xlink">
<g id="graph0" class="graph" transform="scale(1 1) rotate(0) translate(4 328)">
<title>packages</title>
<polygon fill="white" stroke="transparent" points="-4,4 -4,-328 939.57,-328 939.57,4 -4,4"/>
<!-- pytest_cache_assert -->
<g id="node1" class="node">
<title>pytest_cache_assert</title>
<polygon fill="none" stroke="black" points="137.57,-180 13.57,-180 13.57,-144 137.57,-144 137.57,-180"/>
<text text-anchor="middle" x="75.57" y="-158.3" font-family="Times,serif" font-size="14.00">pytest_cache_assert</text>
</g>
<!-- pytest_cache_assert._check_assert.constants -->
<g id="node5" class="node">
<title>pytest_cache_assert._check_assert.constants</title>
<polygon fill="none" stroke="black" points="487.07,-324 230.07,-324 230.07,-288 487.07,-288 487.07,-324"/>
<text text-anchor="middle" x="358.57" y="-302.3" font-family="Times,serif" font-size="14.00">pytest_cache_assert._check_assert.constants</text>
</g>
<!-- pytest_cache_assert&#45;&gt;pytest_cache_assert._check_assert.constants -->
<g id="edge1" class="edge">
<title>pytest_cache_assert&#45;&gt;pytest_cache_assert._check_assert.constants</title>
<path fill="none" stroke="black" d="M57.15,-180.29C38.95,-199.45 16.28,-230.48 34.57,-252 58.76,-280.47 143.16,-293.68 219.75,-299.8"/>
<polygon fill="black" stroke="black" points="230.01,-300.58 219.7,-304.31 225.03,-300.2 220.04,-299.82 220.04,-299.82 220.04,-299.82 225.03,-300.2 220.38,-295.33 230.01,-300.58 230.01,-300.58"/>
</g>
<!-- pytest_cache_assert._check_assert.key_rules -->
<g id="node8" class="node">
<title>pytest_cache_assert._check_assert.key_rules</title>
<polygon fill="none" stroke="black" points="303.57,-252 43.57,-252 43.57,-216 303.57,-216 303.57,-252"/>
<text text-anchor="middle" x="173.57" y="-230.3" font-family="Times,serif" font-size="14.00">pytest_cache_assert._check_assert.key_rules</text>
</g>
<!-- pytest_cache_assert&#45;&gt;pytest_cache_assert._check_assert.key_rules -->
<g id="edge2" class="edge">
<title>pytest_cache_assert&#45;&gt;pytest_cache_assert._check_assert.key_rules</title>
<path fill="none" stroke="black" d="M99.54,-180.12C112.12,-189.11 127.7,-200.24 141.32,-209.97"/>
<polygon fill="black" stroke="black" points="149.5,-215.81 138.75,-213.66 145.43,-212.9 141.36,-210 141.36,-210 141.36,-210 145.43,-212.9 143.98,-206.34 149.5,-215.81 149.5,-215.81"/>
</g>
<!-- pytest_cache_assert._check_assert -->
<g id="node2" class="node">
<title>pytest_cache_assert._check_assert</title>
<polygon fill="none" stroke="black" points="783.07,-108 580.07,-108 580.07,-72 783.07,-72 783.07,-108"/>
<text text-anchor="middle" x="681.57" y="-86.3" font-family="Times,serif" font-size="14.00">pytest_cache_assert._check_assert</text>
</g>
<!-- pytest_cache_assert._check_assert.caching -->
<g id="node3" class="node">
<title>pytest_cache_assert._check_assert.caching</title>
<polygon fill="none" stroke="black" points="755.07,-180 506.07,-180 506.07,-144 755.07,-144 755.07,-180"/>
<text text-anchor="middle" x="630.57" y="-158.3" font-family="Times,serif" font-size="14.00">pytest_cache_assert._check_assert.caching</text>
</g>
<!-- pytest_cache_assert._check_assert.caching&#45;&gt;pytest_cache_assert._check_assert.constants -->
<g id="edge3" class="edge">
<title>pytest_cache_assert._check_assert.caching&#45;&gt;pytest_cache_assert._check_assert.constants</title>
<path fill="none" stroke="black" d="M578.28,-180.02C551.97,-189.35 519.93,-201.87 492.57,-216 455.17,-235.3 415.37,-262.72 388.95,-282.01"/>
<polygon fill="black" stroke="black" points="380.87,-287.96 386.25,-278.41 384.89,-285 388.92,-282.03 388.92,-282.03 388.92,-282.03 384.89,-285 391.59,-285.66 380.87,-287.96 380.87,-287.96"/>
</g>
<!-- pytest_cache_assert._check_assert.serializer -->
<g id="node9" class="node">
<title>pytest_cache_assert._check_assert.serializer</title>
<polygon fill="none" stroke="black" points="759.07,-252 502.07,-252 502.07,-216 759.07,-216 759.07,-252"/>
<text text-anchor="middle" x="630.57" y="-230.3" font-family="Times,serif" font-size="14.00">pytest_cache_assert._check_assert.serializer</text>
</g>
<!-- pytest_cache_assert._check_assert.caching&#45;&gt;pytest_cache_assert._check_assert.serializer -->
<g id="edge4" class="edge">
<title>pytest_cache_assert._check_assert.caching&#45;&gt;pytest_cache_assert._check_assert.serializer</title>
<path fill="none" stroke="black" d="M630.57,-180.3C630.57,-188.02 630.57,-197.29 630.57,-205.89"/>
<polygon fill="black" stroke="black" points="630.57,-215.9 626.07,-205.9 630.57,-210.9 630.57,-205.9 630.57,-205.9 630.57,-205.9 630.57,-210.9 635.07,-205.9 630.57,-215.9 630.57,-215.9"/>
</g>
<!-- pytest_cache_assert._check_assert.config -->
<g id="node4" class="node">
<title>pytest_cache_assert._check_assert.config</title>
<polygon fill="none" stroke="black" points="762.07,-324 521.07,-324 521.07,-288 762.07,-288 762.07,-324"/>
<text text-anchor="middle" x="641.57" y="-302.3" font-family="Times,serif" font-size="14.00">pytest_cache_assert._check_assert.config</text>
</g>
<!-- pytest_cache_assert._check_assert.differ -->
<g id="node6" class="node">
<title>pytest_cache_assert._check_assert.differ</title>
<polygon fill="none" stroke="black" points="488.07,-180 251.07,-180 251.07,-144 488.07,-144 488.07,-180"/>
<text text-anchor="middle" x="369.57" y="-158.3" font-family="Times,serif" font-size="14.00">pytest_cache_assert._check_assert.differ</text>
</g>
<!-- pytest_cache_assert._check_assert.differ&#45;&gt;pytest_cache_assert._check_assert.constants -->
<g id="edge5" class="edge">
<title>pytest_cache_assert._check_assert.differ&#45;&gt;pytest_cache_assert._check_assert.constants</title>
<path fill="none" stroke="black" d="M368.24,-180.13C366.37,-204.33 362.92,-248.79 360.69,-277.61"/>
<polygon fill="black" stroke="black" points="359.9,-287.81 356.18,-277.49 360.28,-282.83 360.67,-277.84 360.67,-277.84 360.67,-277.84 360.28,-282.83 365.16,-278.19 359.9,-287.81 359.9,-287.81"/>
</g>
<!-- pytest_cache_assert._check_assert.differ&#45;&gt;pytest_cache_assert._check_assert.key_rules -->
<g id="edge6" class="edge">
<title>pytest_cache_assert._check_assert.differ&#45;&gt;pytest_cache_assert._check_assert.key_rules</title>
<path fill="none" stroke="black" d="M321.87,-180.03C294.48,-189.81 259.91,-202.16 231.03,-212.48"/>
<polygon fill="black" stroke="black" points="221.48,-215.89 229.38,-208.29 226.19,-214.21 230.89,-212.53 230.89,-212.53 230.89,-212.53 226.19,-214.21 232.41,-216.76 221.48,-215.89 221.48,-215.89"/>
</g>
<!-- pytest_cache_assert._check_assert.differ&#45;&gt;pytest_cache_assert._check_assert.serializer -->
<g id="edge7" class="edge">
<title>pytest_cache_assert._check_assert.differ&#45;&gt;pytest_cache_assert._check_assert.serializer</title>
<path fill="none" stroke="black" d="M433.08,-180.03C470.5,-190.07 518,-202.81 557.04,-213.28"/>
<polygon fill="black" stroke="black" points="566.77,-215.89 555.94,-217.65 561.94,-214.59 557.11,-213.3 557.11,-213.3 557.11,-213.3 561.94,-214.59 558.27,-208.95 566.77,-215.89 566.77,-215.89"/>
</g>
<!-- pytest_cache_assert._check_assert.error_message -->
<g id="node7" class="node">
<title>pytest_cache_assert._check_assert.error_message</title>
<polygon fill="none" stroke="black" points="485.07,-108 198.07,-108 198.07,-72 485.07,-72 485.07,-108"/>
<text text-anchor="middle" x="341.57" y="-86.3" font-family="Times,serif" font-size="14.00">pytest_cache_assert._check_assert.error_message</text>
</g>
<!-- pytest_cache_assert._check_assert.error_message&#45;&gt;pytest_cache_assert._check_assert.constants -->
<g id="edge8" class="edge">
<title>pytest_cache_assert._check_assert.error_message&#45;&gt;pytest_cache_assert._check_assert.constants</title>
<path fill="none" stroke="black" d="M285.13,-108.04C268.13,-116.11 251.39,-127.67 241.57,-144 233.32,-157.71 233.19,-166.37 241.57,-180 260.08,-210.15 287.45,-191.08 312.57,-216 330.23,-233.53 342.52,-259.26 349.92,-278.55"/>
<polygon fill="black" stroke="black" points="353.35,-287.98 345.7,-280.12 351.64,-283.28 349.93,-278.58 349.93,-278.58 349.93,-278.58 351.64,-283.28 354.16,-277.04 353.35,-287.98 353.35,-287.98"/>
</g>
<!-- pytest_cache_assert._check_assert.error_message&#45;&gt;pytest_cache_assert._check_assert.differ -->
<g id="edge9" class="edge">
<title>pytest_cache_assert._check_assert.error_message&#45;&gt;pytest_cache_assert._check_assert.differ</title>
<path fill="none" stroke="black" d="M348.49,-108.3C351.64,-116.19 355.45,-125.7 358.95,-134.45"/>
<polygon fill="black" stroke="black" points="362.72,-143.9 354.83,-136.28 360.87,-139.25 359.01,-134.61 359.01,-134.61 359.01,-134.61 360.87,-139.25 363.19,-132.94 362.72,-143.9 362.72,-143.9"/>
</g>
<!-- pytest_cache_assert._check_assert.key_rules&#45;&gt;pytest_cache_assert._check_assert.constants -->
<g id="edge10" class="edge">
<title>pytest_cache_assert._check_assert.key_rules&#45;&gt;pytest_cache_assert._check_assert.constants</title>
<path fill="none" stroke="black" d="M218.82,-252.12C244.56,-261.86 276.98,-274.13 304.1,-284.39"/>
<polygon fill="black" stroke="black" points="313.46,-287.93 302.51,-288.6 308.78,-286.16 304.1,-284.39 304.1,-284.39 304.1,-284.39 308.78,-286.16 305.7,-280.18 313.46,-287.93 313.46,-287.93"/>
</g>
<!-- pytest_cache_assert._check_assert.serializer&#45;&gt;pytest_cache_assert._check_assert.config -->
<g id="edge11" class="edge">
<title>pytest_cache_assert._check_assert.serializer&#45;&gt;pytest_cache_assert._check_assert.config</title>
<path fill="none" stroke="black" d="M633.29,-252.3C634.5,-260.02 635.95,-269.29 637.31,-277.89"/>
<polygon fill="black" stroke="black" points="638.88,-287.9 632.88,-278.72 638.1,-282.96 637.33,-278.02 637.33,-278.02 637.33,-278.02 638.1,-282.96 641.77,-277.32 638.88,-287.9 638.88,-287.9"/>
</g>
<!-- pytest_cache_assert._check_assert.serializer&#45;&gt;pytest_cache_assert._check_assert.constants -->
<g id="edge12" class="edge">
<title>pytest_cache_assert._check_assert.serializer&#45;&gt;pytest_cache_assert._check_assert.constants</title>
<path fill="none" stroke="black" d="M564.38,-252.03C525.3,-262.09 475.67,-274.86 434.94,-285.35"/>
<polygon fill="black" stroke="black" points="425.05,-287.89 433.62,-281.04 429.9,-286.64 434.74,-285.4 434.74,-285.4 434.74,-285.4 429.9,-286.64 435.86,-289.75 425.05,-287.89 425.05,-287.89"/>
</g>
<!-- pytest_cache_assert.main -->
<g id="node10" class="node">
<title>pytest_cache_assert.main</title>
<polygon fill="none" stroke="black" points="419.07,-36 264.07,-36 264.07,0 419.07,0 419.07,-36"/>
<text text-anchor="middle" x="341.57" y="-14.3" font-family="Times,serif" font-size="14.00">pytest_cache_assert.main</text>
</g>
<!-- pytest_cache_assert.main&#45;&gt;pytest_cache_assert._check_assert -->
<g id="edge13" class="edge">
<title>pytest_cache_assert.main&#45;&gt;pytest_cache_assert._check_assert</title>
<path fill="none" stroke="black" d="M419.14,-34.97C469.59,-45.36 535.65,-58.96 588.86,-69.91"/>
<polygon fill="black" stroke="black" points="598.98,-72 588.28,-74.39 594.09,-70.99 589.19,-69.98 589.19,-69.98 589.19,-69.98 594.09,-70.99 590.1,-65.57 598.98,-72 598.98,-72"/>
</g>
<!-- pytest_cache_assert.main&#45;&gt;pytest_cache_assert._check_assert.caching -->
<g id="edge14" class="edge">
<title>pytest_cache_assert.main&#45;&gt;pytest_cache_assert._check_assert.caching</title>
<path fill="none" stroke="black" d="M415.25,-36.08C445.96,-44.68 481.42,-56.6 511.57,-72 546.09,-89.63 581.09,-117.23 604.11,-137.02"/>
<polygon fill="black" stroke="black" points="611.73,-143.67 601.24,-140.49 607.96,-140.38 604.19,-137.1 604.19,-137.1 604.19,-137.1 607.96,-140.38 607.15,-133.71 611.73,-143.67 611.73,-143.67"/>
</g>
<!-- pytest_cache_assert.main&#45;&gt;pytest_cache_assert._check_assert.constants -->
<g id="edge15" class="edge">
<title>pytest_cache_assert.main&#45;&gt;pytest_cache_assert._check_assert.constants</title>
<path fill="none" stroke="black" d="M278.95,-36.1C245.57,-45.71 203.98,-58.47 167.57,-72 93.33,-99.59 47.8,-77.64 4.57,-144 -4.17,-157.41 2.41,-164.15 4.57,-180 9.05,-212.91 -0.21,-229.89 24.57,-252 53.5,-277.82 141.51,-291.11 219.92,-297.92"/>
<polygon fill="black" stroke="black" points="229.92,-298.76 219.58,-302.4 224.94,-298.34 219.96,-297.92 219.96,-297.92 219.96,-297.92 224.94,-298.34 220.33,-293.44 229.92,-298.76 229.92,-298.76"/>
</g>
<!-- pytest_cache_assert.main&#45;&gt;pytest_cache_assert._check_assert.differ -->
<g id="edge16" class="edge">
<title>pytest_cache_assert.main&#45;&gt;pytest_cache_assert._check_assert.differ</title>
<path fill="none" stroke="black" d="M419.3,-27.39C447.4,-34.61 476.41,-47.85 493.57,-72 502.83,-85.04 502.38,-94.65 493.57,-108 484.49,-121.75 471.03,-131.95 456.28,-139.51"/>
<polygon fill="black" stroke="black" points="446.96,-143.88 454.1,-135.56 451.49,-141.76 456.01,-139.63 456.01,-139.63 456.01,-139.63 451.49,-141.76 457.92,-143.71 446.96,-143.88 446.96,-143.88"/>
</g>
<!-- pytest_cache_assert.main&#45;&gt;pytest_cache_assert._check_assert.error_message -->
<g id="edge17" class="edge">
<title>pytest_cache_assert.main&#45;&gt;pytest_cache_assert._check_assert.error_message</title>
<path fill="none" stroke="black" d="M335.65,-36.3C334.86,-44.02 334.63,-53.29 334.97,-61.89"/>
<polygon fill="black" stroke="black" points="335.67,-71.9 330.48,-62.23 335.32,-66.91 334.97,-61.92 334.97,-61.92 334.97,-61.92 335.32,-66.91 339.46,-61.61 335.67,-71.9 335.67,-71.9"/>
</g>
<!-- pytest_cache_assert.main&#45;&gt;pytest_cache_assert._check_assert.error_message -->
<g id="edge18" class="edge">
<title>pytest_cache_assert.main&#45;&gt;pytest_cache_assert._check_assert.error_message</title>
<path fill="none" stroke="black" d="M347.48,-36.3C348.28,-44.02 348.5,-53.29 348.16,-61.89"/>
<polygon fill="black" stroke="black" points="347.46,-71.9 343.67,-61.61 347.81,-66.91 348.16,-61.92 348.16,-61.92 348.16,-61.92 347.81,-66.91 352.65,-62.23 347.46,-71.9 347.46,-71.9"/>
</g>
<!-- pytest_cache_assert.main&#45;&gt;pytest_cache_assert._check_assert.key_rules -->
<g id="edge19" class="edge">
<title>pytest_cache_assert.main&#45;&gt;pytest_cache_assert._check_assert.key_rules</title>
<path fill="none" stroke="black" d="M263.68,-28.32C235.79,-35.69 206.78,-48.77 188.57,-72 158.42,-110.43 162.33,-171 167.92,-205.86"/>
<polygon fill="black" stroke="black" points="169.67,-215.8 163.5,-206.73 168.8,-210.87 167.94,-205.95 167.94,-205.95 167.94,-205.95 168.8,-210.87 172.37,-205.17 169.67,-215.8 169.67,-215.8"/>
</g>
<!-- pytest_cache_assert.plugin -->
<g id="node11" class="node">
<title>pytest_cache_assert.plugin</title>
<polygon fill="none" stroke="black" points="935.57,-180 773.57,-180 773.57,-144 935.57,-144 935.57,-180"/>
<text text-anchor="middle" x="854.57" y="-158.3" font-family="Times,serif" font-size="14.00">pytest_cache_assert.plugin</text>
</g>
<!-- pytest_cache_assert.plugin&#45;&gt;pytest_cache_assert._check_assert.config -->
<g id="edge20" class="edge">
<title>pytest_cache_assert.plugin&#45;&gt;pytest_cache_assert._check_assert.config</title>
<path fill="none" stroke="black" d="M851.5,-180.29C847.05,-200.34 836.87,-233.06 815.57,-252 799.3,-266.47 779.17,-276.98 758.44,-284.63"/>
<polygon fill="black" stroke="black" points="748.89,-287.95 756.86,-280.42 753.62,-286.31 758.34,-284.67 758.34,-284.67 758.34,-284.67 753.62,-286.31 759.81,-288.92 748.89,-287.95 748.89,-287.95"/>
</g>
<!-- pytest_cache_assert.plugin&#45;&gt;pytest_cache_assert._check_assert.constants -->
<g id="edge21" class="edge">
<title>pytest_cache_assert.plugin&#45;&gt;pytest_cache_assert._check_assert.constants</title>
<path fill="none" stroke="black" d="M843.53,-180.1C829.06,-200.94 801.59,-235.41 768.57,-252 756.27,-258.18 611.55,-275.98 497.49,-289.25"/>
<polygon fill="black" stroke="black" points="487.25,-290.44 496.66,-284.82 492.21,-289.87 497.18,-289.29 497.18,-289.29 497.18,-289.29 492.21,-289.87 497.7,-293.76 487.25,-290.44 487.25,-290.44"/>
</g>
<!-- pytest_cache_assert.plugin&#45;&gt;pytest_cache_assert._check_assert.serializer -->
<g id="edge22" class="edge">
<title>pytest_cache_assert.plugin&#45;&gt;pytest_cache_assert._check_assert.serializer</title>
<path fill="none" stroke="black" d="M800.06,-180.03C768.35,-189.94 728.21,-202.49 694.95,-212.88"/>
<polygon fill="black" stroke="black" points="685.32,-215.89 693.52,-208.61 690.09,-214.4 694.87,-212.91 694.87,-212.91 694.87,-212.91 690.09,-214.4 696.21,-217.2 685.32,-215.89 685.32,-215.89"/>
</g>
</g>
</svg>
