<?xml version="1.0" encoding="UTF-8" standalone="no"?>
<!DOCTYPE svg PUBLIC "-//W3C//DTD SVG 1.1//EN"
 "http://www.w3.org/Graphics/SVG/1.1/DTD/svg11.dtd">
<!-- Generated by graphviz version 2.43.0 (0)
 -->
<!-- Title: packages Pages: 1 -->
<svg width="1395pt" height="548pt"
 viewBox="0.00 0.00 1395.00 548.00" xmlns="http://www.w3.org/2000/svg" xmlns:xlink="http://www.w3.org/1999/xlink">
<g id="graph0" class="graph" transform="scale(1 1) rotate(0) translate(4 544)">
<title>packages</title>
<polygon fill="white" stroke="transparent" points="-4,4 -4,-544 1391,-544 1391,4 -4,4"/>
<!-- pytest_cache_assert -->
<g id="node1" class="node">
<title>pytest_cache_assert</title>
<polygon fill="none" stroke="black" points="659.5,-36 499.5,-36 499.5,0 659.5,0 659.5,-36"/>
<text text-anchor="middle" x="579.5" y="-14.3" font-family="Times,serif" font-size="14.00">pytest_cache_assert</text>
</g>
<!-- pytest_cache_assert._check_assert.assert_config -->
<g id="node3" class="node">
<title>pytest_cache_assert._check_assert.assert_config</title>
<polygon fill="none" stroke="black" points="968,-108 607,-108 607,-72 968,-72 968,-108"/>
<text text-anchor="middle" x="787.5" y="-86.3" font-family="Times,serif" font-size="14.00">pytest_cache_assert._check_assert.assert_config</text>
</g>
<!-- pytest_cache_assert&#45;&gt;pytest_cache_assert._check_assert.assert_config -->
<g id="edge1" class="edge">
<title>pytest_cache_assert&#45;&gt;pytest_cache_assert._check_assert.assert_config</title>
<path fill="none" stroke="black" d="M630.12,-36.03C659.31,-45.86 696.19,-58.27 726.92,-68.61"/>
<polygon fill="black" stroke="black" points="736.66,-71.89 725.74,-72.96 731.92,-70.29 727.18,-68.7 727.18,-68.7 727.18,-68.7 731.92,-70.29 728.61,-64.43 736.66,-71.89 736.66,-71.89"/>
</g>
<!-- pytest_cache_assert._check_assert.cache_store -->
<g id="node4" class="node">
<title>pytest_cache_assert._check_assert.cache_store</title>
<polygon fill="none" stroke="black" points="1054,-180 703,-180 703,-144 1054,-144 1054,-180"/>
<text text-anchor="middle" x="878.5" y="-158.3" font-family="Times,serif" font-size="14.00">pytest_cache_assert._check_assert.cache_store</text>
</g>
<!-- pytest_cache_assert&#45;&gt;pytest_cache_assert._check_assert.cache_store -->
<g id="edge2" class="edge">
<title>pytest_cache_assert&#45;&gt;pytest_cache_assert._check_assert.cache_store</title>
<path fill="none" stroke="black" d="M659.51,-34.57C662.54,-35.07 665.55,-35.55 668.5,-36 736.61,-46.47 930.69,-20.52 976.5,-72 987.14,-83.95 984.69,-94.26 976.5,-108 968.54,-121.36 955.91,-131.55 942.34,-139.25"/>
<polygon fill="black" stroke="black" points="933.32,-143.96 940.1,-135.34 937.75,-141.65 942.18,-139.33 942.18,-139.33 942.18,-139.33 937.75,-141.65 944.27,-143.32 933.32,-143.96 933.32,-143.96"/>
</g>
<!-- pytest_cache_assert._check_assert.config -->
<g id="node6" class="node">
<title>pytest_cache_assert._check_assert.config</title>
<polygon fill="none" stroke="black" points="1382.5,-180 1072.5,-180 1072.5,-144 1382.5,-144 1382.5,-180"/>
<text text-anchor="middle" x="1227.5" y="-158.3" font-family="Times,serif" font-size="14.00">pytest_cache_assert._check_assert.config</text>
</g>
<!-- pytest_cache_assert&#45;&gt;pytest_cache_assert._check_assert.config -->
<g id="edge3" class="edge">
<title>pytest_cache_assert&#45;&gt;pytest_cache_assert._check_assert.config</title>
<path fill="none" stroke="black" d="M659.5,-34.59C662.54,-35.08 665.54,-35.56 668.5,-36 812.65,-57.69 852.82,-37.71 994.5,-72 1061.83,-88.29 1136,-118.98 1182.17,-139.71"/>
<polygon fill="black" stroke="black" points="1191.3,-143.84 1180.33,-143.82 1186.74,-141.78 1182.19,-139.72 1182.19,-139.72 1182.19,-139.72 1186.74,-141.78 1184.05,-135.62 1191.3,-143.84 1191.3,-143.84"/>
</g>
<!-- pytest_cache_assert._check_assert.converter -->
<g id="node8" class="node">
<title>pytest_cache_assert._check_assert.converter</title>
<polygon fill="none" stroke="black" points="871.5,-396 535.5,-396 535.5,-360 871.5,-360 871.5,-396"/>
<text text-anchor="middle" x="703.5" y="-374.3" font-family="Times,serif" font-size="14.00">pytest_cache_assert._check_assert.converter</text>
</g>
<!-- pytest_cache_assert&#45;&gt;pytest_cache_assert._check_assert.converter -->
<g id="edge4" class="edge">
<title>pytest_cache_assert&#45;&gt;pytest_cache_assert._check_assert.converter</title>
<path fill="none" stroke="black" d="M582.27,-36.22C585.35,-54.27 590.77,-83.37 597.5,-108 607.68,-145.25 664,-300.71 674.5,-324 678.51,-332.89 683.43,-342.32 688.08,-350.72"/>
<polygon fill="black" stroke="black" points="693.14,-359.68 684.3,-353.18 690.68,-355.33 688.22,-350.97 688.22,-350.97 688.22,-350.97 690.68,-355.33 692.14,-348.76 693.14,-359.68 693.14,-359.68"/>
</g>
<!-- pytest_cache_assert._check_assert.error_message -->
<g id="node10" class="node">
<title>pytest_cache_assert._check_assert.error_message</title>
<polygon fill="none" stroke="black" points="570,-324 197,-324 197,-288 570,-288 570,-324"/>
<text text-anchor="middle" x="383.5" y="-302.3" font-family="Times,serif" font-size="14.00">pytest_cache_assert._check_assert.error_message</text>
</g>
<!-- pytest_cache_assert&#45;&gt;pytest_cache_assert._check_assert.error_message -->
<g id="edge5" class="edge">
<title>pytest_cache_assert&#45;&gt;pytest_cache_assert._check_assert.error_message</title>
<path fill="none" stroke="black" d="M574.7,-36.16C560.31,-87.16 517.61,-235.3 502.5,-252 490.08,-265.73 473.44,-276.09 456.55,-283.84"/>
<polygon fill="black" stroke="black" points="447.16,-287.89 454.56,-279.8 451.75,-285.91 456.34,-283.93 456.34,-283.93 456.34,-283.93 451.75,-285.91 458.12,-288.06 447.16,-287.89 447.16,-287.89"/>
</g>
<!-- pytest_cache_assert._check_assert.key_rules -->
<g id="node11" class="node">
<title>pytest_cache_assert._check_assert.key_rules</title>
<polygon fill="none" stroke="black" points="335,-468 0,-468 0,-432 335,-432 335,-468"/>
<text text-anchor="middle" x="167.5" y="-446.3" font-family="Times,serif" font-size="14.00">pytest_cache_assert._check_assert.key_rules</text>
</g>
<!-- pytest_cache_assert&#45;&gt;pytest_cache_assert._check_assert.key_rules -->
<g id="edge6" class="edge">
<title>pytest_cache_assert&#45;&gt;pytest_cache_assert._check_assert.key_rules</title>
<path fill="none" stroke="black" d="M499.35,-25.74C361.11,-39.59 92.5,-77.28 92.5,-161 92.5,-161 92.5,-161 92.5,-307 92.5,-352.23 122.62,-397.15 144.68,-424"/>
<polygon fill="black" stroke="black" points="151.23,-431.73 141.33,-427.01 148,-427.92 144.76,-424.1 144.76,-424.1 144.76,-424.1 148,-427.92 148.2,-421.19 151.23,-431.73 151.23,-431.73"/>
</g>
<!-- pytest_cache_assert._check_assert.validator -->
<g id="node13" class="node">
<title>pytest_cache_assert._check_assert.validator</title>
<polygon fill="none" stroke="black" points="494,-252 163,-252 163,-216 494,-216 494,-252"/>
<text text-anchor="middle" x="328.5" y="-230.3" font-family="Times,serif" font-size="14.00">pytest_cache_assert._check_assert.validator</text>
</g>
<!-- pytest_cache_assert&#45;&gt;pytest_cache_assert._check_assert.validator -->
<g id="edge7" class="edge">
<title>pytest_cache_assert&#45;&gt;pytest_cache_assert._check_assert.validator</title>
<path fill="none" stroke="black" d="M555.43,-36.15C541.49,-46.29 523.74,-59.54 508.5,-72 451.71,-118.44 388.46,-176.61 354.12,-208.78"/>
<polygon fill="black" stroke="black" points="346.43,-216 350.64,-205.87 350.07,-212.57 353.72,-209.15 353.72,-209.15 353.72,-209.15 350.07,-212.57 356.8,-212.43 346.43,-216 346.43,-216"/>
</g>
<!-- pytest_cache_assert._check_assert -->
<g id="node2" class="node">
<title>pytest_cache_assert._check_assert</title>
<polygon fill="none" stroke="black" points="941,-36 678,-36 678,0 941,0 941,-36"/>
<text text-anchor="middle" x="809.5" y="-14.3" font-family="Times,serif" font-size="14.00">pytest_cache_assert._check_assert</text>
</g>
<!-- pytest_cache_assert._check_assert.assert_config&#45;&gt;pytest_cache_assert._check_assert.cache_store -->
<g id="edge8" class="edge">
<title>pytest_cache_assert._check_assert.assert_config&#45;&gt;pytest_cache_assert._check_assert.cache_store</title>
<path fill="none" stroke="black" d="M809.99,-108.3C821.46,-117.12 835.56,-127.97 847.98,-137.53"/>
<polygon fill="black" stroke="black" points="856.26,-143.9 845.59,-141.37 852.3,-140.85 848.34,-137.8 848.34,-137.8 848.34,-137.8 852.3,-140.85 851.08,-134.23 856.26,-143.9 856.26,-143.9"/>
</g>
<!-- pytest_cache_assert._check_assert.assert_config&#45;&gt;pytest_cache_assert._check_assert.config -->
<g id="edge9" class="edge">
<title>pytest_cache_assert._check_assert.assert_config&#45;&gt;pytest_cache_assert._check_assert.config</title>
<path fill="none" stroke="black" d="M894.57,-108.03C959.78,-118.41 1043.15,-131.67 1110.14,-142.33"/>
<polygon fill="black" stroke="black" points="1120.33,-143.95 1109.75,-146.82 1115.39,-143.16 1110.45,-142.38 1110.45,-142.38 1110.45,-142.38 1115.39,-143.16 1111.16,-137.93 1120.33,-143.95 1120.33,-143.95"/>
</g>
<!-- pytest_cache_assert._check_assert.constants -->
<g id="node7" class="node">
<title>pytest_cache_assert._check_assert.constants</title>
<polygon fill="none" stroke="black" points="675.5,-540 339.5,-540 339.5,-504 675.5,-504 675.5,-540"/>
<text text-anchor="middle" x="507.5" y="-518.3" font-family="Times,serif" font-size="14.00">pytest_cache_assert._check_assert.constants</text>
</g>
<!-- pytest_cache_assert._check_assert.assert_config&#45;&gt;pytest_cache_assert._check_assert.constants -->
<g id="edge10" class="edge">
<title>pytest_cache_assert._check_assert.assert_config&#45;&gt;pytest_cache_assert._check_assert.constants</title>
<path fill="none" stroke="black" d="M734.24,-108.1C714.08,-116.52 692.04,-128.3 675.5,-144 609.58,-206.56 639.09,-256.27 578.5,-324 559.76,-344.95 540.98,-335.91 526.5,-360 501.63,-401.35 501.55,-459.53 504.21,-493.44"/>
<polygon fill="black" stroke="black" points="505.14,-503.55 499.74,-494.01 504.68,-498.57 504.22,-493.59 504.22,-493.59 504.22,-493.59 504.68,-498.57 508.71,-493.18 505.14,-503.55 505.14,-503.55"/>
</g>
<!-- pytest_cache_assert._check_assert.assert_config&#45;&gt;pytest_cache_assert._check_assert.converter -->
<g id="edge11" class="edge">
<title>pytest_cache_assert._check_assert.assert_config&#45;&gt;pytest_cache_assert._check_assert.converter</title>
<path fill="none" stroke="black" d="M735.85,-108.04C719.36,-116.2 702.95,-127.82 693.5,-144 655.15,-209.65 678.45,-304.37 693.58,-350.18"/>
<polygon fill="black" stroke="black" points="696.85,-359.7 689.35,-351.7 695.22,-354.97 693.6,-350.24 693.6,-350.24 693.6,-350.24 695.22,-354.97 697.86,-348.78 696.85,-359.7 696.85,-359.7"/>
</g>
<!-- pytest_cache_assert._check_assert.assert_config&#45;&gt;pytest_cache_assert._check_assert.validator -->
<g id="edge12" class="edge">
<title>pytest_cache_assert._check_assert.assert_config&#45;&gt;pytest_cache_assert._check_assert.validator</title>
<path fill="none" stroke="black" d="M732.13,-108.13C646.9,-134.5 483.92,-184.92 393.31,-212.95"/>
<polygon fill="black" stroke="black" points="383.7,-215.92 391.93,-208.67 388.48,-214.44 393.26,-212.97 393.26,-212.97 393.26,-212.97 388.48,-214.44 394.59,-217.26 383.7,-215.92 383.7,-215.92"/>
</g>
<!-- pytest_cache_assert._check_assert.caching -->
<g id="node5" class="node">
<title>pytest_cache_assert._check_assert.caching</title>
<polygon fill="none" stroke="black" points="1062.5,-252 740.5,-252 740.5,-216 1062.5,-216 1062.5,-252"/>
<text text-anchor="middle" x="901.5" y="-230.3" font-family="Times,serif" font-size="14.00">pytest_cache_assert._check_assert.caching</text>
</g>
<!-- pytest_cache_assert._check_assert.cache_store&#45;&gt;pytest_cache_assert._check_assert.caching -->
<g id="edge13" class="edge">
<title>pytest_cache_assert._check_assert.cache_store&#45;&gt;pytest_cache_assert._check_assert.caching</title>
<path fill="none" stroke="black" d="M884.19,-180.3C886.75,-188.1 889.83,-197.49 892.68,-206.17"/>
<polygon fill="black" stroke="black" points="895.88,-215.9 888.48,-207.8 894.32,-211.15 892.76,-206.4 892.76,-206.4 892.76,-206.4 894.32,-211.15 897.03,-204.99 895.88,-215.9 895.88,-215.9"/>
</g>
<!-- pytest_cache_assert._check_assert.cache_store&#45;&gt;pytest_cache_assert._check_assert.converter -->
<g id="edge14" class="edge">
<title>pytest_cache_assert._check_assert.cache_store&#45;&gt;pytest_cache_assert._check_assert.converter</title>
<path fill="none" stroke="black" d="M785.38,-180.14C765.05,-187.97 745.46,-199.38 731.5,-216 699.76,-253.81 698.23,-314.6 700.51,-349.66"/>
<polygon fill="black" stroke="black" points="701.31,-359.67 696.02,-350.06 700.91,-354.68 700.51,-349.7 700.51,-349.7 700.51,-349.7 700.91,-354.68 705,-349.34 701.31,-359.67 701.31,-359.67"/>
</g>
<!-- pytest_cache_assert._check_assert.serializer -->
<g id="node12" class="node">
<title>pytest_cache_assert._check_assert.serializer</title>
<polygon fill="none" stroke="black" points="1261.5,-324 927.5,-324 927.5,-288 1261.5,-288 1261.5,-324"/>
<text text-anchor="middle" x="1094.5" y="-302.3" font-family="Times,serif" font-size="14.00">pytest_cache_assert._check_assert.serializer</text>
</g>
<!-- pytest_cache_assert._check_assert.cache_store&#45;&gt;pytest_cache_assert._check_assert.serializer -->
<g id="edge15" class="edge">
<title>pytest_cache_assert._check_assert.cache_store&#45;&gt;pytest_cache_assert._check_assert.serializer</title>
<path fill="none" stroke="black" d="M1012.54,-180.07C1034.47,-188.05 1055.28,-199.54 1071.5,-216 1087.47,-232.21 1092.78,-257.98 1094.36,-277.62"/>
<polygon fill="black" stroke="black" points="1094.89,-287.81 1089.88,-278.06 1094.63,-282.81 1094.37,-277.82 1094.37,-277.82 1094.37,-277.82 1094.63,-282.81 1098.86,-277.59 1094.89,-287.81 1094.89,-287.81"/>
</g>
<!-- pytest_cache_assert._check_assert.caching&#45;&gt;pytest_cache_assert._check_assert.constants -->
<g id="edge16" class="edge">
<title>pytest_cache_assert._check_assert.caching&#45;&gt;pytest_cache_assert._check_assert.constants</title>
<path fill="none" stroke="black" d="M904.67,-252.32C909.51,-284.54 914.89,-354.21 880.5,-396 832.63,-454.17 756.75,-485.42 685.9,-502.15"/>
<polygon fill="black" stroke="black" points="675.94,-504.41 684.69,-497.81 680.81,-503.31 685.69,-502.2 685.69,-502.2 685.69,-502.2 680.81,-503.31 686.69,-506.58 675.94,-504.41 675.94,-504.41"/>
</g>
<!-- pytest_cache_assert._check_assert.caching&#45;&gt;pytest_cache_assert._check_assert.error_message -->
<g id="edge17" class="edge">
<title>pytest_cache_assert._check_assert.caching&#45;&gt;pytest_cache_assert._check_assert.error_message</title>
<path fill="none" stroke="black" d="M775.45,-252.03C698.05,-262.49 598.92,-275.89 519.72,-286.59"/>
<polygon fill="black" stroke="black" points="509.67,-287.95 518.98,-282.15 514.63,-287.28 519.58,-286.61 519.58,-286.61 519.58,-286.61 514.63,-287.28 520.18,-291.07 509.67,-287.95 509.67,-287.95"/>
</g>
<!-- pytest_cache_assert._check_assert.caching&#45;&gt;pytest_cache_assert._check_assert.serializer -->
<g id="edge18" class="edge">
<title>pytest_cache_assert._check_assert.caching&#45;&gt;pytest_cache_assert._check_assert.serializer</title>
<path fill="none" stroke="black" d="M948.71,-252.12C975.57,-261.86 1009.38,-274.13 1037.68,-284.39"/>
<polygon fill="black" stroke="black" points="1047.44,-287.93 1036.51,-288.75 1042.74,-286.23 1038.04,-284.52 1038.04,-284.52 1038.04,-284.52 1042.74,-286.23 1039.57,-280.29 1047.44,-287.93 1047.44,-287.93"/>
</g>
<!-- pytest_cache_assert._check_assert.differ -->
<g id="node9" class="node">
<title>pytest_cache_assert._check_assert.differ</title>
<polygon fill="none" stroke="black" points="472,-396 167,-396 167,-360 472,-360 472,-396"/>
<text text-anchor="middle" x="319.5" y="-374.3" font-family="Times,serif" font-size="14.00">pytest_cache_assert._check_assert.differ</text>
</g>
<!-- pytest_cache_assert._check_assert.differ&#45;&gt;pytest_cache_assert._check_assert.constants -->
<g id="edge19" class="edge">
<title>pytest_cache_assert._check_assert.differ&#45;&gt;pytest_cache_assert._check_assert.constants</title>
<path fill="none" stroke="black" d="M342.18,-396.13C375.77,-421.5 438.85,-469.15 476.63,-497.68"/>
<polygon fill="black" stroke="black" points="484.74,-503.81 474.05,-501.37 480.75,-500.8 476.76,-497.78 476.76,-497.78 476.76,-497.78 480.75,-500.8 479.48,-494.19 484.74,-503.81 484.74,-503.81"/>
</g>
<!-- pytest_cache_assert._check_assert.differ&#45;&gt;pytest_cache_assert._check_assert.key_rules -->
<g id="edge20" class="edge">
<title>pytest_cache_assert._check_assert.differ&#45;&gt;pytest_cache_assert._check_assert.key_rules</title>
<path fill="none" stroke="black" d="M282.32,-396.12C261.63,-405.65 235.7,-417.59 213.72,-427.72"/>
<polygon fill="black" stroke="black" points="204.56,-431.93 211.76,-423.66 209.1,-429.84 213.65,-427.75 213.65,-427.75 213.65,-427.75 209.1,-429.84 215.53,-431.84 204.56,-431.93 204.56,-431.93"/>
</g>
<!-- pytest_cache_assert._check_assert.error_message&#45;&gt;pytest_cache_assert._check_assert.differ -->
<g id="edge21" class="edge">
<title>pytest_cache_assert._check_assert.error_message&#45;&gt;pytest_cache_assert._check_assert.differ</title>
<path fill="none" stroke="black" d="M367.68,-324.3C359.93,-332.78 350.46,-343.14 341.98,-352.42"/>
<polygon fill="black" stroke="black" points="335.14,-359.9 338.56,-349.48 338.51,-356.21 341.89,-352.52 341.89,-352.52 341.89,-352.52 338.51,-356.21 345.21,-355.55 335.14,-359.9 335.14,-359.9"/>
</g>
<!-- pytest_cache_assert._check_assert.key_rules&#45;&gt;pytest_cache_assert._check_assert.constants -->
<g id="edge22" class="edge">
<title>pytest_cache_assert._check_assert.key_rules&#45;&gt;pytest_cache_assert._check_assert.constants</title>
<path fill="none" stroke="black" d="M250.24,-468.03C299.9,-478.26 363.2,-491.29 414.58,-501.87"/>
<polygon fill="black" stroke="black" points="424.69,-503.95 413.98,-506.34 419.79,-502.94 414.89,-501.93 414.89,-501.93 414.89,-501.93 419.79,-502.94 415.8,-497.53 424.69,-503.95 424.69,-503.95"/>
</g>
<!-- pytest_cache_assert._check_assert.serializer&#45;&gt;pytest_cache_assert._check_assert.constants -->
<g id="edge23" class="edge">
<title>pytest_cache_assert._check_assert.serializer&#45;&gt;pytest_cache_assert._check_assert.constants</title>
<path fill="none" stroke="black" d="M1081.48,-324C1054.41,-357.96 988.29,-433.84 913.5,-468 873.07,-486.46 775.25,-499.54 685.76,-508.08"/>
<polygon fill="black" stroke="black" points="675.73,-509.02 685.27,-503.61 680.71,-508.55 685.69,-508.09 685.69,-508.09 685.69,-508.09 680.71,-508.55 686.11,-512.57 675.73,-509.02 675.73,-509.02"/>
</g>
<!-- pytest_cache_assert._check_assert.serializer&#45;&gt;pytest_cache_assert._check_assert.converter -->
<g id="edge24" class="edge">
<title>pytest_cache_assert._check_assert.serializer&#45;&gt;pytest_cache_assert._check_assert.converter</title>
<path fill="none" stroke="black" d="M999.35,-324.03C941.76,-334.34 868.23,-347.51 808.89,-358.13"/>
<polygon fill="black" stroke="black" points="798.74,-359.95 807.79,-353.76 803.66,-359.07 808.58,-358.19 808.58,-358.19 808.58,-358.19 803.66,-359.07 809.37,-362.62 798.74,-359.95 798.74,-359.95"/>
</g>
<!-- pytest_cache_assert._check_assert.validator&#45;&gt;pytest_cache_assert._check_assert.differ -->
<g id="edge25" class="edge">
<title>pytest_cache_assert._check_assert.validator&#45;&gt;pytest_cache_assert._check_assert.differ</title>
<path fill="none" stroke="black" d="M235.27,-252.07C216.51,-259.91 199.04,-271.34 187.5,-288 178.39,-301.15 178.54,-310.75 187.5,-324 196.84,-337.81 210.42,-348.02 225.37,-355.57"/>
<polygon fill="black" stroke="black" points="234.83,-359.94 223.86,-359.83 230.29,-357.84 225.75,-355.74 225.75,-355.74 225.75,-355.74 230.29,-357.84 227.64,-351.66 234.83,-359.94 234.83,-359.94"/>
</g>
<!-- pytest_cache_assert._check_assert.validator&#45;&gt;pytest_cache_assert._check_assert.error_message -->
<g id="edge26" class="edge">
<title>pytest_cache_assert._check_assert.validator&#45;&gt;pytest_cache_assert._check_assert.error_message</title>
<path fill="none" stroke="black" d="M342.1,-252.3C348.62,-260.61 356.57,-270.72 363.75,-279.86"/>
<polygon fill="black" stroke="black" points="370.06,-287.9 360.34,-282.81 366.97,-283.96 363.88,-280.03 363.88,-280.03 363.88,-280.03 366.97,-283.96 367.42,-277.25 370.06,-287.9 370.06,-287.9"/>
</g>
<!-- pytest_cache_assert._check_assert.validator&#45;&gt;pytest_cache_assert._check_assert.key_rules -->
<g id="edge27" class="edge">
<title>pytest_cache_assert._check_assert.validator&#45;&gt;pytest_cache_assert._check_assert.key_rules</title>
<path fill="none" stroke="black" d="M235.62,-252.11C214.15,-259.95 193.06,-271.36 177.5,-288 143.95,-323.86 151.67,-386.14 159.86,-421.81"/>
<polygon fill="black" stroke="black" points="162.38,-431.97 155.61,-423.35 161.18,-427.12 159.98,-422.27 159.98,-422.27 159.98,-422.27 161.18,-427.12 164.34,-421.18 162.38,-431.97 162.38,-431.97"/>
</g>
<!-- pytest_cache_assert.main -->
<g id="node14" class="node">
<title>pytest_cache_assert.main</title>
<polygon fill="none" stroke="black" points="1159.5,-36 959.5,-36 959.5,0 1159.5,0 1159.5,-36"/>
<text text-anchor="middle" x="1059.5" y="-14.3" font-family="Times,serif" font-size="14.00">pytest_cache_assert.main</text>
</g>
<!-- pytest_cache_assert.plugin -->
<g id="node15" class="node">
<title>pytest_cache_assert.plugin</title>
<polygon fill="none" stroke="black" points="1387,-36 1178,-36 1178,0 1387,0 1387,-36"/>
<text text-anchor="middle" x="1282.5" y="-14.3" font-family="Times,serif" font-size="14.00">pytest_cache_assert.plugin</text>
</g>
</g>
</svg>
