<?xml version="1.0" encoding="UTF-8" standalone="no"?>
<!DOCTYPE svg PUBLIC "-//W3C//DTD SVG 1.1//EN"
 "http://www.w3.org/Graphics/SVG/1.1/DTD/svg11.dtd">
<!-- Generated by graphviz version 2.43.0 (0)
 -->
<!-- Title: packages Pages: 1 -->
<svg width="1612pt" height="548pt"
 viewBox="0.00 0.00 1612.14 548.00" xmlns="http://www.w3.org/2000/svg" xmlns:xlink="http://www.w3.org/1999/xlink">
<g id="graph0" class="graph" transform="scale(1 1) rotate(0) translate(4 544)">
<title>packages</title>
<polygon fill="white" stroke="transparent" points="-4,4 -4,-544 1608.14,-544 1608.14,4 -4,4"/>
<!-- pytest_cache_assert -->
<g id="node1" class="node">
<title>pytest_cache_assert</title>
<polygon fill="none" stroke="black" points="876.64,-36 716.64,-36 716.64,0 876.64,0 876.64,-36"/>
<text text-anchor="middle" x="796.64" y="-14.3" font-family="Times,serif" font-size="14.00">pytest_cache_assert</text>
</g>
<!-- pytest_cache_assert._check_assert.assert_config -->
<g id="node3" class="node">
<title>pytest_cache_assert._check_assert.assert_config</title>
<polygon fill="none" stroke="black" points="762.14,-108 401.14,-108 401.14,-72 762.14,-72 762.14,-108"/>
<text text-anchor="middle" x="581.64" y="-86.3" font-family="Times,serif" font-size="14.00">pytest_cache_assert._check_assert.assert_config</text>
</g>
<!-- pytest_cache_assert&#45;&gt;pytest_cache_assert._check_assert.assert_config -->
<g id="edge1" class="edge">
<title>pytest_cache_assert&#45;&gt;pytest_cache_assert._check_assert.assert_config</title>
<path fill="none" stroke="black" d="M744.32,-36.03C714.02,-45.9 675.69,-58.38 643.85,-68.75"/>
<polygon fill="black" stroke="black" points="634.2,-71.89 642.31,-64.51 638.95,-70.34 643.71,-68.79 643.71,-68.79 643.71,-68.79 638.95,-70.34 645.1,-73.07 634.2,-71.89 634.2,-71.89"/>
</g>
<!-- pytest_cache_assert._check_assert.assert_rules -->
<g id="node4" class="node">
<title>pytest_cache_assert._check_assert.assert_rules</title>
<polygon fill="none" stroke="black" points="1217.64,-468 863.64,-468 863.64,-432 1217.64,-432 1217.64,-468"/>
<text text-anchor="middle" x="1040.64" y="-446.3" font-family="Times,serif" font-size="14.00">pytest_cache_assert._check_assert.assert_rules</text>
</g>
<!-- pytest_cache_assert&#45;&gt;pytest_cache_assert._check_assert.assert_rules -->
<g id="edge2" class="edge">
<title>pytest_cache_assert&#45;&gt;pytest_cache_assert._check_assert.assert_rules</title>
<path fill="none" stroke="black" d="M876.94,-34.8C1034.21,-66.3 1367.64,-136.02 1367.64,-161 1367.64,-161 1367.64,-161 1367.64,-307 1367.64,-378.52 1301.01,-414.41 1227.9,-432.26"/>
<polygon fill="black" stroke="black" points="1218.02,-434.56 1226.74,-427.91 1222.89,-433.42 1227.76,-432.29 1227.76,-432.29 1227.76,-432.29 1222.89,-433.42 1228.78,-436.67 1218.02,-434.56 1218.02,-434.56"/>
</g>
<!-- pytest_cache_assert._check_assert.cache_store -->
<g id="node5" class="node">
<title>pytest_cache_assert._check_assert.cache_store</title>
<polygon fill="none" stroke="black" points="466.14,-180 115.14,-180 115.14,-144 466.14,-144 466.14,-180"/>
<text text-anchor="middle" x="290.64" y="-158.3" font-family="Times,serif" font-size="14.00">pytest_cache_assert._check_assert.cache_store</text>
</g>
<!-- pytest_cache_assert&#45;&gt;pytest_cache_assert._check_assert.cache_store -->
<g id="edge3" class="edge">
<title>pytest_cache_assert&#45;&gt;pytest_cache_assert._check_assert.cache_store</title>
<path fill="none" stroke="black" d="M716.55,-24.01C615.69,-31.25 448.82,-46.65 392.64,-72 359.97,-86.74 330.03,-115.51 311.15,-136.36"/>
<polygon fill="black" stroke="black" points="304.48,-143.91 307.73,-133.44 307.79,-140.16 311.1,-136.42 311.1,-136.42 311.1,-136.42 307.79,-140.16 314.47,-139.4 304.48,-143.91 304.48,-143.91"/>
</g>
<!-- pytest_cache_assert._check_assert.config -->
<g id="node7" class="node">
<title>pytest_cache_assert._check_assert.config</title>
<polygon fill="none" stroke="black" points="951.64,-180 641.64,-180 641.64,-144 951.64,-144 951.64,-180"/>
<text text-anchor="middle" x="796.64" y="-158.3" font-family="Times,serif" font-size="14.00">pytest_cache_assert._check_assert.config</text>
</g>
<!-- pytest_cache_assert&#45;&gt;pytest_cache_assert._check_assert.config -->
<g id="edge4" class="edge">
<title>pytest_cache_assert&#45;&gt;pytest_cache_assert._check_assert.config</title>
<path fill="none" stroke="black" d="M796.64,-36.13C796.64,-60.33 796.64,-104.79 796.64,-133.61"/>
<polygon fill="black" stroke="black" points="796.64,-143.81 792.14,-133.81 796.64,-138.81 796.64,-133.81 796.64,-133.81 796.64,-133.81 796.64,-138.81 801.14,-133.81 796.64,-143.81 796.64,-143.81"/>
</g>
<!-- pytest_cache_assert._check_assert.converter -->
<g id="node9" class="node">
<title>pytest_cache_assert._check_assert.converter</title>
<polygon fill="none" stroke="black" points="561.64,-396 225.64,-396 225.64,-360 561.64,-360 561.64,-396"/>
<text text-anchor="middle" x="393.64" y="-374.3" font-family="Times,serif" font-size="14.00">pytest_cache_assert._check_assert.converter</text>
</g>
<!-- pytest_cache_assert&#45;&gt;pytest_cache_assert._check_assert.converter -->
<g id="edge5" class="edge">
<title>pytest_cache_assert&#45;&gt;pytest_cache_assert._check_assert.converter</title>
<path fill="none" stroke="black" d="M716.51,-24.97C514.9,-41.06 2.64,-89.01 2.64,-161 2.64,-161 2.64,-161 2.64,-235 2.64,-275.45 -7.93,-296.4 21.64,-324 50.34,-350.79 134.27,-364.1 215.16,-370.69"/>
<polygon fill="black" stroke="black" points="225.52,-371.5 215.2,-375.21 220.54,-371.11 215.55,-370.72 215.55,-370.72 215.55,-370.72 220.54,-371.11 215.9,-366.23 225.52,-371.5 225.52,-371.5"/>
</g>
<!-- pytest_cache_assert._check_assert.error_message -->
<g id="node11" class="node">
<title>pytest_cache_assert._check_assert.error_message</title>
<polygon fill="none" stroke="black" points="1166.14,-324 793.14,-324 793.14,-288 1166.14,-288 1166.14,-324"/>
<text text-anchor="middle" x="979.64" y="-302.3" font-family="Times,serif" font-size="14.00">pytest_cache_assert._check_assert.error_message</text>
</g>
<!-- pytest_cache_assert&#45;&gt;pytest_cache_assert._check_assert.error_message -->
<g id="edge6" class="edge">
<title>pytest_cache_assert&#45;&gt;pytest_cache_assert._check_assert.error_message</title>
<path fill="none" stroke="black" d="M833.69,-36.07C872.42,-56.05 931.55,-93.01 960.64,-144 984.56,-185.91 984.96,-243.9 982.62,-277.63"/>
<polygon fill="black" stroke="black" points="981.79,-287.68 978.13,-277.34 982.2,-282.69 982.61,-277.71 982.61,-277.71 982.61,-277.71 982.2,-282.69 987.1,-278.08 981.79,-287.68 981.79,-287.68"/>
</g>
<!-- pytest_cache_assert._check_assert.validator -->
<g id="node13" class="node">
<title>pytest_cache_assert._check_assert.validator</title>
<polygon fill="none" stroke="black" points="1339.14,-252 1008.14,-252 1008.14,-216 1339.14,-216 1339.14,-252"/>
<text text-anchor="middle" x="1173.64" y="-230.3" font-family="Times,serif" font-size="14.00">pytest_cache_assert._check_assert.validator</text>
</g>
<!-- pytest_cache_assert&#45;&gt;pytest_cache_assert._check_assert.validator -->
<g id="edge7" class="edge">
<title>pytest_cache_assert&#45;&gt;pytest_cache_assert._check_assert.validator</title>
<path fill="none" stroke="black" d="M874.52,-36.06C920.17,-46.81 972.85,-60.74 993.64,-72 1059.69,-107.76 1121.44,-172.31 1152.57,-207.85"/>
<polygon fill="black" stroke="black" points="1159.45,-215.8 1149.51,-211.18 1156.18,-212.02 1152.91,-208.24 1152.91,-208.24 1152.91,-208.24 1156.18,-212.02 1156.31,-205.3 1159.45,-215.8 1159.45,-215.8"/>
</g>
<!-- pytest_cache_assert._check_assert -->
<g id="node2" class="node">
<title>pytest_cache_assert._check_assert</title>
<polygon fill="none" stroke="black" points="1158.14,-36 895.14,-36 895.14,0 1158.14,0 1158.14,-36"/>
<text text-anchor="middle" x="1026.64" y="-14.3" font-family="Times,serif" font-size="14.00">pytest_cache_assert._check_assert</text>
</g>
<!-- pytest_cache_assert._check_assert.assert_config&#45;&gt;pytest_cache_assert._check_assert.cache_store -->
<g id="edge8" class="edge">
<title>pytest_cache_assert._check_assert.assert_config&#45;&gt;pytest_cache_assert._check_assert.cache_store</title>
<path fill="none" stroke="black" d="M510.83,-108.03C468.68,-118.17 415.05,-131.07 371.28,-141.6"/>
<polygon fill="black" stroke="black" points="361.52,-143.95 370.19,-137.24 366.38,-142.78 371.24,-141.61 371.24,-141.61 371.24,-141.61 366.38,-142.78 372.3,-145.99 361.52,-143.95 361.52,-143.95"/>
</g>
<!-- pytest_cache_assert._check_assert.assert_config&#45;&gt;pytest_cache_assert._check_assert.config -->
<g id="edge9" class="edge">
<title>pytest_cache_assert._check_assert.assert_config&#45;&gt;pytest_cache_assert._check_assert.config</title>
<path fill="none" stroke="black" d="M633.96,-108.03C664.26,-117.9 702.59,-130.38 734.43,-140.75"/>
<polygon fill="black" stroke="black" points="744.09,-143.89 733.19,-145.07 739.33,-142.34 734.58,-140.79 734.58,-140.79 734.58,-140.79 739.33,-142.34 735.97,-136.51 744.09,-143.89 744.09,-143.89"/>
</g>
<!-- pytest_cache_assert._check_assert.constants -->
<g id="node8" class="node">
<title>pytest_cache_assert._check_assert.constants</title>
<polygon fill="none" stroke="black" points="854.64,-540 518.64,-540 518.64,-504 854.64,-504 854.64,-540"/>
<text text-anchor="middle" x="686.64" y="-518.3" font-family="Times,serif" font-size="14.00">pytest_cache_assert._check_assert.constants</text>
</g>
<!-- pytest_cache_assert._check_assert.assert_config&#45;&gt;pytest_cache_assert._check_assert.constants -->
<g id="edge10" class="edge">
<title>pytest_cache_assert._check_assert.assert_config&#45;&gt;pytest_cache_assert._check_assert.constants</title>
<path fill="none" stroke="black" d="M579.45,-108.33C577.97,-128.41 578.95,-161.17 597.64,-180 658.8,-241.62 734.2,-149.19 789.64,-216 799.86,-228.31 792.55,-236.27 789.64,-252 772.42,-345.16 724.28,-447.75 700.41,-494.8"/>
<polygon fill="black" stroke="black" points="695.84,-503.71 696.4,-492.76 698.13,-499.26 700.41,-494.81 700.41,-494.81 700.41,-494.81 698.13,-499.26 704.41,-496.87 695.84,-503.71 695.84,-503.71"/>
</g>
<!-- pytest_cache_assert._check_assert.assert_config&#45;&gt;pytest_cache_assert._check_assert.converter -->
<g id="edge11" class="edge">
<title>pytest_cache_assert._check_assert.assert_config&#45;&gt;pytest_cache_assert._check_assert.converter</title>
<path fill="none" stroke="black" d="M557.59,-108.01C528.28,-129.89 479.02,-170.54 449.64,-216 422.11,-258.61 406.33,-316.36 398.92,-349.86"/>
<polygon fill="black" stroke="black" points="396.8,-359.83 394.48,-349.11 397.84,-354.94 398.88,-350.05 398.88,-350.05 398.88,-350.05 397.84,-354.94 403.28,-350.98 396.8,-359.83 396.8,-359.83"/>
</g>
<!-- pytest_cache_assert._check_assert.assert_config&#45;&gt;pytest_cache_assert._check_assert.validator -->
<g id="edge12" class="edge">
<title>pytest_cache_assert._check_assert.assert_config&#45;&gt;pytest_cache_assert._check_assert.validator</title>
<path fill="none" stroke="black" d="M586.2,-108.09C592.74,-128.91 606.92,-163.37 632.64,-180 663.07,-199.68 851.74,-214.82 997.8,-223.79"/>
<polygon fill="black" stroke="black" points="1007.8,-224.4 997.55,-228.28 1002.81,-224.09 997.82,-223.79 997.82,-223.79 997.82,-223.79 1002.81,-224.09 998.1,-219.3 1007.8,-224.4 1007.8,-224.4"/>
</g>
<!-- pytest_cache_assert._check_assert.assert_rules&#45;&gt;pytest_cache_assert._check_assert.constants -->
<g id="edge13" class="edge">
<title>pytest_cache_assert._check_assert.assert_rules&#45;&gt;pytest_cache_assert._check_assert.constants</title>
<path fill="none" stroke="black" d="M954.5,-468.03C902.57,-478.3 836.34,-491.4 782.72,-502"/>
<polygon fill="black" stroke="black" points="772.87,-503.95 781.8,-497.6 777.77,-502.98 782.68,-502.01 782.68,-502.01 782.68,-502.01 777.77,-502.98 783.55,-506.42 772.87,-503.95 772.87,-503.95"/>
</g>
<!-- pytest_cache_assert._check_assert.caching -->
<g id="node6" class="node">
<title>pytest_cache_assert._check_assert.caching</title>
<polygon fill="none" stroke="black" points="780.64,-252 458.64,-252 458.64,-216 780.64,-216 780.64,-252"/>
<text text-anchor="middle" x="619.64" y="-230.3" font-family="Times,serif" font-size="14.00">pytest_cache_assert._check_assert.caching</text>
</g>
<!-- pytest_cache_assert._check_assert.cache_store&#45;&gt;pytest_cache_assert._check_assert.caching -->
<g id="edge14" class="edge">
<title>pytest_cache_assert._check_assert.cache_store&#45;&gt;pytest_cache_assert._check_assert.caching</title>
<path fill="none" stroke="black" d="M370.7,-180.03C418.76,-190.26 480.01,-203.29 529.72,-213.87"/>
<polygon fill="black" stroke="black" points="539.51,-215.95 528.79,-218.27 534.62,-214.91 529.73,-213.87 529.73,-213.87 529.73,-213.87 534.62,-214.91 530.66,-209.47 539.51,-215.95 539.51,-215.95"/>
</g>
<!-- pytest_cache_assert._check_assert.cache_store&#45;&gt;pytest_cache_assert._check_assert.converter -->
<g id="edge15" class="edge">
<title>pytest_cache_assert._check_assert.cache_store&#45;&gt;pytest_cache_assert._check_assert.converter</title>
<path fill="none" stroke="black" d="M304.93,-180.03C323.53,-203.06 355.74,-246.08 373.64,-288 382.08,-307.75 387.19,-331.55 390.13,-349.57"/>
<polygon fill="black" stroke="black" points="391.65,-359.7 385.71,-350.48 390.91,-354.75 390.16,-349.81 390.16,-349.81 390.16,-349.81 390.91,-354.75 394.61,-349.14 391.65,-359.7 391.65,-359.7"/>
</g>
<!-- pytest_cache_assert._check_assert.serializer -->
<g id="node12" class="node">
<title>pytest_cache_assert._check_assert.serializer</title>
<polygon fill="none" stroke="black" points="364.64,-324 30.64,-324 30.64,-288 364.64,-288 364.64,-324"/>
<text text-anchor="middle" x="197.64" y="-302.3" font-family="Times,serif" font-size="14.00">pytest_cache_assert._check_assert.serializer</text>
</g>
<!-- pytest_cache_assert._check_assert.cache_store&#45;&gt;pytest_cache_assert._check_assert.serializer -->
<g id="edge16" class="edge">
<title>pytest_cache_assert._check_assert.cache_store&#45;&gt;pytest_cache_assert._check_assert.serializer</title>
<path fill="none" stroke="black" d="M279.42,-180.13C263.29,-204.76 233.43,-250.36 214.59,-279.12"/>
<polygon fill="black" stroke="black" points="208.9,-287.81 210.61,-276.98 211.64,-283.63 214.38,-279.45 214.38,-279.45 214.38,-279.45 211.64,-283.63 218.14,-281.91 208.9,-287.81 208.9,-287.81"/>
</g>
<!-- pytest_cache_assert._check_assert.caching&#45;&gt;pytest_cache_assert._check_assert.constants -->
<g id="edge17" class="edge">
<title>pytest_cache_assert._check_assert.caching&#45;&gt;pytest_cache_assert._check_assert.constants</title>
<path fill="none" stroke="black" d="M623.63,-252.03C634.82,-299.81 666.58,-435.38 680.25,-493.73"/>
<polygon fill="black" stroke="black" points="682.59,-503.69 675.93,-494.98 681.45,-498.83 680.31,-493.96 680.31,-493.96 680.31,-493.96 681.45,-498.83 684.69,-492.93 682.59,-503.69 682.59,-503.69"/>
</g>
<!-- pytest_cache_assert._check_assert.caching&#45;&gt;pytest_cache_assert._check_assert.error_message -->
<g id="edge18" class="edge">
<title>pytest_cache_assert._check_assert.caching&#45;&gt;pytest_cache_assert._check_assert.error_message</title>
<path fill="none" stroke="black" d="M707.25,-252.03C760.05,-262.3 827.41,-275.4 881.93,-286"/>
<polygon fill="black" stroke="black" points="891.96,-287.95 881.28,-290.46 887.05,-287 882.14,-286.04 882.14,-286.04 882.14,-286.04 887.05,-287 883,-281.62 891.96,-287.95 891.96,-287.95"/>
</g>
<!-- pytest_cache_assert._check_assert.caching&#45;&gt;pytest_cache_assert._check_assert.serializer -->
<g id="edge19" class="edge">
<title>pytest_cache_assert._check_assert.caching&#45;&gt;pytest_cache_assert._check_assert.serializer</title>
<path fill="none" stroke="black" d="M516.95,-252.03C454.54,-262.39 374.78,-275.62 310.59,-286.26"/>
<polygon fill="black" stroke="black" points="300.43,-287.95 309.56,-281.87 305.36,-287.13 310.29,-286.31 310.29,-286.31 310.29,-286.31 305.36,-287.13 311.03,-290.75 300.43,-287.95 300.43,-287.95"/>
</g>
<!-- pytest_cache_assert._check_assert.converter&#45;&gt;pytest_cache_assert._check_assert.constants -->
<g id="edge20" class="edge">
<title>pytest_cache_assert._check_assert.converter&#45;&gt;pytest_cache_assert._check_assert.constants</title>
<path fill="none" stroke="black" d="M428.98,-396.13C482.33,-421.98 583.38,-470.96 641.82,-499.28"/>
<polygon fill="black" stroke="black" points="651.17,-503.81 640.21,-503.5 646.67,-501.63 642.17,-499.45 642.17,-499.45 642.17,-499.45 646.67,-501.63 644.14,-495.4 651.17,-503.81 651.17,-503.81"/>
</g>
<!-- pytest_cache_assert._check_assert.differ -->
<g id="node10" class="node">
<title>pytest_cache_assert._check_assert.differ</title>
<polygon fill="none" stroke="black" points="1163.14,-396 858.14,-396 858.14,-360 1163.14,-360 1163.14,-396"/>
<text text-anchor="middle" x="1010.64" y="-374.3" font-family="Times,serif" font-size="14.00">pytest_cache_assert._check_assert.differ</text>
</g>
<!-- pytest_cache_assert._check_assert.differ&#45;&gt;pytest_cache_assert._check_assert.assert_rules -->
<g id="edge21" class="edge">
<title>pytest_cache_assert._check_assert.differ&#45;&gt;pytest_cache_assert._check_assert.assert_rules</title>
<path fill="none" stroke="black" d="M1018.06,-396.3C1021.44,-404.19 1025.51,-413.7 1029.26,-422.45"/>
<polygon fill="black" stroke="black" points="1033.31,-431.9 1025.24,-424.48 1031.34,-427.3 1029.37,-422.7 1029.37,-422.7 1029.37,-422.7 1031.34,-427.3 1033.51,-420.93 1033.31,-431.9 1033.31,-431.9"/>
</g>
<!-- pytest_cache_assert._check_assert.differ&#45;&gt;pytest_cache_assert._check_assert.constants -->
<g id="edge22" class="edge">
<title>pytest_cache_assert._check_assert.differ&#45;&gt;pytest_cache_assert._check_assert.constants</title>
<path fill="none" stroke="black" d="M953.13,-396.12C923.31,-405.59 886.55,-418.23 854.64,-432 808.52,-451.9 757.86,-479.59 724.36,-498.78"/>
<polygon fill="black" stroke="black" points="715.38,-503.96 721.8,-495.06 719.72,-501.46 724.05,-498.96 724.05,-498.96 724.05,-498.96 719.72,-501.46 726.29,-502.86 715.38,-503.96 715.38,-503.96"/>
</g>
<!-- pytest_cache_assert._check_assert.error_message&#45;&gt;pytest_cache_assert._check_assert.differ -->
<g id="edge23" class="edge">
<title>pytest_cache_assert._check_assert.error_message&#45;&gt;pytest_cache_assert._check_assert.differ</title>
<path fill="none" stroke="black" d="M987.3,-324.3C990.83,-332.27 995.1,-341.9 999.01,-350.74"/>
<polygon fill="black" stroke="black" points="1003.07,-359.9 994.9,-352.57 1001.04,-355.32 999.02,-350.75 999.02,-350.75 999.02,-350.75 1001.04,-355.32 1003.13,-348.93 1003.07,-359.9 1003.07,-359.9"/>
</g>
<!-- pytest_cache_assert._check_assert.serializer&#45;&gt;pytest_cache_assert._check_assert.constants -->
<g id="edge24" class="edge">
<title>pytest_cache_assert._check_assert.serializer&#45;&gt;pytest_cache_assert._check_assert.constants</title>
<path fill="none" stroke="black" d="M196.36,-324.15C195.85,-344.07 198.24,-376.66 216.64,-396 263.35,-445.08 436.21,-481.75 558.69,-502.28"/>
<polygon fill="black" stroke="black" points="568.9,-503.97 558.3,-506.78 563.97,-503.16 559.04,-502.34 559.04,-502.34 559.04,-502.34 563.97,-503.16 559.77,-497.9 568.9,-503.97 568.9,-503.97"/>
</g>
<!-- pytest_cache_assert._check_assert.serializer&#45;&gt;pytest_cache_assert._check_assert.converter -->
<g id="edge25" class="edge">
<title>pytest_cache_assert._check_assert.serializer&#45;&gt;pytest_cache_assert._check_assert.converter</title>
<path fill="none" stroke="black" d="M245.34,-324.03C272.72,-333.81 307.3,-346.16 336.18,-356.48"/>
<polygon fill="black" stroke="black" points="345.73,-359.89 334.8,-360.76 341.02,-358.21 336.31,-356.53 336.31,-356.53 336.31,-356.53 341.02,-358.21 337.83,-352.29 345.73,-359.89 345.73,-359.89"/>
</g>
<!-- pytest_cache_assert._check_assert.validator&#45;&gt;pytest_cache_assert._check_assert.assert_rules -->
<g id="edge26" class="edge">
<title>pytest_cache_assert._check_assert.validator&#45;&gt;pytest_cache_assert._check_assert.assert_rules</title>
<path fill="none" stroke="black" d="M1181.95,-252.21C1186.38,-262.37 1191.38,-275.62 1193.64,-288 1202.42,-336.11 1205.48,-359.77 1172.64,-396 1159.98,-409.97 1143.12,-420.32 1125.71,-427.97"/>
<polygon fill="black" stroke="black" points="1116,-431.95 1123.54,-423.99 1120.62,-430.05 1125.25,-428.16 1125.25,-428.16 1125.25,-428.16 1120.62,-430.05 1126.96,-432.32 1116,-431.95 1116,-431.95"/>
</g>
<!-- pytest_cache_assert._check_assert.validator&#45;&gt;pytest_cache_assert._check_assert.differ -->
<g id="edge27" class="edge">
<title>pytest_cache_assert._check_assert.validator&#45;&gt;pytest_cache_assert._check_assert.differ</title>
<path fill="none" stroke="black" d="M1179.71,-252.23C1185.36,-271.62 1190.85,-303.14 1175.64,-324 1165.57,-337.82 1151.83,-348.12 1136.55,-355.77"/>
<polygon fill="black" stroke="black" points="1127.4,-359.98 1134.61,-351.71 1131.94,-357.89 1136.49,-355.8 1136.49,-355.8 1136.49,-355.8 1131.94,-357.89 1138.36,-359.89 1127.4,-359.98 1127.4,-359.98"/>
</g>
<!-- pytest_cache_assert._check_assert.validator&#45;&gt;pytest_cache_assert._check_assert.error_message -->
<g id="edge28" class="edge">
<title>pytest_cache_assert._check_assert.validator&#45;&gt;pytest_cache_assert._check_assert.error_message</title>
<path fill="none" stroke="black" d="M1126.18,-252.12C1099.07,-261.91 1064.91,-274.23 1036.38,-284.53"/>
<polygon fill="black" stroke="black" points="1026.95,-287.93 1034.82,-280.3 1031.65,-286.23 1036.35,-284.54 1036.35,-284.54 1036.35,-284.54 1031.65,-286.23 1037.88,-288.77 1026.95,-287.93 1026.95,-287.93"/>
</g>
<!-- pytest_cache_assert.main -->
<g id="node14" class="node">
<title>pytest_cache_assert.main</title>
<polygon fill="none" stroke="black" points="1376.64,-36 1176.64,-36 1176.64,0 1376.64,0 1376.64,-36"/>
<text text-anchor="middle" x="1276.64" y="-14.3" font-family="Times,serif" font-size="14.00">pytest_cache_assert.main</text>
</g>
<!-- pytest_cache_assert.plugin -->
<g id="node15" class="node">
<title>pytest_cache_assert.plugin</title>
<polygon fill="none" stroke="black" points="1604.14,-36 1395.14,-36 1395.14,0 1604.14,0 1604.14,-36"/>
<text text-anchor="middle" x="1499.64" y="-14.3" font-family="Times,serif" font-size="14.00">pytest_cache_assert.plugin</text>
</g>
</g>
</svg>
