<?xml version="1.0" encoding="UTF-8" standalone="no"?>
<!DOCTYPE svg PUBLIC "-//W3C//DTD SVG 1.1//EN"
 "http://www.w3.org/Graphics/SVG/1.1/DTD/svg11.dtd">
<!-- Generated by graphviz version 2.43.0 (0)
 -->
<!-- Title: packages Pages: 1 -->
<svg width="1553pt" height="548pt"
 viewBox="0.00 0.00 1552.50 548.00" xmlns="http://www.w3.org/2000/svg" xmlns:xlink="http://www.w3.org/1999/xlink">
<g id="graph0" class="graph" transform="scale(1 1) rotate(0) translate(4 544)">
<title>packages</title>
<polygon fill="white" stroke="transparent" points="-4,4 -4,-544 1548.5,-544 1548.5,4 -4,4"/>
<!-- pytest_cache_assert -->
<g id="node1" class="node">
<title>pytest_cache_assert</title>
<polygon fill="none" stroke="black" points="817,-36 657,-36 657,0 817,0 817,-36"/>
<text text-anchor="middle" x="737" y="-14.3" font-family="Times,serif" font-size="14.00">pytest_cache_assert</text>
</g>
<!-- pytest_cache_assert._check_assert.assert_config -->
<g id="node3" class="node">
<title>pytest_cache_assert._check_assert.assert_config</title>
<polygon fill="none" stroke="black" points="813.5,-108 452.5,-108 452.5,-72 813.5,-72 813.5,-108"/>
<text text-anchor="middle" x="633" y="-86.3" font-family="Times,serif" font-size="14.00">pytest_cache_assert._check_assert.assert_config</text>
</g>
<!-- pytest_cache_assert&#45;&gt;pytest_cache_assert._check_assert.assert_config -->
<g id="edge1" class="edge">
<title>pytest_cache_assert&#45;&gt;pytest_cache_assert._check_assert.assert_config</title>
<path fill="none" stroke="black" d="M711.56,-36.12C698.21,-45.11 681.68,-56.24 667.22,-65.97"/>
<polygon fill="black" stroke="black" points="658.54,-71.81 664.32,-62.49 662.69,-69.02 666.83,-66.23 666.83,-66.23 666.83,-66.23 662.69,-69.02 669.35,-69.96 658.54,-71.81 658.54,-71.81"/>
</g>
<!-- pytest_cache_assert._check_assert.cache_store -->
<g id="node4" class="node">
<title>pytest_cache_assert._check_assert.cache_store</title>
<polygon fill="none" stroke="black" points="745.5,-180 394.5,-180 394.5,-144 745.5,-144 745.5,-180"/>
<text text-anchor="middle" x="570" y="-158.3" font-family="Times,serif" font-size="14.00">pytest_cache_assert._check_assert.cache_store</text>
</g>
<!-- pytest_cache_assert&#45;&gt;pytest_cache_assert._check_assert.cache_store -->
<g id="edge2" class="edge">
<title>pytest_cache_assert&#45;&gt;pytest_cache_assert._check_assert.cache_store</title>
<path fill="none" stroke="black" d="M656.92,-22.28C579.69,-27.33 470.68,-40.06 444,-72 433.74,-84.28 435.15,-94.67 444,-108 453.13,-121.75 466.61,-131.94 481.39,-139.49"/>
<polygon fill="black" stroke="black" points="490.73,-143.86 479.77,-143.7 486.2,-141.74 481.67,-139.63 481.67,-139.63 481.67,-139.63 486.2,-141.74 483.58,-135.55 490.73,-143.86 490.73,-143.86"/>
</g>
<!-- pytest_cache_assert._check_assert.config -->
<g id="node6" class="node">
<title>pytest_cache_assert._check_assert.config</title>
<polygon fill="none" stroke="black" points="338,-180 28,-180 28,-144 338,-144 338,-180"/>
<text text-anchor="middle" x="183" y="-158.3" font-family="Times,serif" font-size="14.00">pytest_cache_assert._check_assert.config</text>
</g>
<!-- pytest_cache_assert&#45;&gt;pytest_cache_assert._check_assert.config -->
<g id="edge3" class="edge">
<title>pytest_cache_assert&#45;&gt;pytest_cache_assert._check_assert.config</title>
<path fill="none" stroke="black" d="M656.88,-29.1C594.9,-37.83 507.23,-52.18 432,-72 361.67,-90.53 283.02,-120.22 233.28,-140.15"/>
<polygon fill="black" stroke="black" points="223.73,-144 231.33,-136.09 228.37,-142.13 233.01,-140.26 233.01,-140.26 233.01,-140.26 228.37,-142.13 234.69,-144.43 223.73,-144 223.73,-144"/>
</g>
<!-- pytest_cache_assert._check_assert.constants -->
<g id="node7" class="node">
<title>pytest_cache_assert._check_assert.constants</title>
<polygon fill="none" stroke="black" points="1069,-540 733,-540 733,-504 1069,-504 1069,-540"/>
<text text-anchor="middle" x="901" y="-518.3" font-family="Times,serif" font-size="14.00">pytest_cache_assert._check_assert.constants</text>
</g>
<!-- pytest_cache_assert&#45;&gt;pytest_cache_assert._check_assert.constants -->
<g id="edge4" class="edge">
<title>pytest_cache_assert&#45;&gt;pytest_cache_assert._check_assert.constants</title>
<path fill="none" stroke="black" d="M817.21,-34.68C989.21,-68.59 1378,-146.8 1378,-161 1378,-161 1378,-161 1378,-379 1378,-444.96 1208.33,-482.75 1071.38,-502.51"/>
<polygon fill="black" stroke="black" points="1061.16,-503.96 1070.43,-498.1 1066.11,-503.26 1071.06,-502.56 1071.06,-502.56 1071.06,-502.56 1066.11,-503.26 1071.69,-507.01 1061.16,-503.96 1061.16,-503.96"/>
</g>
<!-- pytest_cache_assert._check_assert.converter -->
<g id="node8" class="node">
<title>pytest_cache_assert._check_assert.converter</title>
<polygon fill="none" stroke="black" points="524,-396 188,-396 188,-360 524,-360 524,-396"/>
<text text-anchor="middle" x="356" y="-374.3" font-family="Times,serif" font-size="14.00">pytest_cache_assert._check_assert.converter</text>
</g>
<!-- pytest_cache_assert&#45;&gt;pytest_cache_assert._check_assert.converter -->
<g id="edge5" class="edge">
<title>pytest_cache_assert&#45;&gt;pytest_cache_assert._check_assert.converter</title>
<path fill="none" stroke="black" d="M656.73,-26.1C465.71,-44.08 0,-94.71 0,-161 0,-161 0,-161 0,-235 0,-290.68 152.14,-334.24 257.5,-357.74"/>
<polygon fill="black" stroke="black" points="267.54,-359.95 256.81,-362.2 262.66,-358.88 257.78,-357.8 257.78,-357.8 257.78,-357.8 262.66,-358.88 258.74,-353.41 267.54,-359.95 267.54,-359.95"/>
</g>
<!-- pytest_cache_assert._check_assert.error_message -->
<g id="node10" class="node">
<title>pytest_cache_assert._check_assert.error_message</title>
<polygon fill="none" stroke="black" points="1349.5,-324 976.5,-324 976.5,-288 1349.5,-288 1349.5,-324"/>
<text text-anchor="middle" x="1163" y="-302.3" font-family="Times,serif" font-size="14.00">pytest_cache_assert._check_assert.error_message</text>
</g>
<!-- pytest_cache_assert&#45;&gt;pytest_cache_assert._check_assert.error_message -->
<g id="edge6" class="edge">
<title>pytest_cache_assert&#45;&gt;pytest_cache_assert._check_assert.error_message</title>
<path fill="none" stroke="black" d="M801.3,-36.07C919.51,-68.93 1163.55,-144.07 1210,-216 1223.52,-236.94 1207.39,-262.17 1190.44,-280.41"/>
<polygon fill="black" stroke="black" points="1183.22,-287.77 1187.02,-277.48 1186.72,-284.2 1190.23,-280.64 1190.23,-280.64 1190.23,-280.64 1186.72,-284.2 1193.44,-283.79 1183.22,-287.77 1183.22,-287.77"/>
</g>
<!-- pytest_cache_assert._check_assert.key_rules -->
<g id="node11" class="node">
<title>pytest_cache_assert._check_assert.key_rules</title>
<polygon fill="none" stroke="black" points="1166.5,-468 831.5,-468 831.5,-432 1166.5,-432 1166.5,-468"/>
<text text-anchor="middle" x="999" y="-446.3" font-family="Times,serif" font-size="14.00">pytest_cache_assert._check_assert.key_rules</text>
</g>
<!-- pytest_cache_assert&#45;&gt;pytest_cache_assert._check_assert.key_rules -->
<g id="edge7" class="edge">
<title>pytest_cache_assert&#45;&gt;pytest_cache_assert._check_assert.key_rules</title>
<path fill="none" stroke="black" d="M779.13,-36.08C795.17,-44.6 812.16,-56.46 823,-72 846.09,-105.1 841,-120.64 841,-161 841,-161 841,-161 841,-307 841,-364.79 900.2,-405.04 946.13,-427.57"/>
<polygon fill="black" stroke="black" points="955.41,-431.97 944.44,-431.75 950.89,-429.83 946.37,-427.68 946.37,-427.68 946.37,-427.68 950.89,-429.83 948.3,-423.62 955.41,-431.97 955.41,-431.97"/>
</g>
<!-- pytest_cache_assert._check_assert.validator -->
<g id="node13" class="node">
<title>pytest_cache_assert._check_assert.validator</title>
<polygon fill="none" stroke="black" points="1200.5,-252 869.5,-252 869.5,-216 1200.5,-216 1200.5,-252"/>
<text text-anchor="middle" x="1035" y="-230.3" font-family="Times,serif" font-size="14.00">pytest_cache_assert._check_assert.validator</text>
</g>
<!-- pytest_cache_assert&#45;&gt;pytest_cache_assert._check_assert.validator -->
<g id="edge8" class="edge">
<title>pytest_cache_assert&#45;&gt;pytest_cache_assert._check_assert.validator</title>
<path fill="none" stroke="black" d="M783.52,-36.02C805.97,-45.18 832.77,-57.57 855,-72 917.34,-112.48 979.66,-174.11 1012.09,-208.18"/>
<polygon fill="black" stroke="black" points="1019.3,-215.82 1009.17,-211.63 1015.87,-212.18 1012.44,-208.54 1012.44,-208.54 1012.44,-208.54 1015.87,-212.18 1015.71,-205.46 1019.3,-215.82 1019.3,-215.82"/>
</g>
<!-- pytest_cache_assert._check_assert -->
<g id="node2" class="node">
<title>pytest_cache_assert._check_assert</title>
<polygon fill="none" stroke="black" points="1098.5,-36 835.5,-36 835.5,0 1098.5,0 1098.5,-36"/>
<text text-anchor="middle" x="967" y="-14.3" font-family="Times,serif" font-size="14.00">pytest_cache_assert._check_assert</text>
</g>
<!-- pytest_cache_assert._check_assert.assert_config&#45;&gt;pytest_cache_assert._check_assert.cache_store -->
<g id="edge9" class="edge">
<title>pytest_cache_assert._check_assert.assert_config&#45;&gt;pytest_cache_assert._check_assert.cache_store</title>
<path fill="none" stroke="black" d="M617.43,-108.3C609.8,-116.78 600.48,-127.14 592.12,-136.42"/>
<polygon fill="black" stroke="black" points="585.39,-143.9 588.74,-133.45 588.74,-140.18 592.08,-136.46 592.08,-136.46 592.08,-136.46 588.74,-140.18 595.43,-139.47 585.39,-143.9 585.39,-143.9"/>
</g>
<!-- pytest_cache_assert._check_assert.assert_config&#45;&gt;pytest_cache_assert._check_assert.config -->
<g id="edge10" class="edge">
<title>pytest_cache_assert._check_assert.assert_config&#45;&gt;pytest_cache_assert._check_assert.config</title>
<path fill="none" stroke="black" d="M523.49,-108.03C456.67,-118.43 371.19,-131.73 302.6,-142.4"/>
<polygon fill="black" stroke="black" points="292.61,-143.95 301.8,-137.97 297.55,-143.18 302.49,-142.41 302.49,-142.41 302.49,-142.41 297.55,-143.18 303.18,-146.86 292.61,-143.95 292.61,-143.95"/>
</g>
<!-- pytest_cache_assert._check_assert.assert_config&#45;&gt;pytest_cache_assert._check_assert.constants -->
<g id="edge11" class="edge">
<title>pytest_cache_assert._check_assert.assert_config&#45;&gt;pytest_cache_assert._check_assert.constants</title>
<path fill="none" stroke="black" d="M693.19,-108.04C714.54,-116.3 737.57,-127.99 755,-144 788.1,-174.4 803,-188.06 803,-233 803,-233 803,-233 803,-379 803,-419.54 800.19,-434.48 823,-468 831.38,-480.32 843.66,-490.57 856.01,-498.68"/>
<polygon fill="black" stroke="black" points="864.52,-503.95 853.65,-502.51 860.27,-501.32 856.01,-498.68 856.01,-498.68 856.01,-498.68 860.27,-501.32 858.38,-494.86 864.52,-503.95 864.52,-503.95"/>
</g>
<!-- pytest_cache_assert._check_assert.assert_config&#45;&gt;pytest_cache_assert._check_assert.converter -->
<g id="edge12" class="edge">
<title>pytest_cache_assert._check_assert.assert_config&#45;&gt;pytest_cache_assert._check_assert.converter</title>
<path fill="none" stroke="black" d="M486.92,-108.04C442.29,-116.22 401,-127.86 386,-144 333.22,-200.8 342.29,-301.75 350.45,-349.94"/>
<polygon fill="black" stroke="black" points="352.26,-359.92 346.05,-350.89 351.37,-355 350.48,-350.08 350.48,-350.08 350.48,-350.08 351.37,-355 354.91,-349.28 352.26,-359.92 352.26,-359.92"/>
</g>
<!-- pytest_cache_assert._check_assert.assert_config&#45;&gt;pytest_cache_assert._check_assert.validator -->
<g id="edge13" class="edge">
<title>pytest_cache_assert._check_assert.assert_config&#45;&gt;pytest_cache_assert._check_assert.validator</title>
<path fill="none" stroke="black" d="M698.68,-108.08C734.03,-117.73 778.21,-130.54 817,-144 876.73,-164.73 943.85,-192.89 987.64,-211.94"/>
<polygon fill="black" stroke="black" points="996.88,-215.98 985.92,-216.1 992.3,-213.98 987.72,-211.98 987.72,-211.98 987.72,-211.98 992.3,-213.98 989.52,-207.86 996.88,-215.98 996.88,-215.98"/>
</g>
<!-- pytest_cache_assert._check_assert.caching -->
<g id="node5" class="node">
<title>pytest_cache_assert._check_assert.caching</title>
<polygon fill="none" stroke="black" points="775,-252 453,-252 453,-216 775,-216 775,-252"/>
<text text-anchor="middle" x="614" y="-230.3" font-family="Times,serif" font-size="14.00">pytest_cache_assert._check_assert.caching</text>
</g>
<!-- pytest_cache_assert._check_assert.cache_store&#45;&gt;pytest_cache_assert._check_assert.caching -->
<g id="edge14" class="edge">
<title>pytest_cache_assert._check_assert.cache_store&#45;&gt;pytest_cache_assert._check_assert.caching</title>
<path fill="none" stroke="black" d="M580.88,-180.3C585.99,-188.44 592.2,-198.31 597.84,-207.3"/>
<polygon fill="black" stroke="black" points="603.25,-215.9 594.12,-209.82 600.59,-211.66 597.93,-207.43 597.93,-207.43 597.93,-207.43 600.59,-211.66 601.74,-205.03 603.25,-215.9 603.25,-215.9"/>
</g>
<!-- pytest_cache_assert._check_assert.cache_store&#45;&gt;pytest_cache_assert._check_assert.converter -->
<g id="edge15" class="edge">
<title>pytest_cache_assert._check_assert.cache_store&#45;&gt;pytest_cache_assert._check_assert.converter</title>
<path fill="none" stroke="black" d="M498.59,-180.02C475.74,-188.09 451.57,-199.66 433,-216 392.22,-251.9 371.18,-314.16 361.97,-349.82"/>
<polygon fill="black" stroke="black" points="359.48,-359.98 357.49,-349.2 360.67,-355.12 361.86,-350.27 361.86,-350.27 361.86,-350.27 360.67,-355.12 366.23,-351.34 359.48,-359.98 359.48,-359.98"/>
</g>
<!-- pytest_cache_assert._check_assert.serializer -->
<g id="node12" class="node">
<title>pytest_cache_assert._check_assert.serializer</title>
<polygon fill="none" stroke="black" points="737,-324 403,-324 403,-288 737,-288 737,-324"/>
<text text-anchor="middle" x="570" y="-302.3" font-family="Times,serif" font-size="14.00">pytest_cache_assert._check_assert.serializer</text>
</g>
<!-- pytest_cache_assert._check_assert.cache_store&#45;&gt;pytest_cache_assert._check_assert.serializer -->
<g id="edge16" class="edge">
<title>pytest_cache_assert._check_assert.cache_store&#45;&gt;pytest_cache_assert._check_assert.serializer</title>
<path fill="none" stroke="black" d="M490.73,-180.14C472.39,-187.98 455.03,-199.39 444,-216 435.15,-229.33 435.15,-238.67 444,-252 453.13,-265.75 466.61,-275.94 481.39,-283.49"/>
<polygon fill="black" stroke="black" points="490.73,-287.86 479.77,-287.7 486.2,-285.74 481.67,-283.63 481.67,-283.63 481.67,-283.63 486.2,-285.74 483.58,-279.55 490.73,-287.86 490.73,-287.86"/>
</g>
<!-- pytest_cache_assert._check_assert.caching&#45;&gt;pytest_cache_assert._check_assert.constants -->
<g id="edge17" class="edge">
<title>pytest_cache_assert._check_assert.caching&#45;&gt;pytest_cache_assert._check_assert.constants</title>
<path fill="none" stroke="black" d="M691.25,-252.12C711.54,-260.01 731.73,-271.45 746,-288 799.72,-350.28 737.18,-404.13 789,-468 800.05,-481.61 815.41,-491.93 831.23,-499.67"/>
<polygon fill="black" stroke="black" points="840.56,-503.94 829.59,-503.87 836.01,-501.86 831.47,-499.78 831.47,-499.78 831.47,-499.78 836.01,-501.86 833.34,-495.69 840.56,-503.94 840.56,-503.94"/>
</g>
<!-- pytest_cache_assert._check_assert.caching&#45;&gt;pytest_cache_assert._check_assert.error_message -->
<g id="edge18" class="edge">
<title>pytest_cache_assert._check_assert.caching&#45;&gt;pytest_cache_assert._check_assert.error_message</title>
<path fill="none" stroke="black" d="M747.6,-252.03C829.79,-262.51 935.12,-275.94 1019.14,-286.66"/>
<polygon fill="black" stroke="black" points="1029.28,-287.95 1018.79,-291.15 1024.32,-287.32 1019.36,-286.69 1019.36,-286.69 1019.36,-286.69 1024.32,-287.32 1019.93,-282.22 1029.28,-287.95 1029.28,-287.95"/>
</g>
<!-- pytest_cache_assert._check_assert.caching&#45;&gt;pytest_cache_assert._check_assert.serializer -->
<g id="edge19" class="edge">
<title>pytest_cache_assert._check_assert.caching&#45;&gt;pytest_cache_assert._check_assert.serializer</title>
<path fill="none" stroke="black" d="M603.12,-252.3C598.01,-260.44 591.8,-270.31 586.16,-279.3"/>
<polygon fill="black" stroke="black" points="580.75,-287.9 582.26,-277.03 583.41,-283.66 586.07,-279.43 586.07,-279.43 586.07,-279.43 583.41,-283.66 589.88,-281.82 580.75,-287.9 580.75,-287.9"/>
</g>
<!-- pytest_cache_assert._check_assert.differ -->
<g id="node9" class="node">
<title>pytest_cache_assert._check_assert.differ</title>
<polygon fill="none" stroke="black" points="1279.5,-396 974.5,-396 974.5,-360 1279.5,-360 1279.5,-396"/>
<text text-anchor="middle" x="1127" y="-374.3" font-family="Times,serif" font-size="14.00">pytest_cache_assert._check_assert.differ</text>
</g>
<!-- pytest_cache_assert._check_assert.differ&#45;&gt;pytest_cache_assert._check_assert.constants -->
<g id="edge20" class="edge">
<title>pytest_cache_assert._check_assert.differ&#45;&gt;pytest_cache_assert._check_assert.constants</title>
<path fill="none" stroke="black" d="M1148.2,-396.24C1168.82,-415.07 1194.53,-445.56 1176,-468 1161.97,-484.99 1123.4,-496.6 1079.42,-504.5"/>
<polygon fill="black" stroke="black" points="1069.36,-506.23 1078.45,-500.1 1074.29,-505.38 1079.22,-504.53 1079.22,-504.53 1079.22,-504.53 1074.29,-505.38 1079.98,-508.97 1069.36,-506.23 1069.36,-506.23"/>
</g>
<!-- pytest_cache_assert._check_assert.differ&#45;&gt;pytest_cache_assert._check_assert.key_rules -->
<g id="edge21" class="edge">
<title>pytest_cache_assert._check_assert.differ&#45;&gt;pytest_cache_assert._check_assert.key_rules</title>
<path fill="none" stroke="black" d="M1095.69,-396.12C1078.8,-405.36 1057.75,-416.87 1039.62,-426.79"/>
<polygon fill="black" stroke="black" points="1030.43,-431.81 1037.05,-423.06 1034.82,-429.41 1039.21,-427.01 1039.21,-427.01 1039.21,-427.01 1034.82,-429.41 1041.37,-430.96 1030.43,-431.81 1030.43,-431.81"/>
</g>
<!-- pytest_cache_assert._check_assert.error_message&#45;&gt;pytest_cache_assert._check_assert.differ -->
<g id="edge22" class="edge">
<title>pytest_cache_assert._check_assert.error_message&#45;&gt;pytest_cache_assert._check_assert.differ</title>
<path fill="none" stroke="black" d="M1154.1,-324.3C1150,-332.27 1145.05,-341.9 1140.51,-350.74"/>
<polygon fill="black" stroke="black" points="1135.8,-359.9 1136.37,-348.94 1138.08,-355.45 1140.37,-351 1140.37,-351 1140.37,-351 1138.08,-355.45 1144.37,-353.06 1135.8,-359.9 1135.8,-359.9"/>
</g>
<!-- pytest_cache_assert._check_assert.key_rules&#45;&gt;pytest_cache_assert._check_assert.constants -->
<g id="edge23" class="edge">
<title>pytest_cache_assert._check_assert.key_rules&#45;&gt;pytest_cache_assert._check_assert.constants</title>
<path fill="none" stroke="black" d="M975.03,-468.12C962.45,-477.11 946.87,-488.24 933.25,-497.97"/>
<polygon fill="black" stroke="black" points="925.07,-503.81 930.59,-494.34 929.13,-500.9 933.2,-498 933.2,-498 933.2,-498 929.13,-500.9 935.82,-501.66 925.07,-503.81 925.07,-503.81"/>
</g>
<!-- pytest_cache_assert._check_assert.serializer&#45;&gt;pytest_cache_assert._check_assert.constants -->
<g id="edge24" class="edge">
<title>pytest_cache_assert._check_assert.serializer&#45;&gt;pytest_cache_assert._check_assert.constants</title>
<path fill="none" stroke="black" d="M585.24,-324.46C614.42,-356.91 681.47,-426.95 751,-468 773.99,-481.57 801.01,-492.45 825.73,-500.74"/>
<polygon fill="black" stroke="black" points="835.44,-503.9 824.54,-505.08 830.69,-502.35 825.93,-500.8 825.93,-500.8 825.93,-500.8 830.69,-502.35 827.33,-496.52 835.44,-503.9 835.44,-503.9"/>
</g>
<!-- pytest_cache_assert._check_assert.serializer&#45;&gt;pytest_cache_assert._check_assert.converter -->
<g id="edge25" class="edge">
<title>pytest_cache_assert._check_assert.serializer&#45;&gt;pytest_cache_assert._check_assert.converter</title>
<path fill="none" stroke="black" d="M517.92,-324.03C487.76,-333.9 449.61,-346.38 417.92,-356.75"/>
<polygon fill="black" stroke="black" points="408.31,-359.89 416.42,-352.5 413.06,-358.33 417.81,-356.78 417.81,-356.78 417.81,-356.78 413.06,-358.33 419.21,-361.06 408.31,-359.89 408.31,-359.89"/>
</g>
<!-- pytest_cache_assert._check_assert.validator&#45;&gt;pytest_cache_assert._check_assert.differ -->
<g id="edge26" class="edge">
<title>pytest_cache_assert._check_assert.validator&#45;&gt;pytest_cache_assert._check_assert.differ</title>
<path fill="none" stroke="black" d="M1002.47,-252.02C989.21,-260.82 975.3,-272.91 968,-288 961.03,-302.4 958.64,-311.02 968,-324 977.96,-337.81 991.67,-348.08 1006.9,-355.7"/>
<polygon fill="black" stroke="black" points="1016.02,-359.89 1005.06,-359.81 1011.48,-357.8 1006.94,-355.72 1006.94,-355.72 1006.94,-355.72 1011.48,-357.8 1008.81,-351.63 1016.02,-359.89 1016.02,-359.89"/>
</g>
<!-- pytest_cache_assert._check_assert.validator&#45;&gt;pytest_cache_assert._check_assert.error_message -->
<g id="edge27" class="edge">
<title>pytest_cache_assert._check_assert.validator&#45;&gt;pytest_cache_assert._check_assert.error_message</title>
<path fill="none" stroke="black" d="M1066.31,-252.12C1083.2,-261.36 1104.25,-272.87 1122.38,-282.79"/>
<polygon fill="black" stroke="black" points="1131.57,-287.81 1120.63,-286.96 1127.18,-285.41 1122.79,-283.01 1122.79,-283.01 1122.79,-283.01 1127.18,-285.41 1124.95,-279.06 1131.57,-287.81 1131.57,-287.81"/>
</g>
<!-- pytest_cache_assert._check_assert.validator&#45;&gt;pytest_cache_assert._check_assert.key_rules -->
<g id="edge28" class="edge">
<title>pytest_cache_assert._check_assert.validator&#45;&gt;pytest_cache_assert._check_assert.key_rules</title>
<path fill="none" stroke="black" d="M994.82,-252.23C980.17,-260.72 965.2,-272.52 957,-288 947.59,-305.77 961.02,-381.95 966,-396 969.35,-405.45 974.59,-415 979.92,-423.33"/>
<polygon fill="black" stroke="black" points="985.64,-431.84 976.33,-426.06 982.85,-427.69 980.06,-423.54 980.06,-423.54 980.06,-423.54 982.85,-427.69 983.79,-421.03 985.64,-431.84 985.64,-431.84"/>
</g>
<!-- pytest_cache_assert.main -->
<g id="node14" class="node">
<title>pytest_cache_assert.main</title>
<polygon fill="none" stroke="black" points="1317,-36 1117,-36 1117,0 1317,0 1317,-36"/>
<text text-anchor="middle" x="1217" y="-14.3" font-family="Times,serif" font-size="14.00">pytest_cache_assert.main</text>
</g>
<!-- pytest_cache_assert.plugin -->
<g id="node15" class="node">
<title>pytest_cache_assert.plugin</title>
<polygon fill="none" stroke="black" points="1544.5,-36 1335.5,-36 1335.5,0 1544.5,0 1544.5,-36"/>
<text text-anchor="middle" x="1440" y="-14.3" font-family="Times,serif" font-size="14.00">pytest_cache_assert.plugin</text>
</g>
</g>
</svg>
