<?xml version="1.0" encoding="UTF-8" standalone="no"?>
<!DOCTYPE svg PUBLIC "-//W3C//DTD SVG 1.1//EN"
 "http://www.w3.org/Graphics/SVG/1.1/DTD/svg11.dtd">
<!-- Generated by graphviz version 2.49.3 (20211023.0002)
 -->
<!-- Title: packages Pages: 1 -->
<svg width="973pt" height="332pt"
 viewBox="0.00 0.00 973.00 332.00" xmlns="http://www.w3.org/2000/svg" xmlns:xlink="http://www.w3.org/1999/xlink">
<g id="graph0" class="graph" transform="scale(1 1) rotate(0) translate(4 328)">
<title>packages</title>
<polygon fill="white" stroke="transparent" points="-4,4 -4,-328 969,-328 969,4 -4,4"/>
<!-- pytest_cache_assert -->
<g id="node1" class="node">
<title>pytest_cache_assert</title>
<polygon fill="none" stroke="black" points="441.5,-180 313.5,-180 313.5,-144 441.5,-144 441.5,-180"/>
<text text-anchor="middle" x="377.5" y="-158.3" font-family="Times,serif" font-size="14.00">pytest_cache_assert</text>
</g>
<!-- pytest_cache_assert._check_assert.key_rules -->
<g id="node7" class="node">
<title>pytest_cache_assert._check_assert.key_rules</title>
<polygon fill="none" stroke="black" points="597.5,-252 329.5,-252 329.5,-216 597.5,-216 597.5,-252"/>
<text text-anchor="middle" x="463.5" y="-230.3" font-family="Times,serif" font-size="14.00">pytest_cache_assert._check_assert.key_rules</text>
</g>
<!-- pytest_cache_assert&#45;&gt;pytest_cache_assert._check_assert.key_rules -->
<g id="edge1" class="edge">
<title>pytest_cache_assert&#45;&gt;pytest_cache_assert._check_assert.key_rules</title>
<path fill="none" stroke="black" d="M398.76,-180.3C409.59,-189.12 422.92,-199.97 434.66,-209.53"/>
<polygon fill="black" stroke="black" points="442.49,-215.9 431.89,-213.07 438.61,-212.74 434.73,-209.58 434.73,-209.58 434.73,-209.58 438.61,-212.74 437.57,-206.09 442.49,-215.9 442.49,-215.9"/>
</g>
<!-- pytest_cache_assert._check_assert -->
<g id="node2" class="node">
<title>pytest_cache_assert._check_assert</title>
<polygon fill="none" stroke="black" points="219.5,-108 9.5,-108 9.5,-72 219.5,-72 219.5,-108"/>
<text text-anchor="middle" x="114.5" y="-86.3" font-family="Times,serif" font-size="14.00">pytest_cache_assert._check_assert</text>
</g>
<!-- pytest_cache_assert._check_assert.caching -->
<g id="node3" class="node">
<title>pytest_cache_assert._check_assert.caching</title>
<polygon fill="none" stroke="black" points="257,-180 0,-180 0,-144 257,-144 257,-180"/>
<text text-anchor="middle" x="128.5" y="-158.3" font-family="Times,serif" font-size="14.00">pytest_cache_assert._check_assert.caching</text>
</g>
<!-- pytest_cache_assert._check_assert.constants -->
<g id="node4" class="node">
<title>pytest_cache_assert._check_assert.constants</title>
<polygon fill="none" stroke="black" points="677,-324 412,-324 412,-288 677,-288 677,-324"/>
<text text-anchor="middle" x="544.5" y="-302.3" font-family="Times,serif" font-size="14.00">pytest_cache_assert._check_assert.constants</text>
</g>
<!-- pytest_cache_assert._check_assert.caching&#45;&gt;pytest_cache_assert._check_assert.constants -->
<g id="edge2" class="edge">
<title>pytest_cache_assert._check_assert.caching&#45;&gt;pytest_cache_assert._check_assert.constants</title>
<path fill="none" stroke="black" d="M150.41,-180.23C177.35,-200.54 225.23,-233.83 271.5,-252 312.57,-268.13 359.1,-279.5 401.97,-287.45"/>
<polygon fill="black" stroke="black" points="411.91,-289.24 401.27,-291.89 406.99,-288.35 402.07,-287.46 402.07,-287.46 402.07,-287.46 406.99,-288.35 402.87,-283.04 411.91,-289.24 411.91,-289.24"/>
</g>
<!-- pytest_cache_assert._check_assert.differ -->
<g id="node5" class="node">
<title>pytest_cache_assert._check_assert.differ</title>
<polygon fill="none" stroke="black" points="741.5,-180 497.5,-180 497.5,-144 741.5,-144 741.5,-180"/>
<text text-anchor="middle" x="619.5" y="-158.3" font-family="Times,serif" font-size="14.00">pytest_cache_assert._check_assert.differ</text>
</g>
<!-- pytest_cache_assert._check_assert.differ&#45;&gt;pytest_cache_assert._check_assert.constants -->
<g id="edge3" class="edge">
<title>pytest_cache_assert._check_assert.differ&#45;&gt;pytest_cache_assert._check_assert.constants</title>
<path fill="none" stroke="black" d="M620.46,-180.19C620.75,-198.99 618.95,-229.44 606.5,-252 600.18,-263.45 590.36,-273.53 580.38,-281.74"/>
<polygon fill="black" stroke="black" points="572.41,-287.92 577.55,-278.24 576.36,-284.86 580.31,-281.8 580.31,-281.8 580.31,-281.8 576.36,-284.86 583.07,-285.35 572.41,-287.92 572.41,-287.92"/>
</g>
<!-- pytest_cache_assert._check_assert.differ&#45;&gt;pytest_cache_assert._check_assert.key_rules -->
<g id="edge4" class="edge">
<title>pytest_cache_assert._check_assert.differ&#45;&gt;pytest_cache_assert._check_assert.key_rules</title>
<path fill="none" stroke="black" d="M581.34,-180.12C560.11,-189.65 533.49,-201.59 510.93,-211.72"/>
<polygon fill="black" stroke="black" points="501.54,-215.93 508.82,-207.73 506.1,-213.88 510.66,-211.84 510.66,-211.84 510.66,-211.84 506.1,-213.88 512.5,-215.94 501.54,-215.93 501.54,-215.93"/>
</g>
<!-- pytest_cache_assert._check_assert.error_message -->
<g id="node6" class="node">
<title>pytest_cache_assert._check_assert.error_message</title>
<polygon fill="none" stroke="black" points="831,-108 536,-108 536,-72 831,-72 831,-108"/>
<text text-anchor="middle" x="683.5" y="-86.3" font-family="Times,serif" font-size="14.00">pytest_cache_assert._check_assert.error_message</text>
</g>
<!-- pytest_cache_assert._check_assert.error_message&#45;&gt;pytest_cache_assert._check_assert.constants -->
<g id="edge5" class="edge">
<title>pytest_cache_assert._check_assert.error_message&#45;&gt;pytest_cache_assert._check_assert.constants</title>
<path fill="none" stroke="black" d="M716.03,-108.02C729.29,-116.82 743.2,-128.91 750.5,-144 757.47,-158.4 758.35,-166.06 750.5,-180 720.97,-232.46 659.54,-265.44 611.41,-284.26"/>
<polygon fill="black" stroke="black" points="601.98,-287.84 609.73,-280.09 606.65,-286.07 611.33,-284.3 611.33,-284.3 611.33,-284.3 606.65,-286.07 612.92,-288.5 601.98,-287.84 601.98,-287.84"/>
</g>
<!-- pytest_cache_assert._check_assert.error_message&#45;&gt;pytest_cache_assert._check_assert.differ -->
<g id="edge6" class="edge">
<title>pytest_cache_assert._check_assert.error_message&#45;&gt;pytest_cache_assert._check_assert.differ</title>
<path fill="none" stroke="black" d="M667.68,-108.3C659.93,-116.78 650.46,-127.14 641.98,-136.42"/>
<polygon fill="black" stroke="black" points="635.14,-143.9 638.56,-133.48 638.51,-140.21 641.89,-136.52 641.89,-136.52 641.89,-136.52 638.51,-140.21 645.21,-139.55 635.14,-143.9 635.14,-143.9"/>
</g>
<!-- pytest_cache_assert._check_assert.key_rules&#45;&gt;pytest_cache_assert._check_assert.constants -->
<g id="edge7" class="edge">
<title>pytest_cache_assert._check_assert.key_rules&#45;&gt;pytest_cache_assert._check_assert.constants</title>
<path fill="none" stroke="black" d="M483.52,-252.3C493.63,-261.03 506.04,-271.76 517.02,-281.25"/>
<polygon fill="black" stroke="black" points="524.71,-287.9 514.2,-284.76 520.92,-284.63 517.14,-281.36 517.14,-281.36 517.14,-281.36 520.92,-284.63 520.08,-277.95 524.71,-287.9 524.71,-287.9"/>
</g>
<!-- pytest_cache_assert.main -->
<g id="node8" class="node">
<title>pytest_cache_assert.main</title>
<polygon fill="none" stroke="black" points="549,-36 390,-36 390,0 549,0 549,-36"/>
<text text-anchor="middle" x="469.5" y="-14.3" font-family="Times,serif" font-size="14.00">pytest_cache_assert.main</text>
</g>
<!-- pytest_cache_assert.main&#45;&gt;pytest_cache_assert._check_assert -->
<g id="edge8" class="edge">
<title>pytest_cache_assert.main&#45;&gt;pytest_cache_assert._check_assert</title>
<path fill="none" stroke="black" d="M389.83,-34.71C336.8,-45.17 266.82,-58.96 210.69,-70.03"/>
<polygon fill="black" stroke="black" points="200.73,-72 209.67,-65.65 205.64,-71.03 210.54,-70.06 210.54,-70.06 210.54,-70.06 205.64,-71.03 211.41,-74.48 200.73,-72 200.73,-72"/>
</g>
<!-- pytest_cache_assert.main&#45;&gt;pytest_cache_assert._check_assert.caching -->
<g id="edge9" class="edge">
<title>pytest_cache_assert.main&#45;&gt;pytest_cache_assert._check_assert.caching</title>
<path fill="none" stroke="black" d="M389.96,-32.03C352.6,-40.19 308.29,-52.88 271.5,-72 249.38,-83.49 249.18,-94.09 228.5,-108 211.58,-119.38 191.94,-130.25 174.58,-139.14"/>
<polygon fill="black" stroke="black" points="165.19,-143.87 172.1,-135.35 169.66,-141.62 174.12,-139.37 174.12,-139.37 174.12,-139.37 169.66,-141.62 176.15,-143.39 165.19,-143.87 165.19,-143.87"/>
</g>
<!-- pytest_cache_assert.main&#45;&gt;pytest_cache_assert._check_assert.constants -->
<g id="edge10" class="edge">
<title>pytest_cache_assert.main&#45;&gt;pytest_cache_assert._check_assert.constants</title>
<path fill="none" stroke="black" d="M429.58,-36.1C389.6,-55.66 330.41,-91.86 304.5,-144 291.75,-169.65 319.19,-250.67 320.5,-252 334.66,-266.35 372.46,-277.63 413.07,-286.02"/>
<polygon fill="black" stroke="black" points="422.88,-287.98 412.19,-290.43 417.97,-287 413.07,-286.02 413.07,-286.02 413.07,-286.02 417.97,-287 413.95,-281.61 422.88,-287.98 422.88,-287.98"/>
</g>
<!-- pytest_cache_assert.main&#45;&gt;pytest_cache_assert._check_assert.differ -->
<g id="edge11" class="edge">
<title>pytest_cache_assert.main&#45;&gt;pytest_cache_assert._check_assert.differ</title>
<path fill="none" stroke="black" d="M477.32,-36.14C486.79,-55.45 504.28,-86.9 526.5,-108 539.45,-120.3 555.79,-130.84 571.15,-139.2"/>
<polygon fill="black" stroke="black" points="580.04,-143.87 569.1,-143.21 575.62,-141.55 571.19,-139.22 571.19,-139.22 571.19,-139.22 575.62,-141.55 573.28,-135.24 580.04,-143.87 580.04,-143.87"/>
</g>
<!-- pytest_cache_assert.main&#45;&gt;pytest_cache_assert._check_assert.error_message -->
<g id="edge12" class="edge">
<title>pytest_cache_assert.main&#45;&gt;pytest_cache_assert._check_assert.error_message</title>
<path fill="none" stroke="black" d="M515.69,-36.03C544.81,-45.9 582.86,-58.38 615.39,-68.75"/>
<polygon fill="black" stroke="black" points="625.29,-71.89 614.4,-73.15 620.53,-70.38 615.76,-68.86 615.76,-68.86 615.76,-68.86 620.53,-70.38 617.12,-64.57 625.29,-71.89 625.29,-71.89"/>
</g>
<!-- pytest_cache_assert.main&#45;&gt;pytest_cache_assert._check_assert.error_message -->
<g id="edge13" class="edge">
<title>pytest_cache_assert.main&#45;&gt;pytest_cache_assert._check_assert.error_message</title>
<path fill="none" stroke="black" d="M527.46,-36.03C558.53,-45.86 596.58,-58.27 627.36,-68.61"/>
<polygon fill="black" stroke="black" points="637.09,-71.89 626.17,-72.96 632.35,-70.29 627.61,-68.69 627.61,-68.69 627.61,-68.69 632.35,-70.29 629.05,-64.43 637.09,-71.89 637.09,-71.89"/>
</g>
<!-- pytest_cache_assert.main&#45;&gt;pytest_cache_assert._check_assert.key_rules -->
<g id="edge14" class="edge">
<title>pytest_cache_assert.main&#45;&gt;pytest_cache_assert._check_assert.key_rules</title>
<path fill="none" stroke="black" d="M469.02,-36.15C467.98,-73.17 465.52,-160.82 464.27,-205.61"/>
<polygon fill="black" stroke="black" points="463.98,-215.77 459.77,-205.65 464.12,-210.77 464.26,-205.77 464.26,-205.77 464.26,-205.77 464.12,-210.77 468.76,-205.9 463.98,-215.77 463.98,-215.77"/>
</g>
<!-- pytest_cache_assert.plugin -->
<g id="node9" class="node">
<title>pytest_cache_assert.plugin</title>
<polygon fill="none" stroke="black" points="965,-252 798,-252 798,-216 965,-216 965,-252"/>
<text text-anchor="middle" x="881.5" y="-230.3" font-family="Times,serif" font-size="14.00">pytest_cache_assert.plugin</text>
</g>
<!-- pytest_cache_assert.plugin&#45;&gt;pytest_cache_assert._check_assert.constants -->
<g id="edge15" class="edge">
<title>pytest_cache_assert.plugin&#45;&gt;pytest_cache_assert._check_assert.constants</title>
<path fill="none" stroke="black" d="M799.49,-252.03C750.27,-262.26 687.53,-275.29 636.6,-285.87"/>
<polygon fill="black" stroke="black" points="626.58,-287.95 635.46,-281.51 631.48,-286.93 636.37,-285.92 636.37,-285.92 636.37,-285.92 631.48,-286.93 637.29,-290.32 626.58,-287.95 626.58,-287.95"/>
</g>
</g>
</svg>
