<?xml version="1.0" encoding="UTF-8" standalone="no"?>
<!DOCTYPE svg PUBLIC "-//W3C//DTD SVG 1.1//EN"
 "http://www.w3.org/Graphics/SVG/1.1/DTD/svg11.dtd">
<!-- Generated by graphviz version 7.1.0 (20230121.1956)
 -->
<!-- Title: packages Pages: 1 -->
<svg width="1303pt" height="548pt"
 viewBox="0.00 0.00 1302.52 548.00" xmlns="http://www.w3.org/2000/svg" xmlns:xlink="http://www.w3.org/1999/xlink">
<g id="graph0" class="graph" transform="scale(1 1) rotate(0) translate(4 544)">
<title>packages</title>
<polygon fill="white" stroke="none" points="-4,4 -4,-544 1298.52,-544 1298.52,4 -4,4"/>
<!-- pytest_cache_assert -->
<g id="node1" class="node">
<title>pytest_cache_assert</title>
<polygon fill="none" stroke="black" points="719.52,-36 595.52,-36 595.52,0 719.52,0 719.52,-36"/>
<text text-anchor="middle" x="657.52" y="-14.3" font-family="Times,serif" font-size="14.00">pytest_cache_assert</text>
</g>
<!-- pytest_cache_assert._check_assert.assert_config -->
<g id="node3" class="node">
<title>pytest_cache_assert._check_assert.assert_config</title>
<polygon fill="none" stroke="black" points="619.02,-108 340.02,-108 340.02,-72 619.02,-72 619.02,-108"/>
<text text-anchor="middle" x="479.52" y="-86.3" font-family="Times,serif" font-size="14.00">pytest_cache_assert._check_assert.assert_config</text>
</g>
<!-- pytest_cache_assert&#45;&gt;pytest_cache_assert._check_assert.assert_config -->
<g id="edge1" class="edge">
<title>pytest_cache_assert&#45;&gt;pytest_cache_assert._check_assert.assert_config</title>
<path fill="none" stroke="black" d="M613.06,-36.48C588.75,-46.04 558.48,-57.95 532.91,-68"/>
<polygon fill="black" stroke="black" points="523.71,-71.62 531.37,-63.77 528.37,-69.79 533.02,-67.96 533.02,-67.96 533.02,-67.96 528.37,-69.79 534.67,-72.15 523.71,-71.62 523.71,-71.62"/>
</g>
<!-- pytest_cache_assert._check_assert.assert_rules -->
<g id="node4" class="node">
<title>pytest_cache_assert._check_assert.assert_rules</title>
<polygon fill="none" stroke="black" points="996.02,-468 725.02,-468 725.02,-432 996.02,-432 996.02,-468"/>
<text text-anchor="middle" x="860.52" y="-446.3" font-family="Times,serif" font-size="14.00">pytest_cache_assert._check_assert.assert_rules</text>
</g>
<!-- pytest_cache_assert&#45;&gt;pytest_cache_assert._check_assert.assert_rules -->
<g id="edge2" class="edge">
<title>pytest_cache_assert&#45;&gt;pytest_cache_assert._check_assert.assert_rules</title>
<path fill="none" stroke="black" d="M719.69,-34.86C845.52,-67.41 1118.52,-140.38 1118.52,-161 1118.52,-161 1118.52,-161 1118.52,-307 1118.52,-374.75 1049.38,-410.41 982.69,-429.05"/>
<polygon fill="black" stroke="black" points="973.3,-431.57 981.8,-424.63 978.13,-430.27 982.96,-428.98 982.96,-428.98 982.96,-428.98 978.13,-430.27 984.13,-433.32 973.3,-431.57 973.3,-431.57"/>
</g>
<!-- pytest_cache_assert._check_assert.cache_store -->
<g id="node5" class="node">
<title>pytest_cache_assert._check_assert.cache_store</title>
<polygon fill="none" stroke="black" points="352.02,-180 81.02,-180 81.02,-144 352.02,-144 352.02,-180"/>
<text text-anchor="middle" x="216.52" y="-158.3" font-family="Times,serif" font-size="14.00">pytest_cache_assert._check_assert.cache_store</text>
</g>
<!-- pytest_cache_assert&#45;&gt;pytest_cache_assert._check_assert.cache_store -->
<g id="edge3" class="edge">
<title>pytest_cache_assert&#45;&gt;pytest_cache_assert._check_assert.cache_store</title>
<path fill="none" stroke="black" d="M595.28,-19.96C527.51,-23.05 417.21,-34.14 330.52,-72 295.32,-87.37 261.48,-116.15 239.95,-136.82"/>
<polygon fill="black" stroke="black" points="232.86,-143.76 236.86,-133.55 236.43,-140.27 240,-136.77 240,-136.77 240,-136.77 236.43,-140.27 243.15,-139.98 232.86,-143.76 232.86,-143.76"/>
</g>
<!-- pytest_cache_assert._check_assert.config -->
<g id="node7" class="node">
<title>pytest_cache_assert._check_assert.config</title>
<polygon fill="none" stroke="black" points="778.52,-180 536.52,-180 536.52,-144 778.52,-144 778.52,-180"/>
<text text-anchor="middle" x="657.52" y="-158.3" font-family="Times,serif" font-size="14.00">pytest_cache_assert._check_assert.config</text>
</g>
<!-- pytest_cache_assert&#45;&gt;pytest_cache_assert._check_assert.config -->
<g id="edge4" class="edge">
<title>pytest_cache_assert&#45;&gt;pytest_cache_assert._check_assert.config</title>
<path fill="none" stroke="black" d="M657.52,-36.41C657.52,-60.82 657.52,-105.42 657.52,-134.11"/>
<polygon fill="black" stroke="black" points="657.52,-143.89 653.02,-133.89 657.52,-138.89 657.52,-133.89 657.52,-133.89 657.52,-133.89 657.52,-138.89 662.02,-133.89 657.52,-143.89 657.52,-143.89"/>
</g>
<!-- pytest_cache_assert._check_assert.converter -->
<g id="node9" class="node">
<title>pytest_cache_assert._check_assert.converter</title>
<polygon fill="none" stroke="black" points="445.52,-396 187.52,-396 187.52,-360 445.52,-360 445.52,-396"/>
<text text-anchor="middle" x="316.52" y="-374.3" font-family="Times,serif" font-size="14.00">pytest_cache_assert._check_assert.converter</text>
</g>
<!-- pytest_cache_assert&#45;&gt;pytest_cache_assert._check_assert.converter -->
<g id="edge5" class="edge">
<title>pytest_cache_assert&#45;&gt;pytest_cache_assert._check_assert.converter</title>
<path fill="none" stroke="black" d="M595.3,-19.37C431.81,-22.01 2.52,-40.43 2.52,-161 2.52,-161 2.52,-161 2.52,-235 2.52,-275.45 -7.55,-295.87 21.52,-324 44.37,-346.12 112.66,-359.2 177.78,-366.83"/>
<polygon fill="black" stroke="black" points="187.36,-367.92 176.92,-371.26 182.39,-367.35 177.42,-366.79 177.42,-366.79 177.42,-366.79 182.39,-367.35 177.93,-362.32 187.36,-367.92 187.36,-367.92"/>
</g>
<!-- pytest_cache_assert._check_assert.error_message -->
<g id="node11" class="node">
<title>pytest_cache_assert._check_assert.error_message</title>
<polygon fill="none" stroke="black" points="950.02,-324 663.02,-324 663.02,-288 950.02,-288 950.02,-324"/>
<text text-anchor="middle" x="806.52" y="-302.3" font-family="Times,serif" font-size="14.00">pytest_cache_assert._check_assert.error_message</text>
</g>
<!-- pytest_cache_assert&#45;&gt;pytest_cache_assert._check_assert.error_message -->
<g id="edge6" class="edge">
<title>pytest_cache_assert&#45;&gt;pytest_cache_assert._check_assert.error_message</title>
<path fill="none" stroke="black" d="M684.74,-36.46C715.43,-57.78 764.11,-96.9 787.52,-144 808.99,-187.21 810.22,-244.75 808.69,-278.05"/>
<polygon fill="black" stroke="black" points="808.12,-287.96 804.21,-277.72 808.41,-282.97 808.7,-277.98 808.7,-277.98 808.7,-277.98 808.41,-282.97 813.19,-278.24 808.12,-287.96 808.12,-287.96"/>
</g>
<!-- pytest_cache_assert._check_assert.validator -->
<g id="node13" class="node">
<title>pytest_cache_assert._check_assert.validator</title>
<polygon fill="none" stroke="black" points="1090.02,-252 835.02,-252 835.02,-216 1090.02,-216 1090.02,-252"/>
<text text-anchor="middle" x="962.52" y="-230.3" font-family="Times,serif" font-size="14.00">pytest_cache_assert._check_assert.validator</text>
</g>
<!-- pytest_cache_assert&#45;&gt;pytest_cache_assert._check_assert.validator -->
<g id="edge7" class="edge">
<title>pytest_cache_assert&#45;&gt;pytest_cache_assert._check_assert.validator</title>
<path fill="none" stroke="black" d="M719.81,-35.58C758.33,-46.52 803.54,-60.85 820.52,-72 875.94,-108.41 922.91,-171.98 946.41,-207.37"/>
<polygon fill="black" stroke="black" points="951.87,-215.72 942.64,-209.81 949.14,-211.54 946.4,-207.35 946.4,-207.35 946.4,-207.35 949.14,-211.54 950.17,-204.89 951.87,-215.72 951.87,-215.72"/>
</g>
<!-- pytest_cache_assert._check_assert -->
<g id="node2" class="node">
<title>pytest_cache_assert._check_assert</title>
<polygon fill="none" stroke="black" points="941.02,-36 738.02,-36 738.02,0 941.02,0 941.02,-36"/>
<text text-anchor="middle" x="839.52" y="-14.3" font-family="Times,serif" font-size="14.00">pytest_cache_assert._check_assert</text>
</g>
<!-- pytest_cache_assert._check_assert.assert_config&#45;&gt;pytest_cache_assert._check_assert.cache_store -->
<g id="edge8" class="edge">
<title>pytest_cache_assert._check_assert.assert_config&#45;&gt;pytest_cache_assert._check_assert.cache_store</title>
<path fill="none" stroke="black" d="M413.83,-108.48C376.66,-118.38 330.04,-130.78 291.45,-141.06"/>
<polygon fill="black" stroke="black" points="281.82,-143.62 290.33,-136.7 286.65,-142.33 291.48,-141.05 291.48,-141.05 291.48,-141.05 286.65,-142.33 292.64,-145.39 281.82,-143.62 281.82,-143.62"/>
</g>
<!-- pytest_cache_assert._check_assert.assert_config&#45;&gt;pytest_cache_assert._check_assert.config -->
<g id="edge9" class="edge">
<title>pytest_cache_assert._check_assert.assert_config&#45;&gt;pytest_cache_assert._check_assert.config</title>
<path fill="none" stroke="black" d="M523.97,-108.48C548.28,-118.04 578.55,-129.95 604.13,-140"/>
<polygon fill="black" stroke="black" points="613.32,-143.62 602.36,-144.15 608.66,-141.79 604.01,-139.96 604.01,-139.96 604.01,-139.96 608.66,-141.79 605.66,-135.77 613.32,-143.62 613.32,-143.62"/>
</g>
<!-- pytest_cache_assert._check_assert.constants -->
<g id="node8" class="node">
<title>pytest_cache_assert._check_assert.constants</title>
<polygon fill="none" stroke="black" points="663.02,-540 406.02,-540 406.02,-504 663.02,-504 663.02,-540"/>
<text text-anchor="middle" x="534.52" y="-518.3" font-family="Times,serif" font-size="14.00">pytest_cache_assert._check_assert.constants</text>
</g>
<!-- pytest_cache_assert._check_assert.assert_config&#45;&gt;pytest_cache_assert._check_assert.constants -->
<g id="edge10" class="edge">
<title>pytest_cache_assert._check_assert.assert_config&#45;&gt;pytest_cache_assert._check_assert.constants</title>
<path fill="none" stroke="black" d="M477.03,-108.47C475.25,-128.38 475.72,-160.67 493.52,-180 539.37,-229.8 599.69,-162.77 641.52,-216 677.12,-261.3 586.76,-430.16 549.61,-495.22"/>
<polygon fill="black" stroke="black" points="544.74,-503.69 545.82,-492.77 547.23,-499.35 549.72,-495.02 549.72,-495.02 549.72,-495.02 547.23,-499.35 553.63,-497.26 544.74,-503.69 544.74,-503.69"/>
</g>
<!-- pytest_cache_assert._check_assert.assert_config&#45;&gt;pytest_cache_assert._check_assert.converter -->
<g id="edge11" class="edge">
<title>pytest_cache_assert._check_assert.assert_config&#45;&gt;pytest_cache_assert._check_assert.converter</title>
<path fill="none" stroke="black" d="M461.05,-108.44C437.83,-131.24 398.05,-173.33 373.52,-216 348.2,-260.03 331.24,-317.21 322.79,-350.24"/>
<polygon fill="black" stroke="black" points="320.44,-359.67 318.5,-348.88 321.65,-354.82 322.86,-349.97 322.86,-349.97 322.86,-349.97 321.65,-354.82 327.23,-351.06 320.44,-359.67 320.44,-359.67"/>
</g>
<!-- pytest_cache_assert._check_assert.assert_config&#45;&gt;pytest_cache_assert._check_assert.validator -->
<g id="edge12" class="edge">
<title>pytest_cache_assert._check_assert.assert_config&#45;&gt;pytest_cache_assert._check_assert.validator</title>
<path fill="none" stroke="black" d="M483.68,-108.32C489.63,-129.05 502.72,-163.08 527.52,-180 551.91,-196.64 706.72,-212.59 824.78,-222.57"/>
<polygon fill="black" stroke="black" points="834.65,-223.4 824.3,-227.05 829.66,-222.98 824.68,-222.56 824.68,-222.56 824.68,-222.56 829.66,-222.98 825.06,-218.08 834.65,-223.4 834.65,-223.4"/>
</g>
<!-- pytest_cache_assert._check_assert.assert_rules&#45;&gt;pytest_cache_assert._check_assert.constants -->
<g id="edge13" class="edge">
<title>pytest_cache_assert._check_assert.assert_rules&#45;&gt;pytest_cache_assert._check_assert.constants</title>
<path fill="none" stroke="black" d="M779.09,-468.48C732.33,-478.52 673.49,-491.16 625.25,-501.52"/>
<polygon fill="black" stroke="black" points="615.75,-503.56 624.58,-497.06 620.64,-502.51 625.52,-501.46 625.52,-501.46 625.52,-501.46 620.64,-502.51 626.47,-505.86 615.75,-503.56 615.75,-503.56"/>
</g>
<!-- pytest_cache_assert._check_assert.caching -->
<g id="node6" class="node">
<title>pytest_cache_assert._check_assert.caching</title>
<polygon fill="none" stroke="black" points="632.02,-252 383.02,-252 383.02,-216 632.02,-216 632.02,-252"/>
<text text-anchor="middle" x="507.52" y="-230.3" font-family="Times,serif" font-size="14.00">pytest_cache_assert._check_assert.caching</text>
</g>
<!-- pytest_cache_assert._check_assert.cache_store&#45;&gt;pytest_cache_assert._check_assert.caching -->
<g id="edge14" class="edge">
<title>pytest_cache_assert._check_assert.cache_store&#45;&gt;pytest_cache_assert._check_assert.caching</title>
<path fill="none" stroke="black" d="M289.2,-180.48C330.59,-190.44 382.58,-202.95 425.45,-213.26"/>
<polygon fill="black" stroke="black" points="435.01,-215.56 424.23,-217.59 430.14,-214.39 425.28,-213.22 425.28,-213.22 425.28,-213.22 430.14,-214.39 426.33,-208.84 435.01,-215.56 435.01,-215.56"/>
</g>
<!-- pytest_cache_assert._check_assert.cache_store&#45;&gt;pytest_cache_assert._check_assert.converter -->
<g id="edge15" class="edge">
<title>pytest_cache_assert._check_assert.cache_store&#45;&gt;pytest_cache_assert._check_assert.converter</title>
<path fill="none" stroke="black" d="M230.26,-180.12C248.15,-203.25 279.16,-246.39 296.52,-288 304.82,-307.92 309.95,-331.84 312.93,-349.87"/>
<polygon fill="black" stroke="black" points="314.45,-359.73 308.48,-350.53 313.69,-354.79 312.93,-349.85 312.93,-349.85 312.93,-349.85 313.69,-354.79 317.38,-349.16 314.45,-359.73 314.45,-359.73"/>
</g>
<!-- pytest_cache_assert._check_assert.serializer -->
<g id="node12" class="node">
<title>pytest_cache_assert._check_assert.serializer</title>
<polygon fill="none" stroke="black" points="288.02,-324 31.02,-324 31.02,-288 288.02,-288 288.02,-324"/>
<text text-anchor="middle" x="159.52" y="-302.3" font-family="Times,serif" font-size="14.00">pytest_cache_assert._check_assert.serializer</text>
</g>
<!-- pytest_cache_assert._check_assert.cache_store&#45;&gt;pytest_cache_assert._check_assert.serializer -->
<g id="edge16" class="edge">
<title>pytest_cache_assert._check_assert.cache_store&#45;&gt;pytest_cache_assert._check_assert.serializer</title>
<path fill="none" stroke="black" d="M209.53,-180.41C199.64,-205.03 181.51,-250.2 170.01,-278.86"/>
<polygon fill="black" stroke="black" points="166.38,-287.89 165.93,-276.93 168.25,-283.25 170.11,-278.61 170.11,-278.61 170.11,-278.61 168.25,-283.25 174.29,-280.29 166.38,-287.89 166.38,-287.89"/>
</g>
<!-- pytest_cache_assert._check_assert.caching&#45;&gt;pytest_cache_assert._check_assert.constants -->
<g id="edge17" class="edge">
<title>pytest_cache_assert._check_assert.caching&#45;&gt;pytest_cache_assert._check_assert.constants</title>
<path fill="none" stroke="black" d="M509.16,-252.46C513.71,-300.64 526.47,-435.73 531.95,-493.85"/>
<polygon fill="black" stroke="black" points="532.89,-503.77 527.47,-494.24 532.42,-498.79 531.95,-493.81 531.95,-493.81 531.95,-493.81 532.42,-498.79 536.43,-493.39 532.89,-503.77 532.89,-503.77"/>
</g>
<!-- pytest_cache_assert._check_assert.caching&#45;&gt;pytest_cache_assert._check_assert.error_message -->
<g id="edge18" class="edge">
<title>pytest_cache_assert._check_assert.caching&#45;&gt;pytest_cache_assert._check_assert.error_message</title>
<path fill="none" stroke="black" d="M582.19,-252.48C624.82,-262.46 678.37,-275 722.47,-285.32"/>
<polygon fill="black" stroke="black" points="732.01,-287.56 721.25,-289.66 727.14,-286.42 722.27,-285.28 722.27,-285.28 722.27,-285.28 727.14,-286.42 723.3,-280.9 732.01,-287.56 732.01,-287.56"/>
</g>
<!-- pytest_cache_assert._check_assert.caching&#45;&gt;pytest_cache_assert._check_assert.serializer -->
<g id="edge19" class="edge">
<title>pytest_cache_assert._check_assert.caching&#45;&gt;pytest_cache_assert._check_assert.serializer</title>
<path fill="none" stroke="black" d="M420.6,-252.48C370.47,-262.57 307.35,-275.26 255.73,-285.65"/>
<polygon fill="black" stroke="black" points="246.23,-287.56 255.15,-281.17 251.13,-286.57 256.03,-285.59 256.03,-285.59 256.03,-285.59 251.13,-286.57 256.92,-290 246.23,-287.56 246.23,-287.56"/>
</g>
<!-- pytest_cache_assert._check_assert.converter&#45;&gt;pytest_cache_assert._check_assert.constants -->
<g id="edge20" class="edge">
<title>pytest_cache_assert._check_assert.converter&#45;&gt;pytest_cache_assert._check_assert.constants</title>
<path fill="none" stroke="black" d="M343.25,-396.41C382.58,-422.03 456.08,-469.91 499.62,-498.27"/>
<polygon fill="black" stroke="black" points="507.91,-503.67 497.07,-501.98 503.72,-500.94 499.53,-498.21 499.53,-498.21 499.53,-498.21 503.72,-500.94 501.98,-494.44 507.91,-503.67 507.91,-503.67"/>
</g>
<!-- pytest_cache_assert._check_assert.differ -->
<g id="node10" class="node">
<title>pytest_cache_assert._check_assert.differ</title>
<polygon fill="none" stroke="black" points="952.02,-396 715.02,-396 715.02,-360 952.02,-360 952.02,-396"/>
<text text-anchor="middle" x="833.52" y="-374.3" font-family="Times,serif" font-size="14.00">pytest_cache_assert._check_assert.differ</text>
</g>
<!-- pytest_cache_assert._check_assert.differ&#45;&gt;pytest_cache_assert._check_assert.assert_rules -->
<g id="edge21" class="edge">
<title>pytest_cache_assert._check_assert.differ&#45;&gt;pytest_cache_assert._check_assert.assert_rules</title>
<path fill="none" stroke="black" d="M840.19,-396.3C843.26,-404.27 846.98,-413.9 850.39,-422.74"/>
<polygon fill="black" stroke="black" points="853.92,-431.9 846.12,-424.19 852.12,-427.23 850.32,-422.57 850.32,-422.57 850.32,-422.57 852.12,-427.23 854.52,-420.95 853.92,-431.9 853.92,-431.9"/>
</g>
<!-- pytest_cache_assert._check_assert.differ&#45;&gt;pytest_cache_assert._check_assert.constants -->
<g id="edge22" class="edge">
<title>pytest_cache_assert._check_assert.differ&#45;&gt;pytest_cache_assert._check_assert.constants</title>
<path fill="none" stroke="black" d="M793.43,-396.43C770.71,-406.49 741.84,-419.57 716.52,-432 685.82,-447.06 679.14,-452.79 648.52,-468 626.89,-478.74 602.67,-490.1 582.13,-499.53"/>
<polygon fill="black" stroke="black" points="573.27,-503.58 580.49,-495.33 577.82,-501.5 582.37,-499.42 582.37,-499.42 582.37,-499.42 577.82,-501.5 584.24,-503.51 573.27,-503.58 573.27,-503.58"/>
</g>
<!-- pytest_cache_assert._check_assert.error_message&#45;&gt;pytest_cache_assert._check_assert.differ -->
<g id="edge23" class="edge">
<title>pytest_cache_assert._check_assert.error_message&#45;&gt;pytest_cache_assert._check_assert.differ</title>
<path fill="none" stroke="black" d="M813.19,-324.3C816.26,-332.27 819.98,-341.9 823.39,-350.74"/>
<polygon fill="black" stroke="black" points="826.92,-359.9 819.12,-352.19 825.12,-355.23 823.32,-350.57 823.32,-350.57 823.32,-350.57 825.12,-355.23 827.52,-348.95 826.92,-359.9 826.92,-359.9"/>
</g>
<!-- pytest_cache_assert._check_assert.serializer&#45;&gt;pytest_cache_assert._check_assert.constants -->
<g id="edge24" class="edge">
<title>pytest_cache_assert._check_assert.serializer&#45;&gt;pytest_cache_assert._check_assert.constants</title>
<path fill="none" stroke="black" d="M158.49,-324.26C158.28,-343.97 160.98,-376.07 178.52,-396 233.51,-458.48 321.61,-489.73 396.41,-505.36"/>
<polygon fill="black" stroke="black" points="405.93,-507.28 395.24,-509.72 401.03,-506.3 396.13,-505.31 396.13,-505.31 396.13,-505.31 401.03,-506.3 397.02,-500.9 405.93,-507.28 405.93,-507.28"/>
</g>
<!-- pytest_cache_assert._check_assert.serializer&#45;&gt;pytest_cache_assert._check_assert.converter -->
<g id="edge25" class="edge">
<title>pytest_cache_assert._check_assert.serializer&#45;&gt;pytest_cache_assert._check_assert.converter</title>
<path fill="none" stroke="black" d="M198.73,-324.48C219.88,-333.92 246.16,-345.63 268.53,-355.61"/>
<polygon fill="black" stroke="black" points="277.53,-359.62 266.57,-359.66 272.96,-357.58 268.4,-355.55 268.4,-355.55 268.4,-355.55 272.96,-357.58 270.23,-351.44 277.53,-359.62 277.53,-359.62"/>
</g>
<!-- pytest_cache_assert._check_assert.validator&#45;&gt;pytest_cache_assert._check_assert.assert_rules -->
<g id="edge26" class="edge">
<title>pytest_cache_assert._check_assert.validator&#45;&gt;pytest_cache_assert._check_assert.assert_rules</title>
<path fill="none" stroke="black" d="M969.17,-252.37C972.72,-262.58 976.72,-275.83 978.52,-288 985.61,-336.07 991.3,-357.6 961.52,-396 951.27,-409.21 936.79,-419.47 922,-427.29"/>
<polygon fill="black" stroke="black" points="913.28,-431.62 920.23,-423.14 917.76,-429.4 922.23,-427.18 922.23,-427.18 922.23,-427.18 917.76,-429.4 924.23,-431.21 913.28,-431.62 913.28,-431.62"/>
</g>
<!-- pytest_cache_assert._check_assert.validator&#45;&gt;pytest_cache_assert._check_assert.differ -->
<g id="edge27" class="edge">
<title>pytest_cache_assert._check_assert.validator&#45;&gt;pytest_cache_assert._check_assert.differ</title>
<path fill="none" stroke="black" d="M967.06,-252.43C971.01,-271.72 974.07,-302.86 959.52,-324 950.06,-337.72 936.32,-347.91 921.34,-355.46"/>
<polygon fill="black" stroke="black" points="912.41,-359.61 919.58,-351.31 916.94,-357.5 921.48,-355.39 921.48,-355.39 921.48,-355.39 916.94,-357.5 923.37,-359.48 912.41,-359.61 912.41,-359.61"/>
</g>
<!-- pytest_cache_assert._check_assert.validator&#45;&gt;pytest_cache_assert._check_assert.error_message -->
<g id="edge28" class="edge">
<title>pytest_cache_assert._check_assert.validator&#45;&gt;pytest_cache_assert._check_assert.error_message</title>
<path fill="none" stroke="black" d="M923.55,-252.48C902.53,-261.92 876.42,-273.63 854.19,-283.61"/>
<polygon fill="black" stroke="black" points="845.25,-287.62 852.53,-279.42 849.81,-285.57 854.38,-283.52 854.38,-283.52 854.38,-283.52 849.81,-285.57 856.22,-287.63 845.25,-287.62 845.25,-287.62"/>
</g>
<!-- pytest_cache_assert.main -->
<g id="node14" class="node">
<title>pytest_cache_assert.main</title>
<polygon fill="none" stroke="black" points="1114.02,-36 959.02,-36 959.02,0 1114.02,0 1114.02,-36"/>
<text text-anchor="middle" x="1036.52" y="-14.3" font-family="Times,serif" font-size="14.00">pytest_cache_assert.main</text>
</g>
<!-- pytest_cache_assert.plugin -->
<g id="node15" class="node">
<title>pytest_cache_assert.plugin</title>
<polygon fill="none" stroke="black" points="1294.52,-36 1132.52,-36 1132.52,0 1294.52,0 1294.52,-36"/>
<text text-anchor="middle" x="1213.52" y="-14.3" font-family="Times,serif" font-size="14.00">pytest_cache_assert.plugin</text>
</g>
</g>
</svg>
