<?xml version="1.0" encoding="UTF-8" standalone="no"?>
<!DOCTYPE svg PUBLIC "-//W3C//DTD SVG 1.1//EN"
 "http://www.w3.org/Graphics/SVG/1.1/DTD/svg11.dtd">
<!-- Generated by graphviz version 2.50.0 (20211204.2007)
 -->
<!-- Title: packages Pages: 1 -->
<svg width="950pt" height="332pt"
 viewBox="0.00 0.00 949.50 332.00" xmlns="http://www.w3.org/2000/svg" xmlns:xlink="http://www.w3.org/1999/xlink">
<g id="graph0" class="graph" transform="scale(1 1) rotate(0) translate(4 328)">
<title>packages</title>
<polygon fill="white" stroke="transparent" points="-4,4 -4,-328 945.5,-328 945.5,4 -4,4"/>
<!-- pytest_cache_assert -->
<g id="node1" class="node">
<title>pytest_cache_assert</title>
<polygon fill="none" stroke="black" points="429.5,-180 305.5,-180 305.5,-144 429.5,-144 429.5,-180"/>
<text text-anchor="middle" x="367.5" y="-158.3" font-family="Times,serif" font-size="14.00">pytest_cache_assert</text>
</g>
<!-- pytest_cache_assert._check_assert.constants -->
<g id="node4" class="node">
<title>pytest_cache_assert._check_assert.constants</title>
<polygon fill="none" stroke="black" points="602,-324 345,-324 345,-288 602,-288 602,-324"/>
<text text-anchor="middle" x="473.5" y="-302.3" font-family="Times,serif" font-size="14.00">pytest_cache_assert._check_assert.constants</text>
</g>
<!-- pytest_cache_assert&#45;&gt;pytest_cache_assert._check_assert.constants -->
<g id="edge1" class="edge">
<title>pytest_cache_assert&#45;&gt;pytest_cache_assert._check_assert.constants</title>
<path fill="none" stroke="black" d="M352.11,-180.25C337.24,-199.11 319.07,-229.61 334.5,-252 344.11,-265.96 357.93,-276.24 373.17,-283.82"/>
<polygon fill="black" stroke="black" points="382.28,-287.97 371.32,-287.92 377.73,-285.9 373.18,-283.82 373.18,-283.82 373.18,-283.82 377.73,-285.9 375.05,-279.73 382.28,-287.97 382.28,-287.97"/>
</g>
<!-- pytest_cache_assert._check_assert.key_rules -->
<g id="node7" class="node">
<title>pytest_cache_assert._check_assert.key_rules</title>
<polygon fill="none" stroke="black" points="603.5,-252 343.5,-252 343.5,-216 603.5,-216 603.5,-252"/>
<text text-anchor="middle" x="473.5" y="-230.3" font-family="Times,serif" font-size="14.00">pytest_cache_assert._check_assert.key_rules</text>
</g>
<!-- pytest_cache_assert&#45;&gt;pytest_cache_assert._check_assert.key_rules -->
<g id="edge2" class="edge">
<title>pytest_cache_assert&#45;&gt;pytest_cache_assert._check_assert.key_rules</title>
<path fill="none" stroke="black" d="M393.43,-180.12C407.16,-189.19 424.21,-200.45 439.04,-210.24"/>
<polygon fill="black" stroke="black" points="447.47,-215.81 436.65,-214.05 443.3,-213.05 439.13,-210.3 439.13,-210.3 439.13,-210.3 443.3,-213.05 441.6,-206.54 447.47,-215.81 447.47,-215.81"/>
</g>
<!-- pytest_cache_assert._check_assert -->
<g id="node2" class="node">
<title>pytest_cache_assert._check_assert</title>
<polygon fill="none" stroke="black" points="211,-108 8,-108 8,-72 211,-72 211,-108"/>
<text text-anchor="middle" x="109.5" y="-86.3" font-family="Times,serif" font-size="14.00">pytest_cache_assert._check_assert</text>
</g>
<!-- pytest_cache_assert._check_assert.caching -->
<g id="node3" class="node">
<title>pytest_cache_assert._check_assert.caching</title>
<polygon fill="none" stroke="black" points="249,-180 0,-180 0,-144 249,-144 249,-180"/>
<text text-anchor="middle" x="124.5" y="-158.3" font-family="Times,serif" font-size="14.00">pytest_cache_assert._check_assert.caching</text>
</g>
<!-- pytest_cache_assert._check_assert.caching&#45;&gt;pytest_cache_assert._check_assert.constants -->
<g id="edge3" class="edge">
<title>pytest_cache_assert._check_assert.caching&#45;&gt;pytest_cache_assert._check_assert.constants</title>
<path fill="none" stroke="black" d="M146.35,-180.19C172.71,-200.14 219.06,-232.77 263.5,-252 296.72,-266.37 334.64,-277.43 369.04,-285.63"/>
<polygon fill="black" stroke="black" points="379.11,-287.98 368.35,-290.09 374.24,-286.84 369.37,-285.71 369.37,-285.71 369.37,-285.71 374.24,-286.84 370.39,-281.33 379.11,-287.98 379.11,-287.98"/>
</g>
<!-- pytest_cache_assert._check_assert.differ -->
<g id="node5" class="node">
<title>pytest_cache_assert._check_assert.differ</title>
<polygon fill="none" stroke="black" points="723,-180 486,-180 486,-144 723,-144 723,-180"/>
<text text-anchor="middle" x="604.5" y="-158.3" font-family="Times,serif" font-size="14.00">pytest_cache_assert._check_assert.differ</text>
</g>
<!-- pytest_cache_assert._check_assert.differ&#45;&gt;pytest_cache_assert._check_assert.constants -->
<g id="edge4" class="edge">
<title>pytest_cache_assert._check_assert.differ&#45;&gt;pytest_cache_assert._check_assert.constants</title>
<path fill="none" stroke="black" d="M612.06,-180.06C619.32,-199.29 627.2,-230.67 612.5,-252 602.89,-265.96 589.07,-276.24 573.83,-283.82"/>
<polygon fill="black" stroke="black" points="564.72,-287.97 571.95,-279.73 569.27,-285.9 573.82,-283.82 573.82,-283.82 573.82,-283.82 569.27,-285.9 575.68,-287.92 564.72,-287.97 564.72,-287.97"/>
</g>
<!-- pytest_cache_assert._check_assert.differ&#45;&gt;pytest_cache_assert._check_assert.key_rules -->
<g id="edge5" class="edge">
<title>pytest_cache_assert._check_assert.differ&#45;&gt;pytest_cache_assert._check_assert.key_rules</title>
<path fill="none" stroke="black" d="M572.45,-180.12C555.01,-189.45 533.23,-201.08 514.56,-211.06"/>
<polygon fill="black" stroke="black" points="505.67,-215.81 512.37,-207.13 510.08,-213.45 514.49,-211.1 514.49,-211.1 514.49,-211.1 510.08,-213.45 516.61,-215.07 505.67,-215.81 505.67,-215.81"/>
</g>
<!-- pytest_cache_assert._check_assert.error_message -->
<g id="node6" class="node">
<title>pytest_cache_assert._check_assert.error_message</title>
<polygon fill="none" stroke="black" points="811,-108 524,-108 524,-72 811,-72 811,-108"/>
<text text-anchor="middle" x="667.5" y="-86.3" font-family="Times,serif" font-size="14.00">pytest_cache_assert._check_assert.error_message</text>
</g>
<!-- pytest_cache_assert._check_assert.error_message&#45;&gt;pytest_cache_assert._check_assert.constants -->
<g id="edge6" class="edge">
<title>pytest_cache_assert._check_assert.error_message&#45;&gt;pytest_cache_assert._check_assert.constants</title>
<path fill="none" stroke="black" d="M698.27,-108.09C711.04,-116.98 724.5,-129.12 731.5,-144 738.31,-158.48 738.79,-165.76 731.5,-180 702.38,-236.85 637.63,-268.11 580.28,-285.16"/>
<polygon fill="black" stroke="black" points="570.41,-287.97 578.79,-280.9 575.22,-286.6 580.02,-285.23 580.02,-285.23 580.02,-285.23 575.22,-286.6 581.26,-289.56 570.41,-287.97 570.41,-287.97"/>
</g>
<!-- pytest_cache_assert._check_assert.error_message&#45;&gt;pytest_cache_assert._check_assert.differ -->
<g id="edge7" class="edge">
<title>pytest_cache_assert._check_assert.error_message&#45;&gt;pytest_cache_assert._check_assert.differ</title>
<path fill="none" stroke="black" d="M651.93,-108.3C644.3,-116.78 634.98,-127.14 626.62,-136.42"/>
<polygon fill="black" stroke="black" points="619.89,-143.9 623.24,-133.45 623.24,-140.18 626.58,-136.46 626.58,-136.46 626.58,-136.46 623.24,-140.18 629.93,-139.47 619.89,-143.9 619.89,-143.9"/>
</g>
<!-- pytest_cache_assert._check_assert.key_rules&#45;&gt;pytest_cache_assert._check_assert.constants -->
<g id="edge8" class="edge">
<title>pytest_cache_assert._check_assert.key_rules&#45;&gt;pytest_cache_assert._check_assert.constants</title>
<path fill="none" stroke="black" d="M473.5,-252.3C473.5,-260.02 473.5,-269.29 473.5,-277.89"/>
<polygon fill="black" stroke="black" points="473.5,-287.9 469,-277.9 473.5,-282.9 473.5,-277.9 473.5,-277.9 473.5,-277.9 473.5,-282.9 478,-277.9 473.5,-287.9 473.5,-287.9"/>
</g>
<!-- pytest_cache_assert.main -->
<g id="node8" class="node">
<title>pytest_cache_assert.main</title>
<polygon fill="none" stroke="black" points="535,-36 380,-36 380,0 535,0 535,-36"/>
<text text-anchor="middle" x="457.5" y="-14.3" font-family="Times,serif" font-size="14.00">pytest_cache_assert.main</text>
</g>
<!-- pytest_cache_assert.main&#45;&gt;pytest_cache_assert._check_assert -->
<g id="edge9" class="edge">
<title>pytest_cache_assert.main&#45;&gt;pytest_cache_assert._check_assert</title>
<path fill="none" stroke="black" d="M379.84,-34.62C327.98,-45.05 259.44,-58.84 204.36,-69.92"/>
<polygon fill="black" stroke="black" points="194.24,-71.96 203.15,-65.57 199.14,-70.97 204.04,-69.98 204.04,-69.98 204.04,-69.98 199.14,-70.97 204.93,-74.39 194.24,-71.96 194.24,-71.96"/>
</g>
<!-- pytest_cache_assert.main&#45;&gt;pytest_cache_assert._check_assert.caching -->
<g id="edge10" class="edge">
<title>pytest_cache_assert.main&#45;&gt;pytest_cache_assert._check_assert.caching</title>
<path fill="none" stroke="black" d="M379.67,-32.45C343.07,-40.7 299.65,-53.35 263.5,-72 241.04,-83.58 240.39,-93.79 219.5,-108 203.03,-119.2 184.01,-130.17 167.33,-139.2"/>
<polygon fill="black" stroke="black" points="158.34,-144 165.04,-135.32 162.75,-141.64 167.16,-139.29 167.16,-139.29 167.16,-139.29 162.75,-141.64 169.28,-143.26 158.34,-144 158.34,-144"/>
</g>
<!-- pytest_cache_assert.main&#45;&gt;pytest_cache_assert._check_assert.constants -->
<g id="edge11" class="edge">
<title>pytest_cache_assert.main&#45;&gt;pytest_cache_assert._check_assert.constants</title>
<path fill="none" stroke="black" d="M418.88,-36.18C379.84,-55.91 321.79,-92.35 296.5,-144 289.46,-158.37 293.46,-164.29 296.5,-180 303.06,-213.87 300.63,-228.09 325.5,-252 340.38,-266.31 359.38,-276.79 378.77,-284.45"/>
<polygon fill="black" stroke="black" points="388.31,-287.99 377.37,-288.73 383.62,-286.25 378.93,-284.51 378.93,-284.51 378.93,-284.51 383.62,-286.25 380.5,-280.29 388.31,-287.99 388.31,-287.99"/>
</g>
<!-- pytest_cache_assert.main&#45;&gt;pytest_cache_assert._check_assert.differ -->
<g id="edge12" class="edge">
<title>pytest_cache_assert.main&#45;&gt;pytest_cache_assert._check_assert.differ</title>
<path fill="none" stroke="black" d="M465.38,-36.08C474.9,-55.34 492.43,-86.74 514.5,-108 527.05,-120.08 542.85,-130.56 557.7,-138.94"/>
<polygon fill="black" stroke="black" points="566.78,-143.88 555.85,-143.05 562.39,-141.49 558,-139.1 558,-139.1 558,-139.1 562.39,-141.49 560.15,-135.15 566.78,-143.88 566.78,-143.88"/>
</g>
<!-- pytest_cache_assert.main&#45;&gt;pytest_cache_assert._check_assert.error_message -->
<g id="edge13" class="edge">
<title>pytest_cache_assert.main&#45;&gt;pytest_cache_assert._check_assert.error_message</title>
<path fill="none" stroke="black" d="M502.72,-36.03C531.27,-45.9 568.61,-58.38 600.55,-68.75"/>
<polygon fill="black" stroke="black" points="610.27,-71.89 599.37,-73.09 605.51,-70.35 600.76,-68.81 600.76,-68.81 600.76,-68.81 605.51,-70.35 602.14,-64.53 610.27,-71.89 610.27,-71.89"/>
</g>
<!-- pytest_cache_assert.main&#45;&gt;pytest_cache_assert._check_assert.error_message -->
<g id="edge14" class="edge">
<title>pytest_cache_assert.main&#45;&gt;pytest_cache_assert._check_assert.error_message</title>
<path fill="none" stroke="black" d="M514.49,-36.03C545,-45.86 582.34,-58.27 612.53,-68.61"/>
<polygon fill="black" stroke="black" points="622.06,-71.89 611.14,-72.89 617.34,-70.26 612.61,-68.64 612.61,-68.64 612.61,-68.64 617.34,-70.26 614.07,-64.38 622.06,-71.89 622.06,-71.89"/>
</g>
<!-- pytest_cache_assert.main&#45;&gt;pytest_cache_assert._check_assert.key_rules -->
<g id="edge15" class="edge">
<title>pytest_cache_assert.main&#45;&gt;pytest_cache_assert._check_assert.key_rules</title>
<path fill="none" stroke="black" d="M458.78,-36.15C461.55,-73.17 468.1,-160.82 471.45,-205.61"/>
<polygon fill="black" stroke="black" points="472.21,-215.77 466.98,-206.13 471.84,-210.78 471.47,-205.8 471.47,-205.8 471.47,-205.8 471.84,-210.78 475.95,-205.46 472.21,-215.77 472.21,-215.77"/>
</g>
<!-- pytest_cache_assert.plugin -->
<g id="node9" class="node">
<title>pytest_cache_assert.plugin</title>
<polygon fill="none" stroke="black" points="941.5,-252 779.5,-252 779.5,-216 941.5,-216 941.5,-252"/>
<text text-anchor="middle" x="860.5" y="-230.3" font-family="Times,serif" font-size="14.00">pytest_cache_assert.plugin</text>
</g>
<!-- pytest_cache_assert.plugin&#45;&gt;pytest_cache_assert._check_assert.constants -->
<g id="edge16" class="edge">
<title>pytest_cache_assert.plugin&#45;&gt;pytest_cache_assert._check_assert.constants</title>
<path fill="none" stroke="black" d="M779.37,-249.67C720.78,-260.27 641.15,-274.68 577.83,-286.13"/>
<polygon fill="black" stroke="black" points="567.81,-287.94 576.85,-281.73 572.73,-287.05 577.65,-286.16 577.65,-286.16 577.65,-286.16 572.73,-287.05 578.45,-290.59 567.81,-287.94 567.81,-287.94"/>
</g>
</g>
</svg>
