<?xml version="1.0" encoding="UTF-8" standalone="no"?>
<!DOCTYPE svg PUBLIC "-//W3C//DTD SVG 1.1//EN"
 "http://www.w3.org/Graphics/SVG/1.1/DTD/svg11.dtd">
<!-- Generated by graphviz version 2.43.0 (0)
 -->
<!-- Title: packages Pages: 1 -->
<svg width="1516pt" height="476pt"
 viewBox="0.00 0.00 1515.50 476.00" xmlns="http://www.w3.org/2000/svg" xmlns:xlink="http://www.w3.org/1999/xlink">
<g id="graph0" class="graph" transform="scale(1 1) rotate(0) translate(4 472)">
<title>packages</title>
<polygon fill="white" stroke="transparent" points="-4,4 -4,-472 1511.5,-472 1511.5,4 -4,4"/>
<!-- pytest_cache_assert -->
<g id="node1" class="node">
<title>pytest_cache_assert</title>
<polygon fill="none" stroke="black" points="780,-36 620,-36 620,0 780,0 780,-36"/>
<text text-anchor="middle" x="700" y="-14.3" font-family="Times,serif" font-size="14.00">pytest_cache_assert</text>
</g>
<!-- pytest_cache_assert._check_assert.assert_config -->
<g id="node3" class="node">
<title>pytest_cache_assert._check_assert.assert_config</title>
<polygon fill="none" stroke="black" points="672.5,-108 311.5,-108 311.5,-72 672.5,-72 672.5,-108"/>
<text text-anchor="middle" x="492" y="-86.3" font-family="Times,serif" font-size="14.00">pytest_cache_assert._check_assert.assert_config</text>
</g>
<!-- pytest_cache_assert&#45;&gt;pytest_cache_assert._check_assert.assert_config -->
<g id="edge1" class="edge">
<title>pytest_cache_assert&#45;&gt;pytest_cache_assert._check_assert.assert_config</title>
<path fill="none" stroke="black" d="M649.38,-36.03C620.19,-45.86 583.31,-58.27 552.58,-68.61"/>
<polygon fill="black" stroke="black" points="542.84,-71.89 550.89,-64.43 547.58,-70.29 552.32,-68.7 552.32,-68.7 552.32,-68.7 547.58,-70.29 553.76,-72.96 542.84,-71.89 542.84,-71.89"/>
</g>
<!-- pytest_cache_assert._check_assert.cache_store -->
<g id="node4" class="node">
<title>pytest_cache_assert._check_assert.cache_store</title>
<polygon fill="none" stroke="black" points="425.5,-180 74.5,-180 74.5,-144 425.5,-144 425.5,-180"/>
<text text-anchor="middle" x="250" y="-158.3" font-family="Times,serif" font-size="14.00">pytest_cache_assert._check_assert.cache_store</text>
</g>
<!-- pytest_cache_assert&#45;&gt;pytest_cache_assert._check_assert.cache_store -->
<g id="edge2" class="edge">
<title>pytest_cache_assert&#45;&gt;pytest_cache_assert._check_assert.cache_store</title>
<path fill="none" stroke="black" d="M619.87,-21.56C519.23,-26.14 353.57,-38.64 303,-72 280.94,-86.55 266.74,-113.73 258.65,-134.23"/>
<polygon fill="black" stroke="black" points="255.16,-143.68 254.4,-132.74 256.89,-138.99 258.62,-134.3 258.62,-134.3 258.62,-134.3 256.89,-138.99 262.85,-135.86 255.16,-143.68 255.16,-143.68"/>
</g>
<!-- pytest_cache_assert._check_assert.config -->
<g id="node6" class="node">
<title>pytest_cache_assert._check_assert.config</title>
<polygon fill="none" stroke="black" points="830,-180 520,-180 520,-144 830,-144 830,-180"/>
<text text-anchor="middle" x="675" y="-158.3" font-family="Times,serif" font-size="14.00">pytest_cache_assert._check_assert.config</text>
</g>
<!-- pytest_cache_assert&#45;&gt;pytest_cache_assert._check_assert.config -->
<g id="edge3" class="edge">
<title>pytest_cache_assert&#45;&gt;pytest_cache_assert._check_assert.config</title>
<path fill="none" stroke="black" d="M696.98,-36.13C692.72,-60.33 684.9,-104.79 679.82,-133.61"/>
<polygon fill="black" stroke="black" points="678.03,-143.81 675.33,-133.18 678.89,-138.89 679.76,-133.96 679.76,-133.96 679.76,-133.96 678.89,-138.89 684.19,-134.74 678.03,-143.81 678.03,-143.81"/>
</g>
<!-- pytest_cache_assert._check_assert.constants -->
<g id="node7" class="node">
<title>pytest_cache_assert._check_assert.constants</title>
<polygon fill="none" stroke="black" points="698,-468 362,-468 362,-432 698,-432 698,-468"/>
<text text-anchor="middle" x="530" y="-446.3" font-family="Times,serif" font-size="14.00">pytest_cache_assert._check_assert.constants</text>
</g>
<!-- pytest_cache_assert&#45;&gt;pytest_cache_assert._check_assert.constants -->
<g id="edge4" class="edge">
<title>pytest_cache_assert&#45;&gt;pytest_cache_assert._check_assert.constants</title>
<path fill="none" stroke="black" d="M780.44,-34.37C783.67,-34.93 786.86,-35.48 790,-36 893.64,-53.3 1246,-55.93 1246,-161 1246,-161 1246,-161 1246,-307 1246,-416.39 920.4,-442.82 708.33,-448.43"/>
<polygon fill="black" stroke="black" points="698.32,-448.68 708.21,-443.93 703.32,-448.56 708.32,-448.43 708.32,-448.43 708.32,-448.43 703.32,-448.56 708.43,-452.93 698.32,-448.68 698.32,-448.68"/>
</g>
<!-- pytest_cache_assert._check_assert.converter -->
<g id="node8" class="node">
<title>pytest_cache_assert._check_assert.converter</title>
<polygon fill="none" stroke="black" points="370,-396 34,-396 34,-360 370,-360 370,-396"/>
<text text-anchor="middle" x="202" y="-374.3" font-family="Times,serif" font-size="14.00">pytest_cache_assert._check_assert.converter</text>
</g>
<!-- pytest_cache_assert&#45;&gt;pytest_cache_assert._check_assert.converter -->
<g id="edge5" class="edge">
<title>pytest_cache_assert&#45;&gt;pytest_cache_assert._check_assert.converter</title>
<path fill="none" stroke="black" d="M619.7,-18.57C435.83,-19.75 0,-35.76 0,-161 0,-161 0,-161 0,-235 0,-281.27 18.16,-294.74 54,-324 71.42,-338.22 92.95,-348.78 114.15,-356.55"/>
<polygon fill="black" stroke="black" points="123.85,-359.94 112.92,-360.89 119.13,-358.29 114.41,-356.64 114.41,-356.64 114.41,-356.64 119.13,-358.29 115.89,-352.39 123.85,-359.94 123.85,-359.94"/>
</g>
<!-- pytest_cache_assert._check_assert.key_rules -->
<g id="node11" class="node">
<title>pytest_cache_assert._check_assert.key_rules</title>
<polygon fill="none" stroke="black" points="1086.5,-396 751.5,-396 751.5,-360 1086.5,-360 1086.5,-396"/>
<text text-anchor="middle" x="919" y="-374.3" font-family="Times,serif" font-size="14.00">pytest_cache_assert._check_assert.key_rules</text>
</g>
<!-- pytest_cache_assert&#45;&gt;pytest_cache_assert._check_assert.key_rules -->
<g id="edge6" class="edge">
<title>pytest_cache_assert&#45;&gt;pytest_cache_assert._check_assert.key_rules</title>
<path fill="none" stroke="black" d="M780.34,-34.69C899.97,-58.86 1118.45,-106.36 1189,-144 1199,-149.33 1208,-149.67 1208,-161 1208,-161 1208,-161 1208,-235 1208,-303.74 1141.32,-339.21 1072.02,-357.51"/>
<polygon fill="black" stroke="black" points="1062.23,-359.97 1070.83,-353.17 1067.08,-358.75 1071.93,-357.53 1071.93,-357.53 1071.93,-357.53 1067.08,-358.75 1073.03,-361.89 1062.23,-359.97 1062.23,-359.97"/>
</g>
<!-- pytest_cache_assert._check_assert.validator -->
<g id="node13" class="node">
<title>pytest_cache_assert._check_assert.validator</title>
<polygon fill="none" stroke="black" points="1179.5,-180 848.5,-180 848.5,-144 1179.5,-144 1179.5,-180"/>
<text text-anchor="middle" x="1014" y="-158.3" font-family="Times,serif" font-size="14.00">pytest_cache_assert._check_assert.validator</text>
</g>
<!-- pytest_cache_assert&#45;&gt;pytest_cache_assert._check_assert.validator -->
<g id="edge7" class="edge">
<title>pytest_cache_assert&#45;&gt;pytest_cache_assert._check_assert.validator</title>
<path fill="none" stroke="black" d="M737.88,-36.13C795.28,-62.09 904.23,-111.36 966.74,-139.63"/>
<polygon fill="black" stroke="black" points="975.99,-143.81 965.02,-143.79 971.43,-141.75 966.88,-139.69 966.88,-139.69 966.88,-139.69 971.43,-141.75 968.73,-135.59 975.99,-143.81 975.99,-143.81"/>
</g>
<!-- pytest_cache_assert._check_assert -->
<g id="node2" class="node">
<title>pytest_cache_assert._check_assert</title>
<polygon fill="none" stroke="black" points="1061.5,-36 798.5,-36 798.5,0 1061.5,0 1061.5,-36"/>
<text text-anchor="middle" x="930" y="-14.3" font-family="Times,serif" font-size="14.00">pytest_cache_assert._check_assert</text>
</g>
<!-- pytest_cache_assert._check_assert.assert_config&#45;&gt;pytest_cache_assert._check_assert.cache_store -->
<g id="edge8" class="edge">
<title>pytest_cache_assert._check_assert.assert_config&#45;&gt;pytest_cache_assert._check_assert.cache_store</title>
<path fill="none" stroke="black" d="M433.11,-108.03C398.71,-117.99 355.12,-130.59 319.1,-141.01"/>
<polygon fill="black" stroke="black" points="309.15,-143.89 317.51,-136.79 313.96,-142.5 318.76,-141.11 318.76,-141.11 318.76,-141.11 313.96,-142.5 320.01,-145.43 309.15,-143.89 309.15,-143.89"/>
</g>
<!-- pytest_cache_assert._check_assert.assert_config&#45;&gt;pytest_cache_assert._check_assert.config -->
<g id="edge9" class="edge">
<title>pytest_cache_assert._check_assert.assert_config&#45;&gt;pytest_cache_assert._check_assert.config</title>
<path fill="none" stroke="black" d="M536.77,-108.12C562.12,-117.82 594.01,-130.02 620.77,-140.26"/>
<polygon fill="black" stroke="black" points="630.38,-143.93 619.43,-144.56 625.71,-142.15 621.04,-140.36 621.04,-140.36 621.04,-140.36 625.71,-142.15 622.65,-136.16 630.38,-143.93 630.38,-143.93"/>
</g>
<!-- pytest_cache_assert._check_assert.assert_config&#45;&gt;pytest_cache_assert._check_assert.constants -->
<g id="edge10" class="edge">
<title>pytest_cache_assert._check_assert.assert_config&#45;&gt;pytest_cache_assert._check_assert.constants</title>
<path fill="none" stroke="black" d="M492,-108.05C492,-134.71 492,-187.89 492,-233 492,-233 492,-233 492,-307 492,-348.37 507.23,-394.28 518.41,-422.39"/>
<polygon fill="black" stroke="black" points="522.31,-431.91 514.35,-424.36 520.41,-427.28 518.52,-422.65 518.52,-422.65 518.52,-422.65 520.41,-427.28 522.68,-420.95 522.31,-431.91 522.31,-431.91"/>
</g>
<!-- pytest_cache_assert._check_assert.assert_config&#45;&gt;pytest_cache_assert._check_assert.converter -->
<g id="edge11" class="edge">
<title>pytest_cache_assert._check_assert.assert_config&#45;&gt;pytest_cache_assert._check_assert.converter</title>
<path fill="none" stroke="black" d="M487.33,-108.23C473,-160.84 430.15,-316.29 422,-324 407.17,-338.03 368.13,-349.4 326.98,-357.96"/>
<polygon fill="black" stroke="black" points="317.05,-359.97 325.96,-353.58 321.95,-358.98 326.85,-357.99 326.85,-357.99 326.85,-357.99 321.95,-358.98 327.74,-362.4 317.05,-359.97 317.05,-359.97"/>
</g>
<!-- pytest_cache_assert._check_assert.assert_config&#45;&gt;pytest_cache_assert._check_assert.validator -->
<g id="edge12" class="edge">
<title>pytest_cache_assert._check_assert.assert_config&#45;&gt;pytest_cache_assert._check_assert.validator</title>
<path fill="none" stroke="black" d="M619.03,-108.03C697.02,-118.49 796.92,-131.89 876.73,-142.59"/>
<polygon fill="black" stroke="black" points="886.86,-143.95 876.35,-147.08 881.9,-143.29 876.94,-142.62 876.94,-142.62 876.94,-142.62 881.9,-143.29 877.54,-138.16 886.86,-143.95 886.86,-143.95"/>
</g>
<!-- pytest_cache_assert._check_assert.caching -->
<g id="node5" class="node">
<title>pytest_cache_assert._check_assert.caching</title>
<polygon fill="none" stroke="black" points="388,-252 66,-252 66,-216 388,-216 388,-252"/>
<text text-anchor="middle" x="227" y="-230.3" font-family="Times,serif" font-size="14.00">pytest_cache_assert._check_assert.caching</text>
</g>
<!-- pytest_cache_assert._check_assert.cache_store&#45;&gt;pytest_cache_assert._check_assert.caching -->
<g id="edge13" class="edge">
<title>pytest_cache_assert._check_assert.cache_store&#45;&gt;pytest_cache_assert._check_assert.caching</title>
<path fill="none" stroke="black" d="M244.31,-180.3C241.75,-188.1 238.67,-197.49 235.82,-206.17"/>
<polygon fill="black" stroke="black" points="232.62,-215.9 231.47,-204.99 234.18,-211.15 235.74,-206.4 235.74,-206.4 235.74,-206.4 234.18,-211.15 240.02,-207.8 232.62,-215.9 232.62,-215.9"/>
</g>
<!-- pytest_cache_assert._check_assert.cache_store&#45;&gt;pytest_cache_assert._check_assert.converter -->
<g id="edge14" class="edge">
<title>pytest_cache_assert._check_assert.cache_store&#45;&gt;pytest_cache_assert._check_assert.converter</title>
<path fill="none" stroke="black" d="M145.38,-180.05C106.36,-188.72 68.67,-200.7 57,-216 42.14,-235.49 59.98,-311.71 70,-324 81.45,-338.05 97.19,-348.4 113.81,-356.02"/>
<polygon fill="black" stroke="black" points="123.12,-359.98 112.16,-360.21 118.52,-358.02 113.92,-356.06 113.92,-356.06 113.92,-356.06 118.52,-358.02 115.68,-351.92 123.12,-359.98 123.12,-359.98"/>
</g>
<!-- pytest_cache_assert._check_assert.serializer -->
<g id="node12" class="node">
<title>pytest_cache_assert._check_assert.serializer</title>
<polygon fill="none" stroke="black" points="413,-324 79,-324 79,-288 413,-288 413,-324"/>
<text text-anchor="middle" x="246" y="-302.3" font-family="Times,serif" font-size="14.00">pytest_cache_assert._check_assert.serializer</text>
</g>
<!-- pytest_cache_assert._check_assert.cache_store&#45;&gt;pytest_cache_assert._check_assert.serializer -->
<g id="edge15" class="edge">
<title>pytest_cache_assert._check_assert.cache_store&#45;&gt;pytest_cache_assert._check_assert.serializer</title>
<path fill="none" stroke="black" d="M349,-180.05C367.84,-187.91 385.3,-199.35 397,-216 406.2,-229.09 406.25,-238.95 397,-252 387.13,-265.93 373.3,-276.22 357.98,-283.83"/>
<polygon fill="black" stroke="black" points="348.8,-288 356.04,-279.76 353.35,-285.93 357.9,-283.86 357.9,-283.86 357.9,-283.86 353.35,-285.93 359.77,-287.95 348.8,-288 348.8,-288"/>
</g>
<!-- pytest_cache_assert._check_assert.caching&#45;&gt;pytest_cache_assert._check_assert.constants -->
<g id="edge16" class="edge">
<title>pytest_cache_assert._check_assert.caching&#45;&gt;pytest_cache_assert._check_assert.constants</title>
<path fill="none" stroke="black" d="M142.23,-252.05C117.16,-260 90.88,-271.5 70,-288 29.21,-320.25 -9.8,-357.36 25,-396 47.03,-420.46 215.31,-434.42 351.66,-441.81"/>
<polygon fill="black" stroke="black" points="361.83,-442.35 351.6,-446.31 356.84,-442.09 351.84,-441.82 351.84,-441.82 351.84,-441.82 356.84,-442.09 352.08,-437.33 361.83,-442.35 361.83,-442.35"/>
</g>
<!-- pytest_cache_assert._check_assert.caching&#45;&gt;pytest_cache_assert._check_assert.serializer -->
<g id="edge17" class="edge">
<title>pytest_cache_assert._check_assert.caching&#45;&gt;pytest_cache_assert._check_assert.serializer</title>
<path fill="none" stroke="black" d="M231.7,-252.3C233.81,-260.1 236.36,-269.49 238.72,-278.17"/>
<polygon fill="black" stroke="black" points="241.36,-287.9 234.39,-279.42 240.05,-283.07 238.74,-278.24 238.74,-278.24 238.74,-278.24 240.05,-283.07 243.08,-277.07 241.36,-287.9 241.36,-287.9"/>
</g>
<!-- pytest_cache_assert._check_assert.differ -->
<g id="node9" class="node">
<title>pytest_cache_assert._check_assert.differ</title>
<polygon fill="none" stroke="black" points="954.5,-324 649.5,-324 649.5,-288 954.5,-288 954.5,-324"/>
<text text-anchor="middle" x="802" y="-302.3" font-family="Times,serif" font-size="14.00">pytest_cache_assert._check_assert.differ</text>
</g>
<!-- pytest_cache_assert._check_assert.differ&#45;&gt;pytest_cache_assert._check_assert.constants -->
<g id="edge18" class="edge">
<title>pytest_cache_assert._check_assert.differ&#45;&gt;pytest_cache_assert._check_assert.constants</title>
<path fill="none" stroke="black" d="M769.19,-324.13C719.77,-349.93 626.25,-398.75 571.94,-427.1"/>
<polygon fill="black" stroke="black" points="562.93,-431.81 569.71,-423.19 567.36,-429.5 571.79,-427.18 571.79,-427.18 571.79,-427.18 567.36,-429.5 573.87,-431.17 562.93,-431.81 562.93,-431.81"/>
</g>
<!-- pytest_cache_assert._check_assert.differ&#45;&gt;pytest_cache_assert._check_assert.key_rules -->
<g id="edge19" class="edge">
<title>pytest_cache_assert._check_assert.differ&#45;&gt;pytest_cache_assert._check_assert.key_rules</title>
<path fill="none" stroke="black" d="M830.62,-324.12C845.92,-333.28 864.94,-344.66 881.42,-354.52"/>
<polygon fill="black" stroke="black" points="890.27,-359.81 879.38,-358.54 885.98,-357.24 881.69,-354.68 881.69,-354.68 881.69,-354.68 885.98,-357.24 884,-350.81 890.27,-359.81 890.27,-359.81"/>
</g>
<!-- pytest_cache_assert._check_assert.error_message -->
<g id="node10" class="node">
<title>pytest_cache_assert._check_assert.error_message</title>
<polygon fill="none" stroke="black" points="1063.5,-252 690.5,-252 690.5,-216 1063.5,-216 1063.5,-252"/>
<text text-anchor="middle" x="877" y="-230.3" font-family="Times,serif" font-size="14.00">pytest_cache_assert._check_assert.error_message</text>
</g>
<!-- pytest_cache_assert._check_assert.error_message&#45;&gt;pytest_cache_assert._check_assert.differ -->
<g id="edge20" class="edge">
<title>pytest_cache_assert._check_assert.error_message&#45;&gt;pytest_cache_assert._check_assert.differ</title>
<path fill="none" stroke="black" d="M858.46,-252.3C849.2,-260.95 837.84,-271.55 827.74,-280.97"/>
<polygon fill="black" stroke="black" points="820.33,-287.9 824.57,-277.78 823.98,-284.48 827.64,-281.07 827.64,-281.07 827.64,-281.07 823.98,-284.48 830.71,-284.36 820.33,-287.9 820.33,-287.9"/>
</g>
<!-- pytest_cache_assert._check_assert.key_rules&#45;&gt;pytest_cache_assert._check_assert.constants -->
<g id="edge21" class="edge">
<title>pytest_cache_assert._check_assert.key_rules&#45;&gt;pytest_cache_assert._check_assert.constants</title>
<path fill="none" stroke="black" d="M824.34,-396.03C767.04,-406.34 693.89,-419.51 634.85,-430.13"/>
<polygon fill="black" stroke="black" points="624.75,-431.95 633.79,-425.75 629.67,-431.06 634.59,-430.18 634.59,-430.18 634.59,-430.18 629.67,-431.06 635.39,-434.61 624.75,-431.95 624.75,-431.95"/>
</g>
<!-- pytest_cache_assert._check_assert.serializer&#45;&gt;pytest_cache_assert._check_assert.constants -->
<g id="edge22" class="edge">
<title>pytest_cache_assert._check_assert.serializer&#45;&gt;pytest_cache_assert._check_assert.constants</title>
<path fill="none" stroke="black" d="M293.85,-324.04C319.52,-333.67 351.44,-346.48 379,-360 420.28,-380.24 465.43,-407.59 495.5,-426.61"/>
<polygon fill="black" stroke="black" points="503.95,-431.98 493.1,-430.41 499.73,-429.3 495.51,-426.61 495.51,-426.61 495.51,-426.61 499.73,-429.3 497.93,-422.82 503.95,-431.98 503.95,-431.98"/>
</g>
<!-- pytest_cache_assert._check_assert.serializer&#45;&gt;pytest_cache_assert._check_assert.converter -->
<g id="edge23" class="edge">
<title>pytest_cache_assert._check_assert.serializer&#45;&gt;pytest_cache_assert._check_assert.converter</title>
<path fill="none" stroke="black" d="M235.12,-324.3C230.01,-332.44 223.8,-342.31 218.16,-351.3"/>
<polygon fill="black" stroke="black" points="212.75,-359.9 214.26,-349.03 215.41,-355.66 218.07,-351.43 218.07,-351.43 218.07,-351.43 215.41,-355.66 221.88,-353.82 212.75,-359.9 212.75,-359.9"/>
</g>
<!-- pytest_cache_assert._check_assert.validator&#45;&gt;pytest_cache_assert._check_assert.differ -->
<g id="edge24" class="edge">
<title>pytest_cache_assert._check_assert.validator&#45;&gt;pytest_cache_assert._check_assert.differ</title>
<path fill="none" stroke="black" d="M848.18,-179.94C771.06,-189.52 693.67,-202.32 682,-216 671.62,-228.17 673.27,-238.59 682,-252 690.96,-265.75 704.38,-275.96 719.04,-283.53"/>
<polygon fill="black" stroke="black" points="728.3,-287.91 717.34,-287.7 723.78,-285.77 719.26,-283.63 719.26,-283.63 719.26,-283.63 723.78,-285.77 721.18,-279.56 728.3,-287.91 728.3,-287.91"/>
</g>
<!-- pytest_cache_assert._check_assert.validator&#45;&gt;pytest_cache_assert._check_assert.error_message -->
<g id="edge25" class="edge">
<title>pytest_cache_assert._check_assert.validator&#45;&gt;pytest_cache_assert._check_assert.error_message</title>
<path fill="none" stroke="black" d="M980.49,-180.12C962.16,-189.49 939.26,-201.19 919.67,-211.2"/>
<polygon fill="black" stroke="black" points="910.64,-215.81 917.5,-207.25 915.1,-213.54 919.55,-211.26 919.55,-211.26 919.55,-211.26 915.1,-213.54 921.6,-215.27 910.64,-215.81 910.64,-215.81"/>
</g>
<!-- pytest_cache_assert._check_assert.validator&#45;&gt;pytest_cache_assert._check_assert.key_rules -->
<g id="edge26" class="edge">
<title>pytest_cache_assert._check_assert.validator&#45;&gt;pytest_cache_assert._check_assert.key_rules</title>
<path fill="none" stroke="black" d="M1041.8,-180.13C1053.77,-189.16 1066.5,-201.41 1073,-216 1079.52,-230.61 1079.88,-237.55 1073,-252 1050.61,-299 1000.96,-334.09 964.05,-354.93"/>
<polygon fill="black" stroke="black" points="954.96,-359.93 961.56,-351.17 959.35,-357.52 963.73,-355.11 963.73,-355.11 963.73,-355.11 959.35,-357.52 965.89,-359.05 954.96,-359.93 954.96,-359.93"/>
</g>
<!-- pytest_cache_assert.main -->
<g id="node14" class="node">
<title>pytest_cache_assert.main</title>
<polygon fill="none" stroke="black" points="1280,-36 1080,-36 1080,0 1280,0 1280,-36"/>
<text text-anchor="middle" x="1180" y="-14.3" font-family="Times,serif" font-size="14.00">pytest_cache_assert.main</text>
</g>
<!-- pytest_cache_assert.plugin -->
<g id="node15" class="node">
<title>pytest_cache_assert.plugin</title>
<polygon fill="none" stroke="black" points="1507.5,-36 1298.5,-36 1298.5,0 1507.5,0 1507.5,-36"/>
<text text-anchor="middle" x="1403" y="-14.3" font-family="Times,serif" font-size="14.00">pytest_cache_assert.plugin</text>
</g>
</g>
</svg>
