<?xml version="1.0" encoding="UTF-8" standalone="no"?>
<!DOCTYPE svg PUBLIC "-//W3C//DTD SVG 1.1//EN"
 "http://www.w3.org/Graphics/SVG/1.1/DTD/svg11.dtd">
<!-- Generated by graphviz version 2.49.3 (20211023.0002)
 -->
<!-- Title: packages Pages: 1 -->
<svg width="973pt" height="332pt"
 viewBox="0.00 0.00 973.00 332.00" xmlns="http://www.w3.org/2000/svg" xmlns:xlink="http://www.w3.org/1999/xlink">
<g id="graph0" class="graph" transform="scale(1 1) rotate(0) translate(4 328)">
<title>packages</title>
<polygon fill="white" stroke="transparent" points="-4,4 -4,-328 969,-328 969,4 -4,4"/>
<!-- pytest_cache_assert -->
<g id="node1" class="node">
<title>pytest_cache_assert</title>
<polygon fill="none" stroke="black" points="441.5,-180 313.5,-180 313.5,-144 441.5,-144 441.5,-180"/>
<text text-anchor="middle" x="377.5" y="-158.3" font-family="Times,serif" font-size="14.00">pytest_cache_assert</text>
</g>
<!-- pytest_cache_assert._check_assert.constants -->
<g id="node4" class="node">
<title>pytest_cache_assert._check_assert.constants</title>
<polygon fill="none" stroke="black" points="618,-324 353,-324 353,-288 618,-288 618,-324"/>
<text text-anchor="middle" x="485.5" y="-302.3" font-family="Times,serif" font-size="14.00">pytest_cache_assert._check_assert.constants</text>
</g>
<!-- pytest_cache_assert&#45;&gt;pytest_cache_assert._check_assert.constants -->
<g id="edge1" class="edge">
<title>pytest_cache_assert&#45;&gt;pytest_cache_assert._check_assert.constants</title>
<path fill="none" stroke="black" d="M361.45,-180.22C345.92,-199.04 326.85,-229.51 342.5,-252 352.17,-265.9 365.93,-276.16 381.14,-283.73"/>
<polygon fill="black" stroke="black" points="390.24,-287.89 379.27,-287.83 385.69,-285.81 381.14,-283.74 381.14,-283.74 381.14,-283.74 385.69,-285.81 383.01,-279.64 390.24,-287.89 390.24,-287.89"/>
</g>
<!-- pytest_cache_assert._check_assert.key_rules -->
<g id="node7" class="node">
<title>pytest_cache_assert._check_assert.key_rules</title>
<polygon fill="none" stroke="black" points="619.5,-252 351.5,-252 351.5,-216 619.5,-216 619.5,-252"/>
<text text-anchor="middle" x="485.5" y="-230.3" font-family="Times,serif" font-size="14.00">pytest_cache_assert._check_assert.key_rules</text>
</g>
<!-- pytest_cache_assert&#45;&gt;pytest_cache_assert._check_assert.key_rules -->
<g id="edge2" class="edge">
<title>pytest_cache_assert&#45;&gt;pytest_cache_assert._check_assert.key_rules</title>
<path fill="none" stroke="black" d="M403.92,-180.12C417.91,-189.19 435.28,-200.45 450.39,-210.24"/>
<polygon fill="black" stroke="black" points="458.98,-215.81 448.14,-214.15 454.78,-213.09 450.59,-210.37 450.59,-210.37 450.59,-210.37 454.78,-213.09 453.03,-206.6 458.98,-215.81 458.98,-215.81"/>
</g>
<!-- pytest_cache_assert._check_assert -->
<g id="node2" class="node">
<title>pytest_cache_assert._check_assert</title>
<polygon fill="none" stroke="black" points="219.5,-108 9.5,-108 9.5,-72 219.5,-72 219.5,-108"/>
<text text-anchor="middle" x="114.5" y="-86.3" font-family="Times,serif" font-size="14.00">pytest_cache_assert._check_assert</text>
</g>
<!-- pytest_cache_assert._check_assert.caching -->
<g id="node3" class="node">
<title>pytest_cache_assert._check_assert.caching</title>
<polygon fill="none" stroke="black" points="257,-180 0,-180 0,-144 257,-144 257,-180"/>
<text text-anchor="middle" x="128.5" y="-158.3" font-family="Times,serif" font-size="14.00">pytest_cache_assert._check_assert.caching</text>
</g>
<!-- pytest_cache_assert._check_assert.caching&#45;&gt;pytest_cache_assert._check_assert.constants -->
<g id="edge3" class="edge">
<title>pytest_cache_assert._check_assert.caching&#45;&gt;pytest_cache_assert._check_assert.constants</title>
<path fill="none" stroke="black" d="M151.05,-180.19C178.24,-200.14 225.98,-232.77 271.5,-252 305.66,-266.43 344.62,-277.53 379.85,-285.76"/>
<polygon fill="black" stroke="black" points="389.68,-288 378.93,-290.16 384.8,-286.89 379.93,-285.77 379.93,-285.77 379.93,-285.77 384.8,-286.89 380.93,-281.39 389.68,-288 389.68,-288"/>
</g>
<!-- pytest_cache_assert._check_assert.differ -->
<g id="node5" class="node">
<title>pytest_cache_assert._check_assert.differ</title>
<polygon fill="none" stroke="black" points="741.5,-180 497.5,-180 497.5,-144 741.5,-144 741.5,-180"/>
<text text-anchor="middle" x="619.5" y="-158.3" font-family="Times,serif" font-size="14.00">pytest_cache_assert._check_assert.differ</text>
</g>
<!-- pytest_cache_assert._check_assert.differ&#45;&gt;pytest_cache_assert._check_assert.constants -->
<g id="edge4" class="edge">
<title>pytest_cache_assert._check_assert.differ&#45;&gt;pytest_cache_assert._check_assert.constants</title>
<path fill="none" stroke="black" d="M627.38,-180.07C634.97,-199.32 643.31,-230.71 628.5,-252 618.83,-265.9 605.07,-276.16 589.86,-283.73"/>
<polygon fill="black" stroke="black" points="580.76,-287.89 587.99,-279.64 585.31,-285.81 589.86,-283.74 589.86,-283.74 589.86,-283.74 585.31,-285.81 591.73,-287.83 580.76,-287.89 580.76,-287.89"/>
</g>
<!-- pytest_cache_assert._check_assert.differ&#45;&gt;pytest_cache_assert._check_assert.key_rules -->
<g id="edge5" class="edge">
<title>pytest_cache_assert._check_assert.differ&#45;&gt;pytest_cache_assert._check_assert.key_rules</title>
<path fill="none" stroke="black" d="M586.72,-180.12C568.87,-189.45 546.6,-201.08 527.5,-211.06"/>
<polygon fill="black" stroke="black" points="518.41,-215.81 525.19,-207.19 522.84,-213.5 527.27,-211.18 527.27,-211.18 527.27,-211.18 522.84,-213.5 529.35,-215.17 518.41,-215.81 518.41,-215.81"/>
</g>
<!-- pytest_cache_assert._check_assert.error_message -->
<g id="node6" class="node">
<title>pytest_cache_assert._check_assert.error_message</title>
<polygon fill="none" stroke="black" points="831,-108 536,-108 536,-72 831,-72 831,-108"/>
<text text-anchor="middle" x="683.5" y="-86.3" font-family="Times,serif" font-size="14.00">pytest_cache_assert._check_assert.error_message</text>
</g>
<!-- pytest_cache_assert._check_assert.error_message&#45;&gt;pytest_cache_assert._check_assert.constants -->
<g id="edge6" class="edge">
<title>pytest_cache_assert._check_assert.error_message&#45;&gt;pytest_cache_assert._check_assert.constants</title>
<path fill="none" stroke="black" d="M716.03,-108.02C729.29,-116.82 743.2,-128.91 750.5,-144 757.47,-158.4 757.89,-165.81 750.5,-180 720.72,-237.15 655.51,-268.35 597.23,-285.29"/>
<polygon fill="black" stroke="black" points="587.57,-287.99 595.99,-280.96 592.38,-286.64 597.2,-285.3 597.2,-285.3 597.2,-285.3 592.38,-286.64 598.41,-289.63 587.57,-287.99 587.57,-287.99"/>
</g>
<!-- pytest_cache_assert._check_assert.error_message&#45;&gt;pytest_cache_assert._check_assert.differ -->
<g id="edge7" class="edge">
<title>pytest_cache_assert._check_assert.error_message&#45;&gt;pytest_cache_assert._check_assert.differ</title>
<path fill="none" stroke="black" d="M667.68,-108.3C659.93,-116.78 650.46,-127.14 641.98,-136.42"/>
<polygon fill="black" stroke="black" points="635.14,-143.9 638.56,-133.48 638.51,-140.21 641.89,-136.52 641.89,-136.52 641.89,-136.52 638.51,-140.21 645.21,-139.55 635.14,-143.9 635.14,-143.9"/>
</g>
<!-- pytest_cache_assert._check_assert.key_rules&#45;&gt;pytest_cache_assert._check_assert.constants -->
<g id="edge8" class="edge">
<title>pytest_cache_assert._check_assert.key_rules&#45;&gt;pytest_cache_assert._check_assert.constants</title>
<path fill="none" stroke="black" d="M485.5,-252.3C485.5,-260.02 485.5,-269.29 485.5,-277.89"/>
<polygon fill="black" stroke="black" points="485.5,-287.9 481,-277.9 485.5,-282.9 485.5,-277.9 485.5,-277.9 485.5,-277.9 485.5,-282.9 490,-277.9 485.5,-287.9 485.5,-287.9"/>
</g>
<!-- pytest_cache_assert.main -->
<g id="node8" class="node">
<title>pytest_cache_assert.main</title>
<polygon fill="none" stroke="black" points="549,-36 390,-36 390,0 549,0 549,-36"/>
<text text-anchor="middle" x="469.5" y="-14.3" font-family="Times,serif" font-size="14.00">pytest_cache_assert.main</text>
</g>
<!-- pytest_cache_assert.main&#45;&gt;pytest_cache_assert._check_assert -->
<g id="edge9" class="edge">
<title>pytest_cache_assert.main&#45;&gt;pytest_cache_assert._check_assert</title>
<path fill="none" stroke="black" d="M389.83,-34.71C336.8,-45.17 266.82,-58.96 210.69,-70.03"/>
<polygon fill="black" stroke="black" points="200.73,-72 209.67,-65.65 205.64,-71.03 210.54,-70.06 210.54,-70.06 210.54,-70.06 205.64,-71.03 211.41,-74.48 200.73,-72 200.73,-72"/>
</g>
<!-- pytest_cache_assert.main&#45;&gt;pytest_cache_assert._check_assert.caching -->
<g id="edge10" class="edge">
<title>pytest_cache_assert.main&#45;&gt;pytest_cache_assert._check_assert.caching</title>
<path fill="none" stroke="black" d="M389.96,-32.03C352.6,-40.19 308.29,-52.88 271.5,-72 249.38,-83.49 249.18,-94.09 228.5,-108 211.58,-119.38 191.94,-130.25 174.58,-139.14"/>
<polygon fill="black" stroke="black" points="165.19,-143.87 172.1,-135.35 169.66,-141.62 174.12,-139.37 174.12,-139.37 174.12,-139.37 169.66,-141.62 176.15,-143.39 165.19,-143.87 165.19,-143.87"/>
</g>
<!-- pytest_cache_assert.main&#45;&gt;pytest_cache_assert._check_assert.constants -->
<g id="edge11" class="edge">
<title>pytest_cache_assert.main&#45;&gt;pytest_cache_assert._check_assert.constants</title>
<path fill="none" stroke="black" d="M429.58,-36.1C389.6,-55.66 330.41,-91.86 304.5,-144 297.38,-158.33 301.46,-164.29 304.5,-180 311.06,-213.87 308.53,-228.19 333.5,-252 348.45,-266.25 367.43,-276.7 386.88,-284.34"/>
<polygon fill="black" stroke="black" points="396.45,-287.87 385.51,-288.63 391.76,-286.14 387.06,-284.41 387.06,-284.41 387.06,-284.41 391.76,-286.14 388.62,-280.19 396.45,-287.87 396.45,-287.87"/>
</g>
<!-- pytest_cache_assert.main&#45;&gt;pytest_cache_assert._check_assert.differ -->
<g id="edge12" class="edge">
<title>pytest_cache_assert.main&#45;&gt;pytest_cache_assert._check_assert.differ</title>
<path fill="none" stroke="black" d="M477.32,-36.14C486.79,-55.45 504.28,-86.9 526.5,-108 539.45,-120.3 555.79,-130.84 571.15,-139.2"/>
<polygon fill="black" stroke="black" points="580.04,-143.87 569.1,-143.21 575.62,-141.55 571.19,-139.22 571.19,-139.22 571.19,-139.22 575.62,-141.55 573.28,-135.24 580.04,-143.87 580.04,-143.87"/>
</g>
<!-- pytest_cache_assert.main&#45;&gt;pytest_cache_assert._check_assert.error_message -->
<g id="edge13" class="edge">
<title>pytest_cache_assert.main&#45;&gt;pytest_cache_assert._check_assert.error_message</title>
<path fill="none" stroke="black" d="M515.69,-36.03C544.81,-45.9 582.86,-58.38 615.39,-68.75"/>
<polygon fill="black" stroke="black" points="625.29,-71.89 614.4,-73.15 620.53,-70.38 615.76,-68.86 615.76,-68.86 615.76,-68.86 620.53,-70.38 617.12,-64.57 625.29,-71.89 625.29,-71.89"/>
</g>
<!-- pytest_cache_assert.main&#45;&gt;pytest_cache_assert._check_assert.error_message -->
<g id="edge14" class="edge">
<title>pytest_cache_assert.main&#45;&gt;pytest_cache_assert._check_assert.error_message</title>
<path fill="none" stroke="black" d="M527.46,-36.03C558.53,-45.86 596.58,-58.27 627.36,-68.61"/>
<polygon fill="black" stroke="black" points="637.09,-71.89 626.17,-72.96 632.35,-70.29 627.61,-68.69 627.61,-68.69 627.61,-68.69 632.35,-70.29 629.05,-64.43 637.09,-71.89 637.09,-71.89"/>
</g>
<!-- pytest_cache_assert.main&#45;&gt;pytest_cache_assert._check_assert.key_rules -->
<g id="edge15" class="edge">
<title>pytest_cache_assert.main&#45;&gt;pytest_cache_assert._check_assert.key_rules</title>
<path fill="none" stroke="black" d="M470.78,-36.15C473.55,-73.17 480.1,-160.82 483.45,-205.61"/>
<polygon fill="black" stroke="black" points="484.21,-215.77 478.98,-206.13 483.84,-210.78 483.47,-205.8 483.47,-205.8 483.47,-205.8 483.84,-210.78 487.95,-205.46 484.21,-215.77 484.21,-215.77"/>
</g>
<!-- pytest_cache_assert.plugin -->
<g id="node9" class="node">
<title>pytest_cache_assert.plugin</title>
<polygon fill="none" stroke="black" points="965,-252 798,-252 798,-216 965,-216 965,-252"/>
<text text-anchor="middle" x="881.5" y="-230.3" font-family="Times,serif" font-size="14.00">pytest_cache_assert.plugin</text>
</g>
<!-- pytest_cache_assert.plugin&#45;&gt;pytest_cache_assert._check_assert.constants -->
<g id="edge16" class="edge">
<title>pytest_cache_assert.plugin&#45;&gt;pytest_cache_assert._check_assert.constants</title>
<path fill="none" stroke="black" d="M797.52,-249.85C737.61,-260.44 656.57,-274.76 592.1,-286.16"/>
<polygon fill="black" stroke="black" points="581.9,-287.96 590.96,-281.79 586.82,-287.09 591.75,-286.22 591.75,-286.22 591.75,-286.22 586.82,-287.09 592.53,-290.65 581.9,-287.96 581.9,-287.96"/>
</g>
</g>
</svg>
