<?xml version="1.0" encoding="UTF-8" standalone="no"?>
<!DOCTYPE svg PUBLIC "-//W3C//DTD SVG 1.1//EN"
 "http://www.w3.org/Graphics/SVG/1.1/DTD/svg11.dtd">
<!-- Generated by graphviz version 2.43.0 (0)
 -->
<!-- Title: packages Pages: 1 -->
<svg width="1436pt" height="332pt"
 viewBox="0.00 0.00 1435.53 332.00" xmlns="http://www.w3.org/2000/svg" xmlns:xlink="http://www.w3.org/1999/xlink">
<g id="graph0" class="graph" transform="scale(1 1) rotate(0) translate(4 328)">
<title>packages</title>
<polygon fill="white" stroke="transparent" points="-4,4 -4,-328 1431.53,-328 1431.53,4 -4,4"/>
<!-- pytest_cache_assert -->
<g id="node1" class="node">
<title>pytest_cache_assert</title>
<polygon fill="none" stroke="black" points="1108.03,-180 948.03,-180 948.03,-144 1108.03,-144 1108.03,-180"/>
<text text-anchor="middle" x="1028.03" y="-158.3" font-family="Times,serif" font-size="14.00">pytest_cache_assert</text>
</g>
<!-- pytest_cache_assert._check_assert.constants -->
<g id="node4" class="node">
<title>pytest_cache_assert._check_assert.constants</title>
<polygon fill="none" stroke="black" points="850.03,-324 514.03,-324 514.03,-288 850.03,-288 850.03,-324"/>
<text text-anchor="middle" x="682.03" y="-302.3" font-family="Times,serif" font-size="14.00">pytest_cache_assert._check_assert.constants</text>
</g>
<!-- pytest_cache_assert&#45;&gt;pytest_cache_assert._check_assert.constants -->
<g id="edge1" class="edge">
<title>pytest_cache_assert&#45;&gt;pytest_cache_assert._check_assert.constants</title>
<path fill="none" stroke="black" d="M1041.71,-180.06C1055.62,-199.59 1072.81,-231.51 1055.03,-252 1028.89,-282.11 943.05,-295.56 860.3,-301.39"/>
<polygon fill="black" stroke="black" points="850.23,-302.07 859.9,-296.91 855.22,-301.73 860.2,-301.4 860.2,-301.4 860.2,-301.4 855.22,-301.73 860.51,-305.89 850.23,-302.07 850.23,-302.07"/>
</g>
<!-- pytest_cache_assert._check_assert.key_rules -->
<g id="node7" class="node">
<title>pytest_cache_assert._check_assert.key_rules</title>
<polygon fill="none" stroke="black" points="1045.53,-252 710.53,-252 710.53,-216 1045.53,-216 1045.53,-252"/>
<text text-anchor="middle" x="878.03" y="-230.3" font-family="Times,serif" font-size="14.00">pytest_cache_assert._check_assert.key_rules</text>
</g>
<!-- pytest_cache_assert&#45;&gt;pytest_cache_assert._check_assert.key_rules -->
<g id="edge2" class="edge">
<title>pytest_cache_assert&#45;&gt;pytest_cache_assert._check_assert.key_rules</title>
<path fill="none" stroke="black" d="M991.33,-180.12C971.01,-189.61 945.56,-201.49 923.92,-211.58"/>
<polygon fill="black" stroke="black" points="914.6,-215.93 921.76,-207.62 919.13,-213.82 923.66,-211.7 923.66,-211.7 923.66,-211.7 919.13,-213.82 925.57,-215.78 914.6,-215.93 914.6,-215.93"/>
</g>
<!-- pytest_cache_assert._check_assert -->
<g id="node2" class="node">
<title>pytest_cache_assert._check_assert</title>
<polygon fill="none" stroke="black" points="1427.53,-108 1164.53,-108 1164.53,-72 1427.53,-72 1427.53,-108"/>
<text text-anchor="middle" x="1296.03" y="-86.3" font-family="Times,serif" font-size="14.00">pytest_cache_assert._check_assert</text>
</g>
<!-- pytest_cache_assert._check_assert.caching -->
<g id="node3" class="node">
<title>pytest_cache_assert._check_assert.caching</title>
<polygon fill="none" stroke="black" points="341.03,-180 19.03,-180 19.03,-144 341.03,-144 341.03,-180"/>
<text text-anchor="middle" x="180.03" y="-158.3" font-family="Times,serif" font-size="14.00">pytest_cache_assert._check_assert.caching</text>
</g>
<!-- pytest_cache_assert._check_assert.caching&#45;&gt;pytest_cache_assert._check_assert.constants -->
<g id="edge3" class="edge">
<title>pytest_cache_assert._check_assert.caching&#45;&gt;pytest_cache_assert._check_assert.constants</title>
<path fill="none" stroke="black" d="M196.8,-180.01C218.37,-200.76 257.98,-235.14 299.03,-252 362.96,-278.27 437.42,-291.98 503.6,-298.98"/>
<polygon fill="black" stroke="black" points="513.72,-300.01 503.32,-303.48 508.75,-299.51 503.77,-299 503.77,-299 503.77,-299 508.75,-299.51 504.23,-294.52 513.72,-300.01 513.72,-300.01"/>
</g>
<!-- pytest_cache_assert._check_assert.serializer -->
<g id="node8" class="node">
<title>pytest_cache_assert._check_assert.serializer</title>
<polygon fill="none" stroke="black" points="654.03,-252 320.03,-252 320.03,-216 654.03,-216 654.03,-252"/>
<text text-anchor="middle" x="487.03" y="-230.3" font-family="Times,serif" font-size="14.00">pytest_cache_assert._check_assert.serializer</text>
</g>
<!-- pytest_cache_assert._check_assert.caching&#45;&gt;pytest_cache_assert._check_assert.serializer -->
<g id="edge4" class="edge">
<title>pytest_cache_assert._check_assert.caching&#45;&gt;pytest_cache_assert._check_assert.serializer</title>
<path fill="none" stroke="black" d="M254.74,-180.03C299.3,-190.2 356.02,-203.13 402.25,-213.67"/>
<polygon fill="black" stroke="black" points="412.25,-215.95 401.5,-218.11 407.38,-214.84 402.5,-213.73 402.5,-213.73 402.5,-213.73 407.38,-214.84 403.5,-209.34 412.25,-215.95 412.25,-215.95"/>
</g>
<!-- pytest_cache_assert._check_assert.differ -->
<g id="node5" class="node">
<title>pytest_cache_assert._check_assert.differ</title>
<polygon fill="none" stroke="black" points="891.53,-180 586.53,-180 586.53,-144 891.53,-144 891.53,-180"/>
<text text-anchor="middle" x="739.03" y="-158.3" font-family="Times,serif" font-size="14.00">pytest_cache_assert._check_assert.differ</text>
</g>
<!-- pytest_cache_assert._check_assert.differ&#45;&gt;pytest_cache_assert._check_assert.constants -->
<g id="edge5" class="edge">
<title>pytest_cache_assert._check_assert.differ&#45;&gt;pytest_cache_assert._check_assert.constants</title>
<path fill="none" stroke="black" d="M724.51,-180.11C716.78,-190.02 707.73,-203.06 702.03,-216 693.31,-235.77 688.2,-259.75 685.33,-277.84"/>
<polygon fill="black" stroke="black" points="683.86,-287.99 680.84,-277.44 684.58,-283.04 685.3,-278.09 685.3,-278.09 685.3,-278.09 684.58,-283.04 689.75,-278.74 683.86,-287.99 683.86,-287.99"/>
</g>
<!-- pytest_cache_assert._check_assert.differ&#45;&gt;pytest_cache_assert._check_assert.key_rules -->
<g id="edge6" class="edge">
<title>pytest_cache_assert._check_assert.differ&#45;&gt;pytest_cache_assert._check_assert.key_rules</title>
<path fill="none" stroke="black" d="M773.03,-180.12C791.63,-189.49 814.85,-201.19 834.73,-211.2"/>
<polygon fill="black" stroke="black" points="843.89,-215.81 832.94,-215.33 839.43,-213.56 834.96,-211.31 834.96,-211.31 834.96,-211.31 839.43,-213.56 836.99,-207.29 843.89,-215.81 843.89,-215.81"/>
</g>
<!-- pytest_cache_assert._check_assert.differ&#45;&gt;pytest_cache_assert._check_assert.serializer -->
<g id="edge7" class="edge">
<title>pytest_cache_assert._check_assert.differ&#45;&gt;pytest_cache_assert._check_assert.serializer</title>
<path fill="none" stroke="black" d="M677.7,-180.03C641.73,-190.03 596.1,-202.7 558.5,-213.15"/>
<polygon fill="black" stroke="black" points="548.63,-215.89 557.06,-208.88 553.44,-214.55 558.26,-213.21 558.26,-213.21 558.26,-213.21 553.44,-214.55 559.47,-217.55 548.63,-215.89 548.63,-215.89"/>
</g>
<!-- pytest_cache_assert._check_assert.error_message -->
<g id="node6" class="node">
<title>pytest_cache_assert._check_assert.error_message</title>
<polygon fill="none" stroke="black" points="853.53,-108 480.53,-108 480.53,-72 853.53,-72 853.53,-108"/>
<text text-anchor="middle" x="667.03" y="-86.3" font-family="Times,serif" font-size="14.00">pytest_cache_assert._check_assert.error_message</text>
</g>
<!-- pytest_cache_assert._check_assert.error_message&#45;&gt;pytest_cache_assert._check_assert.constants -->
<g id="edge8" class="edge">
<title>pytest_cache_assert._check_assert.error_message&#45;&gt;pytest_cache_assert._check_assert.constants</title>
<path fill="none" stroke="black" d="M480.32,-93.38C297.38,-97.7 41.53,-109.86 10.03,-144 -61.38,-221.4 281.16,-268.35 503.49,-290.22"/>
<polygon fill="black" stroke="black" points="513.66,-291.21 503.27,-294.72 508.68,-290.73 503.71,-290.24 503.71,-290.24 503.71,-290.24 508.68,-290.73 504.14,-285.77 513.66,-291.21 513.66,-291.21"/>
</g>
<!-- pytest_cache_assert._check_assert.error_message&#45;&gt;pytest_cache_assert._check_assert.differ -->
<g id="edge9" class="edge">
<title>pytest_cache_assert._check_assert.error_message&#45;&gt;pytest_cache_assert._check_assert.differ</title>
<path fill="none" stroke="black" d="M684.82,-108.3C693.63,-116.86 704.41,-127.34 714.03,-136.7"/>
<polygon fill="black" stroke="black" points="721.43,-143.9 711.13,-140.15 717.85,-140.41 714.26,-136.92 714.26,-136.92 714.26,-136.92 717.85,-140.41 717.4,-133.7 721.43,-143.9 721.43,-143.9"/>
</g>
<!-- pytest_cache_assert._check_assert.key_rules&#45;&gt;pytest_cache_assert._check_assert.constants -->
<g id="edge10" class="edge">
<title>pytest_cache_assert._check_assert.key_rules&#45;&gt;pytest_cache_assert._check_assert.constants</title>
<path fill="none" stroke="black" d="M830.33,-252.03C802.95,-261.81 768.37,-274.16 739.49,-284.48"/>
<polygon fill="black" stroke="black" points="729.94,-287.89 737.84,-280.29 734.65,-286.21 739.35,-284.53 739.35,-284.53 739.35,-284.53 734.65,-286.21 740.87,-288.76 729.94,-287.89 729.94,-287.89"/>
</g>
<!-- pytest_cache_assert.main -->
<g id="node9" class="node">
<title>pytest_cache_assert.main</title>
<polygon fill="none" stroke="black" points="982.03,-36 782.03,-36 782.03,0 982.03,0 982.03,-36"/>
<text text-anchor="middle" x="882.03" y="-14.3" font-family="Times,serif" font-size="14.00">pytest_cache_assert.main</text>
</g>
<!-- pytest_cache_assert.main&#45;&gt;pytest_cache_assert._check_assert -->
<g id="edge11" class="edge">
<title>pytest_cache_assert.main&#45;&gt;pytest_cache_assert._check_assert</title>
<path fill="none" stroke="black" d="M982.24,-35.95C1043.58,-46.32 1122.13,-59.6 1185.3,-70.28"/>
<polygon fill="black" stroke="black" points="1195.3,-71.97 1184.69,-74.74 1190.37,-71.13 1185.44,-70.3 1185.44,-70.3 1185.44,-70.3 1190.37,-71.13 1186.19,-65.86 1195.3,-71.97 1195.3,-71.97"/>
</g>
<!-- pytest_cache_assert.main&#45;&gt;pytest_cache_assert._check_assert.caching -->
<g id="edge12" class="edge">
<title>pytest_cache_assert.main&#45;&gt;pytest_cache_assert._check_assert.caching</title>
<path fill="none" stroke="black" d="M781.98,-27.15C698.26,-35.1 575.99,-49.35 471.03,-72 388.16,-89.88 294.84,-120.31 236.73,-140.54"/>
<polygon fill="black" stroke="black" points="227.01,-143.94 234.96,-136.39 231.73,-142.29 236.45,-140.64 236.45,-140.64 236.45,-140.64 231.73,-142.29 237.94,-144.89 227.01,-143.94 227.01,-143.94"/>
</g>
<!-- pytest_cache_assert.main&#45;&gt;pytest_cache_assert._check_assert.constants -->
<g id="edge13" class="edge">
<title>pytest_cache_assert.main&#45;&gt;pytest_cache_assert._check_assert.constants</title>
<path fill="none" stroke="black" d="M959.23,-36.03C1036.03,-57.62 1139.45,-101.8 1117.03,-180 1106.62,-216.27 1103.72,-231.52 1072.03,-252 1036.8,-274.76 945.67,-287.88 860.36,-295.37"/>
<polygon fill="black" stroke="black" points="850.25,-296.24 859.84,-290.9 855.24,-295.81 860.22,-295.38 860.22,-295.38 860.22,-295.38 855.24,-295.81 860.6,-299.87 850.25,-296.24 850.25,-296.24"/>
</g>
<!-- pytest_cache_assert.main&#45;&gt;pytest_cache_assert._check_assert.differ -->
<g id="edge14" class="edge">
<title>pytest_cache_assert.main&#45;&gt;pytest_cache_assert._check_assert.differ</title>
<path fill="none" stroke="black" d="M882.81,-36.05C882.81,-55.58 879.89,-87.51 863.03,-108 851.54,-121.96 835.71,-132.31 819.19,-139.98"/>
<polygon fill="black" stroke="black" points="809.97,-143.96 817.36,-135.86 814.56,-141.98 819.15,-140 819.15,-140 819.15,-140 814.56,-141.98 820.93,-144.13 809.97,-143.96 809.97,-143.96"/>
</g>
<!-- pytest_cache_assert.main&#45;&gt;pytest_cache_assert._check_assert.error_message -->
<g id="edge15" class="edge">
<title>pytest_cache_assert.main&#45;&gt;pytest_cache_assert._check_assert.error_message</title>
<path fill="none" stroke="black" d="M823.82,-36.03C792.61,-45.86 754.38,-58.27 723.45,-68.61"/>
<polygon fill="black" stroke="black" points="713.69,-71.89 721.73,-64.44 718.43,-70.3 723.17,-68.71 723.17,-68.71 723.17,-68.71 718.43,-70.3 724.6,-72.97 713.69,-71.89 713.69,-71.89"/>
</g>
<!-- pytest_cache_assert.main&#45;&gt;pytest_cache_assert._check_assert.error_message -->
<g id="edge16" class="edge">
<title>pytest_cache_assert.main&#45;&gt;pytest_cache_assert._check_assert.error_message</title>
<path fill="none" stroke="black" d="M835.59,-36.03C806.33,-45.9 768.11,-58.38 735.43,-68.75"/>
<polygon fill="black" stroke="black" points="725.48,-71.89 733.66,-64.58 730.24,-70.38 735.01,-68.88 735.01,-68.88 735.01,-68.88 730.24,-70.38 736.37,-73.17 725.48,-71.89 725.48,-71.89"/>
</g>
<!-- pytest_cache_assert.main&#45;&gt;pytest_cache_assert._check_assert.key_rules -->
<g id="edge17" class="edge">
<title>pytest_cache_assert.main&#45;&gt;pytest_cache_assert._check_assert.key_rules</title>
<path fill="none" stroke="black" d="M887.61,-36.08C896.49,-65.65 911.78,-128.19 901.03,-180 899.15,-189.04 895.65,-198.42 891.94,-206.74"/>
<polygon fill="black" stroke="black" points="887.57,-215.93 887.8,-204.96 889.72,-211.41 891.87,-206.9 891.87,-206.9 891.87,-206.9 889.72,-211.41 895.93,-208.83 887.57,-215.93 887.57,-215.93"/>
</g>
<!-- pytest_cache_assert.plugin -->
<g id="node10" class="node">
<title>pytest_cache_assert.plugin</title>
<polygon fill="none" stroke="black" points="568.53,-180 359.53,-180 359.53,-144 568.53,-144 568.53,-180"/>
<text text-anchor="middle" x="464.03" y="-158.3" font-family="Times,serif" font-size="14.00">pytest_cache_assert.plugin</text>
</g>
<!-- pytest_cache_assert.plugin&#45;&gt;pytest_cache_assert._check_assert.constants -->
<g id="edge18" class="edge">
<title>pytest_cache_assert.plugin&#45;&gt;pytest_cache_assert._check_assert.constants</title>
<path fill="none" stroke="black" d="M385.15,-180C334.07,-194.59 282.03,-218.57 311.03,-252 336.94,-281.87 421.89,-295.33 503.97,-301.22"/>
<polygon fill="black" stroke="black" points="513.97,-301.9 503.68,-305.71 508.98,-301.56 503.99,-301.22 503.99,-301.22 503.99,-301.22 508.98,-301.56 504.3,-296.73 513.97,-301.9 513.97,-301.9"/>
</g>
<!-- pytest_cache_assert.plugin&#45;&gt;pytest_cache_assert._check_assert.serializer -->
<g id="edge19" class="edge">
<title>pytest_cache_assert.plugin&#45;&gt;pytest_cache_assert._check_assert.serializer</title>
<path fill="none" stroke="black" d="M469.71,-180.3C472.27,-188.1 475.36,-197.49 478.21,-206.17"/>
<polygon fill="black" stroke="black" points="481.41,-215.9 474.01,-207.8 479.85,-211.15 478.29,-206.4 478.29,-206.4 478.29,-206.4 479.85,-211.15 482.56,-204.99 481.41,-215.9 481.41,-215.9"/>
</g>
</g>
</svg>
