<?xml version="1.0" encoding="UTF-8" standalone="no"?>
<!DOCTYPE svg PUBLIC "-//W3C//DTD SVG 1.1//EN"
 "http://www.w3.org/Graphics/SVG/1.1/DTD/svg11.dtd">
<!-- Generated by graphviz version 2.50.0 (20211204.2007)
 -->
<!-- Title: packages Pages: 1 -->
<svg width="1168pt" height="332pt"
 viewBox="0.00 0.00 1168.34 332.00" xmlns="http://www.w3.org/2000/svg" xmlns:xlink="http://www.w3.org/1999/xlink">
<g id="graph0" class="graph" transform="scale(1 1) rotate(0) translate(4 328)">
<title>packages</title>
<polygon fill="white" stroke="transparent" points="-4,4 -4,-328 1164.34,-328 1164.34,4 -4,4"/>
<!-- pytest_cache_assert -->
<g id="node1" class="node">
<title>pytest_cache_assert</title>
<polygon fill="none" stroke="black" points="900.84,-180 776.84,-180 776.84,-144 900.84,-144 900.84,-180"/>
<text text-anchor="middle" x="838.84" y="-158.3" font-family="Times,serif" font-size="14.00">pytest_cache_assert</text>
</g>
<!-- pytest_cache_assert._check_assert.constants -->
<g id="node4" class="node">
<title>pytest_cache_assert._check_assert.constants</title>
<polygon fill="none" stroke="black" points="686.34,-324 429.34,-324 429.34,-288 686.34,-288 686.34,-324"/>
<text text-anchor="middle" x="557.84" y="-302.3" font-family="Times,serif" font-size="14.00">pytest_cache_assert._check_assert.constants</text>
</g>
<!-- pytest_cache_assert&#45;&gt;pytest_cache_assert._check_assert.constants -->
<g id="edge1" class="edge">
<title>pytest_cache_assert&#45;&gt;pytest_cache_assert._check_assert.constants</title>
<path fill="none" stroke="black" d="M849.22,-180.15C859.59,-199.77 871.77,-231.78 854.84,-252 834.01,-276.88 763.79,-290.09 696.85,-297.1"/>
<polygon fill="black" stroke="black" points="686.57,-298.13 696.08,-292.65 691.55,-297.63 696.52,-297.13 696.52,-297.13 696.52,-297.13 691.55,-297.63 696.97,-301.61 686.57,-298.13 686.57,-298.13"/>
</g>
<!-- pytest_cache_assert._check_assert.key_rules -->
<g id="node7" class="node">
<title>pytest_cache_assert._check_assert.key_rules</title>
<polygon fill="none" stroke="black" points="845.84,-252 585.84,-252 585.84,-216 845.84,-216 845.84,-252"/>
<text text-anchor="middle" x="715.84" y="-230.3" font-family="Times,serif" font-size="14.00">pytest_cache_assert._check_assert.key_rules</text>
</g>
<!-- pytest_cache_assert&#45;&gt;pytest_cache_assert._check_assert.key_rules -->
<g id="edge2" class="edge">
<title>pytest_cache_assert&#45;&gt;pytest_cache_assert._check_assert.key_rules</title>
<path fill="none" stroke="black" d="M808.75,-180.12C792.52,-189.36 772.3,-200.87 754.87,-210.79"/>
<polygon fill="black" stroke="black" points="746.05,-215.81 752.51,-206.95 750.39,-213.34 754.74,-210.86 754.74,-210.86 754.74,-210.86 750.39,-213.34 756.96,-214.78 746.05,-215.81 746.05,-215.81"/>
</g>
<!-- pytest_cache_assert._check_assert -->
<g id="node2" class="node">
<title>pytest_cache_assert._check_assert</title>
<polygon fill="none" stroke="black" points="1160.34,-108 957.34,-108 957.34,-72 1160.34,-72 1160.34,-108"/>
<text text-anchor="middle" x="1058.84" y="-86.3" font-family="Times,serif" font-size="14.00">pytest_cache_assert._check_assert</text>
</g>
<!-- pytest_cache_assert._check_assert.caching -->
<g id="node3" class="node">
<title>pytest_cache_assert._check_assert.caching</title>
<polygon fill="none" stroke="black" points="284.34,-180 35.34,-180 35.34,-144 284.34,-144 284.34,-180"/>
<text text-anchor="middle" x="159.84" y="-158.3" font-family="Times,serif" font-size="14.00">pytest_cache_assert._check_assert.caching</text>
</g>
<!-- pytest_cache_assert._check_assert.caching&#45;&gt;pytest_cache_assert._check_assert.constants -->
<g id="edge3" class="edge">
<title>pytest_cache_assert._check_assert.caching&#45;&gt;pytest_cache_assert._check_assert.constants</title>
<path fill="none" stroke="black" d="M172.33,-180.23C188.3,-200.86 217.96,-234.78 251.84,-252 303.09,-278.04 364.72,-291.58 419.2,-298.52"/>
<polygon fill="black" stroke="black" points="429.29,-299.74 418.82,-303.01 424.33,-299.14 419.36,-298.54 419.36,-298.54 419.36,-298.54 424.33,-299.14 419.9,-294.07 429.29,-299.74 429.29,-299.74"/>
</g>
<!-- pytest_cache_assert._check_assert.serializer -->
<g id="node8" class="node">
<title>pytest_cache_assert._check_assert.serializer</title>
<polygon fill="none" stroke="black" points="529.34,-252 272.34,-252 272.34,-216 529.34,-216 529.34,-252"/>
<text text-anchor="middle" x="400.84" y="-230.3" font-family="Times,serif" font-size="14.00">pytest_cache_assert._check_assert.serializer</text>
</g>
<!-- pytest_cache_assert._check_assert.caching&#45;&gt;pytest_cache_assert._check_assert.serializer -->
<g id="edge4" class="edge">
<title>pytest_cache_assert._check_assert.caching&#45;&gt;pytest_cache_assert._check_assert.serializer</title>
<path fill="none" stroke="black" d="M218.49,-180.03C252.75,-189.99 296.16,-202.59 332.03,-213.01"/>
<polygon fill="black" stroke="black" points="341.93,-215.89 331.07,-217.42 337.13,-214.49 332.33,-213.1 332.33,-213.1 332.33,-213.1 337.13,-214.49 333.58,-208.78 341.93,-215.89 341.93,-215.89"/>
</g>
<!-- pytest_cache_assert._check_assert.differ -->
<g id="node5" class="node">
<title>pytest_cache_assert._check_assert.differ</title>
<polygon fill="none" stroke="black" points="720.34,-180 483.34,-180 483.34,-144 720.34,-144 720.34,-180"/>
<text text-anchor="middle" x="601.84" y="-158.3" font-family="Times,serif" font-size="14.00">pytest_cache_assert._check_assert.differ</text>
</g>
<!-- pytest_cache_assert._check_assert.differ&#45;&gt;pytest_cache_assert._check_assert.constants -->
<g id="edge5" class="edge">
<title>pytest_cache_assert._check_assert.differ&#45;&gt;pytest_cache_assert._check_assert.constants</title>
<path fill="none" stroke="black" d="M592.47,-180.25C587.26,-190.41 581.01,-203.66 576.84,-216 569.99,-236.3 565.06,-260.07 561.95,-277.94"/>
<polygon fill="black" stroke="black" points="560.28,-287.96 557.48,-277.35 561.1,-283.03 561.92,-278.09 561.92,-278.09 561.92,-278.09 561.1,-283.03 566.36,-278.83 560.28,-287.96 560.28,-287.96"/>
</g>
<!-- pytest_cache_assert._check_assert.differ&#45;&gt;pytest_cache_assert._check_assert.key_rules -->
<g id="edge6" class="edge">
<title>pytest_cache_assert._check_assert.differ&#45;&gt;pytest_cache_assert._check_assert.key_rules</title>
<path fill="none" stroke="black" d="M629.73,-180.12C644.63,-189.28 663.17,-200.66 679.22,-210.52"/>
<polygon fill="black" stroke="black" points="687.85,-215.81 676.97,-214.41 683.59,-213.19 679.33,-210.58 679.33,-210.58 679.33,-210.58 683.59,-213.19 681.68,-206.74 687.85,-215.81 687.85,-215.81"/>
</g>
<!-- pytest_cache_assert._check_assert.differ&#45;&gt;pytest_cache_assert._check_assert.serializer -->
<g id="edge7" class="edge">
<title>pytest_cache_assert._check_assert.differ&#45;&gt;pytest_cache_assert._check_assert.serializer</title>
<path fill="none" stroke="black" d="M552.93,-180.03C524.84,-189.81 489.39,-202.16 459.77,-212.48"/>
<polygon fill="black" stroke="black" points="449.97,-215.89 457.94,-208.35 454.7,-214.24 459.42,-212.6 459.42,-212.6 459.42,-212.6 454.7,-214.24 460.9,-216.85 449.97,-215.89 449.97,-215.89"/>
</g>
<!-- pytest_cache_assert._check_assert.error_message -->
<g id="node6" class="node">
<title>pytest_cache_assert._check_assert.error_message</title>
<polygon fill="none" stroke="black" points="682.34,-108 395.34,-108 395.34,-72 682.34,-72 682.34,-108"/>
<text text-anchor="middle" x="538.84" y="-86.3" font-family="Times,serif" font-size="14.00">pytest_cache_assert._check_assert.error_message</text>
</g>
<!-- pytest_cache_assert._check_assert.error_message&#45;&gt;pytest_cache_assert._check_assert.constants -->
<g id="edge8" class="edge">
<title>pytest_cache_assert._check_assert.error_message&#45;&gt;pytest_cache_assert._check_assert.constants</title>
<path fill="none" stroke="black" d="M395.26,-96.14C252.19,-102.79 50.32,-116.87 25.84,-144 -91.45,-274.03 224.87,-300.61 419,-305.07"/>
<polygon fill="black" stroke="black" points="429.01,-305.28 418.92,-309.57 424.01,-305.18 419.01,-305.07 419.01,-305.07 419.01,-305.07 424.01,-305.18 419.11,-300.57 429.01,-305.28 429.01,-305.28"/>
</g>
<!-- pytest_cache_assert._check_assert.error_message&#45;&gt;pytest_cache_assert._check_assert.differ -->
<g id="edge9" class="edge">
<title>pytest_cache_assert._check_assert.error_message&#45;&gt;pytest_cache_assert._check_assert.differ</title>
<path fill="none" stroke="black" d="M554.41,-108.3C562.04,-116.78 571.36,-127.14 579.72,-136.42"/>
<polygon fill="black" stroke="black" points="586.45,-143.9 576.41,-139.47 583.1,-140.18 579.76,-136.46 579.76,-136.46 579.76,-136.46 583.1,-140.18 583.1,-133.45 586.45,-143.9 586.45,-143.9"/>
</g>
<!-- pytest_cache_assert._check_assert.key_rules&#45;&gt;pytest_cache_assert._check_assert.constants -->
<g id="edge10" class="edge">
<title>pytest_cache_assert._check_assert.key_rules&#45;&gt;pytest_cache_assert._check_assert.constants</title>
<path fill="none" stroke="black" d="M677.19,-252.12C655.59,-261.69 628.49,-273.7 605.58,-283.85"/>
<polygon fill="black" stroke="black" points="596.37,-287.93 603.69,-279.77 600.94,-285.91 605.51,-283.88 605.51,-283.88 605.51,-283.88 600.94,-285.91 607.33,-288 596.37,-287.93 596.37,-287.93"/>
</g>
<!-- pytest_cache_assert.main -->
<g id="node9" class="node">
<title>pytest_cache_assert.main</title>
<polygon fill="none" stroke="black" points="788.34,-36 633.34,-36 633.34,0 788.34,0 788.34,-36"/>
<text text-anchor="middle" x="710.84" y="-14.3" font-family="Times,serif" font-size="14.00">pytest_cache_assert.main</text>
</g>
<!-- pytest_cache_assert.main&#45;&gt;pytest_cache_assert._check_assert -->
<g id="edge11" class="edge">
<title>pytest_cache_assert.main&#45;&gt;pytest_cache_assert._check_assert</title>
<path fill="none" stroke="black" d="M788.51,-34.62C840.37,-45.05 908.9,-58.84 963.98,-69.92"/>
<polygon fill="black" stroke="black" points="974.11,-71.96 963.41,-74.39 969.2,-70.97 964.3,-69.98 964.3,-69.98 964.3,-69.98 969.2,-70.97 965.19,-65.57 974.11,-71.96 974.11,-71.96"/>
</g>
<!-- pytest_cache_assert.main&#45;&gt;pytest_cache_assert._check_assert.caching -->
<g id="edge12" class="edge">
<title>pytest_cache_assert.main&#45;&gt;pytest_cache_assert._check_assert.caching</title>
<path fill="none" stroke="black" d="M633.01,-26.96C566.54,-34.88 468.8,-49.18 385.84,-72 321.5,-89.7 250.35,-119.52 205.39,-139.72"/>
<polygon fill="black" stroke="black" points="196.21,-143.88 203.46,-135.65 200.76,-141.81 205.32,-139.75 205.32,-139.75 205.32,-139.75 200.76,-141.81 207.17,-143.85 196.21,-143.88 196.21,-143.88"/>
</g>
<!-- pytest_cache_assert.main&#45;&gt;pytest_cache_assert._check_assert.constants -->
<g id="edge13" class="edge">
<title>pytest_cache_assert.main&#45;&gt;pytest_cache_assert._check_assert.constants</title>
<path fill="none" stroke="black" d="M765.04,-36.17C812.75,-54.5 879.25,-88.65 909.84,-144 917.58,-158 913.6,-164.45 909.84,-180 901.38,-214.97 901.88,-230.76 872.84,-252 844.57,-272.67 767.51,-285.85 696.7,-293.89"/>
<polygon fill="black" stroke="black" points="686.75,-294.99 696.19,-289.42 691.72,-294.44 696.69,-293.89 696.69,-293.89 696.69,-293.89 691.72,-294.44 697.18,-298.37 686.75,-294.99 686.75,-294.99"/>
</g>
<!-- pytest_cache_assert.main&#45;&gt;pytest_cache_assert._check_assert.differ -->
<g id="edge14" class="edge">
<title>pytest_cache_assert.main&#45;&gt;pytest_cache_assert._check_assert.differ</title>
<path fill="none" stroke="black" d="M711.14,-36.03C710.65,-55.24 707.27,-86.59 691.84,-108 682.62,-120.79 669.28,-131.01 655.69,-138.92"/>
<polygon fill="black" stroke="black" points="646.75,-143.8 653.38,-135.06 651.14,-141.4 655.53,-139.01 655.53,-139.01 655.53,-139.01 651.14,-141.4 657.69,-142.96 646.75,-143.8 646.75,-143.8"/>
</g>
<!-- pytest_cache_assert.main&#45;&gt;pytest_cache_assert._check_assert.error_message -->
<g id="edge15" class="edge">
<title>pytest_cache_assert.main&#45;&gt;pytest_cache_assert._check_assert.error_message</title>
<path fill="none" stroke="black" d="M662.87,-36.12C638.25,-45.74 608.47,-57.81 584.23,-67.99"/>
<polygon fill="black" stroke="black" points="574.89,-71.93 582.35,-63.89 579.5,-69.99 584.1,-68.04 584.1,-68.04 584.1,-68.04 579.5,-69.99 585.85,-72.19 574.89,-71.93 574.89,-71.93"/>
</g>
<!-- pytest_cache_assert.main&#45;&gt;pytest_cache_assert._check_assert.error_message -->
<g id="edge16" class="edge">
<title>pytest_cache_assert.main&#45;&gt;pytest_cache_assert._check_assert.error_message</title>
<path fill="none" stroke="black" d="M674.66,-36.12C651.85,-45.82 621.98,-58.02 596.04,-68.26"/>
<polygon fill="black" stroke="black" points="586.67,-71.93 594.34,-64.09 591.33,-70.11 595.98,-68.28 595.98,-68.28 595.98,-68.28 591.33,-70.11 597.63,-72.47 586.67,-71.93 586.67,-71.93"/>
</g>
<!-- pytest_cache_assert.main&#45;&gt;pytest_cache_assert._check_assert.key_rules -->
<g id="edge17" class="edge">
<title>pytest_cache_assert.main&#45;&gt;pytest_cache_assert._check_assert.key_rules</title>
<path fill="none" stroke="black" d="M715.72,-36.41C723.36,-65.96 736.62,-127.81 729.84,-180 728.74,-188.49 726.68,-197.57 724.48,-205.76"/>
<polygon fill="black" stroke="black" points="721.67,-215.56 720.1,-204.71 723.04,-210.75 724.42,-205.95 724.42,-205.95 724.42,-205.95 723.04,-210.75 728.75,-207.19 721.67,-215.56 721.67,-215.56"/>
</g>
<!-- pytest_cache_assert.plugin -->
<g id="node10" class="node">
<title>pytest_cache_assert.plugin</title>
<polygon fill="none" stroke="black" points="464.84,-180 302.84,-180 302.84,-144 464.84,-144 464.84,-180"/>
<text text-anchor="middle" x="383.84" y="-158.3" font-family="Times,serif" font-size="14.00">pytest_cache_assert.plugin</text>
</g>
<!-- pytest_cache_assert.plugin&#45;&gt;pytest_cache_assert._check_assert.constants -->
<g id="edge18" class="edge">
<title>pytest_cache_assert.plugin&#45;&gt;pytest_cache_assert._check_assert.constants</title>
<path fill="none" stroke="black" d="M309.23,-180.1C291.03,-187.96 273.7,-199.4 262.84,-216 254.09,-229.39 252.58,-239.73 262.84,-252 283.44,-276.63 352.74,-289.83 419,-296.9"/>
<polygon fill="black" stroke="black" points="429.17,-297.94 418.76,-301.4 424.19,-297.43 419.22,-296.92 419.22,-296.92 419.22,-296.92 424.19,-297.43 419.68,-292.44 429.17,-297.94 429.17,-297.94"/>
</g>
<!-- pytest_cache_assert.plugin&#45;&gt;pytest_cache_assert._check_assert.serializer -->
<g id="edge19" class="edge">
<title>pytest_cache_assert.plugin&#45;&gt;pytest_cache_assert._check_assert.serializer</title>
<path fill="none" stroke="black" d="M388.04,-180.3C389.94,-188.1 392.22,-197.49 394.33,-206.17"/>
<polygon fill="black" stroke="black" points="396.69,-215.9 389.96,-207.24 395.51,-211.04 394.33,-206.18 394.33,-206.18 394.33,-206.18 395.51,-211.04 398.7,-205.12 396.69,-215.9 396.69,-215.9"/>
</g>
</g>
</svg>
