<?xml version="1.0" encoding="UTF-8" standalone="no"?>
<!DOCTYPE svg PUBLIC "-//W3C//DTD SVG 1.1//EN"
 "http://www.w3.org/Graphics/SVG/1.1/DTD/svg11.dtd">
<!-- Generated by graphviz version 2.43.0 (0)
 -->
<!-- Title: packages Pages: 1 -->
<svg width="1173pt" height="332pt"
 viewBox="0.00 0.00 1173.25 332.00" xmlns="http://www.w3.org/2000/svg" xmlns:xlink="http://www.w3.org/1999/xlink">
<g id="graph0" class="graph" transform="scale(1 1) rotate(0) translate(4 328)">
<title>packages</title>
<polygon fill="white" stroke="transparent" points="-4,4 -4,-328 1169.25,-328 1169.25,4 -4,4"/>
<!-- pytest_cache_assert -->
<g id="node1" class="node">
<title>pytest_cache_assert</title>
<polygon fill="none" stroke="black" points="173.75,-180 13.75,-180 13.75,-144 173.75,-144 173.75,-180"/>
<text text-anchor="middle" x="93.75" y="-158.3" font-family="Times,serif" font-size="14.00">pytest_cache_assert</text>
</g>
<!-- pytest_cache_assert._check_assert.constants -->
<g id="node5" class="node">
<title>pytest_cache_assert._check_assert.constants</title>
<polygon fill="none" stroke="black" points="600.75,-324 264.75,-324 264.75,-288 600.75,-288 600.75,-324"/>
<text text-anchor="middle" x="432.75" y="-302.3" font-family="Times,serif" font-size="14.00">pytest_cache_assert._check_assert.constants</text>
</g>
<!-- pytest_cache_assert&#45;&gt;pytest_cache_assert._check_assert.constants -->
<g id="edge1" class="edge">
<title>pytest_cache_assert&#45;&gt;pytest_cache_assert._check_assert.constants</title>
<path fill="none" stroke="black" d="M68.27,-180.31C43.9,-198.95 13.62,-229.01 33.75,-252 49,-269.41 155.28,-282.99 254.31,-292.04"/>
<polygon fill="black" stroke="black" points="264.48,-292.96 254.12,-296.54 259.5,-292.51 254.52,-292.06 254.52,-292.06 254.52,-292.06 259.5,-292.51 254.93,-287.58 264.48,-292.96 264.48,-292.96"/>
</g>
<!-- pytest_cache_assert._check_assert.key_rules -->
<g id="node8" class="node">
<title>pytest_cache_assert._check_assert.key_rules</title>
<polygon fill="none" stroke="black" points="378.25,-252 43.25,-252 43.25,-216 378.25,-216 378.25,-252"/>
<text text-anchor="middle" x="210.75" y="-230.3" font-family="Times,serif" font-size="14.00">pytest_cache_assert._check_assert.key_rules</text>
</g>
<!-- pytest_cache_assert&#45;&gt;pytest_cache_assert._check_assert.key_rules -->
<g id="edge2" class="edge">
<title>pytest_cache_assert&#45;&gt;pytest_cache_assert._check_assert.key_rules</title>
<path fill="none" stroke="black" d="M122.37,-180.12C137.67,-189.28 156.7,-200.66 173.17,-210.52"/>
<polygon fill="black" stroke="black" points="182.02,-215.81 171.13,-214.54 177.73,-213.24 173.44,-210.68 173.44,-210.68 173.44,-210.68 177.73,-213.24 175.75,-206.81 182.02,-215.81 182.02,-215.81"/>
</g>
<!-- pytest_cache_assert._check_assert -->
<g id="node2" class="node">
<title>pytest_cache_assert._check_assert</title>
<polygon fill="none" stroke="black" points="965.25,-108 702.25,-108 702.25,-72 965.25,-72 965.25,-108"/>
<text text-anchor="middle" x="833.75" y="-86.3" font-family="Times,serif" font-size="14.00">pytest_cache_assert._check_assert</text>
</g>
<!-- pytest_cache_assert._check_assert.caching -->
<g id="node3" class="node">
<title>pytest_cache_assert._check_assert.caching</title>
<polygon fill="none" stroke="black" points="937.75,-180 615.75,-180 615.75,-144 937.75,-144 937.75,-180"/>
<text text-anchor="middle" x="776.75" y="-158.3" font-family="Times,serif" font-size="14.00">pytest_cache_assert._check_assert.caching</text>
</g>
<!-- pytest_cache_assert._check_assert.caching&#45;&gt;pytest_cache_assert._check_assert.constants -->
<g id="edge3" class="edge">
<title>pytest_cache_assert._check_assert.caching&#45;&gt;pytest_cache_assert._check_assert.constants</title>
<path fill="none" stroke="black" d="M709.25,-180.01C676.04,-189.21 635.73,-201.63 600.75,-216 554.01,-235.21 503.09,-263.27 469.7,-282.73"/>
<polygon fill="black" stroke="black" points="460.77,-287.98 467.11,-279.03 465.08,-285.45 469.39,-282.91 469.39,-282.91 469.39,-282.91 465.08,-285.45 471.67,-286.79 460.77,-287.98 460.77,-287.98"/>
</g>
<!-- pytest_cache_assert._check_assert.serializer -->
<g id="node9" class="node">
<title>pytest_cache_assert._check_assert.serializer</title>
<polygon fill="none" stroke="black" points="943.75,-252 609.75,-252 609.75,-216 943.75,-216 943.75,-252"/>
<text text-anchor="middle" x="776.75" y="-230.3" font-family="Times,serif" font-size="14.00">pytest_cache_assert._check_assert.serializer</text>
</g>
<!-- pytest_cache_assert._check_assert.caching&#45;&gt;pytest_cache_assert._check_assert.serializer -->
<g id="edge4" class="edge">
<title>pytest_cache_assert._check_assert.caching&#45;&gt;pytest_cache_assert._check_assert.serializer</title>
<path fill="none" stroke="black" d="M776.75,-180.3C776.75,-188.02 776.75,-197.29 776.75,-205.89"/>
<polygon fill="black" stroke="black" points="776.75,-215.9 772.25,-205.9 776.75,-210.9 776.75,-205.9 776.75,-205.9 776.75,-205.9 776.75,-210.9 781.25,-205.9 776.75,-215.9 776.75,-215.9"/>
</g>
<!-- pytest_cache_assert._check_assert.config -->
<g id="node4" class="node">
<title>pytest_cache_assert._check_assert.config</title>
<polygon fill="none" stroke="black" points="942.75,-324 632.75,-324 632.75,-288 942.75,-288 942.75,-324"/>
<text text-anchor="middle" x="787.75" y="-302.3" font-family="Times,serif" font-size="14.00">pytest_cache_assert._check_assert.config</text>
</g>
<!-- pytest_cache_assert._check_assert.differ -->
<g id="node6" class="node">
<title>pytest_cache_assert._check_assert.differ</title>
<polygon fill="none" stroke="black" points="597.25,-180 292.25,-180 292.25,-144 597.25,-144 597.25,-180"/>
<text text-anchor="middle" x="444.75" y="-158.3" font-family="Times,serif" font-size="14.00">pytest_cache_assert._check_assert.differ</text>
</g>
<!-- pytest_cache_assert._check_assert.differ&#45;&gt;pytest_cache_assert._check_assert.constants -->
<g id="edge5" class="edge">
<title>pytest_cache_assert._check_assert.differ&#45;&gt;pytest_cache_assert._check_assert.constants</title>
<path fill="none" stroke="black" d="M443.31,-180.13C441.26,-204.33 437.5,-248.79 435.07,-277.61"/>
<polygon fill="black" stroke="black" points="434.21,-287.81 430.56,-277.47 434.63,-282.83 435.05,-277.85 435.05,-277.85 435.05,-277.85 434.63,-282.83 439.53,-278.23 434.21,-287.81 434.21,-287.81"/>
</g>
<!-- pytest_cache_assert._check_assert.differ&#45;&gt;pytest_cache_assert._check_assert.key_rules -->
<g id="edge6" class="edge">
<title>pytest_cache_assert._check_assert.differ&#45;&gt;pytest_cache_assert._check_assert.key_rules</title>
<path fill="none" stroke="black" d="M387.81,-180.03C354.55,-189.99 312.4,-202.59 277.57,-213.01"/>
<polygon fill="black" stroke="black" points="267.95,-215.89 276.24,-208.71 272.74,-214.46 277.53,-213.02 277.53,-213.02 277.53,-213.02 272.74,-214.46 278.82,-217.33 267.95,-215.89 267.95,-215.89"/>
</g>
<!-- pytest_cache_assert._check_assert.differ&#45;&gt;pytest_cache_assert._check_assert.serializer -->
<g id="edge7" class="edge">
<title>pytest_cache_assert._check_assert.differ&#45;&gt;pytest_cache_assert._check_assert.serializer</title>
<path fill="none" stroke="black" d="M525.54,-180.03C574.04,-190.26 635.85,-203.29 686.02,-213.87"/>
<polygon fill="black" stroke="black" points="695.89,-215.95 685.17,-218.29 690.99,-214.92 686.1,-213.89 686.1,-213.89 686.1,-213.89 690.99,-214.92 687.03,-209.48 695.89,-215.95 695.89,-215.95"/>
</g>
<!-- pytest_cache_assert._check_assert.error_message -->
<g id="node7" class="node">
<title>pytest_cache_assert._check_assert.error_message</title>
<polygon fill="none" stroke="black" points="607.25,-108 234.25,-108 234.25,-72 607.25,-72 607.25,-108"/>
<text text-anchor="middle" x="420.75" y="-86.3" font-family="Times,serif" font-size="14.00">pytest_cache_assert._check_assert.error_message</text>
</g>
<!-- pytest_cache_assert._check_assert.error_message&#45;&gt;pytest_cache_assert._check_assert.constants -->
<g id="edge8" class="edge">
<title>pytest_cache_assert._check_assert.error_message&#45;&gt;pytest_cache_assert._check_assert.constants</title>
<path fill="none" stroke="black" d="M330.53,-108.01C311.77,-115.85 294.24,-127.29 282.75,-144 273.69,-157.19 273.47,-166.97 282.75,-180 311.12,-219.84 349.77,-183.99 386.75,-216 405.68,-232.38 417.86,-258.47 424.9,-278.18"/>
<polygon fill="black" stroke="black" points="428.13,-287.82 420.69,-279.76 426.54,-283.07 424.96,-278.33 424.96,-278.33 424.96,-278.33 426.54,-283.07 429.22,-276.9 428.13,-287.82 428.13,-287.82"/>
</g>
<!-- pytest_cache_assert._check_assert.error_message&#45;&gt;pytest_cache_assert._check_assert.differ -->
<g id="edge9" class="edge">
<title>pytest_cache_assert._check_assert.error_message&#45;&gt;pytest_cache_assert._check_assert.differ</title>
<path fill="none" stroke="black" d="M426.69,-108.3C429.36,-116.1 432.58,-125.49 435.55,-134.17"/>
<polygon fill="black" stroke="black" points="438.89,-143.9 431.39,-135.9 437.27,-139.17 435.65,-134.44 435.65,-134.44 435.65,-134.44 437.27,-139.17 439.9,-132.98 438.89,-143.9 438.89,-143.9"/>
</g>
<!-- pytest_cache_assert._check_assert.key_rules&#45;&gt;pytest_cache_assert._check_assert.constants -->
<g id="edge10" class="edge">
<title>pytest_cache_assert._check_assert.key_rules&#45;&gt;pytest_cache_assert._check_assert.constants</title>
<path fill="none" stroke="black" d="M264.78,-252.03C296.2,-261.94 335.98,-274.49 368.94,-284.88"/>
<polygon fill="black" stroke="black" points="378.49,-287.89 367.6,-289.17 373.72,-286.39 368.95,-284.88 368.95,-284.88 368.95,-284.88 373.72,-286.39 370.3,-280.59 378.49,-287.89 378.49,-287.89"/>
</g>
<!-- pytest_cache_assert._check_assert.serializer&#45;&gt;pytest_cache_assert._check_assert.config -->
<g id="edge11" class="edge">
<title>pytest_cache_assert._check_assert.serializer&#45;&gt;pytest_cache_assert._check_assert.config</title>
<path fill="none" stroke="black" d="M779.47,-252.3C780.68,-260.02 782.14,-269.29 783.49,-277.89"/>
<polygon fill="black" stroke="black" points="785.07,-287.9 779.07,-278.72 784.29,-282.96 783.51,-278.02 783.51,-278.02 783.51,-278.02 784.29,-282.96 787.96,-277.32 785.07,-287.9 785.07,-287.9"/>
</g>
<!-- pytest_cache_assert._check_assert.serializer&#45;&gt;pytest_cache_assert._check_assert.constants -->
<g id="edge12" class="edge">
<title>pytest_cache_assert._check_assert.serializer&#45;&gt;pytest_cache_assert._check_assert.constants</title>
<path fill="none" stroke="black" d="M693.04,-252.03C642.69,-262.28 578.49,-275.34 526.45,-285.93"/>
<polygon fill="black" stroke="black" points="516.54,-287.95 525.44,-281.55 521.44,-286.95 526.34,-285.96 526.34,-285.96 526.34,-285.96 521.44,-286.95 527.24,-290.37 516.54,-287.95 516.54,-287.95"/>
</g>
<!-- pytest_cache_assert.main -->
<g id="node10" class="node">
<title>pytest_cache_assert.main</title>
<polygon fill="none" stroke="black" points="520.75,-36 320.75,-36 320.75,0 520.75,0 520.75,-36"/>
<text text-anchor="middle" x="420.75" y="-14.3" font-family="Times,serif" font-size="14.00">pytest_cache_assert.main</text>
</g>
<!-- pytest_cache_assert.main&#45;&gt;pytest_cache_assert._check_assert -->
<g id="edge13" class="edge">
<title>pytest_cache_assert.main&#45;&gt;pytest_cache_assert._check_assert</title>
<path fill="none" stroke="black" d="M520.99,-35.99C582.18,-46.36 660.48,-59.63 723.43,-70.3"/>
<polygon fill="black" stroke="black" points="733.39,-71.99 722.78,-74.76 728.46,-71.15 723.53,-70.32 723.53,-70.32 723.53,-70.32 728.46,-71.15 724.28,-65.88 733.39,-71.99 733.39,-71.99"/>
</g>
<!-- pytest_cache_assert.main&#45;&gt;pytest_cache_assert._check_assert.caching -->
<g id="edge14" class="edge">
<title>pytest_cache_assert.main&#45;&gt;pytest_cache_assert._check_assert.caching</title>
<path fill="none" stroke="black" d="M516.12,-36.05C553.64,-44.47 596.55,-56.26 633.75,-72 639.48,-74.42 700.68,-112.89 741.14,-138.45"/>
<polygon fill="black" stroke="black" points="749.68,-143.85 738.82,-142.31 745.45,-141.17 741.22,-138.5 741.22,-138.5 741.22,-138.5 745.45,-141.17 743.63,-134.7 749.68,-143.85 749.68,-143.85"/>
</g>
<!-- pytest_cache_assert.main&#45;&gt;pytest_cache_assert._check_assert.constants -->
<g id="edge15" class="edge">
<title>pytest_cache_assert.main&#45;&gt;pytest_cache_assert._check_assert.constants</title>
<path fill="none" stroke="black" d="M320.46,-34.68C209.39,-54.38 41.15,-92.04 4.75,-144 -4.43,-157.11 2.69,-164.13 4.75,-180 9.01,-212.82 -1.11,-230.16 23.75,-252 58.23,-282.29 160.75,-295.54 254.52,-301.21"/>
<polygon fill="black" stroke="black" points="264.73,-301.8 254.49,-305.72 259.74,-301.51 254.75,-301.22 254.75,-301.22 254.75,-301.22 259.74,-301.51 255.01,-296.73 264.73,-301.8 264.73,-301.8"/>
</g>
<!-- pytest_cache_assert.main&#45;&gt;pytest_cache_assert._check_assert.differ -->
<g id="edge16" class="edge">
<title>pytest_cache_assert.main&#45;&gt;pytest_cache_assert._check_assert.differ</title>
<path fill="none" stroke="black" d="M520.84,-34.71C562.2,-43.44 603.4,-55.83 615.75,-72 641.34,-105.46 600.43,-127.54 552.23,-141.33"/>
<polygon fill="black" stroke="black" points="542.51,-143.98 550.98,-137.01 547.34,-142.66 552.16,-141.35 552.16,-141.35 552.16,-141.35 547.34,-142.66 553.34,-145.69 542.51,-143.98 542.51,-143.98"/>
</g>
<!-- pytest_cache_assert.main&#45;&gt;pytest_cache_assert._check_assert.error_message -->
<g id="edge17" class="edge">
<title>pytest_cache_assert.main&#45;&gt;pytest_cache_assert._check_assert.error_message</title>
<path fill="none" stroke="black" d="M414.84,-36.3C414.04,-44.02 413.82,-53.29 414.16,-61.89"/>
<polygon fill="black" stroke="black" points="414.86,-71.9 409.67,-62.23 414.51,-66.91 414.16,-61.92 414.16,-61.92 414.16,-61.92 414.51,-66.91 418.65,-61.61 414.86,-71.9 414.86,-71.9"/>
</g>
<!-- pytest_cache_assert.main&#45;&gt;pytest_cache_assert._check_assert.error_message -->
<g id="edge18" class="edge">
<title>pytest_cache_assert.main&#45;&gt;pytest_cache_assert._check_assert.error_message</title>
<path fill="none" stroke="black" d="M426.67,-36.3C427.46,-44.02 427.69,-53.29 427.35,-61.89"/>
<polygon fill="black" stroke="black" points="426.65,-71.9 422.86,-61.61 427,-66.91 427.35,-61.92 427.35,-61.92 427.35,-61.92 427,-66.91 431.84,-62.23 426.65,-71.9 426.65,-71.9"/>
</g>
<!-- pytest_cache_assert.main&#45;&gt;pytest_cache_assert._check_assert.key_rules -->
<g id="edge19" class="edge">
<title>pytest_cache_assert.main&#45;&gt;pytest_cache_assert._check_assert.key_rules</title>
<path fill="none" stroke="black" d="M320.52,-35.2C279.17,-44.02 237.84,-56.35 224.75,-72 193.43,-109.44 198.22,-170.36 204.5,-205.55"/>
<polygon fill="black" stroke="black" points="206.46,-215.59 200.13,-206.64 205.5,-210.68 204.54,-205.78 204.54,-205.78 204.54,-205.78 205.5,-210.68 208.96,-204.91 206.46,-215.59 206.46,-215.59"/>
</g>
<!-- pytest_cache_assert.plugin -->
<g id="node11" class="node">
<title>pytest_cache_assert.plugin</title>
<polygon fill="none" stroke="black" points="1165.25,-180 956.25,-180 956.25,-144 1165.25,-144 1165.25,-180"/>
<text text-anchor="middle" x="1060.75" y="-158.3" font-family="Times,serif" font-size="14.00">pytest_cache_assert.plugin</text>
</g>
<!-- pytest_cache_assert.plugin&#45;&gt;pytest_cache_assert._check_assert.config -->
<g id="edge20" class="edge">
<title>pytest_cache_assert.plugin&#45;&gt;pytest_cache_assert._check_assert.config</title>
<path fill="none" stroke="black" d="M1055.76,-180.24C1048.96,-200.56 1034.81,-233.86 1010.75,-252 991.49,-266.53 968.83,-277.15 945.48,-284.9"/>
<polygon fill="black" stroke="black" points="935.79,-287.94 943.98,-280.65 940.56,-286.44 945.33,-284.94 945.33,-284.94 945.33,-284.94 940.56,-286.44 946.68,-289.24 935.79,-287.94 935.79,-287.94"/>
</g>
<!-- pytest_cache_assert.plugin&#45;&gt;pytest_cache_assert._check_assert.constants -->
<g id="edge21" class="edge">
<title>pytest_cache_assert.plugin&#45;&gt;pytest_cache_assert._check_assert.constants</title>
<path fill="none" stroke="black" d="M1045.96,-180.26C1026.81,-201.26 991.32,-235.9 952.75,-252 944.69,-255.36 758.24,-273.85 610.89,-288.06"/>
<polygon fill="black" stroke="black" points="600.8,-289.03 610.32,-283.59 605.78,-288.55 610.75,-288.07 610.75,-288.07 610.75,-288.07 605.78,-288.55 611.19,-292.55 600.8,-289.03 600.8,-289.03"/>
</g>
<!-- pytest_cache_assert.plugin&#45;&gt;pytest_cache_assert._check_assert.serializer -->
<g id="edge22" class="edge">
<title>pytest_cache_assert.plugin&#45;&gt;pytest_cache_assert._check_assert.serializer</title>
<path fill="none" stroke="black" d="M991.64,-180.03C950.67,-190.13 898.58,-202.97 855.95,-213.48"/>
<polygon fill="black" stroke="black" points="846.17,-215.89 854.81,-209.13 851.03,-214.69 855.88,-213.5 855.88,-213.5 855.88,-213.5 851.03,-214.69 856.96,-217.87 846.17,-215.89 846.17,-215.89"/>
</g>
</g>
</svg>
