<?xml version="1.0" encoding="UTF-8" standalone="no"?>
<!DOCTYPE svg PUBLIC "-//W3C//DTD SVG 1.1//EN"
 "http://www.w3.org/Graphics/SVG/1.1/DTD/svg11.dtd">
<!-- Generated by graphviz version 2.43.0 (0)
 -->
<!-- Title: packages Pages: 1 -->
<svg width="1174pt" height="332pt"
 viewBox="0.00 0.00 1173.50 332.00" xmlns="http://www.w3.org/2000/svg" xmlns:xlink="http://www.w3.org/1999/xlink">
<g id="graph0" class="graph" transform="scale(1 1) rotate(0) translate(4 328)">
<title>packages</title>
<polygon fill="white" stroke="transparent" points="-4,4 -4,-328 1169.5,-328 1169.5,4 -4,4"/>
<!-- pytest_cache_assert -->
<g id="node1" class="node">
<title>pytest_cache_assert</title>
<polygon fill="none" stroke="black" points="538,-180 378,-180 378,-144 538,-144 538,-180"/>
<text text-anchor="middle" x="458" y="-158.3" font-family="Times,serif" font-size="14.00">pytest_cache_assert</text>
</g>
<!-- pytest_cache_assert._check_assert.constants -->
<g id="node4" class="node">
<title>pytest_cache_assert._check_assert.constants</title>
<polygon fill="none" stroke="black" points="752,-324 416,-324 416,-288 752,-288 752,-324"/>
<text text-anchor="middle" x="584" y="-302.3" font-family="Times,serif" font-size="14.00">pytest_cache_assert._check_assert.constants</text>
</g>
<!-- pytest_cache_assert&#45;&gt;pytest_cache_assert._check_assert.constants -->
<g id="edge1" class="edge">
<title>pytest_cache_assert&#45;&gt;pytest_cache_assert._check_assert.constants</title>
<path fill="none" stroke="black" d="M436.22,-180.14C415.4,-198.64 389.56,-228.57 407,-252 417.02,-265.47 448.44,-276.78 482.08,-285.45"/>
<polygon fill="black" stroke="black" points="492.09,-287.94 481.3,-289.89 487.24,-286.73 482.38,-285.53 482.38,-285.53 482.38,-285.53 487.24,-286.73 483.47,-281.16 492.09,-287.94 492.09,-287.94"/>
</g>
<!-- pytest_cache_assert._check_assert.key_rules -->
<g id="node7" class="node">
<title>pytest_cache_assert._check_assert.key_rules</title>
<polygon fill="none" stroke="black" points="751.5,-252 416.5,-252 416.5,-216 751.5,-216 751.5,-252"/>
<text text-anchor="middle" x="584" y="-230.3" font-family="Times,serif" font-size="14.00">pytest_cache_assert._check_assert.key_rules</text>
</g>
<!-- pytest_cache_assert&#45;&gt;pytest_cache_assert._check_assert.key_rules -->
<g id="edge2" class="edge">
<title>pytest_cache_assert&#45;&gt;pytest_cache_assert._check_assert.key_rules</title>
<path fill="none" stroke="black" d="M488.82,-180.12C505.45,-189.36 526.16,-200.87 544.02,-210.79"/>
<polygon fill="black" stroke="black" points="553.06,-215.81 542.13,-214.89 548.69,-213.38 544.32,-210.95 544.32,-210.95 544.32,-210.95 548.69,-213.38 546.5,-207.02 553.06,-215.81 553.06,-215.81"/>
</g>
<!-- pytest_cache_assert._check_assert -->
<g id="node2" class="node">
<title>pytest_cache_assert._check_assert</title>
<polygon fill="none" stroke="black" points="283.5,-108 20.5,-108 20.5,-72 283.5,-72 283.5,-108"/>
<text text-anchor="middle" x="152" y="-86.3" font-family="Times,serif" font-size="14.00">pytest_cache_assert._check_assert</text>
</g>
<!-- pytest_cache_assert._check_assert.caching -->
<g id="node3" class="node">
<title>pytest_cache_assert._check_assert.caching</title>
<polygon fill="none" stroke="black" points="322,-180 0,-180 0,-144 322,-144 322,-180"/>
<text text-anchor="middle" x="161" y="-158.3" font-family="Times,serif" font-size="14.00">pytest_cache_assert._check_assert.caching</text>
</g>
<!-- pytest_cache_assert._check_assert.caching&#45;&gt;pytest_cache_assert._check_assert.constants -->
<g id="edge3" class="edge">
<title>pytest_cache_assert._check_assert.caching&#45;&gt;pytest_cache_assert._check_assert.constants</title>
<path fill="none" stroke="black" d="M188.79,-180.01C222.48,-199.94 281.54,-232.71 336,-252 377.01,-266.53 423.32,-277.74 464.72,-286.03"/>
<polygon fill="black" stroke="black" points="474.58,-287.97 463.9,-290.45 469.67,-287 464.77,-286.04 464.77,-286.04 464.77,-286.04 469.67,-287 465.63,-281.62 474.58,-287.97 474.58,-287.97"/>
</g>
<!-- pytest_cache_assert._check_assert.differ -->
<g id="node5" class="node">
<title>pytest_cache_assert._check_assert.differ</title>
<polygon fill="none" stroke="black" points="899.5,-180 594.5,-180 594.5,-144 899.5,-144 899.5,-180"/>
<text text-anchor="middle" x="747" y="-158.3" font-family="Times,serif" font-size="14.00">pytest_cache_assert._check_assert.differ</text>
</g>
<!-- pytest_cache_assert._check_assert.differ&#45;&gt;pytest_cache_assert._check_assert.constants -->
<g id="edge4" class="edge">
<title>pytest_cache_assert._check_assert.differ&#45;&gt;pytest_cache_assert._check_assert.constants</title>
<path fill="none" stroke="black" d="M756.26,-180.2C765.28,-199.57 775.56,-231.07 760,-252 749.82,-265.7 736.2,-275.99 721.04,-283.7"/>
<polygon fill="black" stroke="black" points="711.94,-287.94 719.1,-279.64 716.47,-285.83 721,-283.71 721,-283.71 721,-283.71 716.47,-285.83 722.91,-287.79 711.94,-287.94 711.94,-287.94"/>
</g>
<!-- pytest_cache_assert._check_assert.differ&#45;&gt;pytest_cache_assert._check_assert.key_rules -->
<g id="edge5" class="edge">
<title>pytest_cache_assert._check_assert.differ&#45;&gt;pytest_cache_assert._check_assert.key_rules</title>
<path fill="none" stroke="black" d="M707.13,-180.12C684.84,-189.69 656.88,-201.7 633.24,-211.85"/>
<polygon fill="black" stroke="black" points="623.74,-215.93 631.16,-207.85 628.34,-213.96 632.93,-211.99 632.93,-211.99 632.93,-211.99 628.34,-213.96 634.71,-216.12 623.74,-215.93 623.74,-215.93"/>
</g>
<!-- pytest_cache_assert._check_assert.error_message -->
<g id="node6" class="node">
<title>pytest_cache_assert._check_assert.error_message</title>
<polygon fill="none" stroke="black" points="1005.5,-108 632.5,-108 632.5,-72 1005.5,-72 1005.5,-108"/>
<text text-anchor="middle" x="819" y="-86.3" font-family="Times,serif" font-size="14.00">pytest_cache_assert._check_assert.error_message</text>
</g>
<!-- pytest_cache_assert._check_assert.error_message&#45;&gt;pytest_cache_assert._check_assert.constants -->
<g id="edge6" class="edge">
<title>pytest_cache_assert._check_assert.error_message&#45;&gt;pytest_cache_assert._check_assert.constants</title>
<path fill="none" stroke="black" d="M867.03,-108.15C882.97,-116.4 898.94,-128.05 908,-144 915.91,-157.91 916.1,-166.2 908,-180 874.32,-237.37 809.47,-268.51 746.59,-285.37"/>
<polygon fill="black" stroke="black" points="736.52,-287.95 745.09,-281.11 741.36,-286.71 746.21,-285.47 746.21,-285.47 746.21,-285.47 741.36,-286.71 747.33,-289.83 736.52,-287.95 736.52,-287.95"/>
</g>
<!-- pytest_cache_assert._check_assert.error_message&#45;&gt;pytest_cache_assert._check_assert.differ -->
<g id="edge7" class="edge">
<title>pytest_cache_assert._check_assert.error_message&#45;&gt;pytest_cache_assert._check_assert.differ</title>
<path fill="none" stroke="black" d="M801.2,-108.3C792.4,-116.86 781.62,-127.34 772,-136.7"/>
<polygon fill="black" stroke="black" points="764.59,-143.9 768.63,-133.7 768.18,-140.41 771.76,-136.92 771.76,-136.92 771.76,-136.92 768.18,-140.41 774.9,-140.15 764.59,-143.9 764.59,-143.9"/>
</g>
<!-- pytest_cache_assert._check_assert.key_rules&#45;&gt;pytest_cache_assert._check_assert.constants -->
<g id="edge8" class="edge">
<title>pytest_cache_assert._check_assert.key_rules&#45;&gt;pytest_cache_assert._check_assert.constants</title>
<path fill="none" stroke="black" d="M584,-252.3C584,-260.02 584,-269.29 584,-277.89"/>
<polygon fill="black" stroke="black" points="584,-287.9 579.5,-277.9 584,-282.9 584,-277.9 584,-277.9 584,-277.9 584,-282.9 588.5,-277.9 584,-287.9 584,-287.9"/>
</g>
<!-- pytest_cache_assert.main -->
<g id="node8" class="node">
<title>pytest_cache_assert.main</title>
<polygon fill="none" stroke="black" points="666,-36 466,-36 466,0 666,0 666,-36"/>
<text text-anchor="middle" x="566" y="-14.3" font-family="Times,serif" font-size="14.00">pytest_cache_assert.main</text>
</g>
<!-- pytest_cache_assert.main&#45;&gt;pytest_cache_assert._check_assert -->
<g id="edge9" class="edge">
<title>pytest_cache_assert.main&#45;&gt;pytest_cache_assert._check_assert</title>
<path fill="none" stroke="black" d="M465.78,-35.95C404.45,-46.32 325.9,-59.6 262.73,-70.28"/>
<polygon fill="black" stroke="black" points="252.73,-71.97 261.84,-65.86 257.66,-71.13 262.59,-70.3 262.59,-70.3 262.59,-70.3 257.66,-71.13 263.34,-74.74 252.73,-71.97 252.73,-71.97"/>
</g>
<!-- pytest_cache_assert.main&#45;&gt;pytest_cache_assert._check_assert.caching -->
<g id="edge10" class="edge">
<title>pytest_cache_assert.main&#45;&gt;pytest_cache_assert._check_assert.caching</title>
<path fill="none" stroke="black" d="M465.82,-31.79C424.19,-39.68 376.28,-52.24 336,-72 313.32,-83.13 313.74,-95.12 292,-108 270.49,-120.75 245.33,-131.75 222.85,-140.37"/>
<polygon fill="black" stroke="black" points="213.4,-143.92 221.18,-136.19 218.08,-142.16 222.76,-140.41 222.76,-140.41 222.76,-140.41 218.08,-142.16 224.34,-144.62 213.4,-143.92 213.4,-143.92"/>
</g>
<!-- pytest_cache_assert.main&#45;&gt;pytest_cache_assert._check_assert.constants -->
<g id="edge11" class="edge">
<title>pytest_cache_assert.main&#45;&gt;pytest_cache_assert._check_assert.constants</title>
<path fill="none" stroke="black" d="M512.79,-36.15C465.51,-54.54 399.35,-88.81 369,-144 361.29,-158.02 365.96,-164.29 369,-180 375.56,-213.87 372.36,-228.92 398,-252 414.02,-266.41 433.69,-276.93 454.18,-284.6"/>
<polygon fill="black" stroke="black" points="463.65,-287.93 452.72,-288.86 458.93,-286.27 454.21,-284.61 454.21,-284.61 454.21,-284.61 458.93,-286.27 455.7,-280.36 463.65,-287.93 463.65,-287.93"/>
</g>
<!-- pytest_cache_assert.main&#45;&gt;pytest_cache_assert._check_assert.differ -->
<g id="edge12" class="edge">
<title>pytest_cache_assert.main&#45;&gt;pytest_cache_assert._check_assert.differ</title>
<path fill="none" stroke="black" d="M573.24,-36.26C582.28,-55.98 599.47,-88.08 623,-108 639.05,-121.59 659.09,-132.16 678.36,-140.17"/>
<polygon fill="black" stroke="black" points="687.74,-143.89 676.78,-144.38 683.09,-142.05 678.44,-140.2 678.44,-140.2 678.44,-140.2 683.09,-142.05 680.1,-136.02 687.74,-143.89 687.74,-143.89"/>
</g>
<!-- pytest_cache_assert.main&#45;&gt;pytest_cache_assert._check_assert.error_message -->
<g id="edge13" class="edge">
<title>pytest_cache_assert.main&#45;&gt;pytest_cache_assert._check_assert.error_message</title>
<path fill="none" stroke="black" d="M621.68,-36.03C656.89,-46.07 702.85,-58.81 741.58,-69.28"/>
<polygon fill="black" stroke="black" points="751.26,-71.89 740.43,-73.63 746.43,-70.59 741.61,-69.29 741.61,-69.29 741.61,-69.29 746.43,-70.59 742.78,-64.94 751.26,-71.89 751.26,-71.89"/>
</g>
<!-- pytest_cache_assert.main&#45;&gt;pytest_cache_assert._check_assert.error_message -->
<g id="edge14" class="edge">
<title>pytest_cache_assert.main&#45;&gt;pytest_cache_assert._check_assert.error_message</title>
<path fill="none" stroke="black" d="M633.45,-36.03C670.63,-46.03 716.52,-58.7 753.4,-69.15"/>
<polygon fill="black" stroke="black" points="763.05,-71.89 752.2,-73.49 758.24,-70.52 753.43,-69.16 753.43,-69.16 753.43,-69.16 758.24,-70.52 754.66,-64.83 763.05,-71.89 763.05,-71.89"/>
</g>
<!-- pytest_cache_assert.main&#45;&gt;pytest_cache_assert._check_assert.key_rules -->
<g id="edge15" class="edge">
<title>pytest_cache_assert.main&#45;&gt;pytest_cache_assert._check_assert.key_rules</title>
<path fill="none" stroke="black" d="M567.44,-36.15C570.56,-73.17 577.93,-160.82 581.7,-205.61"/>
<polygon fill="black" stroke="black" points="582.55,-215.77 577.23,-206.18 582.13,-210.79 581.71,-205.8 581.71,-205.8 581.71,-205.8 582.13,-210.79 586.2,-205.43 582.55,-215.77 582.55,-215.77"/>
</g>
<!-- pytest_cache_assert.plugin -->
<g id="node9" class="node">
<title>pytest_cache_assert.plugin</title>
<polygon fill="none" stroke="black" points="1165.5,-252 956.5,-252 956.5,-216 1165.5,-216 1165.5,-252"/>
<text text-anchor="middle" x="1061" y="-230.3" font-family="Times,serif" font-size="14.00">pytest_cache_assert.plugin</text>
</g>
<!-- pytest_cache_assert.plugin&#45;&gt;pytest_cache_assert._check_assert.constants -->
<g id="edge16" class="edge">
<title>pytest_cache_assert.plugin&#45;&gt;pytest_cache_assert._check_assert.constants</title>
<path fill="none" stroke="black" d="M956.32,-250.36C883.88,-260.99 787.09,-275.2 710.35,-286.46"/>
<polygon fill="black" stroke="black" points="700.14,-287.96 709.38,-282.05 705.09,-287.23 710.04,-286.5 710.04,-286.5 710.04,-286.5 705.09,-287.23 710.69,-290.96 700.14,-287.96 700.14,-287.96"/>
</g>
</g>
</svg>
