<?xml version="1.0" encoding="UTF-8" standalone="no"?>
<!DOCTYPE svg PUBLIC "-//W3C//DTD SVG 1.1//EN"
 "http://www.w3.org/Graphics/SVG/1.1/DTD/svg11.dtd">
<!-- Generated by graphviz version 2.50.0 (20211204.2007)
 -->
<!-- Title: packages Pages: 1 -->
<svg width="1066pt" height="332pt"
 viewBox="0.00 0.00 1065.87 332.00" xmlns="http://www.w3.org/2000/svg" xmlns:xlink="http://www.w3.org/1999/xlink">
<g id="graph0" class="graph" transform="scale(1 1) rotate(0) translate(4 328)">
<title>packages</title>
<polygon fill="white" stroke="transparent" points="-4,4 -4,-328 1061.87,-328 1061.87,4 -4,4"/>
<!-- pytest_cache_assert -->
<g id="node1" class="node">
<title>pytest_cache_assert</title>
<polygon fill="none" stroke="black" points="316.87,-180 192.87,-180 192.87,-144 316.87,-144 316.87,-180"/>
<text text-anchor="middle" x="254.87" y="-158.3" font-family="Times,serif" font-size="14.00">pytest_cache_assert</text>
</g>
<!-- pytest_cache_assert._check_assert.constants -->
<g id="node5" class="node">
<title>pytest_cache_assert._check_assert.constants</title>
<polygon fill="none" stroke="black" points="489.37,-324 232.37,-324 232.37,-288 489.37,-288 489.37,-324"/>
<text text-anchor="middle" x="360.87" y="-302.3" font-family="Times,serif" font-size="14.00">pytest_cache_assert._check_assert.constants</text>
</g>
<!-- pytest_cache_assert&#45;&gt;pytest_cache_assert._check_assert.constants -->
<g id="edge1" class="edge">
<title>pytest_cache_assert&#45;&gt;pytest_cache_assert._check_assert.constants</title>
<path fill="none" stroke="black" d="M239.48,-180.25C224.62,-199.11 206.45,-229.61 221.87,-252 231.49,-265.96 245.31,-276.24 260.54,-283.82"/>
<polygon fill="black" stroke="black" points="269.66,-287.97 258.69,-287.92 265.11,-285.9 260.56,-283.82 260.56,-283.82 260.56,-283.82 265.11,-285.9 262.43,-279.73 269.66,-287.97 269.66,-287.97"/>
</g>
<!-- pytest_cache_assert._check_assert.key_rules -->
<g id="node8" class="node">
<title>pytest_cache_assert._check_assert.key_rules</title>
<polygon fill="none" stroke="black" points="490.87,-252 230.87,-252 230.87,-216 490.87,-216 490.87,-252"/>
<text text-anchor="middle" x="360.87" y="-230.3" font-family="Times,serif" font-size="14.00">pytest_cache_assert._check_assert.key_rules</text>
</g>
<!-- pytest_cache_assert&#45;&gt;pytest_cache_assert._check_assert.key_rules -->
<g id="edge2" class="edge">
<title>pytest_cache_assert&#45;&gt;pytest_cache_assert._check_assert.key_rules</title>
<path fill="none" stroke="black" d="M280.8,-180.12C294.54,-189.19 311.58,-200.45 326.41,-210.24"/>
<polygon fill="black" stroke="black" points="334.84,-215.81 324.02,-214.05 330.67,-213.05 326.5,-210.3 326.5,-210.3 326.5,-210.3 330.67,-213.05 328.98,-206.54 334.84,-215.81 334.84,-215.81"/>
</g>
<!-- pytest_cache_assert._check_assert -->
<g id="node2" class="node">
<title>pytest_cache_assert._check_assert</title>
<polygon fill="none" stroke="black" points="652.37,-108 449.37,-108 449.37,-72 652.37,-72 652.37,-108"/>
<text text-anchor="middle" x="550.87" y="-86.3" font-family="Times,serif" font-size="14.00">pytest_cache_assert._check_assert</text>
</g>
<!-- pytest_cache_assert._check_assert.caching -->
<g id="node3" class="node">
<title>pytest_cache_assert._check_assert.caching</title>
<polygon fill="none" stroke="black" points="877.37,-180 628.37,-180 628.37,-144 877.37,-144 877.37,-180"/>
<text text-anchor="middle" x="752.87" y="-158.3" font-family="Times,serif" font-size="14.00">pytest_cache_assert._check_assert.caching</text>
</g>
<!-- pytest_cache_assert._check_assert.caching&#45;&gt;pytest_cache_assert._check_assert.constants -->
<g id="edge3" class="edge">
<title>pytest_cache_assert._check_assert.caching&#45;&gt;pytest_cache_assert._check_assert.constants</title>
<path fill="none" stroke="black" d="M709.31,-180.05C662.26,-198.32 585.03,-227.96 517.87,-252 486.61,-263.19 451.61,-275.07 422.61,-284.74"/>
<polygon fill="black" stroke="black" points="413.02,-287.93 421.08,-280.5 417.76,-286.35 422.5,-284.77 422.5,-284.77 422.5,-284.77 417.76,-286.35 423.92,-289.04 413.02,-287.93 413.02,-287.93"/>
</g>
<!-- pytest_cache_assert._check_assert.serializer -->
<g id="node9" class="node">
<title>pytest_cache_assert._check_assert.serializer</title>
<polygon fill="none" stroke="black" points="885.37,-252 628.37,-252 628.37,-216 885.37,-216 885.37,-252"/>
<text text-anchor="middle" x="756.87" y="-230.3" font-family="Times,serif" font-size="14.00">pytest_cache_assert._check_assert.serializer</text>
</g>
<!-- pytest_cache_assert._check_assert.caching&#45;&gt;pytest_cache_assert._check_assert.serializer -->
<g id="edge4" class="edge">
<title>pytest_cache_assert._check_assert.caching&#45;&gt;pytest_cache_assert._check_assert.serializer</title>
<path fill="none" stroke="black" d="M753.86,-180.3C754.3,-188.02 754.83,-197.29 755.33,-205.89"/>
<polygon fill="black" stroke="black" points="755.9,-215.9 750.83,-206.17 755.61,-210.9 755.33,-205.91 755.33,-205.91 755.33,-205.91 755.61,-210.9 759.82,-205.66 755.9,-215.9 755.9,-215.9"/>
</g>
<!-- pytest_cache_assert._check_assert.config -->
<g id="node4" class="node">
<title>pytest_cache_assert._check_assert.config</title>
<polygon fill="none" stroke="black" points="985.37,-324 744.37,-324 744.37,-288 985.37,-288 985.37,-324"/>
<text text-anchor="middle" x="864.87" y="-302.3" font-family="Times,serif" font-size="14.00">pytest_cache_assert._check_assert.config</text>
</g>
<!-- pytest_cache_assert._check_assert.differ -->
<g id="node6" class="node">
<title>pytest_cache_assert._check_assert.differ</title>
<polygon fill="none" stroke="black" points="610.37,-180 373.37,-180 373.37,-144 610.37,-144 610.37,-180"/>
<text text-anchor="middle" x="491.87" y="-158.3" font-family="Times,serif" font-size="14.00">pytest_cache_assert._check_assert.differ</text>
</g>
<!-- pytest_cache_assert._check_assert.differ&#45;&gt;pytest_cache_assert._check_assert.constants -->
<g id="edge5" class="edge">
<title>pytest_cache_assert._check_assert.differ&#45;&gt;pytest_cache_assert._check_assert.constants</title>
<path fill="none" stroke="black" d="M499.43,-180.06C506.69,-199.29 514.57,-230.67 499.87,-252 490.26,-265.96 476.44,-276.24 461.2,-283.82"/>
<polygon fill="black" stroke="black" points="452.09,-287.97 459.32,-279.73 456.64,-285.9 461.19,-283.82 461.19,-283.82 461.19,-283.82 456.64,-285.9 463.06,-287.92 452.09,-287.97 452.09,-287.97"/>
</g>
<!-- pytest_cache_assert._check_assert.differ&#45;&gt;pytest_cache_assert._check_assert.key_rules -->
<g id="edge6" class="edge">
<title>pytest_cache_assert._check_assert.differ&#45;&gt;pytest_cache_assert._check_assert.key_rules</title>
<path fill="none" stroke="black" d="M459.83,-180.12C442.38,-189.45 420.61,-201.08 401.93,-211.06"/>
<polygon fill="black" stroke="black" points="393.04,-215.81 399.74,-207.13 397.45,-213.45 401.86,-211.1 401.86,-211.1 401.86,-211.1 397.45,-213.45 403.98,-215.07 393.04,-215.81 393.04,-215.81"/>
</g>
<!-- pytest_cache_assert._check_assert.differ&#45;&gt;pytest_cache_assert._check_assert.serializer -->
<g id="edge7" class="edge">
<title>pytest_cache_assert._check_assert.differ&#45;&gt;pytest_cache_assert._check_assert.serializer</title>
<path fill="none" stroke="black" d="M556.36,-180.03C594.35,-190.07 642.58,-202.81 682.22,-213.28"/>
<polygon fill="black" stroke="black" points="692.1,-215.89 681.28,-217.69 687.26,-214.61 682.43,-213.34 682.43,-213.34 682.43,-213.34 687.26,-214.61 683.58,-208.98 692.1,-215.89 692.1,-215.89"/>
</g>
<!-- pytest_cache_assert._check_assert.error_message -->
<g id="node7" class="node">
<title>pytest_cache_assert._check_assert.error_message</title>
<polygon fill="none" stroke="black" points="316.37,-108 29.37,-108 29.37,-72 316.37,-72 316.37,-108"/>
<text text-anchor="middle" x="172.87" y="-86.3" font-family="Times,serif" font-size="14.00">pytest_cache_assert._check_assert.error_message</text>
</g>
<!-- pytest_cache_assert._check_assert.error_message&#45;&gt;pytest_cache_assert._check_assert.constants -->
<g id="edge8" class="edge">
<title>pytest_cache_assert._check_assert.error_message&#45;&gt;pytest_cache_assert._check_assert.constants</title>
<path fill="none" stroke="black" d="M171.57,-108.17C170.1,-141.08 171.95,-213.23 211.87,-252 226.6,-266.3 245.43,-276.77 264.72,-284.43"/>
<polygon fill="black" stroke="black" points="274.21,-287.96 263.26,-288.69 269.52,-286.22 264.84,-284.47 264.84,-284.47 264.84,-284.47 269.52,-286.22 266.41,-280.25 274.21,-287.96 274.21,-287.96"/>
</g>
<!-- pytest_cache_assert._check_assert.error_message&#45;&gt;pytest_cache_assert._check_assert.differ -->
<g id="edge9" class="edge">
<title>pytest_cache_assert._check_assert.error_message&#45;&gt;pytest_cache_assert._check_assert.differ</title>
<path fill="none" stroke="black" d="M250.5,-108.03C297,-118.24 356.24,-131.24 404.39,-141.8"/>
<polygon fill="black" stroke="black" points="414.17,-143.95 403.44,-146.2 409.29,-142.88 404.41,-141.81 404.41,-141.81 404.41,-141.81 409.29,-142.88 405.37,-137.41 414.17,-143.95 414.17,-143.95"/>
</g>
<!-- pytest_cache_assert._check_assert.key_rules&#45;&gt;pytest_cache_assert._check_assert.constants -->
<g id="edge10" class="edge">
<title>pytest_cache_assert._check_assert.key_rules&#45;&gt;pytest_cache_assert._check_assert.constants</title>
<path fill="none" stroke="black" d="M360.87,-252.3C360.87,-260.02 360.87,-269.29 360.87,-277.89"/>
<polygon fill="black" stroke="black" points="360.87,-287.9 356.37,-277.9 360.87,-282.9 360.87,-277.9 360.87,-277.9 360.87,-277.9 360.87,-282.9 365.37,-277.9 360.87,-287.9 360.87,-287.9"/>
</g>
<!-- pytest_cache_assert._check_assert.serializer&#45;&gt;pytest_cache_assert._check_assert.config -->
<g id="edge11" class="edge">
<title>pytest_cache_assert._check_assert.serializer&#45;&gt;pytest_cache_assert._check_assert.config</title>
<path fill="none" stroke="black" d="M783.29,-252.12C797.28,-261.19 814.65,-272.45 829.76,-282.24"/>
<polygon fill="black" stroke="black" points="838.35,-287.81 827.51,-286.15 834.16,-285.09 829.96,-282.37 829.96,-282.37 829.96,-282.37 834.16,-285.09 832.41,-278.6 838.35,-287.81 838.35,-287.81"/>
</g>
<!-- pytest_cache_assert.main -->
<g id="node10" class="node">
<title>pytest_cache_assert.main</title>
<polygon fill="none" stroke="black" points="422.37,-36 267.37,-36 267.37,0 422.37,0 422.37,-36"/>
<text text-anchor="middle" x="344.87" y="-14.3" font-family="Times,serif" font-size="14.00">pytest_cache_assert.main</text>
</g>
<!-- pytest_cache_assert.main&#45;&gt;pytest_cache_assert._check_assert -->
<g id="edge12" class="edge">
<title>pytest_cache_assert.main&#45;&gt;pytest_cache_assert._check_assert</title>
<path fill="none" stroke="black" d="M395,-36.03C423.91,-45.86 460.44,-58.27 490.87,-68.61"/>
<polygon fill="black" stroke="black" points="500.52,-71.89 489.6,-72.93 495.79,-70.28 491.05,-68.67 491.05,-68.67 491.05,-68.67 495.79,-70.28 492.5,-64.41 500.52,-71.89 500.52,-71.89"/>
</g>
<!-- pytest_cache_assert.main&#45;&gt;pytest_cache_assert._check_assert.caching -->
<g id="edge13" class="edge">
<title>pytest_cache_assert.main&#45;&gt;pytest_cache_assert._check_assert.caching</title>
<path fill="none" stroke="black" d="M365.31,-36.01C377.34,-46.21 392.72,-59.57 405.87,-72 422.09,-87.33 421.12,-97.62 440.87,-108 457.32,-116.64 543.43,-130.94 621.03,-142.51"/>
<polygon fill="black" stroke="black" points="630.94,-143.98 620.39,-146.96 625.99,-143.24 621.05,-142.51 621.05,-142.51 621.05,-142.51 625.99,-143.24 621.71,-138.06 630.94,-143.98 630.94,-143.98"/>
</g>
<!-- pytest_cache_assert.main&#45;&gt;pytest_cache_assert._check_assert.constants -->
<g id="edge14" class="edge">
<title>pytest_cache_assert.main&#45;&gt;pytest_cache_assert._check_assert.constants</title>
<path fill="none" stroke="black" d="M267.09,-20.51C181.22,-24.02 50.98,-35.41 19.87,-72 -66.69,-173.82 153.58,-250.89 279.76,-285.27"/>
<polygon fill="black" stroke="black" points="289.42,-287.87 278.59,-289.62 284.59,-286.58 279.76,-285.28 279.76,-285.28 279.76,-285.28 284.59,-286.58 280.93,-280.93 289.42,-287.87 289.42,-287.87"/>
</g>
<!-- pytest_cache_assert.main&#45;&gt;pytest_cache_assert._check_assert.differ -->
<g id="edge15" class="edge">
<title>pytest_cache_assert.main&#45;&gt;pytest_cache_assert._check_assert.differ</title>
<path fill="none" stroke="black" d="M354.07,-36.28C364.87,-55.44 384.22,-86.47 406.87,-108 419.3,-119.81 434.75,-130.38 449.06,-138.91"/>
<polygon fill="black" stroke="black" points="457.79,-143.96 446.88,-142.85 453.46,-141.46 449.13,-138.95 449.13,-138.95 449.13,-138.95 453.46,-141.46 451.38,-135.06 457.79,-143.96 457.79,-143.96"/>
</g>
<!-- pytest_cache_assert.main&#45;&gt;pytest_cache_assert._check_assert.error_message -->
<g id="edge16" class="edge">
<title>pytest_cache_assert.main&#45;&gt;pytest_cache_assert._check_assert.error_message</title>
<path fill="none" stroke="black" d="M296.9,-36.12C272.28,-45.74 242.5,-57.81 218.26,-67.99"/>
<polygon fill="black" stroke="black" points="208.92,-71.93 216.38,-63.89 213.53,-69.99 218.13,-68.04 218.13,-68.04 218.13,-68.04 213.53,-69.99 219.89,-72.19 208.92,-71.93 208.92,-71.93"/>
</g>
<!-- pytest_cache_assert.main&#45;&gt;pytest_cache_assert._check_assert.error_message -->
<g id="edge17" class="edge">
<title>pytest_cache_assert.main&#45;&gt;pytest_cache_assert._check_assert.error_message</title>
<path fill="none" stroke="black" d="M308.7,-36.12C285.88,-45.82 256.02,-58.02 230.07,-68.26"/>
<polygon fill="black" stroke="black" points="220.7,-71.93 228.37,-64.09 225.36,-70.11 230.01,-68.28 230.01,-68.28 230.01,-68.28 225.36,-70.11 231.66,-72.47 220.7,-71.93 220.7,-71.93"/>
</g>
<!-- pytest_cache_assert.main&#45;&gt;pytest_cache_assert._check_assert.key_rules -->
<g id="edge18" class="edge">
<title>pytest_cache_assert.main&#45;&gt;pytest_cache_assert._check_assert.key_rules</title>
<path fill="none" stroke="black" d="M346.16,-36.15C348.92,-73.17 355.48,-160.82 358.83,-205.61"/>
<polygon fill="black" stroke="black" points="359.59,-215.77 354.35,-206.13 359.21,-210.78 358.84,-205.8 358.84,-205.8 358.84,-205.8 359.21,-210.78 363.33,-205.46 359.59,-215.77 359.59,-215.77"/>
</g>
<!-- pytest_cache_assert.plugin -->
<g id="node11" class="node">
<title>pytest_cache_assert.plugin</title>
<polygon fill="none" stroke="black" points="1057.87,-180 895.87,-180 895.87,-144 1057.87,-144 1057.87,-180"/>
<text text-anchor="middle" x="976.87" y="-158.3" font-family="Times,serif" font-size="14.00">pytest_cache_assert.plugin</text>
</g>
<!-- pytest_cache_assert.plugin&#45;&gt;pytest_cache_assert._check_assert.config -->
<g id="edge19" class="edge">
<title>pytest_cache_assert.plugin&#45;&gt;pytest_cache_assert._check_assert.config</title>
<path fill="none" stroke="black" d="M973.3,-180.26C968.65,-199.4 959.02,-230.42 941.87,-252 932.44,-263.87 919.64,-274.14 907.18,-282.39"/>
<polygon fill="black" stroke="black" points="898.65,-287.78 904.71,-278.63 902.88,-285.11 907.11,-282.43 907.11,-282.43 907.11,-282.43 902.88,-285.11 909.51,-286.24 898.65,-287.78 898.65,-287.78"/>
</g>
<!-- pytest_cache_assert.plugin&#45;&gt;pytest_cache_assert._check_assert.constants -->
<g id="edge20" class="edge">
<title>pytest_cache_assert.plugin&#45;&gt;pytest_cache_assert._check_assert.constants</title>
<path fill="none" stroke="black" d="M966.63,-180.25C953.11,-201.24 927.21,-235.87 894.87,-252 827.82,-285.44 634.22,-297.78 499.56,-302.34"/>
<polygon fill="black" stroke="black" points="489.56,-302.66 499.41,-297.84 494.56,-302.5 499.56,-302.34 499.56,-302.34 499.56,-302.34 494.56,-302.5 499.7,-306.83 489.56,-302.66 489.56,-302.66"/>
</g>
<!-- pytest_cache_assert.plugin&#45;&gt;pytest_cache_assert._check_assert.serializer -->
<g id="edge21" class="edge">
<title>pytest_cache_assert.plugin&#45;&gt;pytest_cache_assert._check_assert.serializer</title>
<path fill="none" stroke="black" d="M923.34,-180.03C892.33,-189.9 853.11,-202.38 820.53,-212.75"/>
<polygon fill="black" stroke="black" points="810.65,-215.89 818.82,-208.57 815.42,-214.37 820.18,-212.86 820.18,-212.86 820.18,-212.86 815.42,-214.37 821.54,-217.15 810.65,-215.89 810.65,-215.89"/>
</g>
</g>
</svg>
